<svg width="148" height="50" viewBox="0 0 148 50" fill="none" xmlns="http://www.w3.org/2000/svg">
<path d="M19.9553 4.07506C30.3553 3.06506 38.7153 12.4051 36.6753 22.6351C35.4453 28.8051 30.8353 35.8351 27.0853 40.8251C25.8753 42.4351 24.1453 44.8251 22.7553 46.2051C22.2053 46.7451 21.8153 47.0651 20.9853 46.7951C20.3853 46.6051 17.7453 43.1751 17.1553 42.4251C12.2353 36.1851 4.95535 25.5951 6.12535 17.3451C7.11535 10.3851 12.9553 4.74506 19.9653 4.06506L19.9553 4.07506ZM20.6253 11.7751C10.5953 12.8751 11.8453 28.5551 22.7353 27.2751C32.2553 26.1551 30.9453 10.6451 20.6253 11.7751Z" fill="#C7B299"/>
<path d="M51.5796 31.0959C52.1945 30.8671 52.8953 30.5953 53.6818 30.2664C54.4683 29.9518 55.312 29.5943 56.213 29.2225C57.0996 28.8507 58.0006 28.4789 58.8729 28.1071L59.259 29.6372C58.0435 30.1806 56.8136 30.7384 55.5838 31.3104C54.3539 31.8681 53.2528 32.3686 52.2517 32.7976L51.5653 31.0816L51.5796 31.0959ZM51.9943 21.1141H58.8586V22.7444H51.9943V21.1141ZM54.7687 15.8801H56.3989V30.7241H54.7687V15.8801ZM58.1579 25.0324L70.4706 19.8414L71.1285 21.3L58.8014 26.5626L58.1579 25.0324ZM60.6176 17.7392H62.2621V33.0693C62.2621 33.4841 62.305 33.7987 62.4051 34.0132C62.4909 34.242 62.6625 34.385 62.9199 34.4565C63.1773 34.528 63.5634 34.5709 64.0783 34.5709H69.5983C70.0559 34.5709 70.3991 34.4851 70.6136 34.3135C70.8424 34.1419 70.9997 33.813 71.0998 33.341C71.1999 32.8691 71.2858 32.197 71.343 31.3247C71.5432 31.482 71.7863 31.6107 72.0866 31.7394C72.3869 31.8681 72.6443 31.9396 72.8731 31.9682C72.8016 33.0264 72.6586 33.8559 72.4584 34.4565C72.2582 35.0571 71.9436 35.5004 71.5146 35.7435C71.0855 36.0009 70.4706 36.1154 69.6698 36.1154H64.0211C63.1488 36.1154 62.4623 36.0295 61.9761 35.8579C61.4756 35.6863 61.1324 35.3717 60.9322 34.9141C60.732 34.4565 60.6319 33.8273 60.6319 32.9978V17.7106L60.6176 17.7392ZM65.3367 15.6084H66.967V31.5535H65.3367V15.6084ZM70.0273 20.4134H69.7699L70.4563 19.8414L71.7863 20.2704L71.7005 20.5707C71.629 21.6575 71.5288 22.8159 71.4144 24.0314C71.3 25.247 71.1713 26.4482 71.014 27.6065C70.8567 28.7649 70.6851 29.7802 70.4849 30.6526L69.0834 30.2378C69.1836 29.6229 69.298 28.9222 69.3981 28.1214C69.4982 27.3205 69.584 26.4768 69.6698 25.5902C69.7556 24.7035 69.8271 23.8169 69.87 22.916C69.9272 22.015 69.9701 21.1713 70.013 20.3991L70.0273 20.4134Z" fill="#C7B299"/>
<path d="M75.5616 16.5381H94.7387V36.6303H93.0655V17.9824H77.1919V36.6303H75.5616V16.5381ZM76.577 34.2564H93.9378V35.7151H76.577V34.2564ZM78.2645 23.6883H92.0359V24.7609H78.2645V23.6883ZM79.8232 25.7619H90.4199V33.0123H79.8232V25.7619ZM80.5526 19.0836H89.6763V22.6301H80.5526V19.0836ZM81.1961 26.8345V31.9397H88.9755V26.8345H81.1961ZM81.9683 20.0846V21.6005H88.189V20.0846H81.9683ZM82.6547 27.8069H87.5312V30.9673H82.6547V27.8069ZM83.7415 28.7221V30.0664H86.4015V28.7221H83.7415ZM84.2993 21.9437H85.7866V24.1889H84.2993V21.9437Z" fill="#C7B299"/>
<path d="M97.8274 30.6812H118.106V32.0541H97.8274V30.6812ZM102.432 22.487H102.976L103.247 22.4155L103.891 22.8731C103.419 24.4605 102.718 25.8333 101.803 26.9917C100.873 28.15 99.8724 29.0653 98.7712 29.7374C98.7283 29.6087 98.6425 29.48 98.5424 29.3084C98.428 29.1511 98.3279 28.9938 98.1992 28.8508C98.0848 28.7078 97.9561 28.5933 97.856 28.5218C98.8714 27.9641 99.8009 27.1776 100.63 26.1766C101.46 25.1755 102.06 24.0315 102.432 22.7301V22.4727V22.487ZM98.5853 24.2031C98.5567 24.0887 98.4995 23.9314 98.428 23.7312C98.3565 23.5453 98.2707 23.3594 98.1992 23.1877C98.1277 23.0161 98.0562 22.8731 97.999 22.7587C98.142 22.7301 98.2993 22.6729 98.4852 22.5871C98.6712 22.5013 98.8713 22.3726 99.0715 22.1867C99.2288 22.0437 99.4434 21.8435 99.7294 21.5575C100.015 21.2715 100.33 20.9569 100.673 20.6137C101.002 20.2704 101.331 19.9415 101.617 19.6126C101.903 19.2837 102.146 19.0263 102.318 18.8118V18.7403L102.818 18.5401L103.848 19.1407C103.533 19.5125 103.119 19.9415 102.632 20.4277C102.146 20.9283 101.646 21.4145 101.145 21.915C100.645 22.4155 100.187 22.8445 99.7723 23.202C99.5435 23.3308 99.3433 23.4309 99.1716 23.531C99 23.6311 98.8571 23.7312 98.7426 23.8456C98.6282 23.96 98.571 24.0744 98.571 24.1745L98.5853 24.2031ZM98.142 18.7403H102.718V20.1417H98.142V18.7403ZM98.5853 24.2031V22.8731L99.4148 22.487H102.875L102.847 23.8885H99.9153C99.6436 23.8885 99.3718 23.9171 99.1144 23.9743C98.857 24.0315 98.6854 24.1173 98.5853 24.2031ZM99.3147 16.0232L100.73 15.6514C101.031 15.9946 101.331 16.3664 101.617 16.7811C101.903 17.1958 102.118 17.5676 102.289 17.868L100.802 18.3256C100.645 18.0253 100.43 17.6534 100.144 17.2101C99.8581 16.7668 99.5864 16.3664 99.3147 16.0232ZM102.361 25.2613C102.732 26.0336 103.219 26.6056 103.848 26.9774C104.477 27.3492 105.264 27.578 106.222 27.6924C107.18 27.8068 108.324 27.864 109.683 27.864C110.598 27.864 111.585 27.864 112.643 27.8354C113.701 27.8068 114.759 27.7782 115.803 27.7353C116.847 27.6924 117.777 27.6352 118.606 27.5494C118.492 27.7353 118.406 27.9784 118.306 28.2787C118.22 28.579 118.148 28.8365 118.106 29.051C117.333 29.0796 116.461 29.1225 115.517 29.1511C114.573 29.1797 113.601 29.2226 112.614 29.2369C111.627 29.2512 110.655 29.2655 109.725 29.2655C108.109 29.2655 106.765 29.1797 105.693 29.0081C104.62 28.8365 103.748 28.5075 103.076 28.007C102.404 27.5065 101.832 26.7629 101.388 25.7475L102.346 25.247L102.361 25.2613ZM102.103 33.0122L103.29 32.0541C103.877 32.4545 104.463 32.9264 105.063 33.4555C105.664 33.9989 106.122 34.4852 106.451 34.9142L105.192 35.9867C104.992 35.6864 104.72 35.3575 104.391 35C104.062 34.6425 103.691 34.2993 103.29 33.9417C102.89 33.5842 102.504 33.2839 102.103 32.9979V33.0122ZM103.662 17.7106H117.934V18.9691H103.662V17.7106ZM105.192 20.1131H116.132V26.9774H105.192V20.1131ZM106.451 15.966L107.823 15.5513C108.081 15.8373 108.324 16.1805 108.567 16.5666C108.81 16.9527 108.982 17.2959 109.082 17.5819L107.623 18.0825C107.537 17.7822 107.38 17.4246 107.151 17.0242C106.923 16.6238 106.694 16.2663 106.451 15.9517V15.966ZM106.665 21.057V22.058H114.631V21.057H106.665ZM106.665 22.9732V24.0315H114.631V22.9732H106.665ZM106.665 24.9467V26.0479H114.631V24.9467H106.665ZM111.527 29.4514H113.2V34.714C113.2 35.1573 113.143 35.5005 113.015 35.7436C112.9 35.9867 112.643 36.1726 112.285 36.287C111.913 36.4014 111.441 36.4872 110.827 36.5015C110.226 36.5301 109.454 36.5301 108.51 36.5301C108.481 36.3013 108.41 36.0439 108.295 35.7722C108.181 35.5005 108.067 35.2574 107.938 35.0429C108.424 35.0572 108.882 35.0715 109.311 35.0715H111.07C111.256 35.0572 111.37 35.0286 111.442 34.9714C111.499 34.9142 111.527 34.8284 111.527 34.6854V29.4514ZM109.911 18.1397L111.627 18.297C111.441 18.726 111.256 19.1407 111.041 19.5411C110.841 19.9415 110.655 20.299 110.483 20.5994L109.111 20.3705C109.268 20.0416 109.411 19.6555 109.568 19.2265C109.725 18.7975 109.84 18.44 109.911 18.1254V18.1397ZM113.687 15.6085L115.317 15.9517C115.045 16.395 114.759 16.824 114.473 17.2387C114.187 17.6534 113.916 18.0253 113.672 18.3256L112.328 17.9824C112.557 17.6534 112.8 17.253 113.072 16.7954C113.343 16.3378 113.544 15.9374 113.701 15.6085H113.687Z" fill="#C7B299"/>
<path d="M127.372 32.2685H129.06C128.903 32.9406 128.66 33.527 128.316 34.0132C127.973 34.5137 127.501 34.9284 126.886 35.2716C126.271 35.6148 125.513 35.9008 124.584 36.1153C123.654 36.3299 122.525 36.5158 121.166 36.6588C121.123 36.4586 121.023 36.2298 120.851 35.958C120.694 35.6863 120.537 35.4861 120.38 35.3288C121.595 35.243 122.625 35.1143 123.454 34.957C124.284 34.7997 124.97 34.6138 125.485 34.3707C126.014 34.1276 126.429 33.8416 126.715 33.4984C127.001 33.1551 127.215 32.7404 127.344 32.2542L127.372 32.2685ZM130.633 16.3806V17.4818H122.996V23.345H130.819V24.4461H121.481V16.3949H130.633V16.3806ZM122.382 18.6258H129.975V22.015H122.382V20.9854H128.488V19.684H122.382V18.6258ZM123.883 25.4043H137.883V32.8119H123.883V25.4043ZM125.37 16.8382H126.786V18.9833H125.37V16.8382ZM125.37 21.4573H126.786V23.6596H125.37V21.4573ZM125.513 26.4482V27.5207H136.196V26.4482H125.513ZM125.513 28.5361V29.6372H136.196V28.5361H125.513ZM125.513 30.6382V31.7537H136.196V30.6382H125.513ZM133.035 15.6084L134.566 15.8658C134.28 16.6809 133.879 17.4675 133.393 18.2683C132.907 19.0691 132.249 19.7985 131.462 20.4706C131.305 20.299 131.119 20.1131 130.89 19.9272C130.662 19.7413 130.461 19.5982 130.275 19.5124C130.99 18.9547 131.577 18.3255 132.02 17.6248C132.463 16.924 132.807 16.2662 133.035 15.6227V15.6084ZM131.877 20.9997H140.729V24.5891H131.877V20.9997ZM132.263 32.1684H133.936V34.4136C133.936 34.6567 134.008 34.814 134.165 34.8855C134.323 34.957 134.666 34.9856 135.195 34.9856H138.813C139.113 34.9856 139.342 34.9427 139.471 34.8426C139.614 34.7568 139.714 34.5566 139.771 34.2563C139.828 33.956 139.871 33.4984 139.914 32.8977C140.086 32.9978 140.314 33.1122 140.6 33.2123C140.886 33.3124 141.144 33.3839 141.358 33.4268C141.301 34.2134 141.187 34.8283 141.044 35.243C140.901 35.6577 140.658 35.958 140.329 36.1153C140.014 36.2727 139.571 36.3585 138.999 36.3585H135.038C134.308 36.3585 133.736 36.3013 133.336 36.2012C132.935 36.0867 132.649 35.9008 132.506 35.6291C132.349 35.3574 132.278 34.957 132.278 34.4422V32.1827L132.263 32.1684ZM132.921 16.9383H141.087V18.1253H132.921V16.9383ZM133.107 19.0405H139.943V20.1131H133.107V19.0405ZM133.107 21.9864V23.631H134.508V21.9864H133.107ZM135.495 21.9864V23.631H136.954V21.9864H135.495ZM137.955 21.9864V23.631H139.442V21.9864H137.955Z" fill="#C7B299"/>
</svg>
