<svg width="148" height="50" viewBox="0 0 148 50" fill="none" xmlns="http://www.w3.org/2000/svg">
<path d="M32.1 4.35766V11.2177H26.66C26.44 11.2177 25.36 11.8177 25.15 12.0477C24.91 12.2977 24.4 13.3677 24.4 13.6477V19.7577H31.93L30.93 27.2877H24.4V46.8677H16.53V27.2877H10V19.7577H16.53V12.4777C16.53 11.3877 17.39 9.19766 17.97 8.22766C20.92 3.27766 27.1 3.76766 32.1 4.36766V4.35766Z" fill="#C7B299"/>
<path d="M52.1223 24.1261L53.2663 24.5551C52.9946 25.5704 52.6513 26.6429 52.2366 27.7726C51.8219 28.888 51.3644 29.9605 50.8639 30.9615C50.3634 31.9625 49.8485 32.8206 49.3051 33.507C49.2193 33.2496 49.0764 32.9636 48.8905 32.6347C48.7045 32.3201 48.5329 32.0484 48.3899 31.8338C48.8904 31.2475 49.3766 30.5325 49.8485 29.6602C50.3204 28.7879 50.7637 27.8727 51.1641 26.886C51.5645 25.9136 51.8792 24.9841 52.108 24.1118L52.1223 24.1261ZM48.7189 23.4826H56.8413V25.0842H48.7189V23.4826ZM48.8905 17.5051L50.1489 17.2048C50.4063 17.977 50.6493 18.8207 50.8781 19.7359C51.1069 20.6511 51.2786 21.4233 51.3787 22.0811L50.0344 22.4529C49.9772 21.9953 49.8771 21.4805 49.7484 20.9228C49.6197 20.3651 49.4768 19.7788 49.3338 19.1782C49.1908 18.5776 49.0335 18.0199 48.8905 17.5194V17.5051ZM52.2081 15.5889H53.8097V36.6101H52.2081V15.5889ZM53.6523 25.9708C53.8096 26.1281 54.0384 26.3712 54.3673 26.7287C54.6963 27.0862 55.0395 27.4723 55.4113 27.887C55.7831 28.3017 56.112 28.7021 56.4123 29.0596C56.7127 29.4314 56.9271 29.6888 57.0558 29.8318L55.9833 31.176C55.8403 30.9186 55.6401 30.5754 55.3541 30.175C55.0681 29.7603 54.7678 29.3313 54.4389 28.888C54.11 28.4447 53.7954 28.0157 53.5094 27.6439C53.2234 27.2578 52.9803 26.9575 52.7944 26.7287L53.6381 25.9708H53.6523ZM55.7831 17.0332L57.3418 17.4479C57.1416 17.9913 56.9414 18.5776 56.7269 19.1925C56.5124 19.8074 56.2979 20.408 56.0691 20.98C55.8403 21.552 55.6258 22.0525 55.4113 22.4815L54.2387 22.1097C54.4246 21.6664 54.6104 21.1516 54.8107 20.5367C55.0109 19.9361 55.1968 19.3212 55.3541 18.7063C55.5257 18.0914 55.6544 17.5337 55.7688 17.0189L55.7831 17.0332ZM61.0456 25.4989L62.7187 25.5847C62.5614 27.3436 62.2897 28.9023 61.8892 30.2894C61.4888 31.6765 60.9311 32.8778 60.2018 33.9217C59.4725 34.9656 58.5716 35.8522 57.4562 36.5958C57.399 36.4814 57.2846 36.3527 57.1416 36.1954C56.9986 36.0381 56.8413 35.8808 56.6983 35.7092C56.5553 35.5376 56.4123 35.4232 56.2836 35.3374C57.8566 34.4079 59.0007 33.1209 59.7014 31.4906C60.4164 29.8604 60.8597 27.8584 61.0456 25.4989ZM60.6738 16.118L62.304 16.3754C62.0609 17.7196 61.732 18.9637 61.303 20.122C60.8883 21.2803 60.3591 22.3242 59.7299 23.2681C59.1007 24.2119 58.3572 25.027 57.4705 25.7277C57.4419 25.5847 57.3848 25.4131 57.299 25.1986C57.2132 24.9841 57.1273 24.7696 57.0129 24.5551C56.8985 24.3406 56.8127 24.169 56.7126 24.0546C57.7994 23.1823 58.6574 22.0668 59.2866 20.7083C59.9158 19.3498 60.3735 17.8197 60.6738 16.1037V16.118ZM58.2284 24.6695H66.8371V26.2997H58.2284V24.6695ZM66.1078 24.6695H67.7952C67.7809 24.8697 67.7667 25.027 67.7667 25.1557C67.7667 25.2844 67.7667 25.3845 67.738 25.4703C67.6808 27.2006 67.6093 28.6592 67.5235 29.8604C67.4377 31.0616 67.3519 32.0626 67.2375 32.8349C67.1374 33.6071 67.0087 34.222 66.88 34.6653C66.7513 35.1086 66.6083 35.4232 66.4367 35.6234C66.2365 35.8808 66.022 36.0667 65.8075 36.1668C65.593 36.2669 65.307 36.3241 64.9781 36.367C64.7064 36.3956 64.3346 36.4099 63.8627 36.4099C63.3908 36.4099 62.9046 36.3956 62.3898 36.367C62.3755 36.1382 62.3326 35.8665 62.2468 35.5662C62.1752 35.2659 62.0752 34.9942 61.9465 34.794C62.4327 34.8369 62.8903 34.8655 63.2907 34.8798C63.6911 34.8941 64.0057 34.9084 64.1773 34.9084C64.3775 34.9084 64.5348 34.8941 64.6492 34.8512C64.7636 34.8083 64.8637 34.7368 64.9638 34.6081C65.1354 34.3936 65.2784 33.9646 65.4214 33.3068C65.5644 32.649 65.6788 31.6622 65.7932 30.3323C65.9077 29.0024 66.0077 27.2292 66.0792 25.027V24.6838L66.1078 24.6695ZM65.6502 15.975C65.9219 17.2477 66.2366 18.3631 66.5941 19.3355C66.9516 20.3079 67.3949 21.1802 67.924 21.9381C68.4531 22.696 69.0822 23.4254 69.8401 24.1118C69.6113 24.2834 69.3826 24.4836 69.1538 24.741C68.9249 24.9984 68.7534 25.2415 68.6247 25.5132C67.7952 24.7267 67.1088 23.883 66.5368 22.982C65.9648 22.0811 65.5072 21.0944 65.1211 19.9933C64.735 18.8922 64.4061 17.6481 64.1201 16.261L65.6502 15.9607V15.975Z" fill="#C7B299"/>
<path d="M72.786 30.3042L74.1588 30.6045C73.9729 31.5626 73.7441 32.5493 73.4581 33.5503C73.1721 34.5513 72.9004 35.395 72.6287 36.0814C72.4714 36.0099 72.2569 35.9241 71.9851 35.824C71.7134 35.7382 71.4703 35.6667 71.2701 35.6238C71.5847 34.9231 71.8851 34.0937 72.1425 33.1356C72.3999 32.1775 72.6144 31.2337 72.786 30.3042ZM71.8708 24.1408C71.8422 24.0407 71.7993 23.8834 71.7278 23.7118C71.6706 23.5259 71.599 23.34 71.5275 23.1541C71.456 22.9682 71.3989 22.7966 71.3274 22.6679C71.5419 22.625 71.7563 22.4963 71.9851 22.2675C72.214 22.053 72.4571 21.767 72.7145 21.4095C72.8718 21.2379 73.0863 20.9661 73.358 20.5657C73.6297 20.1653 73.9443 19.6934 74.2732 19.1643C74.6021 18.6209 74.9453 18.0346 75.2885 17.4197C75.6317 16.7905 75.9463 16.1613 76.218 15.5464L77.7052 16.1899C77.0045 17.4912 76.2323 18.7639 75.4029 20.0366C74.5735 21.2951 73.7298 22.3962 72.8718 23.3257V23.3543C72.6573 23.4687 72.4857 23.5545 72.357 23.6403C72.2283 23.7261 72.1139 23.8119 71.9995 23.912C71.8851 24.0121 71.8422 24.0979 71.8422 24.1694L71.8708 24.1408ZM71.9995 29.3174C71.9852 29.2173 71.9422 29.06 71.885 28.8741C71.8278 28.6882 71.7564 28.488 71.6849 28.2878C71.6134 28.0876 71.5419 27.916 71.4704 27.7873C71.7421 27.7444 72.028 27.5871 72.3283 27.3011C72.6286 27.0151 72.9719 26.6719 73.3723 26.2429C73.5868 26.0284 73.9014 25.6852 74.3018 25.1847C74.7022 24.6985 75.1741 24.1122 75.6889 23.4401C76.2037 22.768 76.7328 22.0387 77.2619 21.2521C77.791 20.4799 78.2773 19.6791 78.7206 18.8783L80.1219 19.722C79.1066 21.3523 77.977 22.9253 76.7758 24.4411C75.5602 25.9569 74.3447 27.2868 73.1292 28.4308V28.4737C72.9004 28.5881 72.7145 28.6739 72.5715 28.7597C72.4285 28.8455 72.2998 28.9313 72.1854 29.0171C72.071 29.1029 72.0138 29.203 72.0138 29.2888L71.9995 29.3174ZM71.8708 24.1408L71.8279 22.9253L72.6573 22.4248L77.0475 22.0101C77.0046 22.2246 76.9617 22.4677 76.9474 22.7251C76.9187 22.9968 76.9187 23.2113 76.9187 23.3829C75.932 23.4973 75.1169 23.5831 74.4877 23.6689C73.8585 23.7547 73.3723 23.8262 73.0291 23.8691C72.6859 23.9263 72.4285 23.9692 72.2569 24.0121C72.0853 24.055 71.9566 24.0979 71.8708 24.1408ZM71.9995 29.3174L71.9566 28.0876L72.786 27.5442L79.9075 26.5432C79.8932 26.7577 79.8789 26.9865 79.8646 27.2439C79.8503 27.5013 79.8503 27.7015 79.8646 27.8731C78.2343 28.1305 76.9187 28.345 75.9463 28.5023C74.9596 28.6596 74.216 28.7883 73.6869 28.8884C73.1721 28.9885 72.8003 29.0743 72.5715 29.1458C72.3427 29.2173 72.1568 29.2745 72.0281 29.346L71.9995 29.3174ZM75.4315 30.4615L76.7185 30.1469C76.8901 30.9334 77.0331 31.7914 77.1618 32.6923C77.2905 33.5932 77.3764 34.3797 77.4193 35.0518L76.0464 35.395C76.0178 34.7229 75.9463 33.9221 75.8176 33.0069C75.7032 32.0917 75.5602 31.248 75.4315 30.4758V30.4615ZM78.0484 24.4411L79.3498 24.0693C79.5643 24.5412 79.7788 25.056 80.0076 25.6137C80.2364 26.1714 80.4223 26.7148 80.6082 27.2296C80.7798 27.7444 80.9085 28.202 80.98 28.6024L79.6501 29.06C79.5643 28.6596 79.4356 28.202 79.264 27.6729C79.0924 27.1438 78.9064 26.6004 78.7062 26.0284C78.506 25.4564 78.2772 24.9273 78.0484 24.4411ZM78.1628 30.0181L79.3926 29.6034C79.6786 30.2613 79.9647 30.9906 80.2364 31.7771C80.5081 32.5636 80.7226 33.2643 80.8513 33.8363L79.5643 34.3225C79.4499 33.7362 79.2496 33.0498 78.9636 32.2347C78.6919 31.4196 78.4203 30.6903 78.1343 30.0181H78.1628ZM83.4396 28.9456L84.9983 29.2459C84.7409 30.3185 84.412 31.3338 84.0116 32.3205C83.6112 33.3072 83.1822 34.1366 82.7103 34.823C82.5959 34.7515 82.4672 34.6657 82.2956 34.5799C82.124 34.4941 81.9524 34.4083 81.7665 34.3225C81.5806 34.2367 81.4233 34.1795 81.2803 34.1223C81.7808 33.4645 82.2241 32.678 82.5816 31.7485C82.9391 30.819 83.2251 29.8894 83.4253 28.917L83.4396 28.9456ZM82.3528 23.2971C82.3242 23.197 82.2813 23.0397 82.2098 22.8681C82.1526 22.6822 82.0954 22.4963 82.0239 22.3104C81.9667 22.1245 81.9095 21.9672 81.838 21.8385C82.0239 21.7956 82.2098 21.6812 82.3957 21.481C82.5816 21.2808 82.7818 21.0519 82.9963 20.7659C83.1679 20.5657 83.411 20.2082 83.7542 19.7077C84.0831 19.1929 84.4406 18.5923 84.8268 17.9059C85.2129 17.2052 85.556 16.5188 85.8563 15.8181L87.315 16.4616C86.7573 17.5627 86.128 18.6495 85.4273 19.7077C84.7266 20.7802 84.0402 21.6955 83.3395 22.482V22.5106C83.1393 22.6393 82.9677 22.7394 82.839 22.8252C82.696 22.911 82.5816 22.9968 82.4815 23.0826C82.3814 23.1684 82.3385 23.2542 82.3385 23.34L82.3528 23.2971ZM82.4386 28.3021C82.41 28.202 82.3671 28.0447 82.2956 27.8588C82.2384 27.6729 82.1669 27.4727 82.0954 27.2868C82.0239 27.1009 81.9667 26.9293 81.8951 26.8006C82.1526 26.7434 82.4243 26.5718 82.7246 26.3144C83.0106 26.057 83.3538 25.7281 83.7542 25.3277C83.9687 25.1275 84.2833 24.7986 84.6837 24.3267C85.0841 23.8548 85.5417 23.3114 86.0422 22.6679C86.5427 22.0244 87.0576 21.338 87.5724 20.58C88.0872 19.8364 88.5734 19.0785 89.031 18.3206L90.4038 19.1929C89.3885 20.7373 88.273 22.2246 87.0861 23.6689C85.8992 25.1132 84.7123 26.3716 83.5111 27.4298V27.4727C83.2823 27.5871 83.0964 27.6729 82.9677 27.7587C82.8247 27.8445 82.7103 27.9303 82.5959 28.0304C82.4815 28.1305 82.4243 28.2163 82.4243 28.2878L82.4386 28.3021ZM82.3528 23.2971L82.3242 22.1245L83.0964 21.624L87.5152 21.2378C87.4723 21.4381 87.4294 21.6669 87.4151 21.9243C87.3865 22.1817 87.3865 22.3962 87.4151 22.5392C86.4141 22.6679 85.5846 22.768 84.9697 22.8395C84.3405 22.911 83.8543 22.9825 83.5111 23.0254C83.1679 23.0683 82.9105 23.1112 82.7389 23.1684C82.5673 23.2113 82.4386 23.2542 82.3528 23.3114V23.2971ZM82.4386 28.3021L82.3957 27.1295L83.268 26.629L90.7041 25.914C90.6755 26.1142 90.6469 26.343 90.6183 26.6004C90.5897 26.8578 90.5897 27.0723 90.5897 27.2439C88.888 27.4155 87.5152 27.5585 86.4998 27.6729C85.4845 27.7873 84.698 27.8874 84.1403 27.9589C83.5969 28.0304 83.1965 28.1019 82.9677 28.1448C82.7389 28.1877 82.5673 28.2449 82.4386 28.3021ZM86.2138 26.8721H87.7869V34.7372C87.7869 35.1519 87.744 35.4665 87.6582 35.7096C87.5724 35.9527 87.3864 36.1243 87.1004 36.253C86.8287 36.3674 86.4712 36.4532 86.0422 36.4818C85.6132 36.5104 85.0842 36.5247 84.4692 36.5247C84.4263 36.2959 84.3548 36.0385 84.269 35.7668C84.1832 35.4951 84.0831 35.2377 83.9687 35.0089C84.4263 35.0232 84.8268 35.0375 85.1843 35.0375C85.5418 35.0375 85.7706 35.0375 85.8993 35.0375C86.028 35.0232 86.0995 34.9946 86.1567 34.9517C86.1996 34.9088 86.2281 34.8373 86.2281 34.7372V26.8721H86.2138ZM88.5304 23.4973L89.7889 22.9253C90.1464 23.4401 90.4753 24.0121 90.8042 24.6127C91.1331 25.2276 91.4191 25.8139 91.6908 26.4002C91.9482 26.9865 92.1341 27.5013 92.2628 27.9589L90.89 28.6024C90.7756 28.1591 90.604 27.6443 90.3609 27.058C90.1178 26.4717 89.8318 25.8711 89.5172 25.2419C89.2026 24.6127 88.8736 24.0407 88.5304 23.4973ZM89.031 29.3174L90.4038 28.8312C90.7041 29.3746 91.0044 29.9609 91.2904 30.5759C91.5764 31.1908 91.8338 31.8057 92.0626 32.392C92.2914 32.9783 92.463 33.5217 92.5917 33.9936L91.1331 34.5227C91.033 34.0651 90.8614 33.536 90.6326 32.9211C90.4038 32.3062 90.1464 31.6913 89.8747 31.0621C89.603 30.4329 89.317 29.8465 89.031 29.3174Z" fill="#C7B299"/>
<path d="M94.4935 30.0896H115.286V31.5053H94.4935V30.0896ZM95.1657 17.3481H114.356V18.721H95.1657V17.3481ZM95.4088 27.6156C96.467 27.6156 97.6396 27.6156 98.9553 27.587C100.271 27.5727 101.672 27.5584 103.16 27.5441C104.661 27.5441 106.191 27.5155 107.764 27.5012C109.337 27.4869 110.924 27.4583 112.483 27.4297L112.412 28.5738C110.367 28.631 108.322 28.6882 106.263 28.7311C104.203 28.774 102.259 28.8169 100.4 28.8598C98.5405 28.9027 96.896 28.9313 95.4517 28.9456L95.3802 27.6156H95.4088ZM96.9389 20.0223H112.955V26.2857H96.9389V20.0223ZM98.1545 32.4777L99.3413 31.4767C99.7989 31.7341 100.271 32.0344 100.743 32.3776C101.215 32.7208 101.687 33.064 102.116 33.4072C102.545 33.7504 102.902 34.065 103.16 34.351L101.93 35.495C101.672 35.1947 101.329 34.8515 100.914 34.494C100.5 34.1365 100.042 33.779 99.5702 33.4358C99.0983 33.0926 98.6263 32.7637 98.1687 32.4777H98.1545ZM98.5691 21.1949V22.5963H111.268V21.1949H98.5691ZM98.5691 23.7117V25.1274H111.268V23.7117H98.5691ZM103.989 15.6035H105.676V27.8874H103.989V15.6035ZM108.136 28.631H109.809V34.8086C109.809 35.2519 109.752 35.5951 109.623 35.8382C109.509 36.0813 109.251 36.2672 108.894 36.3816C108.522 36.5103 108.05 36.5818 107.435 36.5961C106.835 36.6248 106.077 36.6247 105.161 36.6247C105.133 36.3959 105.061 36.1385 104.961 35.8668C104.861 35.5951 104.747 35.3377 104.618 35.1089C105.09 35.1232 105.533 35.1375 105.948 35.1375C106.363 35.1375 106.72 35.1375 107.02 35.1375H107.664C107.864 35.1232 107.993 35.0803 108.05 35.0231C108.107 34.9659 108.136 34.8658 108.136 34.7228V28.5881V28.631ZM108.265 26.7719L109.266 25.8996C109.881 26.0998 110.495 26.3429 111.139 26.6432C111.782 26.9435 112.397 27.2581 112.969 27.587C113.541 27.916 114.028 28.2306 114.385 28.5166L113.384 29.4747C112.998 29.1744 112.526 28.8455 111.968 28.5166C111.411 28.1877 110.796 27.8588 110.152 27.5441C109.509 27.2295 108.879 26.9721 108.265 26.7719Z" fill="#C7B299"/>
<path d="M126.326 30.304L127.699 30.9475C126.998 31.7197 126.126 32.4633 125.096 33.1497C124.066 33.8362 122.951 34.4511 121.778 34.9802C120.606 35.5093 119.448 35.924 118.304 36.2529C118.232 36.0956 118.132 35.9383 117.989 35.7667C117.86 35.5951 117.732 35.4092 117.589 35.2376C117.445 35.066 117.317 34.923 117.174 34.8086C118.304 34.5512 119.448 34.1937 120.606 33.7361C121.764 33.2784 122.851 32.7493 123.852 32.163C124.853 31.5767 125.682 30.9475 126.326 30.304ZM117.789 29.7034H137.838V31.162H117.789V29.7034ZM117.86 19.6647H137.737V21.1233H117.86V19.6647ZM118.79 23.5972H136.908V25.013H118.79V23.5972ZM119.705 16.3185L121.164 15.818C121.564 16.3185 121.95 16.8905 122.322 17.534C122.694 18.1775 122.965 18.7352 123.137 19.2071L121.578 19.8077C121.421 19.3358 121.164 18.7638 120.806 18.1203C120.449 17.4625 120.077 16.8619 119.691 16.3328L119.705 16.3185ZM119.934 26.6861H135.793V28.016H119.934V26.6861ZM122.708 21.2806L124.338 20.9803C124.596 21.3521 124.839 21.7668 125.082 22.2244C125.325 22.6963 125.482 23.0967 125.568 23.4542L123.881 23.7974C123.795 23.4685 123.637 23.0538 123.409 22.5676C123.18 22.0814 122.951 21.6524 122.708 21.2806ZM124.767 15.5605H126.397V20.3654H124.767V15.5605ZM126.869 24.255H128.585V36.639H126.869V24.255ZM129.114 30.2468C129.601 30.7473 130.187 31.2335 130.888 31.7054C131.588 32.1773 132.346 32.6063 133.176 33.0067C134.005 33.4071 134.863 33.7504 135.75 34.0507C136.636 34.351 137.509 34.5941 138.381 34.7943C138.267 34.9087 138.124 35.066 137.981 35.2376C137.838 35.4092 137.695 35.5951 137.552 35.781C137.409 35.9669 137.308 36.1385 137.237 36.2958C136.365 36.0527 135.492 35.7524 134.591 35.3806C133.691 35.0088 132.832 34.5941 132.003 34.1222C131.174 33.6502 130.401 33.1354 129.672 32.5634C128.943 31.9914 128.314 31.4051 127.785 30.8045L129.114 30.2325V30.2468ZM129.114 15.5605H130.759V20.2796H129.114V15.5605ZM131.36 20.6943L133.118 21.1519C132.847 21.6524 132.561 22.1529 132.275 22.6534C131.989 23.1539 131.703 23.5829 131.445 23.969L130.03 23.54C130.258 23.1253 130.502 22.6534 130.745 22.1243C130.988 21.5952 131.202 21.1233 131.345 20.7086L131.36 20.6943ZM134.42 15.8609L136.179 16.3471C135.85 16.962 135.478 17.5769 135.106 18.2061C134.72 18.8353 134.377 19.3787 134.048 19.8363L132.647 19.3501C132.861 19.0355 133.076 18.6637 133.304 18.249C133.533 17.8343 133.733 17.4196 133.934 16.9906C134.134 16.5616 134.291 16.1755 134.42 15.8465V15.8609Z" fill="#C7B299"/>
</svg>
