<?xml version="1.0" encoding="UTF-8"?>
<svg id="_圖層_1" xmlns="http://www.w3.org/2000/svg" version="1.1" viewBox="0 0 120 44">
  <!-- Generator: Adobe Illustrator 29.4.0, SVG Export Plug-In . SVG Version: 2.1.0 Build 152)  -->
  <defs>
    <style>
      .st0 {
        fill: #c7b299;
      }
    </style>
  </defs>
  <path class="st0" d="M8.9,3.2c.9-.2,1.5,1,2,1.6.9,1.2,4.6,7.2,4.6,8.3s-3.7,2.9-3.7,4,.6,1.8.8,2.3c1.6,3.7,5,7.4,8.6,9.4.7.4,3.2,1.6,4,1.6s2.7-3.5,3.7-3.6c.9-.2,4.7,2.2,5.7,2.8.9.5,3.9,2.4,4.2,3.1.3.7,0,1.1-.5,1.6-1,1.4-6.2,5.8-7.6,6.4-.7.3-1.6,0-2.3,0C17.6,38.4,3.6,24.4,1.7,13.6c-.4-2.2-.1-2.2,1.1-3.9.9-1.2,5-6.3,6.2-6.5h-.1Z"/>
  <path class="st0" d="M21.5,3.2c9.5,0,17.5,7.9,17.4,17.4h-2.7c0-8-6.7-14.8-14.7-14.7v-2.7Z"/>
  <path class="st0" d="M32.2,20.6h-2.7c0-4.4-3.7-8.1-8-8v-2.7c5.8,0,10.8,4.9,10.7,10.7Z"/>
  <path class="st0" d="M60.1,27.7l1.1.5c-.4.2-.9.5-1.5.7s-1.2.4-1.8.6-1.2.3-1.7.5c0,0,0-.2-.2-.3,0-.1-.2-.2-.3-.3,0-.1-.2-.2-.3-.3.5-.1,1.1-.2,1.7-.4.6-.1,1.1-.3,1.7-.5s1-.4,1.4-.5h-.1ZM55.4,19.8h14.3v.9h-14.3s0-.9,0-.9ZM57.4,21.6h10.4v6h-10.4v-6ZM57.6,16.2h10.1v2.8h-10.1v-2.8ZM58.6,22.3v1h8v-1h-8ZM58.6,24.1v1h8v-1h-8ZM58.6,25.8v1h8v-1h-8ZM58.7,17v1.2h7.8v-1.2h-7.8ZM61.9,15.3h1.2v5h-1.2s0-5,0-5ZM63.8,28.4l1-.6c.6.1,1.2.3,1.8.5s1.2.4,1.7.6,1,.4,1.4.5l-1.4.6c-.3-.2-.7-.3-1.2-.5s-1-.4-1.5-.6c-.6-.2-1.1-.4-1.7-.5h-.1Z"/>
  <path class="st0" d="M82.3,19.4l1,.6c-.7.4-1.4.8-2.3,1.2-.9.3-1.9.6-2.9.9-1.1.2-2.1.4-3.2.6s-2.1.3-3.1.4c0,0,0-.2-.2-.3,0-.1-.2-.3-.2-.4s-.2-.2-.2-.3c1,0,2.1-.2,3.2-.3,1.1-.1,2.1-.3,3.1-.5s2-.5,2.8-.7c.8-.3,1.6-.6,2.1-1h0v-.2ZM76.2,27.7l1,.7c-.4.2-.9.5-1.5.7s-1.2.4-1.8.6c-.6.2-1.3.3-1.8.4,0-.1-.2-.3-.3-.4,0-.2-.3-.3-.4-.4.6-.1,1.2-.2,1.8-.4.6-.1,1.2-.3,1.8-.5.6-.2,1-.4,1.3-.6h0ZM71.9,16.5h13.2v2.7h-1.2v-1.7h-11v1.7h-1.1v-2.7h0ZM75.3,19.4l1,.3c-.4.4-.8.8-1.4,1.1-.6.4-1.1.7-1.7.9,0,0,0-.2-.2-.3,0-.1-.2-.2-.3-.3,0,0-.2-.2-.3-.2.5-.2,1-.4,1.5-.7.5-.3.9-.6,1.3-.9h0ZM73.7,21.8h9.9v6h-9.9v-6ZM74.2,18.3h8.6v.9h-8.6v-.9ZM74.8,22.5v1h7.6v-1h-7.6ZM74.8,24.2v1h7.6v-1h-7.6ZM74.8,26v1h7.6v-1h-7.6ZM77.3,15.5l1.1-.4c.2.3.4.6.5.9.2.3.3.6.4.9l-1.2.5c0-.2-.2-.5-.4-.9-.2-.3-.3-.6-.5-.9h0ZM77.9,18.6h1.1v2.4l-1.1.4v-2.8ZM79.8,28.4l.8-.7c.6.1,1.2.3,1.8.5.6.2,1.2.4,1.7.6s1,.4,1.4.5l-1.1.7c-.4-.2-.8-.3-1.3-.5s-1-.4-1.6-.6-1.2-.4-1.8-.5h0Z"/>
  <path class="st0" d="M87.2,25.4h14.5v1h-14.5v-1ZM87.7,16.5h13.4v1h-13.4v-1ZM87.9,23.7h11.9v.8c-1.5,0-2.9,0-4.3.1h-7.6v-.9h0ZM89,18.4h11.2v4.4h-11.2v-4.4ZM89.8,27.1l.8-.7c.3.2.7.4,1,.6s.7.5,1,.7.5.5.7.7l-.9.8c-.2-.2-.4-.4-.7-.7s-.6-.5-.9-.7-.7-.5-1-.7h0ZM90.1,19.2v1h8.9v-1h-8.9ZM90.1,20.9v1h8.9v-1h-8.9ZM93.9,15.3h1.2v8.6h-1.2v-8.6ZM96.8,24.4h1.2v4.3c0,.3,0,.5,0,.7,0,.2-.3.3-.5.4-.3,0-.6.1-1,.1h-1.6c0-.2,0-.3,0-.5,0-.2-.2-.4-.2-.5h2.4v-4.5h-.1ZM96.9,23.1l.7-.6c.4.1.9.3,1.3.5s.9.4,1.3.7c.4.2.7.5,1,.7l-.7.7c-.3-.2-.6-.4-1-.7-.4-.2-.8-.5-1.3-.7-.4-.2-.9-.4-1.3-.5h0Z"/>
  <path class="st0" d="M103.5,21.2v-.3c0-.1,0-.3,0-.4,0-.1,0-.3,0-.4,0,0,.3-.1.4-.3,0-.2.3-.4.4-.6s.3-.5.5-.9.5-.9.8-1.5.5-1.1.7-1.7l1.1.5c-.3.6-.6,1.2-.9,1.8s-.7,1.1-1,1.7-.7,1-1,1.5h0c-.2.1-.3.2-.4.2s-.2.1-.3.2,0,.1,0,.2h0ZM103.9,25.6l1,.2c0,.7-.2,1.4-.3,2.1,0,.7-.3,1.3-.5,1.8,0,0-.2,0-.3-.1,0,0-.2,0-.3-.1,0,0-.2,0-.3-.1.2-.5.4-1.1.5-1.8s.2-1.4.3-2h0ZM103.6,24.9v-.3c0-.1,0-.3-.2-.4,0-.1,0-.3,0-.4.2,0,.4-.2.5-.4.2-.2.4-.4.6-.7,0-.1.3-.4.6-.7s.5-.7.8-1.2.6-1,.9-1.5.6-1.1.9-1.6l1,.6c-.4.7-.8,1.4-1.3,2.2-.5.7-1,1.4-1.5,2-.5.7-1,1.2-1.5,1.8h0c-.2.1-.3.2-.4.2s-.2.1-.3.2,0,.1,0,.2h0ZM103.5,21.2v-.9l.6-.4,2.8-.2v1c-.6,0-1.1.1-1.5.2-.4,0-.7,0-.9.1-.2,0-.4,0-.5.1h-.5ZM103.6,24.9v-.9l.5-.4,3.9-.5v1c-.9.1-1.6.2-2.1.3-.5,0-1,.2-1.3.2s-.5.1-.7.1-.2,0-.3.1h0ZM105.4,25.7h.9c0,.4.2,1,.3,1.6,0,.6,0,1.2,0,1.7l-.9.2c0-.5,0-1,0-1.7,0-.6-.2-1.2-.2-1.8h-.1ZM106.8,21.6l.9-.2c0,.4.3.8.4,1.2,0,.4.2.8.3,1.2s.2.7.2,1l-1,.3c0-.3,0-.6-.2-1,0-.4-.2-.8-.3-1.2,0-.4-.2-.8-.4-1.2h0ZM106.9,25.4l.8-.2c.2.4.3.9.5,1.3,0,.5.3.9.3,1.3l-.9.3c0-.4-.2-.8-.3-1.3s-.3-1-.4-1.4h0ZM111.5,23.9h.4l.7.2c-.2.8-.5,1.5-.8,2.2-.4.6-.8,1.2-1.2,1.7-.5.5-1,.9-1.5,1.2,0-.1-.2-.3-.3-.4,0-.2-.2-.3-.4-.4.5-.2.9-.6,1.4-1,.4-.4.8-.9,1.1-1.5.3-.6.6-1.1.7-1.8v-.2h0ZM109.2,23.9h2.6v1h-2.6v-1ZM109.8,17h7.3v5.7h-7.3v-5.7ZM110.9,17.9v1.4h5v-1.4h-5ZM110.9,20.2v1.4h5v-1.4h-5ZM113,22.2h1.1v6.5c0,.3,0,.5,0,.7s-.2.3-.4.4-.5.1-.8.2-.8,0-1.3,0c0-.2,0-.3,0-.5,0-.2,0-.4-.2-.6h1.8v-.2s0-6.5,0-6.5ZM112.8,15.2l1.3.3c-.2.4-.3.7-.5,1.1s-.3.7-.5.9l-1-.3c0-.3.3-.6.4-1s.2-.7.3-1ZM114.1,23c.2.8.5,1.5.9,2.2s.8,1.3,1.3,1.9c.5.5,1.1,1,1.7,1.3,0,0-.2.2-.3.3,0,.1-.2.2-.3.3,0,.1-.2.2-.2.3-.6-.4-1.2-.9-1.7-1.5s-1-1.3-1.3-2.1c-.4-.8-.7-1.6-.9-2.5l.9-.2h0ZM116.7,23.2l.9.7c-.4.4-.8.8-1.3,1.1-.5.4-.9.7-1.3,1l-.7-.6c.2-.2.5-.4.8-.7s.6-.5.8-.8c.3-.3.5-.5.7-.8h0Z"/>
</svg>