<svg width="148" height="50" viewBox="0 0 148 50" fill="none" xmlns="http://www.w3.org/2000/svg">
<path d="M9.43688 6.02063C10.3369 5.85063 10.9769 6.98063 11.4569 7.62063C12.3369 8.78063 16.0769 14.8406 16.0069 15.9506C15.9269 17.1706 12.3169 18.8706 12.3569 19.9306C12.3769 20.3406 12.9369 21.7206 13.1369 22.1806C14.7169 25.9206 18.1469 29.5706 21.6969 31.5306C22.4369 31.9406 24.9169 33.1506 25.6469 33.1006C26.4769 33.0506 28.3069 29.6506 29.3569 29.4606C30.2569 29.3006 34.0969 31.6106 35.0769 32.2106C35.9369 32.7406 38.9769 34.5606 39.3169 35.3406C39.6069 36.0206 39.2369 36.4306 38.8369 36.9506C37.8369 38.3006 32.6669 42.7906 31.1869 43.3606C30.4869 43.6306 29.6169 43.3906 28.8869 43.2506C18.1169 41.2006 4.07688 27.2106 2.16688 16.4106C1.77688 14.2306 2.04688 14.2506 3.22688 12.5406C4.07688 11.3106 8.20688 6.25063 9.43688 6.02063Z" fill="#C7B299"/>
<path d="M22.0269 6.00075C31.5269 5.91075 39.5069 13.9407 39.4369 23.4107H36.7569C36.8169 15.3707 30.0769 8.62075 22.0269 8.68075V6.00075Z" fill="#C7B299"/>
<path d="M32.7369 23.401H30.0569C30.0869 19.031 26.3969 15.341 22.0269 15.371V12.691C27.8769 12.631 32.8069 17.551 32.7369 23.401Z" fill="#C7B299"/>
<path d="M62.6695 32.7541L64.1996 33.4691C63.5847 33.798 62.8697 34.1269 62.0546 34.4558C61.2252 34.7704 60.3957 35.0707 59.552 35.3424C58.7083 35.6141 57.8932 35.8429 57.121 36.0288C57.0495 35.9001 56.9351 35.7714 56.7777 35.6141C56.6204 35.4568 56.4631 35.2995 56.3058 35.1422C56.1485 34.9849 56.0055 34.8562 55.8768 34.7561C56.6634 34.5988 57.4785 34.4272 58.3079 34.2127C59.1373 33.9982 59.9381 33.7837 60.696 33.5406C61.454 33.2975 62.1118 33.0401 62.6695 32.7684V32.7541ZM55.9054 21.4282H76.312V22.7724H55.9054V21.4282ZM58.8084 23.9164H73.7094V32.5396H58.8084V23.9164ZM58.9943 16.2086H73.4949V20.2127H58.9943V16.2086ZM60.4815 25.0176V26.4333H71.9647V25.0176H60.4815ZM60.4815 27.4915V28.9073H71.9647V27.4915H60.4815ZM60.4815 29.9798V31.4241H71.9647V29.9798H60.4815ZM60.6102 17.3812V19.0686H71.7931V17.3812H60.6102ZM65.215 14.9072H66.931V22.0002H65.215V14.9072ZM67.932 33.6836L69.3764 32.8113C70.2201 33.0258 71.0638 33.2689 71.9218 33.5406C72.7798 33.8123 73.5807 34.084 74.3529 34.3414C75.1251 34.5988 75.7686 34.8419 76.3263 35.0707L74.3529 35.943C73.881 35.7285 73.309 35.4854 72.6225 35.228C71.9504 34.9706 71.2068 34.6989 70.4203 34.4272C69.6338 34.1555 68.8043 33.8981 67.9463 33.6693L67.932 33.6836Z" fill="#C7B299"/>
<path d="M94.3877 20.7562L95.832 21.557C94.8882 22.2006 93.7585 22.744 92.4714 23.2159C91.1701 23.6735 89.783 24.0882 88.2814 24.4314C86.7799 24.7746 85.2641 25.0606 83.7196 25.2894C82.1752 25.5182 80.6736 25.7184 79.2293 25.89C79.1721 25.747 79.0863 25.5897 78.9719 25.4038C78.8575 25.2179 78.7574 25.032 78.643 24.8604C78.5286 24.6888 78.4142 24.5315 78.3141 24.4171C79.7727 24.3313 81.2743 24.174 82.8187 23.9881C84.3631 23.7879 85.8647 23.5448 87.309 23.2588C88.7533 22.9728 90.0976 22.6153 91.3131 22.2006C92.5286 21.7858 93.544 21.3139 94.3877 20.7848V20.7562ZM85.7074 32.6827L87.1946 33.6265C86.5654 33.9554 85.8361 34.2844 84.9923 34.5847C84.1486 34.885 83.2763 35.1567 82.3754 35.3998C81.4745 35.6429 80.5878 35.8145 79.7584 35.9575C79.6297 35.7859 79.4724 35.5857 79.2722 35.3569C79.072 35.1138 78.8718 34.9279 78.6859 34.7706C79.5296 34.6133 80.3876 34.4274 81.2886 34.2272C82.1895 34.0269 83.0189 33.7695 83.8197 33.4978C84.6205 33.2261 85.2498 32.9544 85.7217 32.697L85.7074 32.6827ZM79.5296 16.6377H98.4347V20.4845H96.7901V18.0821H81.117V20.4845H79.5439V16.6377H79.5296ZM84.3202 20.8277L85.7646 21.2567C85.2355 21.8144 84.5633 22.3579 83.7482 22.887C82.9331 23.4161 82.1609 23.8451 81.3887 24.1883C81.3172 24.0882 81.2028 23.9595 81.0741 23.8165C80.9454 23.6735 80.8167 23.5305 80.6736 23.3875C80.5306 23.2445 80.4162 23.1444 80.3018 23.0729C81.0312 22.7869 81.7748 22.4437 82.5041 22.0576C83.2477 21.6714 83.8483 21.271 84.3059 20.8277H84.3202ZM82.0465 24.1883H96.2324V32.7971H82.0465V24.1883ZM82.833 19.2976H95.1885V20.5846H82.833V19.2976ZM83.7053 25.2751V26.7195H94.5021V25.2751H83.7053ZM83.7053 27.7348V29.1934H94.5021V27.7348H83.7053ZM83.7053 30.2374V31.7246H94.5021V30.2374H83.7053ZM87.1946 15.2649L88.7533 14.6929C89.0108 15.0647 89.2825 15.4794 89.5399 15.937C89.8116 16.3946 90.0118 16.8093 90.1405 17.1668L88.4673 17.8246C88.3386 17.4814 88.167 17.081 87.9239 16.5805C87.6808 16.0943 87.4377 15.651 87.1946 15.2506V15.2649ZM88.1384 19.6837H89.6972V23.1158L88.1384 23.7307V19.6837ZM90.8126 33.6408L91.9566 32.6541C92.8289 32.8686 93.7013 33.1117 94.5593 33.3691C95.4316 33.6408 96.2467 33.8982 97.0333 34.1699C97.8055 34.4417 98.4776 34.6991 99.0496 34.9422L97.5338 35.9718C97.0189 35.743 96.404 35.4999 95.689 35.2282C94.974 34.9565 94.2018 34.6848 93.3724 34.4131C92.5286 34.1413 91.6849 33.8839 90.8126 33.6408Z" fill="#C7B299"/>
<path d="M101.452 29.4081H122.245V30.8239H101.452V29.4081ZM102.124 16.6665H121.315V18.0394H102.124V16.6665ZM102.367 26.9342C103.425 26.9342 104.598 26.9342 105.914 26.9056C107.229 26.8913 108.631 26.877 110.118 26.8627C111.62 26.8627 113.15 26.8341 114.723 26.8198C116.296 26.8198 117.883 26.7769 119.442 26.7483L119.37 27.8923C117.325 27.9495 115.28 28.0067 113.221 28.0496C111.176 28.0925 109.217 28.1354 107.358 28.1783C105.499 28.2212 103.854 28.2498 102.41 28.2641L102.339 26.9342H102.367ZM103.897 19.3407H119.914V25.6042H103.897V19.3407ZM105.113 31.7963L106.3 30.781C106.757 31.0384 107.229 31.3387 107.701 31.6819C108.187 32.0251 108.645 32.3683 109.074 32.7115C109.503 33.0547 109.861 33.3693 110.118 33.6553L108.888 34.7994C108.631 34.4991 108.288 34.1558 107.873 33.7983C107.458 33.4408 107.001 33.0833 106.529 32.7401C106.042 32.3826 105.585 32.068 105.127 31.782L105.113 31.7963ZM105.528 20.5133V21.9147H118.226V20.5133H105.528ZM105.528 23.0302V24.4459H118.226V23.0302H105.528ZM110.947 14.9219H112.635V27.2059H110.947V14.9219ZM115.095 27.9495H116.768V34.1272C116.768 34.5706 116.711 34.9138 116.582 35.1569C116.453 35.4 116.21 35.5859 115.852 35.7003C115.481 35.829 115.009 35.9005 114.394 35.9148C113.793 35.9434 113.035 35.9577 112.12 35.9577C112.091 35.7289 112.02 35.4715 111.92 35.1998C111.82 34.9281 111.705 34.6707 111.577 34.4419C112.049 34.4419 112.492 34.4705 112.907 34.4705C113.321 34.4705 113.679 34.4705 113.979 34.4705H114.623C114.823 34.4705 114.952 34.4133 115.009 34.3561C115.066 34.2989 115.095 34.1987 115.095 34.0557V27.9209V27.9495ZM115.223 26.0904L116.224 25.2181C116.839 25.4183 117.454 25.6614 118.098 25.9617C118.741 26.2621 119.342 26.5767 119.928 26.9056C120.514 27.2345 120.986 27.5491 121.344 27.8351L120.343 28.7932C119.957 28.4929 119.485 28.164 118.927 27.8351C118.369 27.5062 117.754 27.1773 117.111 26.8627C116.467 26.5481 115.838 26.2907 115.223 26.0904Z" fill="#C7B299"/>
<path d="M124.633 23.4586C124.604 23.3585 124.561 23.2012 124.49 23.001C124.433 22.8008 124.361 22.6006 124.29 22.4004C124.218 22.2002 124.147 22.0286 124.089 21.8856C124.29 21.8427 124.49 21.6997 124.69 21.4852C124.89 21.2707 125.105 20.9847 125.319 20.6272C125.505 20.3984 125.762 19.9836 126.091 19.3973C126.42 18.7967 126.792 18.1103 127.207 17.3095C127.607 16.5087 127.95 15.6935 128.251 14.8784L129.852 15.5362C129.466 16.3943 129.052 17.238 128.594 18.0817C128.136 18.9254 127.664 19.7262 127.193 20.4842C126.721 21.2421 126.22 21.9428 125.72 22.572V22.6006C125.505 22.7293 125.333 22.8294 125.176 22.9152C125.019 23.001 124.904 23.1011 124.804 23.2012C124.704 23.3013 124.647 23.4014 124.647 23.4872L124.633 23.4586ZM125.205 29.6221L126.606 29.8795C126.478 30.8805 126.32 31.8958 126.12 32.9255C125.92 33.9551 125.691 34.8274 125.448 35.5567C125.348 35.4995 125.205 35.428 125.033 35.3708C124.862 35.3136 124.704 35.2421 124.533 35.1849C124.361 35.1277 124.218 35.0848 124.104 35.0419C124.375 34.3269 124.604 33.4832 124.79 32.5108C124.976 31.5383 125.119 30.5802 125.219 29.6078L125.205 29.6221ZM124.79 28.6354C124.761 28.521 124.704 28.3493 124.647 28.1491C124.576 27.9489 124.504 27.7487 124.433 27.5485C124.361 27.3483 124.29 27.1624 124.232 27.0051C124.49 26.9479 124.747 26.7763 125.005 26.5046C125.262 26.2329 125.562 25.8897 125.92 25.4607C126.106 25.2462 126.377 24.903 126.735 24.4311C127.092 23.9591 127.493 23.4014 127.936 22.7436C128.379 22.0858 128.823 21.3708 129.28 20.6129C129.724 19.8549 130.138 19.0827 130.51 18.3248L131.997 19.1971C131.425 20.2411 130.811 21.2707 130.138 22.286C129.466 23.3013 128.766 24.2737 128.051 25.2033C127.336 26.1328 126.621 26.9622 125.905 27.7058V27.7487C125.691 27.8488 125.505 27.9489 125.362 28.049C125.205 28.1348 125.076 28.2349 124.976 28.335C124.876 28.4352 124.819 28.521 124.819 28.6211L124.79 28.6354ZM124.633 23.4586L124.59 22.2002L125.419 21.6997L129.423 21.3565C129.38 21.571 129.338 21.8141 129.309 22.0715C129.28 22.3432 129.266 22.5577 129.266 22.7436C128.365 22.8437 127.636 22.9295 127.064 23.001C126.492 23.0725 126.063 23.1297 125.734 23.1869C125.419 23.2441 125.176 23.287 125.019 23.3299C124.862 23.3728 124.733 23.4014 124.647 23.4586H124.633ZM124.79 28.6354L124.719 27.3483L125.548 26.8049L131.111 26.0899C131.082 26.3044 131.054 26.5475 131.039 26.8049C131.025 27.0623 131.025 27.2911 131.039 27.4627C129.767 27.6629 128.751 27.8202 127.979 27.9489C127.207 28.0776 126.606 28.1777 126.177 28.2635C125.748 28.3493 125.448 28.4209 125.248 28.4638C125.047 28.5067 124.89 28.5782 124.79 28.6354ZM127.45 29.7937L128.737 29.5935C128.88 30.3657 128.994 31.2094 129.109 32.1246C129.223 33.0256 129.295 33.8264 129.309 34.4985L127.965 34.7559C127.95 34.0838 127.893 33.283 127.793 32.3677C127.693 31.4525 127.579 30.5945 127.464 29.8223L127.45 29.7937ZM129.481 23.9162L130.811 23.6016C130.996 24.1164 131.182 24.6742 131.354 25.2891C131.526 25.904 131.697 26.476 131.84 27.0337C131.983 27.5914 132.069 28.0776 132.112 28.4924L130.71 28.9071C130.668 28.4781 130.582 27.9918 130.453 27.4198C130.324 26.8621 130.181 26.2758 130.01 25.6609C129.838 25.046 129.666 24.474 129.481 23.9448V23.9162ZM129.581 29.3647L130.768 29.0215C131.011 29.6078 131.24 30.237 131.454 30.9234C131.669 31.6098 131.826 32.2104 131.912 32.7396L130.653 33.1543C130.567 32.6538 130.41 32.0388 130.21 31.3381C130.01 30.6374 129.795 29.9796 129.581 29.379V29.3647ZM136.145 27.3054H136.445L136.717 27.2625L137.718 27.6057C137.432 28.7641 137.031 29.808 136.516 30.7375C136.002 31.667 135.415 32.4679 134.743 33.1686C134.071 33.855 133.342 34.427 132.541 34.856C132.412 34.6701 132.269 34.4699 132.069 34.2268C131.883 33.998 131.711 33.8121 131.554 33.6691C132.241 33.3259 132.884 32.8397 133.499 32.239C134.114 31.6384 134.643 30.9377 135.115 30.1512C135.587 29.3647 135.916 28.5067 136.13 27.5914V27.3197L136.145 27.3054ZM132.798 27.3054H136.531V28.7498H132.798V27.3054ZM133.642 17.3238H144.081V25.4035H133.642V17.3238ZM135.244 18.6966V20.6844H142.422V18.6966H135.244ZM135.244 22V24.0449H142.422V22H135.244ZM138.218 24.8315H139.848V34.0552C139.848 34.4985 139.791 34.8417 139.691 35.0991C139.591 35.3565 139.376 35.5567 139.076 35.6997C138.776 35.8427 138.375 35.9142 137.875 35.9428C137.374 35.9714 136.759 35.9714 136.016 35.9714C135.987 35.7426 135.916 35.4852 135.816 35.1849C135.716 34.8846 135.615 34.6272 135.501 34.3984C136.03 34.3984 136.516 34.427 136.96 34.427C137.403 34.427 137.689 34.427 137.832 34.3984C138.004 34.3984 138.104 34.3698 138.147 34.3269C138.19 34.284 138.218 34.1839 138.218 34.0552V24.8315ZM137.946 14.8784L139.848 15.2931C139.605 15.8222 139.362 16.3514 139.105 16.8805C138.847 17.4096 138.619 17.8529 138.404 18.2247L136.945 17.8386C137.146 17.4239 137.331 16.9377 137.517 16.3657C137.703 15.7936 137.846 15.3074 137.946 14.8784ZM139.777 25.9612C140.091 27.048 140.52 28.0919 141.064 29.093C141.593 30.094 142.222 30.9949 142.952 31.7671C143.681 32.5394 144.467 33.1543 145.34 33.5976C145.24 33.6977 145.111 33.8407 144.968 33.9837C144.825 34.141 144.682 34.2983 144.553 34.4699C144.424 34.6415 144.31 34.7988 144.224 34.9418C143.338 34.3984 142.537 33.6834 141.793 32.7968C141.064 31.9101 140.42 30.9091 139.877 29.7937C139.334 28.6783 138.89 27.4913 138.561 26.2472L139.777 25.9469V25.9612ZM143.538 26.2329L144.825 27.2625C144.239 27.7916 143.638 28.3351 142.994 28.8928C142.351 29.4505 141.75 29.9224 141.193 30.2942L140.234 29.4648C140.592 29.1788 140.964 28.8499 141.378 28.4638C141.793 28.0776 142.179 27.7058 142.565 27.2911C142.952 26.8907 143.28 26.5189 143.552 26.2043L143.538 26.2329Z" fill="#C7B299"/>
</svg>
