<?xml version="1.0" encoding="UTF-8"?>
<svg id="_圖層_1" xmlns="http://www.w3.org/2000/svg" version="1.1" viewBox="0 0 120 44">
  <!-- Generator: Adobe Illustrator 29.4.0, SVG Export Plug-In . SVG Version: 2.1.0 Build 152)  -->
  <defs>
    <style>
      .st0 {
        fill: #c7b299;
      }
    </style>
  </defs>
  <path class="st0" d="M19.5.6c10.4-1,18.8,8.3,16.7,18.6-1.2,6.2-5.8,13.2-9.6,18.2-1.2,1.6-2.9,4-4.3,5.4-.6.5-.9.9-1.8.6-.6-.2-3.2-3.6-3.8-4.4-4.9-6.3-12.2-16.9-11.1-25.2C6.6,6.9,12.5,1.2,19.5.6h0ZM20.1,8.3c-10,1.1-8.8,16.8,2.1,15.5,9.5-1.1,8.2-16.6-2.1-15.5Z"/>
  <path class="st0" d="M51.1,26.1c.4-.2.9-.4,1.5-.6.5-.2,1.1-.5,1.8-.7.6-.3,1.2-.5,1.9-.8l.3,1.1c-.8.4-1.7.8-2.6,1.2-.9.4-1.6.7-2.3,1l-.5-1.2h-.1ZM51.4,19.1h4.8v1.1h-4.8v-1.1ZM53.3,15.5h1.1v10.4h-1.1v-10.4ZM55.7,21.9l8.6-3.6.5,1-8.6,3.7s-.5-1.1-.5-1.1ZM57.4,16.8h1.2v11.4c0,.2.2.3.4.3h4.7c.3,0,.6,0,.7-.2.2-.1.3-.4.3-.7s0-.8.2-1.4c0,.1.3.2.5.3s.4.1.5.2c0,.7,0,1.3-.3,1.7,0,.4-.4.7-.7.9-.3.2-.7.3-1.3.3h-4c-.6,0-1.1,0-1.4-.2-.4-.1-.6-.3-.7-.7s-.2-.8-.2-1.3v-10.7h0ZM60.7,15.3h1.1v11.1h-1.1v-11.1ZM64,18.6h-.2l.5-.4.9.3v.2c0,.8-.2,1.6-.3,2.4,0,.9-.2,1.7-.3,2.5s-.2,1.5-.4,2.1l-1-.3c0-.4,0-.9.2-1.5s0-1.1.2-1.8c0-.6,0-1.2,0-1.9v-1.8h0l.3.2Z"/>
  <path class="st0" d="M67.9,15.9h13.4v14h-1.2v-13h-11.1v13h-1.1s0-14,0-14ZM68.6,28.3h12.1v1h-12.1v-1ZM69.8,20.9h9.6v.8h-9.6v-.8ZM70.8,22.4h7.4v5.1h-7.4v-5.1ZM71.3,17.7h6.4v2.5h-6.4v-2.5ZM71.8,23.1v3.6h5.4v-3.6h-5.4ZM72.3,18.4v1.1h4.4v-1.1h-4.4ZM72.8,23.8h3.4v2.2h-3.4v-2.2ZM73.6,24.4v.9h1.9v-.9h-1.9ZM74,19.7h1v1.6h-1v-1.6Z"/>
  <path class="st0" d="M83.4,25.8h14.2v1h-14.2v-1ZM86.6,20.1h.6l.5.3c-.3,1.1-.8,2.1-1.5,2.9s-1.3,1.5-2.1,1.9c0,0,0-.2-.2-.3,0-.1-.2-.2-.2-.3s-.2-.2-.2-.2c.7-.4,1.4-.9,1.9-1.6s1-1.5,1.3-2.4v-.2h-.1ZM84,21.3s0-.2,0-.3c0-.1,0-.3-.2-.4,0-.1,0-.2,0-.3,0,0,.2,0,.3-.1s.3-.1.4-.3c0-.1.3-.2.5-.4.2-.2.4-.4.7-.7s.5-.5.7-.7.4-.4.5-.6h0l.4-.2.7.4c-.2.3-.5.6-.9.9-.3.4-.7.7-1,1s-.7.6-1,.9c-.2,0-.3.2-.4.2s-.2.1-.3.2,0,.2,0,.2h0v.2ZM83.6,17.5h3.2v1h-3.2v-1ZM84,21.3v-.9l.6-.3h2.4v1h-2.7c-.2,0-.3,0-.4.2h0ZM84.5,15.6l1-.3c.2.2.4.5.6.8.2.3.3.5.5.8l-1,.3c0-.2-.3-.5-.5-.8s-.4-.6-.6-.8ZM86.6,22c.3.5.6.9,1,1.2s1,.4,1.7.5c.7,0,1.5.1,2.4.1h4.3c.7,0,1.4,0,2-.1,0,.1,0,.3-.2.5,0,.2,0,.4,0,.5h-5.8c-1.1,0-2.1,0-2.8-.2-.8-.1-1.4-.4-1.8-.7-.5-.4-.9-.9-1.2-1.6l.7-.4h0l-.2.2ZM86.4,27.4l.8-.7c.4.3.8.6,1.2,1,.4.4.7.7,1,1l-.9.8c0-.2-.3-.4-.6-.7s-.5-.5-.8-.7-.5-.5-.8-.7h.1ZM87.5,16.7h10v.9h-10v-.9ZM88.6,18.4h7.6v4.8h-7.6v-4.8ZM89.5,15.5l1-.3c.2.2.3.4.5.7.2.3.3.5.4.7l-1,.4c0-.2-.2-.5-.3-.7-.2-.3-.3-.5-.5-.8h0ZM89.6,19.1v.7h5.6v-.7h-5.6ZM89.6,20.4v.7h5.6v-.7h-5.6ZM89.6,21.8v.8h5.6v-.8h-5.6ZM93,24.9h1.2v3.7c0,.3,0,.6,0,.7,0,.2-.3.3-.5.4-.3,0-.6.1-1,.1h-1.6c0-.2,0-.3-.2-.5,0-.2-.2-.4-.2-.5h2.5v-3.9h-.1ZM91.9,17h1.2c0,.4-.3.7-.4,1s-.3.5-.4.7l-1-.2c0-.2.2-.5.3-.8,0-.3.2-.5.2-.8h.1ZM94.5,15.3l1.1.2c-.2.3-.4.6-.6.9s-.4.5-.6.8l-.9-.2c.2-.2.3-.5.5-.8.2-.3.3-.6.4-.8h0Z"/>
  <path class="st0" d="M104.1,26.9h1.2c0,.5-.3.9-.5,1.2-.2.4-.6.6-1,.9s-1,.4-1.6.6-1.4.3-2.4.4c0-.1,0-.3-.2-.5,0-.2-.2-.3-.3-.4.9,0,1.6-.2,2.1-.3.6-.1,1.1-.2,1.4-.4.4-.2.7-.4.9-.6.2-.2.3-.5.4-.9h0ZM106.4,15.8v.8h-5.3v4.1h5.5v.8h-6.5v-5.6h6.4,0ZM100.6,17.4h5.3v2.4h-5.3v-.7h4.3v-.9h-4.3v-.7h0ZM101.6,22.1h9.8v5.2h-9.8s0-5.2,0-5.2ZM102.7,16.1h1v1.5h-1v-1.5ZM102.7,19.4h1v1.5h-1v-1.5ZM102.8,22.8v.8h7.5v-.8h-7.5ZM102.8,24.3v.8h7.5v-.8h-7.5ZM102.8,25.8v.8h7.5v-.8h-7.5ZM108.1,15.3l1.1.2c-.2.6-.5,1.1-.8,1.7s-.8,1.1-1.4,1.5c0-.1-.2-.2-.4-.4-.2-.1-.3-.2-.4-.3.5-.4.9-.8,1.2-1.3.3-.5.6-.9.7-1.4h0ZM107.2,19h6.2v2.5h-6.2v-2.5ZM107.5,26.8h1.2v1.6c0,.2,0,.3.2.3h3.2c.2,0,.4,0,.5-.1,0,0,.2-.2.2-.4v-1c0,0,.3.1.5.2.2,0,.4.1.5.2,0,.5,0,1-.2,1.3,0,.3-.3.5-.5.6s-.5.2-.9.2h-2.8c-.5,0-.9,0-1.2-.1-.3,0-.5-.2-.6-.4,0-.2-.2-.5-.2-.8v-1.6h.1ZM108,16.2h5.7v.8h-5.7v-.8ZM108.1,17.7h4.8v.8h-4.8v-.8ZM108.1,19.7v1.1h1v-1.1h-1ZM109.8,19.7v1.1h1v-1.1h-1ZM111.5,19.7v1.1h1v-1.1h-1Z"/>
</svg>