<svg width="148" height="50" viewBox="0 0 148 50" fill="none" xmlns="http://www.w3.org/2000/svg">
<path d="M41.8354 10.34L24.9355 27.16C23.5655 28.27 21.6155 28.27 20.2455 27.16L3.34546 10.34L4.92546 10H40.4155L41.8354 10.34Z" fill="#C7B299"/>
<path d="M41.8354 39.7902L40.4155 40.1302H4.92546L3.34546 39.7902L16.3155 26.9102C20.0455 31.6402 25.1454 31.6402 28.8654 26.9102L41.8354 39.7902Z" fill="#C7B299"/>
<path d="M1.5055 37.9502L1.1655 36.5302C1.5855 29.1002 0.6355 21.1102 1.1655 13.7602C1.2055 13.1602 1.3255 12.7402 1.5055 12.1802L14.3755 25.0102L1.5055 37.9602V37.9502Z" fill="#C7B299"/>
<path d="M43.6756 37.9499L30.8055 25.1199L43.6756 12.1699C43.8556 12.7299 43.9755 13.1499 44.0155 13.7499C44.5455 21.1099 43.5955 29.0999 44.0155 36.5199L43.6756 37.9399V37.9499Z" fill="#C7B299"/>
<path d="M57.8055 23.5722H66.5426V25.1308H57.8055V23.5722ZM58.2774 16.308H65.7132V17.838H58.2774V16.308ZM61.5806 24.3301H63.2251V34.2397C63.2251 34.6973 63.1679 35.0548 63.0392 35.3122C62.9105 35.5696 62.696 35.7698 62.3814 35.9128C62.0668 36.0558 61.6378 36.1273 61.1088 36.1702C60.5797 36.2131 59.9219 36.2131 59.1354 36.2131C59.1068 35.9843 59.0353 35.7126 58.9352 35.398C58.8351 35.0834 58.7207 34.8117 58.592 34.5686C59.1926 34.5829 59.7217 34.5972 60.2079 34.5972H61.1517C61.3233 34.5829 61.4377 34.5543 61.4949 34.5114C61.5521 34.4685 61.5806 34.3684 61.5806 34.2111V24.3444V24.3301ZM58.9495 20.3119L59.8647 19.1965C60.5082 19.5111 61.166 19.8972 61.8381 20.3119C62.5101 20.7409 63.1536 21.1841 63.7542 21.6274C64.3548 22.0707 64.8267 22.4997 65.1985 22.8715L64.2118 24.1585C63.8543 23.7581 63.3967 23.3291 62.8104 22.8715C62.2241 22.4139 61.595 21.942 60.9229 21.4987C60.2508 21.0554 59.593 20.6551 58.9495 20.3262V20.3119ZM65.1842 16.308H65.5559L65.8991 16.2222L66.9716 16.98C66.6141 17.5663 66.2137 18.1526 65.7419 18.7675C65.27 19.3824 64.7838 19.9544 64.2833 20.4978C63.7828 21.0411 63.2823 21.513 62.7961 21.9277C62.696 21.7561 62.5387 21.5845 62.3242 21.3843C62.1097 21.1841 61.9381 21.0268 61.7808 20.8982C62.2098 20.5264 62.6388 20.1117 63.0678 19.6112C63.4968 19.125 63.8972 18.6245 64.2833 18.0954C64.6694 17.5806 64.9697 17.0944 65.1985 16.6512V16.308H65.1842ZM66.0564 23.5722H66.2852L66.5426 23.5007L67.6151 23.801C67.3291 24.6733 67.0145 25.5598 66.6713 26.4893C66.3281 27.4188 65.9992 28.191 65.699 28.8059L64.3977 28.4627C64.5836 28.0766 64.7695 27.6333 64.9697 27.1042C65.1699 26.5751 65.3558 26.0317 65.5559 25.4597C65.7418 24.8878 65.9134 24.3444 66.0707 23.8296V23.5722H66.0564ZM70.3177 32.295L71.8049 33.1815C71.3902 33.5819 70.904 33.968 70.3177 34.3684C69.7314 34.7688 69.1309 35.1263 68.4731 35.4695C67.8296 35.7984 67.2004 36.0844 66.5855 36.3132C66.4425 36.1559 66.2709 35.97 66.0422 35.7412C65.8134 35.5124 65.6132 35.3265 65.4273 35.1692C66.0421 34.9404 66.657 34.6687 67.2862 34.3541C67.9154 34.0395 68.4874 33.7106 69.0308 33.3531C69.5599 32.9957 70.0032 32.6382 70.332 32.295H70.3177ZM67.1289 16.2794H78.7545V17.7665H67.1289V16.2794ZM68.0298 19.9401H77.9823V31.8803H68.0298V19.9401ZM69.6314 21.2842V23.4864H76.3379V21.2842H69.6314ZM69.6314 24.7734V27.0184H76.3379V24.7734H69.6314ZM69.6314 28.2911V30.5504H76.3379V28.2911H69.6314ZM72.048 16.9943L73.9928 17.2517C73.8069 17.9095 73.6209 18.5673 73.4208 19.2394C73.2206 19.9115 73.0347 20.4978 72.8488 20.9839L71.3187 20.6837C71.4045 20.3262 71.5046 19.9401 71.6047 19.5111C71.7048 19.0821 71.7906 18.6388 71.8621 18.1955C71.9336 17.7522 72.0051 17.3518 72.048 17.0086V16.9943ZM73.8641 33.2959L75.151 32.4094C75.6229 32.6668 76.1091 32.9671 76.6239 33.3245C77.1387 33.682 77.6249 34.0252 78.0825 34.3827C78.5543 34.7402 78.9261 35.0548 79.2407 35.3408L77.8679 36.3275C77.5963 36.0415 77.2245 35.7126 76.7812 35.3694C76.3379 35.0119 75.8517 34.6544 75.3226 34.2969C74.8078 33.9251 74.3216 33.5962 73.8641 33.3102V33.2959Z" fill="#C7B299"/>
<path d="M82.2294 29.9209L83.7594 30.2355C83.5735 31.2079 83.3447 32.1946 83.0588 33.1956C82.7728 34.1965 82.4868 35.0545 82.2008 35.7695C82.1007 35.698 81.9434 35.6265 81.7718 35.5693C81.6002 35.5121 81.4 35.4406 81.2284 35.3691C81.0425 35.2976 80.8709 35.2547 80.7279 35.2261C81.0425 34.5254 81.3428 33.6961 81.6002 32.738C81.8576 31.7799 82.0721 30.8361 82.2437 29.9067L82.2294 29.9209ZM81.3142 23.7578C81.2856 23.6577 81.2427 23.5004 81.1712 23.3002C81.114 23.1 81.0425 22.8998 80.971 22.6996C80.8995 22.4994 80.828 22.3278 80.7708 22.1848C80.9853 22.1419 81.1998 21.9989 81.4286 21.7845C81.6574 21.57 81.9148 21.284 82.1865 20.9265C82.3295 20.7549 82.5297 20.4832 82.8157 20.0971C83.1017 19.711 83.4163 19.2534 83.7594 18.7243C84.1026 18.1952 84.4601 17.6233 84.8176 17.0084C85.1751 16.3935 85.504 15.7786 85.79 15.1494L87.3915 15.8358C86.6766 17.1371 85.8901 18.3954 85.0178 19.6395C84.1598 20.8693 83.2876 21.9417 82.4153 22.8426V22.8855C82.1865 23.0142 82.0006 23.1143 81.8719 23.2001C81.7289 23.2859 81.6145 23.3717 81.5001 23.4718C81.3857 23.5719 81.3285 23.672 81.3285 23.7578H81.3142ZM81.4286 28.9343C81.4 28.8199 81.3428 28.6626 81.2856 28.4624C81.2141 28.2765 81.1426 28.0763 81.0854 27.8618C81.0139 27.6473 80.9424 27.4614 80.8709 27.2898C81.1426 27.2469 81.4286 27.0896 81.7146 26.8465C82.0006 26.5891 82.3438 26.2602 82.7442 25.8456C82.9587 25.6454 83.2733 25.3165 83.6737 24.8446C84.074 24.3727 84.5316 23.8293 85.0464 23.1858C85.5612 22.5423 86.076 21.8559 86.6051 21.0981C87.1341 20.3545 87.6203 19.5823 88.0779 18.8101L89.5365 19.7539C88.5212 21.2983 87.4059 22.7854 86.1904 24.2297C84.9749 25.674 83.788 26.9323 82.6012 28.0191V28.062C82.3581 28.1764 82.1579 28.2622 82.0006 28.3623C81.8433 28.4481 81.7146 28.5482 81.6002 28.6483C81.4858 28.7484 81.4286 28.8485 81.4286 28.9343ZM81.3142 23.7578L81.2713 22.528L82.1007 21.9989L86.648 21.5843C86.6051 21.813 86.5622 22.0561 86.5479 22.3278C86.5336 22.5995 86.5193 22.814 86.5193 22.9856C85.4754 23.1 84.646 23.1858 84.0025 23.2716C83.3591 23.3574 82.8729 23.4289 82.5154 23.4718C82.1579 23.529 81.9005 23.5719 81.7289 23.6148C81.5573 23.6577 81.4143 23.7006 81.3285 23.7578H81.3142ZM81.4286 28.9343L81.3428 27.633L82.2151 27.0324L89.1933 26.0457C89.179 26.2745 89.1647 26.5319 89.1504 26.8036C89.1361 27.0753 89.1361 27.3041 89.1504 27.49C87.5488 27.7331 86.2619 27.9333 85.2895 28.0906C84.3171 28.2479 83.5878 28.3766 83.073 28.4767C82.5583 28.5768 82.1865 28.6626 81.9577 28.7341C81.7289 28.8056 81.5573 28.8628 81.4286 28.9343ZM84.9749 30.0925L86.3763 29.7494C86.5479 30.5787 86.7052 31.451 86.8482 32.3805C86.9911 33.31 87.0912 34.125 87.1627 34.8257L85.7042 35.1975C85.6756 34.7256 85.6184 34.1965 85.5612 33.6246C85.4897 33.0383 85.4039 32.452 85.3038 31.8228C85.2037 31.2079 85.1036 30.6359 84.9892 30.0925H84.9749ZM87.4344 24.0581L88.8358 23.6863C89.0503 24.1868 89.2648 24.7302 89.4793 25.3022C89.6938 25.8741 89.8797 26.4318 90.0513 26.9609C90.2229 27.49 90.3373 27.9619 90.4231 28.3766L88.9359 28.8342C88.8787 28.4195 88.7643 27.9476 88.5927 27.3899C88.4211 26.8322 88.2352 26.2745 88.0493 25.6883C87.8491 25.102 87.649 24.5586 87.4488 24.0581H87.4344ZM87.792 29.7065L89.0789 29.2775C89.3792 29.9638 89.6795 30.7074 89.9655 31.5368C90.2515 32.3519 90.4517 33.0526 90.5947 33.6532L89.2505 34.1536C89.1647 33.7533 89.036 33.31 88.8787 32.7952C88.7214 32.2804 88.5498 31.7513 88.3639 31.2222C88.178 30.6788 87.9921 30.1783 87.8205 29.7208L87.792 29.7065ZM92.8969 15.2066L94.5843 15.5498C94.3126 16.6795 93.9694 17.7805 93.5833 18.8673C93.1972 19.9541 92.7539 20.9551 92.2963 21.8988C91.8244 22.8426 91.3382 23.672 90.7948 24.4013C90.6947 24.3155 90.5375 24.2011 90.3659 24.0867C90.18 23.9723 89.9941 23.8436 89.8225 23.7149C89.6366 23.6005 89.465 23.5004 89.322 23.4146C89.8654 22.7568 90.3659 21.9846 90.8235 21.0981C91.2668 20.2115 91.6671 19.2677 92.0246 18.2667C92.3821 17.2658 92.6681 16.2362 92.9112 15.2066H92.8969ZM91.9102 19.4536H99.9896V21.0838H91.9102V19.4536ZM91.9102 25.0162L93.1257 24.1439C93.6405 24.6301 94.1696 25.1735 94.6987 25.7598C95.2278 26.346 95.7139 26.9323 96.1572 27.5043C96.6005 28.0763 96.9437 28.6054 97.1868 29.0773L95.8998 30.0782C95.6567 29.6064 95.3279 29.0773 94.8989 28.4767C94.4699 27.8761 94.0123 27.2755 93.4832 26.6749C92.9541 26.0743 92.4393 25.5024 91.9102 25.0019V25.0162ZM99.3032 19.4536H101.048C101.048 19.6824 101.048 19.8683 101.048 20.0113C101.048 20.1543 101.048 20.2687 101.048 20.3402C100.976 22.8998 100.89 25.0734 100.805 26.8322C100.719 28.5911 100.633 30.0496 100.533 31.165C100.433 32.2804 100.304 33.1527 100.161 33.7819C100.004 34.411 99.8322 34.8543 99.6177 35.1117C99.3604 35.4406 99.0887 35.6837 98.8027 35.8124C98.5167 35.9411 98.1735 36.0269 97.7588 36.0698C97.3727 36.1127 96.8722 36.127 96.2573 36.1127C95.6424 36.0984 95.0132 36.0698 94.3698 36.0412C94.3555 35.7981 94.2983 35.5121 94.1982 35.1832C94.0981 34.8543 93.9694 34.5683 93.7978 34.3252C94.5271 34.3824 95.1991 34.4253 95.7997 34.4253C96.4003 34.4253 96.8293 34.4253 97.0867 34.4253C97.3012 34.4396 97.4728 34.4253 97.6301 34.3824C97.7731 34.3395 97.9018 34.2394 98.0305 34.0821C98.2021 33.8819 98.3451 33.4816 98.4881 32.8953C98.6311 32.309 98.7455 31.4367 98.8456 30.3213C98.9457 29.206 99.0314 27.776 99.1029 26.06C99.1744 24.3298 99.2602 22.242 99.3317 19.7968V19.425L99.3032 19.4536Z" fill="#C7B299"/>
<path d="M110.7 33.3247L112.33 33.9682C111.772 34.3114 111.086 34.626 110.3 34.9262C109.513 35.2265 108.684 35.4982 107.811 35.7413C106.953 35.9844 106.138 36.1846 105.38 36.3705C105.295 36.2418 105.166 36.0988 105.009 35.9415C104.851 35.7699 104.694 35.6126 104.537 35.4553C104.38 35.298 104.236 35.155 104.108 35.0549C104.894 34.9405 105.709 34.7975 106.539 34.626C107.368 34.4687 108.155 34.2685 108.884 34.054C109.613 33.8252 110.228 33.5964 110.714 33.339L110.7 33.3247ZM104.708 17.8096H123.784V21.8135H122.111V19.0679H106.324V21.8135H104.694V17.8096H104.708ZM106.925 15.8505L108.441 15.3643C108.812 15.6789 109.156 16.0507 109.499 16.4654C109.842 16.8801 110.099 17.2519 110.285 17.5808L108.712 18.1814C108.555 17.8668 108.312 17.4807 107.954 17.0231C107.597 16.5798 107.254 16.1794 106.925 15.8505ZM106.939 25.1596H121.725V33.1388H106.939V25.1596ZM108.226 20.2834H120.381V24.0585H108.226V20.2834ZM108.598 26.2035V27.4618H120.038V26.2035H108.598ZM108.598 28.4914V29.7498H120.038V28.4914H108.598ZM108.598 30.7793V32.0663H120.038V30.7793H108.598ZM109.828 21.3845V22.9574H118.679V21.3845H109.828ZM113.217 15.207H114.961V18.6818H113.217V15.207ZM115.962 34.2399L117.249 33.2532C118.093 33.4534 118.937 33.6679 119.795 33.911C120.652 34.1541 121.468 34.3829 122.24 34.626C123.012 34.869 123.67 35.0835 124.213 35.298L122.469 36.299C121.997 36.0845 121.41 35.87 120.71 35.6412C120.009 35.4124 119.251 35.1693 118.436 34.9262C117.621 34.6832 116.792 34.4544 115.948 34.2399H115.962ZM119.98 15.2499L121.696 15.7504C121.339 16.208 120.967 16.6513 120.581 17.0803C120.181 17.5093 119.823 17.8668 119.509 18.1814L118.136 17.6952C118.436 17.3663 118.779 16.9516 119.137 16.4797C119.494 16.0078 119.78 15.5931 119.995 15.2499H119.98Z" fill="#C7B299"/>
<path d="M128.789 16.3647H130.505V22.7424C130.505 23.7291 130.476 24.8158 130.419 25.9741C130.362 27.1324 130.248 28.3193 130.062 29.5347C129.876 30.7502 129.618 31.9228 129.261 33.081C128.903 34.225 128.446 35.2832 127.86 36.2556C127.745 36.1412 127.602 36.0411 127.416 35.9267C127.23 35.8123 127.03 35.7122 126.844 35.6121C126.658 35.512 126.487 35.4405 126.329 35.3976C126.887 34.4681 127.345 33.4671 127.674 32.3947C128.003 31.3222 128.246 30.2211 128.403 29.1057C128.56 27.9904 128.66 26.8893 128.718 25.8025C128.775 24.7157 128.789 23.7148 128.789 22.7853V16.4076V16.3647ZM129.819 16.3647H145.806V21.5126H129.819V20.0684H144.09V17.809H129.819V16.3647ZM129.962 34.1964H147.236V35.5978H129.962V34.1964ZM130.648 23.1428H146.549V24.5584H130.648V23.1428ZM132.049 28.834C132.021 28.7196 131.978 28.5623 131.906 28.3621C131.849 28.1763 131.778 27.9761 131.706 27.7616C131.635 27.5614 131.577 27.3898 131.506 27.2468C131.692 27.2182 131.892 27.1467 132.107 27.0323C132.321 26.9179 132.55 26.7606 132.793 26.5604C132.965 26.446 133.236 26.2172 133.622 25.9026C134.008 25.588 134.423 25.1876 134.866 24.73C135.31 24.2725 135.724 23.8006 136.096 23.3144L137.54 24.201C136.868 24.9302 136.153 25.6309 135.381 26.2887C134.609 26.9465 133.851 27.5042 133.079 27.9761V28.019C132.864 28.1048 132.693 28.1906 132.564 28.2764C132.435 28.3478 132.321 28.4479 132.207 28.5337C132.107 28.6338 132.049 28.7339 132.049 28.8197V28.834ZM131.706 30.2783H145.477V31.694H131.706V30.2783ZM132.049 28.834L132.021 27.6472L133.05 27.1038L143.918 26.5318C143.947 26.7463 143.99 26.9751 144.061 27.2325C144.118 27.4899 144.175 27.6901 144.247 27.8617C142.159 27.9761 140.415 28.0905 139.013 28.1763C137.612 28.2621 136.482 28.3479 135.624 28.405C134.766 28.4622 134.094 28.5194 133.622 28.5623C133.15 28.6052 132.807 28.6481 132.578 28.691C132.35 28.7339 132.178 28.7768 132.035 28.834H132.049ZM137.655 27.9475H139.328V35.0687H137.655V27.9475ZM140.415 25.3163L141.673 24.5441C142.216 24.9159 142.788 25.3306 143.389 25.8025C143.99 26.2744 144.547 26.7463 145.076 27.2039C145.605 27.6758 146.034 28.0905 146.363 28.4765L145.019 29.3917C144.705 29.0056 144.29 28.5766 143.775 28.1048C143.26 27.6329 142.717 27.1324 142.131 26.6462C141.544 26.1457 140.972 25.7167 140.429 25.3306L140.415 25.3163Z" fill="#C7B299"/>
</svg>
