<?xml version="1.0" encoding="UTF-8"?>
<svg id="_圖層_1" xmlns="http://www.w3.org/2000/svg" version="1.1" viewBox="0 0 120 44">
  <!-- Generator: Adobe Illustrator 29.4.0, SVG Export Plug-In . SVG Version: 2.1.0 Build 152)  -->
  <defs>
    <style>
      .st0 {
        fill: #c7b299;
      }
    </style>
  </defs>
  <path class="st0" d="M41.3,7.2l-16.9,16.8c-1.4,1.1-3.3,1.1-4.7,0L2.8,7.2l1.6-.3h35.5s1.4.3,1.4.3Z"/>
  <path class="st0" d="M41.3,36.7l-1.4.3H4.4l-1.6-.3,13-12.9c3.7,4.7,8.8,4.7,12.6,0l13,12.9h-.1Z"/>
  <path class="st0" d="M.9,34.8l-.3-1.4c.4-7.4-.5-15.4,0-22.8,0-.6.2-1,.3-1.6l12.9,12.8L.9,34.8h0Z"/>
  <path class="st0" d="M43.1,34.8l-12.9-12.8,12.9-12.9c.2.6.3,1,.3,1.6.5,7.4-.4,15.3,0,22.8l-.3,1.4h0Z"/>
  <path class="st0" d="M57.2,21.1h6.1v1.1h-6.1v-1.1ZM57.6,16h5.2v1.1h-5.2v-1.1ZM59.9,21.6h1.2v6.9c0,.3,0,.6,0,.8s-.2.3-.5.4-.5.1-.9.2h-1.4c0-.2,0-.3,0-.6,0-.2-.2-.4-.2-.6h2v-7.1h0ZM58,18.8l.6-.8c.4.2.9.5,1.4.8s.9.6,1.3.9c.4.3.8.6,1,.9l-.7.9c-.2-.3-.6-.6-1-.9s-.8-.7-1.3-1-.9-.6-1.4-.8h.1ZM62.4,16h.5l.8.5c-.2.4-.5.8-.9,1.2-.3.4-.7.8-1,1.2-.4.4-.7.7-1,1,0-.1-.2-.2-.3-.4,0-.1-.3-.2-.4-.3.3-.3.6-.6.9-.9.3-.3.6-.7.9-1.1.3-.4.5-.7.6-1v-.2h0ZM63,21.1h.3l.8.2c-.2.6-.4,1.2-.7,1.9-.2.6-.5,1.2-.7,1.6l-.9-.2c0-.3.3-.6.4-.9,0-.4.3-.8.4-1.2,0-.4.2-.8.4-1.1v-.2h0ZM66,27.2l1,.6c-.3.3-.6.5-1,.8s-.8.5-1.3.8c-.5.2-.9.4-1.3.6,0-.1-.2-.2-.4-.4s-.3-.3-.4-.4c.4-.2.9-.4,1.3-.6.4-.2.8-.5,1.2-.7.4-.2.7-.5.9-.7h0ZM63.8,16h8.1v1h-8.1s0-1,0-1ZM64.4,18.6h7v8.4h-7v-8.4ZM65.5,19.5v1.5h4.7v-1.5h-4.7ZM65.5,21.9v1.6h4.7v-1.6h-4.7ZM65.5,24.4v1.6h4.7v-1.6h-4.7ZM67.2,16.5l1.4.2c0,.5-.3.9-.4,1.4s-.3.9-.4,1.2l-1.1-.2c0-.2,0-.5.2-.8,0-.3,0-.6.2-.9,0-.3,0-.6,0-.8h0ZM68.5,27.9l.9-.6c.3.2.7.4,1,.6s.7.5,1,.7.6.5.8.7l-1,.7c-.2-.2-.5-.4-.8-.7-.3-.2-.7-.5-1-.8-.4-.3-.7-.5-1-.7h0Z"/>
  <path class="st0" d="M74.3,25.5l1.1.2c0,.7-.3,1.4-.5,2.1s-.4,1.3-.6,1.8c0,0-.2-.1-.3-.1s-.3,0-.4-.1h-.3c.2-.5.4-1.1.6-1.7.2-.7.3-1.3.4-2h0v-.2ZM73.7,21.2v-.3c0-.1,0-.3,0-.4,0-.1,0-.3,0-.4.2,0,.3-.1.5-.3.2-.2.3-.4.5-.6,0-.1.2-.3.4-.6.2-.3.4-.6.7-1,.2-.4.5-.8.7-1.2.2-.4.5-.9.7-1.3l1.1.5c-.5.9-1,1.8-1.7,2.7-.6.9-1.2,1.6-1.8,2.2h0c-.2.1-.3.2-.4.2,0,0-.2.1-.3.2,0,0,0,.1,0,.2h0ZM73.8,24.9v-.3c0-.1,0-.3,0-.4,0-.1,0-.3-.2-.4.2,0,.4-.1.6-.3.2-.2.4-.4.7-.7.2-.1.4-.4.7-.7.3-.3.6-.7,1-1.2s.7-.9,1.1-1.5c.4-.5.7-1.1,1-1.6l1,.7c-.7,1.1-1.5,2.1-2.3,3.1s-1.7,1.9-2.5,2.6h0c-.2.1-.3.2-.4.2s-.2.1-.3.2,0,.1,0,.2h-.2ZM73.7,21.2v-.9l.6-.4,3.2-.3v1c-.7,0-1.3.1-1.8.2-.5,0-.8.1-1,.1s-.4,0-.6.1c0,0-.2,0-.3.1h0ZM73.8,24.9v-.9l.6-.4,4.9-.7v1c-1.1.2-2,.3-2.7.4s-1.2.2-1.6.3-.6.1-.8.2c-.2,0-.3,0-.4.1ZM76.2,25.7l1-.2c0,.6.2,1.2.3,1.8,0,.7.2,1.2.2,1.7l-1,.3v-1.1c0-.4,0-.8-.2-1.3,0-.4,0-.8-.2-1.2h-.1ZM78,21.4l1-.3c.2.3.3.7.4,1.1.2.4.3.8.4,1.2,0,.4.2.7.3,1l-1,.3c0-.3,0-.6-.2-1s-.2-.8-.4-1.2c0-.4-.3-.8-.4-1.1h-.1ZM78.2,25.4l.9-.3c.2.5.4,1,.6,1.6s.3,1.1.4,1.5l-.9.4c0-.3-.2-.6-.3-1s-.2-.7-.4-1.1c0-.4-.3-.7-.4-1h.1ZM81.8,15.3l1.2.2c-.2.8-.4,1.6-.7,2.3-.3.8-.6,1.5-.9,2.1-.3.7-.7,1.2-1,1.8,0,0-.2-.1-.3-.2,0,0-.3-.2-.4-.3,0,0-.2-.1-.3-.2.4-.5.7-1,1-1.6s.6-1.3.8-2,.4-1.4.6-2.1h0ZM81.1,18.2h5.7v1.1h-5.7v-1.1ZM81.1,22.1l.8-.6c.4.3.7.7,1.1,1.1s.7.8,1,1.2c.3.4.5.8.7,1.1l-.9.7c-.2-.3-.4-.7-.7-1.1-.3-.4-.6-.8-1-1.3s-.7-.8-1.1-1.2h0ZM86.3,18.2h1.2v.6c0,1.8,0,3.3-.2,4.5,0,1.2,0,2.2-.2,3,0,.8-.2,1.4-.3,1.8,0,.4-.2.8-.4.9-.2.2-.4.4-.6.5s-.4.1-.7.2h-2.4c0-.2,0-.4,0-.6s-.2-.4-.3-.6h2.7s.2-.1.3-.2c0-.1.2-.4.3-.8s.2-1,.2-1.8,0-1.8.2-3c0-1.2,0-2.7.2-4.4v-.3h0v.2Z"/>
  <path class="st0" d="M94.2,27.9l1.1.5c-.4.2-.9.5-1.4.7-.6.2-1.1.4-1.7.6s-1.2.3-1.7.4c0,0-.2-.2-.3-.3,0-.1-.2-.2-.3-.3s-.2-.2-.3-.3c.6,0,1.1-.2,1.7-.3.6-.1,1.1-.2,1.6-.4.5-.2.9-.3,1.3-.5h0ZM90,17.1h13.3v2.8h-1.2v-1.9h-11v1.9h-1.1v-2.8h0ZM91.6,15.7l1.1-.3c.3.2.5.5.7.8s.4.6.6.8l-1.1.4c0-.2-.3-.5-.5-.8s-.5-.6-.7-.8h0ZM91.6,22.2h10.3v5.6h-10.3v-5.6ZM92.5,18.8h8.5v2.6h-8.5v-2.6ZM92.8,22.9v.9h8v-.9h-8ZM92.8,24.5v.9h8v-.9h-8ZM92.8,26.1v.9h8v-.9h-8ZM93.6,19.6v1.1h6.2v-1.1h-6.2ZM96,15.3h1.2v2.4h-1.2v-2.4ZM97.9,28.6l.9-.7c.6.1,1.2.3,1.8.5.6.2,1.2.3,1.7.5s1,.3,1.4.5l-1.2.7c-.3-.1-.7-.3-1.2-.5s-1-.3-1.6-.5-1.1-.3-1.7-.5h-.1ZM100.7,15.3l1.2.3c-.2.3-.5.6-.8.9s-.5.5-.8.8l-1-.3c.2-.2.5-.5.7-.9.2-.3.4-.6.6-.9h.1Z"/>
  <path class="st0" d="M106.9,16.1h1.2v6.8c0,.8,0,1.6-.2,2.5s-.3,1.7-.6,2.5c-.2.8-.6,1.5-1,2.2,0,0-.2-.1-.3-.2,0,0-.3-.1-.4-.2,0,0-.2-.1-.4-.1.4-.7.7-1.4.9-2.1.2-.8.4-1.5.5-2.3s.2-1.5.2-2.3v-6.6h0v-.2ZM107.6,16.1h11.2v3.6h-11.2v-1h10v-1.6h-10v-1ZM107.7,28.5h12.1v1h-12.1v-1ZM108.2,20.8h11.1v1h-11.1v-1ZM109.2,24.8v-.3c0-.1,0-.3,0-.4,0-.1,0-.3,0-.4,0,0,.3,0,.4-.1,0,0,.3-.2.5-.3,0,0,.3-.2.6-.5.3-.2.6-.5.9-.8s.6-.6.9-1l1,.6-1.5,1.5c-.5.5-1.1.9-1.6,1.2h0c-.2,0-.3.1-.4.2,0,0-.2.1-.2.2,0,0,0,.1,0,.2h-.3ZM108.9,25.8h9.6v1h-9.6v-1ZM109.2,24.8v-.8l.7-.4,7.6-.4c0,.1,0,.3,0,.5,0,.2,0,.3,0,.4-1.5,0-2.7.2-3.7.2s-1.8.1-2.4.2c-.6,0-1.1,0-1.4.1s-.6,0-.7,0c-.2,0-.3,0-.4.1h.1ZM113.1,24.2h1.2v5h-1.2v-5ZM115,22.3l.9-.5c.4.3.8.6,1.2.9s.8.7,1.2,1c.4.3.7.6.9.9l-.9.6c-.2-.3-.5-.6-.9-.9s-.7-.7-1.2-1c-.4-.4-.8-.6-1.2-.9h0Z"/>
</svg>