<?xml version="1.0" encoding="UTF-8"?>
<svg id="_圖層_1" xmlns="http://www.w3.org/2000/svg" version="1.1" viewBox="0 0 120 44">
  <!-- Generator: Adobe Illustrator 29.4.0, SVG Export Plug-In . SVG Version: 2.1.0 Build 152)  -->
  <defs>
    <style>
      .st0 {
        fill: #c7b299;
      }
    </style>
  </defs>
  <path class="st0" d="M31.7.9v6.9h-5.4c-.2,0-1.3.6-1.5.8s-.8,1.3-.8,1.6v6.1h7.5l-1,7.5h-6.5v19.6h-7.9v-19.6h-6.5v-7.5h6.5v-7.3c0-1.1.9-3.3,1.4-4.2C20.5-.2,26.7.3,31.7.9h0Z"/>
  <path class="st0" d="M50.6,21.2l.8.3c-.2.7-.4,1.5-.7,2.2-.3.8-.6,1.5-1,2.2-.3.7-.7,1.3-1.1,1.8,0-.2-.2-.4-.3-.6s-.2-.4-.4-.6c.4-.4.7-.9,1-1.5s.6-1.2.9-1.9c.3-.7.5-1.3.7-1.9h0ZM48.2,20.8h5.7v1.1h-5.7v-1.1ZM48.3,16.6l.9-.2c.2.5.4,1.1.5,1.8.2.6.3,1.2.3,1.6l-.9.3c0-.3,0-.7-.2-1.1,0-.4-.2-.8-.3-1.2,0-.4-.2-.8-.3-1.2h0ZM50.7,15.3h1.1v14.7h-1.1v-14.7ZM51.7,22.5c0,.1.3.3.5.5s.5.5.7.8c.3.3.5.6.7.8.2.3.4.4.5.5l-.8.9c0-.2-.2-.4-.4-.7-.2-.3-.4-.6-.6-.9-.2-.3-.5-.6-.6-.9-.2-.3-.4-.5-.5-.6l.6-.5h-.1ZM53.2,16.3l1.1.3c0,.4-.3.8-.4,1.2-.2.4-.3.9-.5,1.2s-.3.8-.5,1l-.8-.3c0-.3.3-.7.4-1.1,0-.4.3-.9.4-1.3,0-.4.2-.8.3-1.2h0v.2ZM56.8,22.2h1.2c0,1.3-.3,2.4-.6,3.4s-.7,1.8-1.2,2.5-1.1,1.4-1.9,1.9c0,0,0-.2-.2-.3,0-.1-.2-.2-.3-.3,0-.1-.2-.2-.3-.3,1.1-.6,1.9-1.5,2.4-2.7.5-1.1.8-2.5.9-4.2ZM56.6,15.6l1.1.2c-.2.9-.4,1.8-.7,2.6s-.7,1.5-1.1,2.2-1,1.2-1.6,1.7c0-.1,0-.2,0-.4,0-.1,0-.3-.2-.4,0-.1,0-.3-.2-.4.8-.6,1.4-1.4,1.8-2.3.4-1,.8-2,1-3.2h0ZM54.9,21.6h6v1.1h-6v-1.1ZM60.4,21.6h1.2v.5c0,1.2,0,2.2,0,3.1,0,.8,0,1.5-.2,2.1,0,.5-.2,1-.2,1.3s-.2.5-.3.7-.3.3-.4.4c-.2,0-.3.1-.6.1h-1.8c0-.2,0-.4,0-.6,0-.2,0-.4-.2-.5h1.8s.2,0,.2-.2c0-.1.2-.4.3-.9s.2-1.1.3-2.1c0-.9,0-2.2.2-3.7v-.2h-.1ZM60,15.5c.2.9.4,1.7.7,2.4.2.7.6,1.3.9,1.8.4.5.8,1,1.3,1.5-.2.1-.3.3-.5.4s-.3.4-.4.5c-.6-.6-1.1-1.1-1.5-1.8-.4-.6-.7-1.3-1-2.1s-.5-1.6-.7-2.6l1.1-.2h.1Z"/>
  <path class="st0" d="M65,25.5l1,.2c0,.7-.3,1.4-.5,2.1s-.4,1.3-.6,1.8c0,0-.3-.1-.5-.2-.2,0-.4-.1-.5-.1.2-.5.4-1.1.6-1.7s.3-1.3.5-2h0ZM64.4,21.2s0-.2,0-.3c0-.1,0-.3,0-.4,0-.1,0-.2,0-.3,0,0,.3-.1.5-.3.2-.1.3-.4.5-.6,0-.1.3-.3.4-.6.2-.3.4-.6.6-1,.2-.4.5-.8.7-1.2.2-.4.5-.9.6-1.3l1,.5c-.5.9-1,1.8-1.6,2.7s-1.2,1.6-1.8,2.3h0c0,.1-.3.2-.4.2,0,0-.2.1-.2.2,0,0,0,.1,0,.2h0ZM64.5,24.9v-.3c0-.1,0-.3,0-.4,0-.1,0-.3-.2-.3.2,0,.4-.1.6-.3.2-.2.4-.4.7-.7,0-.1.4-.4.6-.7.3-.3.6-.8,1-1.2s.7-1,1.1-1.5c.4-.5.7-1.1,1-1.7l1,.6c-.7,1.1-1.5,2.2-2.3,3.3-.9,1.1-1.7,2-2.6,2.8h0c-.2.1-.3.2-.4.2,0,0-.2.1-.3.2,0,0,0,.1,0,.2h0v-.2ZM64.4,21.2v-.9l.5-.3,3.1-.3v1c-.7,0-1.3.1-1.7.2s-.8.1-1,.1-.4,0-.5.1h-.4ZM64.5,24.9v-.9l.5-.4,5-.7v.9c-1.1.2-2.1.3-2.7.4-.7.1-1.2.2-1.6.3-.4,0-.6.1-.8.2-.2,0-.3,0-.4.1h0ZM66.9,25.7l.9-.2c0,.5.2,1.1.3,1.8,0,.6.2,1.2.2,1.7l-1,.2c0-.5,0-1-.2-1.7,0-.6-.2-1.2-.3-1.8h0ZM68.7,21.4l.9-.3c0,.3.3.7.5,1.1s.3.8.4,1.1c0,.4.2.7.3,1l-.9.3c0-.3-.2-.6-.3-1,0-.4-.2-.8-.4-1.1s-.3-.8-.5-1.1ZM68.8,25.3l.9-.3c.2.5.4,1,.6,1.5s.3,1,.4,1.4l-.9.3c0-.4-.2-.9-.4-1.5-.2-.6-.4-1.1-.6-1.5h0ZM72.5,24.6l1.1.2c-.2.8-.4,1.5-.7,2.1-.3.7-.6,1.3-.9,1.8,0,0-.2-.1-.3-.2,0,0-.2-.1-.4-.2,0,0-.2-.1-.3-.1.4-.5.7-1,.9-1.7s.5-1.3.6-2h0ZM71.7,20.6v-.3c0-.1,0-.3,0-.4,0-.1,0-.2,0-.3,0,0,.3-.1.4-.2s.3-.3.4-.5c0-.1.3-.4.5-.7.2-.4.5-.8.8-1.3s.5-1,.7-1.5l1,.4c-.4.8-.8,1.5-1.3,2.3s-1,1.4-1.5,1.9h0c0,.1-.3.2-.3.2,0,0-.2.1-.2.2v.2h-.3ZM71.8,24.1s0-.2,0-.3c0-.1,0-.3,0-.4,0-.1,0-.2,0-.3.2,0,.4-.2.6-.3.2-.2.4-.4.7-.7.2-.1.4-.4.7-.7s.6-.7.9-1.2c.4-.4.7-.9,1.1-1.5.4-.5.7-1,1-1.6l1,.6c-.7,1.1-1.5,2.1-2.3,3.1s-1.7,1.9-2.5,2.6h0c-.2.1-.3.2-.4.2,0,0-.2.1-.3.2,0,0,0,.1,0,.2h0ZM71.7,20.6v-.8l.5-.4,3.1-.3v.9c-.7,0-1.3.2-1.7.2s-.8.1-1,.1-.4,0-.5.1c0,0-.2,0-.3.1h0ZM71.8,24.1v-.8l.6-.4,5.2-.5v1c-1.2.1-2.2.2-2.9.3-.7,0-1.3.2-1.6.2s-.7.1-.8.1c-.2,0-.3,0-.4.1h0ZM74.4,23.1h1.1v6.2c0,.2-.2.3-.4.4-.2,0-.4.1-.7.2h-1.1c0-.2,0-.3,0-.5,0-.2,0-.4-.2-.5h1.5v-5.6h0v-.2ZM76.1,20.8l.9-.4c.2.4.5.8.7,1.2.2.4.4.8.6,1.2.2.4.3.8.4,1.1l-1,.5c0-.3-.2-.7-.4-1.1s-.4-.8-.6-1.3-.4-.8-.7-1.2h0ZM76.4,24.9l1-.3c.2.4.4.8.6,1.2.2.4.4.9.5,1.3.2.4.3.8.4,1.1l-1,.4c0-.3-.2-.7-.4-1.1-.2-.4-.3-.9-.5-1.3s-.4-.9-.6-1.2h0Z"/>
  <path class="st0" d="M80.2,25.4h14.5v1h-14.5v-1ZM80.7,16.5h13.4v1h-13.4v-1ZM80.9,23.7h11.9v.8c-1.5,0-2.9,0-4.4.1h-7.6v-.9h0ZM81.9,18.4h11.2v4.4h-11.2v-4.4ZM82.8,27.1l.8-.7c.3.2.7.4,1,.6s.7.5,1,.7.5.5.7.7l-.9.8c-.2-.2-.4-.5-.7-.7s-.6-.5-.9-.7-.7-.5-1-.7h0ZM83.1,19.2v1h8.9v-1h-8.9ZM83.1,20.9v1h8.9v-1h-8.9ZM86.9,15.3h1.2v8.6h-1.2v-8.6ZM89.8,24.4h1.2v4.3c0,.3,0,.5,0,.7,0,.2-.3.3-.5.4-.3,0-.6.1-1,.2h-1.6c0-.2,0-.3,0-.5,0-.2-.2-.4-.2-.5h2.4v-4.5h-.1ZM89.8,23.1l.7-.6c.4.1.9.3,1.3.5s.9.4,1.3.7.7.5,1,.6l-.7.7c-.3-.2-.6-.4-1-.7-.4-.2-.8-.5-1.3-.7-.4-.2-.9-.4-1.3-.5Z"/>
  <path class="st0" d="M102.5,25.5l1,.5c-.5.5-1.1,1.1-1.8,1.5s-1.5.9-2.3,1.3-1.6.7-2.4.9c0-.1,0-.2-.2-.3,0-.1-.2-.2-.3-.4,0-.1-.2-.2-.3-.3.8-.2,1.6-.4,2.4-.8.8-.3,1.6-.7,2.3-1.1.7-.4,1.3-.9,1.7-1.3h0ZM96.5,25.1h14v1h-14v-1ZM96.6,18.1h13.9v1h-13.9v-1ZM97.2,20.9h12.7v1h-12.7v-1ZM97.8,15.8l1-.4c.3.4.5.8.8,1.2.3.5.4.8.6,1.2l-1.1.4c0-.3-.3-.7-.5-1.2s-.5-.9-.8-1.2h0ZM98,23h11.1v.9h-11.1v-.9ZM100,19.2l1.1-.2c.2.3.3.6.5.9s.3.6.3.9l-1.2.2c0-.2-.2-.5-.3-.9-.2-.3-.3-.6-.5-.9h0ZM101.4,15.2h1.1v3.4h-1.1v-3.4ZM102.9,21.3h1.2v8.7h-1.2v-8.7ZM104.4,25.5c.3.3.7.7,1.2,1s1,.6,1.6.9,1.2.5,1.8.7c.6.2,1.2.4,1.8.5,0,0-.2.2-.3.3,0,.1-.2.2-.3.4,0,.1-.2.2-.2.4-.6-.2-1.2-.4-1.8-.6-.6-.3-1.2-.6-1.8-.9-.6-.3-1.1-.7-1.6-1.1s-.9-.8-1.3-1.2l.9-.4h0ZM104.4,15.2h1.2v3.3h-1.2v-3.3ZM106,18.8l1.2.3c-.2.4-.4.7-.6,1-.2.4-.4.7-.6.9l-1-.3c.2-.3.3-.6.5-1s.3-.7.4-1h0ZM108.1,15.4l1.2.3c-.2.4-.5.9-.7,1.3-.3.4-.5.8-.7,1.1l-1-.3c.2-.2.3-.5.5-.8s.3-.6.4-.9c0-.3.3-.6.3-.8h0Z"/>
</svg>