<?xml version="1.0" encoding="UTF-8"?>
<svg id="_圖層_1" data-name="圖層_1" xmlns="http://www.w3.org/2000/svg" version="1.1" viewBox="0 0 995 239">
  <!-- Generator: Adobe Illustrator 29.4.0, SVG Export Plug-In . SVG Version: 2.1.0 Build 152)  -->
  <defs>
    <style>
      .st0 {
        fill: #fff;
      }
    </style>
  </defs>
  <path class="st0" d="M165.9,29.2l-1.2,1.6c-3.7-2.4-6.7-5.1-8.9-8.2-2.2-3.1-3.9-7-5-11.6-1.4,8.1-6.1,14.7-14.1,19.8l-1.2-1.6c2-1.3,4-2.9,5.9-4.7,1.9-1.8,3.5-3.7,4.7-5.7,1.2-2,2.2-4.8,2.9-8.3h-12.8v-1.8h13.2c.3-2.8.5-5.6.6-8.4h2c-.1,3-.3,5.8-.7,8.4h14.2v1.8h-12.8c1.2,4.9,2.9,8.8,5.1,11.6,2.2,2.8,4.9,5.2,8.3,7.2h0Z"/>
  <path class="st0" d="M182.3,20.8c-1.1,2.7-2.4,5.1-3.9,7.1l-1.5-1c1.3-1.6,2.6-3.8,3.9-6.8l1.6.8h0ZM192.8,18h-7v12.7h-1.7v-12.7h-7.1v-1.6h7.1v-3.4h-6.7v-1.7h4.2c-.2-1.1-.8-2.8-1.8-5.1l1.2-.8h-3.4v-1.8h6.4c-.3-.8-.8-1.6-1.4-2.5l1.6-.7c.5.7,1.2,1.8,1.8,3.2h6v1.8h-2.8l1.3.8c-.4,1.3-1.1,3-2.1,5.2h4v1.7h-6.6v3.4h7v1.6ZM188.8,5.3h-7.2c.9,2.2,1.6,4.2,2,6h2.9c1-1.9,1.8-3.9,2.3-6ZM191.8,24.6l-1.6,1c-.5-1.4-1.3-3-2.4-4.9l1.4-.8c1,1.5,1.8,3.1,2.5,4.8h0ZM207,13.3h-3.7v17.4h-1.8V13.3h-5.2c0,7.7-1.5,13.6-4.4,17.5l-1.4-1.1c1.5-2.2,2.6-4.5,3.2-6.8.6-2.3,1-5.4,1-9.2V3.3c4.3-.6,7.9-1.6,10.6-3l1.4,1.4c-3.1,1.4-6.5,2.4-10.3,3v6.7h10.6v1.7h0Z"/>
  <path class="st0" d="M233.7,8h-5.9v22.6h-1.9V8h-1.9c-1.2,1.9-2.6,3.9-4.2,5.8l-1.5-1.3c3.2-3.3,5.6-7.5,7.4-12.4l1.8.7c-.9,2.2-1.7,4.1-2.4,5.5h8.6v1.8h0ZM248.7,8h-4.9v19.7c0,.7-.2,1.3-.6,1.8-.4.5-.8.8-1.3.9-.5.1-1.6.2-3.3.2s-1.4,0-2,0l-.7-1.8c1.7,0,3.1.1,4.2.1s1.9-.5,1.9-1.4V8h-4.4c-1.4,2.4-2.9,4.5-4.6,6.3l-1.4-1.3c3.2-3.6,5.7-7.9,7.3-12.9l1.8.5c-.4,1.3-1.2,3.1-2.2,5.5h10.2v1.8h0Z"/>
  <path class="st0" d="M272.1,29.9h-1.7v-3h-7.5v3.7h-1.8V6.1h3.2c.9-1.6,1.7-3.5,2.5-5.9l1.7.3c-.4,1.2-1.2,3.1-2.3,5.6h5.9v23.8h0ZM270.3,15.3v-7.4h-7.5v7.4h7.5ZM270.3,25.2v-8.2h-7.5v8.2h7.5ZM289.4,6.1c-.1,5.2-.4,10-.7,14.4-.4,4.4-.7,7.1-1.1,7.8-.4.8-.8,1.4-1.4,1.7-.6.3-1.7.5-3.3.5s-1.6,0-2.8,0l-.5-1.8c1,0,2,0,3.1,0s1.7,0,2,0c.3,0,.6-.2.9-.4.3-.3.5-.6.7-.9.1-.3.3-1.7.5-4,.2-2.3.4-4.8.5-7.6s.3-5.4.3-8h-9c-1.2,2.4-2.6,4.7-4.2,6.8l-1.4-1c3-4,5.2-8.4,6.4-13.3l1.8.5c-.6,1.8-1.2,3.6-1.9,5.3h10.3ZM283,21.6l-1.4,1c-1.1-2.6-2.8-5.2-5-8l1.5-1c2.1,2.5,3.7,5.2,5,8h0Z"/>
  <path class="st0" d="M310.2,21.5c-3.4,2.2-6.3,3.7-8.6,4.7l-.4-1.8c1.7-.7,3.1-1.4,4.1-2v-11h-3.3v-1.8h3.3V.4h1.8v9.2h3.1v1.8h-3.1v10c.9-.5,2-1.1,3.1-1.8v2h0ZM331.7,24.3c-.5,2.7-1.1,4.4-1.6,5.2-.5.8-1.1,1.2-1.9,1.2s-1.4-.4-2.1-1.3c-.8-.8-1.6-2.4-2.4-4.7-2.3,2.6-4.3,4.6-6,5.9l-1.3-1.3c2.6-1.9,4.8-4.2,6.8-6.8-.7-3.2-1.2-8.5-1.4-15.7h-8v5.4h6.1c0,2.6-.1,5-.2,7.3,0,2.3-.2,3.7-.3,4.1-.1.5-.3.9-.7,1.2-.3.3-.7.6-1.2.7-.5.1-1.3.2-2.5.1l-.6-1.8c.7,0,1.4.1,2.1.1s1-.3,1.2-.7c.2-.5.4-3.6.5-9.2h-4.4c.1,6.5-1.5,12.1-4.8,16.9l-1.5-1.2c3-3.8,4.6-9,4.6-15.7V5.1h9.7c0-1.4,0-3,0-4.8h1.8v4.8h7.8v1.7h-7.8c.1,6,.5,10.4,1,13.4,1.6-2.7,2.8-6,3.7-10l1.6.7c-1.1,4.6-2.6,8.5-4.8,11.9.1.8.6,2,1.3,3.6.7,1.6,1.3,2.4,1.7,2.4s.3,0,.5-.2c.2-.1.4-.7.7-1.8.3-1,.5-2.3.7-3.7l1.7,1.1h0ZM330.1,3.7l-1.4,1c-.9-1.3-1.8-2.3-2.7-3.2l1.4-1c.9.7,1.8,1.8,2.8,3.2Z"/>
  <path class="st0" d="M372.9,6.5h-14.1v5.5h11.7v12.9c0,.8-.2,1.4-.6,1.8s-.9.7-1.6.8c-.6,0-2.1,0-4.3,0l-.9-1.8c.8,0,1.6,0,2.4,0,1.5,0,2.4,0,2.8-.2.3-.1.5-.4.5-.8v-10.9h-9.9v16.9h-1.8V13.8h-9.8v13.8h-1.9v-15.6h11.7v-5.5h-14.1v-1.8h14.5c-.6-1.1-1.5-2.3-2.7-3.7l1.7-.9c.9.9,2,2.4,3.2,4.6h13.3v1.8h0Z"/>
  <path class="st0" d="M396,10.7h-6.4v2.3c0,1.2,0,2.3-.1,3.2h6v14.3h-1.8v-12.5h-4.3c-.4,4.9-1.6,9.2-3.7,12.8l-1.6-1.2c2.5-3.9,3.7-9.5,3.7-16.9V.7h1.8v8.2h4.7V.5h1.7v10.2ZM414.8,29.3l-1.4,1.4c-2.1-1.7-3.9-3.5-5.4-5.3-2.1,2.2-4.4,4-6.7,5.3l-1.2-1.5c2.7-1.4,5-3.2,6.8-5.3-2-3-3.3-6.9-4.1-11.8h-1.1c0,7.3-1.2,13.4-3.7,18.4l-1.5-1.4c2.3-4.6,3.5-10.2,3.5-16.9V1.3h14v1.8h-12.2v7.3h11.2c-.3,5.9-1.6,10.5-3.8,13.6,1.6,2.1,3.5,3.9,5.7,5.4h0ZM411,12.1h-6.6c.9,4.4,2.1,7.8,3.6,10.2,1.6-2.5,2.6-5.9,2.9-10.2Z"/>
  <path class="st0" d="M454.6,30.6h-1.8v-2.2h-23.5v2.2h-1.8V1.6h27.2v29ZM452.8,26.7V3.1h-23.5v23.6h23.5ZM451.1,13h-20v-1.4h9.2v-1.7h-7.1v-4.8h15.9v4.8h-7v1.7h9v1.4ZM449.5,24.9h-16.8v-10.3h16.8v10.3ZM447.8,23.5v-7.5h-13.3v7.5h13.3ZM447.3,8.5v-2h-12.4v2h12.4ZM445.1,21.9h-8v-4.5h8v4.5ZM443.5,20.5v-1.8h-4.8v1.8h4.8Z"/>
  <path class="st0" d="M482,18.7c-.8-.4-1.2-1-1.2-1.7s.1-.7.4-1c.3-.3.7-.5,1.2-.5,1.1,0,1.6.7,1.6,2.1s-.7,2.3-2,3.4l-.7-.5c.5-.7.8-1.3.8-1.7h0Z"/>
  <path class="st0" d="M517.5,9.8c-.6,1.2-1.4,2.5-2.4,3.9v16.8h-1.7v-14.4c-1,1.2-2.2,2.4-3.4,3.4l-1-1.4c2.8-2.5,5.1-5.5,7-9.1l1.6.9h0ZM517.9,1.1c-2.2,3.2-4.8,5.8-7.6,7.6l-1.1-1.4c2.5-1.6,4.9-3.9,7.1-7.1l1.6.9h0ZM539.2,28.4l-.7,1.8c-2.1,0-4.2,0-6.3-.1-2.1-.1-3.6-.3-4.5-.4-.9-.1-1.8-.6-2.9-1.3-1.1-.7-2.1-1.7-3-2.9-.5,1.5-1.4,3.2-2.7,5.2l-1.5-1c2.6-3.7,3.9-8.3,4.1-13.8h1.8c-.2,3-.5,5.4-1,7.5,1.6,2.4,3.5,3.9,5.6,4.4v-13.7h1.8v4.5h7.5v1.7h-7.5v7.9c4,.1,7.1.2,9.4.2h0ZM527.7,10.4l-1.3,1.3c-.9-1.9-1.8-3.3-2.7-4.3-.8,1.8-2.2,3.9-4.2,6.3l-1.3-1.3c3-3.4,5-7.5,5.8-12.1l1.7.3c-.3,1.8-.7,3.5-1.3,5,1.1,1.3,2.2,2.9,3.2,4.9h0ZM538.7,12.3l-1.2,1.3c-1.5-2.6-2.9-4.7-4.5-6.2-1,2-2.2,3.9-3.6,5.6l-1.3-1.2c2.6-3,4.4-6.9,5.5-11.5l1.6.6c-.4,1.8-.9,3.4-1.6,4.9,1.8,1.9,3.5,4.1,5,6.6h0Z"/>
  <path class="st0" d="M555.5,20.8c-1.1,2.7-2.4,5.1-3.9,7.1l-1.5-1c1.3-1.6,2.6-3.8,3.9-6.8l1.6.8h0ZM566.1,18h-7v12.7h-1.7v-12.7h-7.1v-1.6h7.1v-3.4h-6.7v-1.7h4.2c-.2-1.1-.8-2.8-1.8-5.1l1.2-.8h-3.4v-1.8h6.4c-.3-.8-.8-1.6-1.4-2.5l1.6-.7c.5.7,1.2,1.8,1.8,3.2h6v1.8h-2.8l1.3.8c-.4,1.3-1.1,3-2.1,5.2h4v1.7h-6.6v3.4h7v1.6ZM562.1,5.3h-7.2c.9,2.2,1.6,4.2,2,6h2.9c1-1.9,1.8-3.9,2.3-6ZM565.1,24.6l-1.6,1c-.5-1.4-1.3-3-2.4-4.9l1.4-.8c1,1.5,1.8,3.1,2.5,4.8h0ZM580.2,13.3h-3.7v17.4h-1.8V13.3h-5.2c0,7.7-1.5,13.6-4.4,17.5l-1.4-1.1c1.5-2.2,2.6-4.5,3.2-6.8.6-2.3,1-5.4,1-9.2V3.3c4.3-.6,7.9-1.6,10.6-3l1.4,1.4c-3.1,1.4-6.5,2.4-10.3,3v6.7h10.6v1.7h0Z"/>
  <path class="st0" d="M607,8h-5.9v22.6h-1.9V8h-1.9c-1.2,1.9-2.6,3.9-4.2,5.8l-1.5-1.3c3.2-3.3,5.6-7.5,7.4-12.4l1.8.7c-.9,2.2-1.7,4.1-2.4,5.5h8.6v1.8h0ZM622,8h-4.9v19.7c0,.7-.2,1.3-.6,1.8-.4.5-.8.8-1.3.9-.5.1-1.6.2-3.3.2s-1.4,0-2,0l-.7-1.8c1.7,0,3.1.1,4.2.1s1.9-.5,1.9-1.4V8h-4.4c-1.4,2.4-2.9,4.5-4.5,6.3l-1.4-1.3c3.2-3.6,5.7-7.9,7.3-12.9l1.8.5c-.4,1.3-1.2,3.1-2.2,5.5h10.2v1.8h0Z"/>
  <path class="st0" d="M648.4,8h-5.9v22.6h-1.9V8h-1.9c-1.2,1.9-2.6,3.9-4.2,5.8l-1.5-1.3c3.2-3.3,5.6-7.5,7.4-12.4l1.8.7c-.9,2.2-1.7,4.1-2.4,5.5h8.6v1.8h0ZM663.5,8h-4.9v19.7c0,.7-.2,1.3-.6,1.8-.4.5-.8.8-1.3.9s-1.6.2-3.3.2-1.4,0-2,0l-.7-1.8c1.7,0,3.1.1,4.2.1s1.9-.5,1.9-1.4V8h-4.4c-1.4,2.4-2.9,4.5-4.6,6.3l-1.4-1.3c3.2-3.6,5.7-7.9,7.3-12.9l1.8.5c-.4,1.3-1.2,3.1-2.2,5.5h10.2v1.8h0Z"/>
  <path class="st0" d="M688.7,1.6c-1.5.7-3.3,1.3-5.4,1.8v5.5h5.1v1.8h-5.1v1.8c2.2,2.1,3.9,4.1,5.1,5.9l-1.3,1.4c-1-1.7-2.3-3.3-3.8-4.9v15.6h-1.8V14.3c-1.5,3-3.3,5.9-5.6,8.7l-1.2-1.5c3-3.5,5.2-7.1,6.7-10.9h-6.5v-1.8h6.7V3.8c-1,.2-2.6.5-5,.9l-1-1.7c4.5-.5,8.5-1.4,11.9-2.9l1.2,1.4h0ZM705.1,21.3l-3.5.5v8.7h-1.8v-8.4l-11.4,1.7v-1.8c-.1,0,11.4-1.8,11.4-1.8V.3h1.8v19.6l3.5-.5v1.8ZM696.9,16.8l-1.2,1.4c-1.4-2-3.6-4-6.4-6.1l1.2-1.4c2.7,1.9,4.8,4,6.5,6.1ZM697.7,7.5l-1.1,1.5c-1.9-2.1-4-3.9-6.2-5.4l1-1.4c2.1,1.3,4.2,3.1,6.2,5.2Z"/>
  <path class="st0" d="M744.9,30.5h-1.8v-2.3h-23.5v2.3h-1.8V1.2h27.1v29.3ZM743.2,26.5V2.8h-23.5v23.7h23.5ZM742.4,18.3l-1.4,1.1c-2-2.2-4.1-4.1-6.4-5.8h-6.5c-.9,1.1-1.5,1.8-1.8,2.1h10c0,2.7-.3,4.3-.7,5-.5.6-1.3,1-2.2,1s-1.4,0-2.2,0l-.7-1.7h2.8c.5,0,.9-.2,1-.5.1-.4.2-1,.2-2h-7.7v5.2c0,.6.4,1,1.2,1h8.6c.7,0,1.2-.2,1.4-.7.3-.5.5-1.4.5-2.6l1.7.7c-.2,1.4-.4,2.3-.8,2.9-.3.6-.7,1-1.2,1.2-.5.2-1.2.3-2.2.3h-8.4c-1.8,0-2.6-.9-2.6-2.6v-5.7c-1.2,1.1-2.4,1.9-3.6,2.5l-1.1-1.4c2.1-1.2,4-2.6,5.6-4.3h-4.5v-1.6h5.7c.5-.7,1-1.4,1.4-2.2h-6.3v-1.6h7.1c.6-1.4,1.2-2.9,1.5-4.5l1.7.5c-.3,1.2-.7,2.5-1.3,4h9.1v1.6h-9.8c-.5,1-.9,1.7-1.2,2.2h12.1v1.6h-4.1c2.7,2.3,4.4,3.9,5.1,4.8h0ZM727.4,6.9l-1.5.8c-.6-1.1-1.3-2.1-2.1-3l1.3-.9c1,1,1.8,2,2.3,3.1ZM738.9,4.8c-1.1,1.4-2.1,2.3-2.8,2.9l-1.4-1.1c.9-.7,1.8-1.6,2.7-2.7l1.5.9h0Z"/>
  <path class="st0" d="M771.2,11.6h-10.2v18.8h-1.8V1.3h12v10.4h0ZM769.4,5.5v-2.6h-8.4v2.6h8.4ZM769.4,10v-2.8h-8.4v2.8h8.4ZM782.8,21.6h-5.5v8.1h-1.8v-8.1h-5.2c-.1,3.2-1.6,6-4.3,8.3l-1.7-1c2.7-2.2,4.1-4.7,4.3-7.3h-5.6v-1.7h5.7v-4h-4.5v-1.6h17.3v1.6h-4.1v4h5.5v1.7ZM775.5,19.9v-4h-5.1v4h5.1ZM786.4,27.9c0,1-.3,1.6-.8,2s-1.5.5-2.9.5-1.2,0-1.9,0l-.7-1.8c.6,0,1.8.1,3.8.1s.7-.3.7-.7V11.7h-10.1V1.3h11.9v26.6h0ZM784.5,5.5v-2.6h-8.3v2.6h8.3ZM784.5,10v-2.8h-8.3v2.8h8.3Z"/>
  <path class="st0" d="M812.8,8.2c-.7.1-1.3.2-1.8.3-.3,4.8-1.2,9.3-2.7,13.5,1.6,1.4,2.9,2.5,3.9,3.5l-1.1,1.4c-1.5-1.4-2.7-2.5-3.6-3.3-1.7,2.8-4.1,5.2-7,7.2l-1.2-1.4c3-2,5.3-4.3,6.8-7-1.8-1.5-3.7-2.9-5.9-4.3.7-2.6,1.4-5.4,2-8.5h-2.9c0,.1,0-1.6,0-1.6.7,0,1.8,0,3.4-.1.7-3.7,1.2-6.2,1.4-7.4l1.8.3c-.3,1.8-.7,4.1-1.2,6.9,1.8-.1,3.4-.3,4.9-.5.1-.8.1-1.7.1-2.8h1.8c0,1,0,1.9-.1,2.6l1.6-.3v1.7h0ZM809.2,8.7c-1.4.2-3.1.4-5.1.6-.5,2.4-1.2,5.1-1.9,8l4.6,3.3c1.3-3,2.1-7,2.4-12ZM829.7,13.8l-1.6.9c-.4-.9-.8-1.8-1.4-2.8-3.4.7-8.1,1.3-14.1,1.8l-.4-1.6c2.6-2.6,4.8-6.6,6.7-11.9l1.7.5c-1.4,4.6-3.3,8.3-5.7,11,3.7-.3,7.4-.7,10.9-1.4-.9-1.5-2-3.1-3.5-5l1.5-.9c2.6,3.3,4.5,6.5,5.8,9.4h0ZM827.7,30.7h-1.8v-2.1h-10.6v2.1h-1.8v-14.1h14.2v14.1h0ZM825.9,26.8v-8.4h-10.6v8.4h10.6Z"/>
  <path class="st0" d="M855.8,12.1c1,0,1.8.3,2.5,1,.7.7,1,1.5,1,2.5s-.3,1.8-1,2.5c-.6.7-1.4,1-2.4,1s-1.7-.3-2.4-.9c-.7-.6-1-1.5-1-2.6s.3-2,1.1-2.5c.7-.6,1.4-.9,2.2-.9h0ZM857.9,15.6c0-.6-.2-1.1-.6-1.4-.4-.4-.9-.5-1.5-.5s-1,.2-1.4.6c-.4.4-.6.9-.6,1.4s.2,1,.5,1.4c.4.5.8.7,1.5.7s1.1-.2,1.5-.6c.4-.4.6-.9.6-1.5Z"/>
  <path class="st0" d="M278.2,97.9h-3.2l-2.8-7.4h-11.2l-2.7,7.4h-3.2l10.1-26.2h2.9l10.1,26.2ZM271.2,87.9l-4.2-11.3c-.1-.3-.2-.9-.4-1.7h0c-.1.8-.3,1.3-.4,1.7l-4.1,11.3h9.2Z"/>
  <path class="st0" d="M291.9,97.9h-2.9v-26.2h2.9v26.2Z"/>
  <path class="st0" d="M334.8,79.4h-5.5l-.3,3.5h-19.3l.3-3.5h-5.3v-1.3h5.5l.4-3.3h19.2l-.3,3.3h5.4v1.3h0ZM330.4,95.1h-14l.7,1.1c-3.8,2-7.5,3.2-11.2,3.7l-1-1.6c3.8-.4,7.4-1.4,10.9-3.1h-6.7v-10.4h21.3v10.4ZM333.5,76.2h-1.8v-3.3h-24v3.1h-1.8v-4.6h12.8c-.3-.6-.6-1.1-.9-1.5l1.6-.6c.3.4.7,1.1,1.2,2.1h12.7v4.8h0ZM328.6,87.7v-1.6h-17.8v1.6h17.8ZM328.6,90.7v-1.6h-17.8v1.6h17.8ZM328.6,93.7v-1.6h-17.8v1.6h17.8ZM318.7,79.4h-6.9l-.2,2.1h6.9l.2-2.1ZM319,76.1h-6.9l-.2,2h7l.2-2ZM327.5,79.4h-7l-.2,2.1h7l.2-2.1ZM327.9,76.1h-7l-.2,2h7l.2-2h0ZM334.3,98.3l-.7,1.5c-3-1.1-6.8-2-11.5-2.6l.7-1.4c4.7.6,8.5,1.4,11.4,2.4h0Z"/>
  <path class="st0" d="M356.8,91.1c-3.7,2.1-7.1,3.9-10.1,5.4l-.7-1.5,4.7-2.4v-9.6h-4.1v-1.6h4.1v-7.8h-4.4v-1.7h10.4v1.7h-4.2v7.8h3.7v1.6h-3.7v8.6c1.3-.7,2.6-1.4,4-2.2l.4,1.6h0ZM376.3,93.7c-.1,1.6-.3,2.8-.7,3.6-.4.8-.8,1.4-1.3,1.6-.5.3-1.5.4-3,.4s-1.4,0-2,0c-.6,0-1-.2-1.4-.6-.3-.4-.5-1-.5-1.8v-8.1h-3.2c-.5,5.6-3.6,9.3-9.4,11.1l-1.1-1.4c5.4-1.4,8.3-4.6,8.8-9.6h-3.6v-18.3h15v18.3h-4.7v8.1c0,.3.1.5.3.6.2.1.9.2,2,.2s1.8-.1,2-.3c.2-.2.5-.8.7-1.8.3-1,.4-1.8.4-2.7l1.6.8h0ZM372.1,75.8v-3.7h-11.5v3.7h11.5ZM372.1,81.4v-3.9h-11.5v3.9h11.5ZM372.1,87.1v-4.1h-11.5v4.1h11.5Z"/>
  <path class="st0" d="M399.5,99h-1.7v-3h-7.5v3.7h-1.8v-24.5h3.2c.9-1.6,1.7-3.5,2.5-5.9l1.7.3c-.4,1.2-1.2,3.1-2.3,5.6h5.9v23.8h0ZM397.8,84.4v-7.4h-7.5v7.4h7.5ZM397.8,94.3v-8.2h-7.5v8.2h7.5ZM416.8,75.3c-.1,5.2-.4,10-.7,14.4-.4,4.4-.7,7.1-1.1,7.8-.4.8-.8,1.4-1.4,1.7-.6.3-1.7.5-3.3.5s-1.6,0-2.8,0l-.5-1.8c.9,0,2,0,3.1,0s1.7,0,2,0,.6-.2.9-.4c.3-.3.5-.6.7-.9.1-.3.3-1.7.5-4,.2-2.3.4-4.8.5-7.6.1-2.8.3-5.4.3-8h-9c-1.2,2.4-2.6,4.7-4.2,6.8l-1.4-1c3-4,5.2-8.4,6.4-13.3l1.8.5c-.6,1.8-1.2,3.6-1.9,5.3h10.3ZM410.5,90.7l-1.4,1c-1.1-2.6-2.8-5.2-5-8l1.5-1c2.1,2.5,3.7,5.2,5,8h0Z"/>
  <path class="st0" d="M459.6,90.3l-1.2,1.5c-5.2-4.1-9.6-7.1-13.4-9v17.2h-1.9v-19.5c-3.3,3.9-7.7,7.7-13.2,11.3l-1.2-1.6c8.5-5.1,14.3-11.1,17.3-18h-16.6v-1.8h29.4v1.8h-10.7c-.8,1.8-1.8,3.7-3.1,5.6v2.8c6.5,3.7,11.3,7,14.5,9.7Z"/>
  <path class="st0" d="M481.9,89.4c-3.3,4.6-6.7,8.1-10.3,10.5l-1.4-1.5c4-2.7,7.3-5.9,9.8-9.8l1.8.9ZM497.5,85.7h-24.1v-15.4h24.1v15.4ZM495.6,83.8v-11.7h-20.3v11.7h20.3ZM500.9,98.5l-1.5,1.4c-2.8-3.5-6.4-6.8-10.7-10.1l1.3-1.4c5.2,4.2,8.8,7.5,10.9,10h0Z"/>
  <path class="st0" d="M542.3,97.5l-.6,1.7h-11.4c-3,0-5.4-.4-7.2-1.2-1.8-.8-3.5-2-5-3.8-1.2,1.7-2.8,3.5-5,5.4l-1.4-1.3c3.7-2.8,6.1-6.3,7.4-10.5l1.8.4c-.4,1.5-1,3-1.9,4.4,2.3,2.8,4.8,4.4,7.6,4.6v-11h-14.6v-1.7h30.1v1.7h-13.7v4.4h11.8v1.7h-11.8v5c1,0,2.2.1,3.4.1h10.5ZM537.8,81.8h-21.3v-11.5h21.3v11.5ZM535.8,75.1v-3.1h-17.5v3.1h17.5ZM535.8,80.1v-3.2h-17.5v3.2h17.5Z"/>
  <path class="st0" d="M583.7,96.6l-1.3,1.4c-5.8-3.9-10-8.5-12.6-13.7h-.2v15.4h-1.8v-15.4h-.2c-2.8,5.6-7.1,10.2-12.9,13.7l-1.2-1.5c5.8-3.2,9.8-7.3,12.2-12.2h-11.8v-1.8h14v-6.7h-12.1v-1.8h12.1v-4.6h1.8v4.6h12v1.8h-12v6.7h13.8v1.8h-11.6c2.6,4.9,6.6,9,11.9,12.3Z"/>
  <path class="st0" d="M625.4,96.3l-1,1.6c-5.9-2.7-10.4-6.6-13.7-11.7v13.4h-1.8v-13.3c-3.2,4.2-7.6,8.1-13.2,11.5l-1.1-1.4c6.9-4.3,11.7-8.7,14.3-13.2v-8.5h-13.6v-1.7h13.6v-3.5h1.8v3.5h14v1.7h-14v8.5c1.6,2.8,3.7,5.4,6.2,7.7,2.6,2.3,5.4,4.1,8.5,5.4h0ZM605.9,85.2l-1.3,1.4c-1.1-1.6-2.3-3-3.6-4.1-.9,1.7-2.4,3.5-4.5,5.4l-1.4-1.3c3.2-2.6,5.4-6,6.5-10.3l1.7.4c-.3,1.2-.7,2.5-1.4,4.1,1.8,1.6,3.1,3,4,4.3h0ZM623.7,86.3l-.9,1.6c-1.4-1.8-3.1-3.5-5.1-5.2-.9,1.9-1.8,3.3-2.6,4.2l-1.4-1.2c1.9-2.3,3.3-5.4,4.1-9.2l1.7.3c-.3,1.5-.7,2.9-1.2,4.1,2.3,2,4.1,3.7,5.3,5.3h0Z"/>
  <path class="st0" d="M648.4,99h-1.7v-3h-7.5v3.7h-1.8v-24.5h3.2c.9-1.6,1.7-3.5,2.5-5.9l1.7.3c-.4,1.2-1.2,3.1-2.3,5.6h5.9v23.8h0ZM646.6,84.4v-7.4h-7.5v7.4h7.5ZM646.6,94.3v-8.2h-7.5v8.2h7.5ZM665.7,75.3c-.1,5.2-.4,10-.7,14.4-.4,4.4-.7,7.1-1.1,7.8-.4.8-.8,1.4-1.4,1.7-.6.3-1.7.5-3.3.5s-1.6,0-2.8,0l-.5-1.8c1,0,2,0,3.1,0s1.7,0,2,0c.3,0,.6-.2.9-.4.3-.3.5-.6.7-.9.1-.3.3-1.7.5-4,.2-2.3.4-4.8.5-7.6.1-2.8.3-5.4.3-8h-9c-1.2,2.4-2.6,4.7-4.2,6.8l-1.4-1c3-4,5.2-8.4,6.4-13.3l1.8.5c-.6,1.8-1.2,3.6-1.9,5.3h10.3ZM659.3,90.7l-1.4,1c-1.1-2.6-2.8-5.2-5-8l1.5-1c2.1,2.5,3.7,5.2,5,8h0Z"/>
  <path class="st0" d="M689,84.3l-1.1,1.4c-1.1-1.6-2.1-2.9-3-3.8v17.9h-1.8v-18.2c-1.3,3.8-2.8,6.7-4.4,8.8l-1.1-1.5c2-2.7,3.7-6.6,5.2-11.5h-4.9v-1.7h5.1v-6h1.8v6h3.3v1.7h-3.3v2.2c1.4,1.4,2.8,3,4.1,4.8h0ZM695.9,91c-1,3.5-3.5,6.2-7.4,8l-1-1.3c2.6-1.1,4.5-2.8,5.9-5.1h-4.9v-1.6h7.4ZM707.8,82.2h-18.7v-1.6h8.3v-2.2h-6.9v-1.6h6.9v-2h-7.6v-1.5h17.5v1.5h-8.1v2h7.2v1.6h-7.2v2.2h8.7v1.6ZM708,97.7l-1.2,1.4c-2.9-1.4-5.4-3.5-7.5-6.2v4c0,1-.2,1.6-.7,2s-.9.7-1.4.7c-.5,0-1.5,0-3,0l-.5-1.7c2,0,3.1,0,3.5-.1.3-.2.5-.4.5-.8v-8.4h-8.2v-1.6h9.9v3.1c0,.3.1.5.3.7,2-1.1,4-2.5,5.8-4.1l1,1.4c-1.9,1.6-3.7,2.9-5.7,4,2.2,2.5,4.6,4.4,7.3,5.6h0ZM696.1,71.6l-1.4.9c-.7-.9-1.5-1.6-2.4-2.4l1.4-.9c.6.4,1.4,1.2,2.4,2.4h0ZM703.3,85l-.7,1.4c-2.9-.9-6.2-1.5-10.1-1.9l.8-1.6c3.8.5,7.1,1.1,10,2h0ZM704.4,70.2c-.7.8-1.6,1.6-2.6,2.4l-1.5-.9c1.1-.8,1.9-1.6,2.6-2.4l1.6.8Z"/>
  <path class="st0" d="M732.1,76.8c-1.3,1.4-2.7,2.6-4.2,3.7,1.8,3.1,2.7,6.9,2.7,11.5s-.2,4.1-.5,5.1c-.4,1-1,1.7-1.8,2-.8.4-2.2.6-4.2.6l-.5-1.8h2.8c.8,0,1.4-.4,1.9-1.2.5-.8.7-2.9.6-6.3-2.7,2.6-5.6,4.8-8.7,6.3l-1.2-1.4c3.9-1.9,7.1-4.3,9.6-7.2-.1-1.2-.3-2.2-.6-2.9-2.5,2.3-5.2,4-7.9,5.2l-1-1.4c3.6-1.6,6.4-3.5,8.4-5.5-.2-.7-.6-1.4-1-2-2.2,1.5-4.3,2.6-6.4,3.4l-1-1.6c2.7-1,5.3-2.4,7.8-4.3-.5-1.4-1.3-3-2.6-4.8-1.7.6-3.2,1.1-4.5,1.3l-.8-1.6c4.1-.8,7.9-2.3,11.4-4.6l1.1,1.2c-2.1,1.3-4,2.3-5.6,3,1,1.4,1.7,2.8,2.4,4.3.9-.7,1.6-1.4,2.3-2.1l1.4,1h0ZM724.1,80l-1.4.9c-.4-1.2-1.1-2.5-1.9-3.7l1.4-.8c.9,1.2,1.6,2.4,2,3.6h0ZM749.4,92.4c0,1.4-.2,2.7-.4,3.9-.2,1.2-.6,2-1.2,2.4-.5.3-1.5.5-2.8.5s-1.8,0-2.2-.2c-.4-.1-.7-.4-1-.7-.3-.4-.4-.8-.4-1.4v-10.1h-2.8c0,5.5-2,9.8-6,13l-1.2-1.4c3.6-2.8,5.4-6.6,5.5-11.6h-3.6v-13.5h4.4c.7-1.4,1.3-2.8,1.6-4l1.7.5c-.3,1.1-.7,2.3-1.3,3.5h7.7v13.5h-4.1v9.8c0,.5.4.8,1.3.8,1.3,0,2-.1,2.2-.4.2-.3.4-1,.5-2.2.1-1.2.2-2.2.2-3l1.8.5h0ZM745.7,79.1v-4h-10.5v4h10.5ZM745.7,85v-4.3h-10.5v4.3h10.5Z"/>
  <path class="st0" d="M228.1,167.1l-.7,1.7c-6.9-.4-12.6-1.5-17.2-3.3-2.9,2-6.7,3.2-11.5,3.5l-.9-1.8c4.3-.1,7.8-1,10.5-2.6-2.4-1.2-4.5-2.5-6.4-3.9l1.4-1.1c1.7,1.5,3.8,2.8,6.3,3.9,1.2-1.3,1.9-3.1,2.3-5.4h-10.7v-12.9h10.9v-3.8h-14.1v-1.7h29.7v1.7h-13.8v3.8h10.6v12.9h-10.7c-.4,2.6-1.1,4.6-2.3,6.1,4.4,1.6,10,2.7,16.6,3h0ZM212.2,150.5v-3.7h-9v3.7h9ZM212.2,152.2h-9v4.1h8.9c0-.9.1-1.8.1-2.6s0-1,0-1.4h0ZM222.8,156.3v-4.1h-8.7c0,1.8,0,3.2-.1,4.1h8.8ZM222.8,150.5v-3.7h-8.7v3.7h8.7Z"/>
  <path class="st0" d="M269.7,166.6l-.6,1.7h-11.4c-3,0-5.4-.4-7.2-1.2-1.8-.8-3.5-2-5-3.8-1.2,1.7-2.8,3.5-5,5.4l-1.4-1.3c3.7-2.8,6.1-6.3,7.4-10.5l1.8.4c-.4,1.5-1,3-1.9,4.4,2.3,2.8,4.8,4.4,7.6,4.6v-11h-14.6v-1.7h30.1v1.7h-13.7v4.4h11.8v1.7h-11.8v5c1,0,2.2.1,3.4.1h10.5ZM265.1,150.9h-21.3v-11.5h21.3v11.5ZM263.2,144.2v-3.1h-17.5v3.1h17.5ZM263.2,149.2v-3.2h-17.5v3.2h17.5Z"/>
  <path class="st0" d="M311,151.5l-1.5,1.2c-.8-1.1-1.8-2.3-2.9-3.5-7.1,1.5-15.4,2.4-25,2.7l-.5-1.6c5.1-4,8.7-7.9,10.7-11.8l1.8.6c-1.9,3.4-5,7-9.3,10.9,7.6-.3,14.5-1.1,20.7-2.4-1.4-1.6-3.3-3.3-5.6-5.2l1.6-1.2c3.9,3.4,7.2,6.9,9.9,10.4h0ZM307.7,168.9h-1.9v-2.1h-20v2.1h-1.9v-13.5h23.7v13.6h0ZM305.8,164.9v-7.7h-20v7.7h20Z"/>
  <path class="st0" d="M328.3,157.8c-1.3,4-2.9,7.7-4.6,11l-1.4-1c1.7-3.2,3.2-6.9,4.6-11l1.4,1h0ZM328,151.1l-1.1,1.4c-1.1-1.2-2.6-2.6-4.6-4.1l1.2-1.4c1.9,1.5,3.4,2.9,4.6,4.1ZM328.8,142.8l-1.2,1.3c-1.2-1.3-2.8-2.7-4.7-4.1l1.2-1.3c1.5,1,3,2.4,4.7,4.1h0ZM330.6,151.2c-.3,1.4-.7,2.6-1.2,3.7l-1.4-.5c.5-1.2.9-2.4,1.2-3.7l1.4.4ZM336.4,149.4l-1.3.5c0-.3-.2-.5-.3-.8-1.8.4-3.7.7-5.6,1l-.5-1.1c1.8-1.8,3.1-3.2,3.9-4.1-1.5.1-2.5.3-3,.3l-.5-1.2c1.7-1.9,3-3.7,3.9-5.5l1.4.7c-.7,1.3-1.7,2.7-3.1,4.5,1,0,1.8-.2,2.5-.3.2-.3.5-.9,1-1.6l1.4.7c-1.1,1.8-2.6,3.8-4.8,6,.9-.1,1.9-.3,2.9-.5,0-.3-.2-.6-.4-1l1.3-.5c.4.7.8,1.7,1.3,3.2h0ZM350.9,163.2l-.5,3.2c0,.7-.4,1.2-.9,1.7-.5.5-1.2.7-2,.7h-7.7l-.7-1.6h8.4c.6,0,1-.3,1.2-1.1l.2-1.4h-19.6l1.8-5h16.7v-2h-18.5v-1.4h20.2v5h-17l-.7,2.1h19,0ZM333.2,154.7l-1.3.2c-.1-1.5-.3-2.7-.5-3.6l1.4-.2c.3,1.8.5,3,.5,3.6ZM335.9,154l-1.4.4c-.2-1.1-.4-2.2-.8-3.3l1.3-.4c.4,1,.6,2.1.8,3.4ZM344,142.3h-7.6v-1.4h3.2c-.1-.5-.4-1.2-.8-1.9l1.4-.6c.4.7.7,1.5,1.1,2.5h2.7v1.4h0ZM343.1,145.1h-5.9v-1.4h5.9v1.4ZM343.1,148h-5.9v-1.4h5.9v1.4ZM343.1,154.5h-5.9v-5.2h5.9v5.2ZM341.7,153.1v-2.3h-3v2.3h3ZM346.1,151.2c0,1.1-.3,2.4-.7,4l-1.4-.3c.3-1.1.6-2.4.8-3.9l1.4.3h0ZM352.1,149.7l-1.4.5c0-.3-.2-.7-.3-1-2.3.4-4.2.7-5.8.9l-.4-1.2c1.2-1,2.5-2.4,3.9-3.9l-3.4.2-.4-1.1c2.1-2.4,3.5-4.3,4.2-5.6l1.5.6c-.8,1.4-2,2.9-3.4,4.5,1.2,0,2.1-.2,2.8-.4.5-.8.9-1.4,1.1-1.7l1.4.8c-.9,1.6-2.6,3.5-4.9,5.9.7,0,1.6-.2,2.8-.5-.1-.3-.3-.6-.5-1l1.4-.5c.6,1.2,1.1,2.3,1.4,3.4h0ZM349.2,154.7l-1.5.3c0-1.2,0-2.4-.4-3.7l1.4-.2c.3,1.2.5,2.4.6,3.7h0ZM352.3,154.5l-1.4.4c-.5-1.7-1-2.9-1.2-3.5l1.3-.4c.5,1,1,2.1,1.3,3.5h0Z"/>
  <path class="st0" d="M368.9,159c-1.1,2.7-2.4,5.1-3.9,7.1l-1.5-1c1.3-1.6,2.6-3.8,3.9-6.8l1.6.8h0ZM379.5,156.2h-7v12.7h-1.7v-12.7h-7.1v-1.6h7.1v-3.4h-6.7v-1.7h4.2c-.2-1.1-.8-2.8-1.8-5.1l1.2-.8h-3.4v-1.8h6.4c-.3-.8-.8-1.6-1.4-2.5l1.6-.7c.5.7,1.2,1.8,1.8,3.2h6v1.8h-2.8l1.3.8c-.4,1.3-1.1,3-2.1,5.2h4v1.7h-6.6v3.4h7v1.6ZM375.4,143.5h-7.2c.9,2.2,1.6,4.2,2,6h2.9c1-1.9,1.8-3.9,2.3-6ZM378.4,162.9l-1.6.9c-.5-1.4-1.3-3-2.4-4.9l1.4-.8c1,1.5,1.8,3.1,2.5,4.8h0ZM393.6,151.5h-3.7v17.4h-1.8v-17.4h-5.2c0,7.7-1.5,13.6-4.4,17.5l-1.4-1.1c1.5-2.2,2.6-4.5,3.2-6.8.6-2.3,1-5.4,1-9.2v-10.4c4.3-.6,7.9-1.6,10.6-3l1.4,1.4c-3.1,1.4-6.5,2.4-10.3,3v6.7h10.6v1.7h0Z"/>
  <path class="st0" d="M420.3,146.2h-5.9v22.6h-1.9v-22.6h-1.9c-1.2,1.9-2.6,3.9-4.2,5.8l-1.5-1.3c3.2-3.3,5.6-7.5,7.4-12.4l1.8.7c-.9,2.2-1.7,4.1-2.4,5.5h8.6v1.8h0ZM435.4,146.2h-4.9v19.7c0,.7-.2,1.3-.6,1.8-.4.5-.8.8-1.3.9-.5.1-1.6.2-3.3.2s-1.4,0-2,0l-.7-1.8c1.7,0,3.1.1,4.2.1s1.9-.5,1.9-1.4v-19.4h-4.4c-1.4,2.4-2.9,4.5-4.5,6.3l-1.4-1.3c3.2-3.6,5.7-7.9,7.3-12.9l1.8.5c-.4,1.3-1.2,3.1-2.2,5.5h10.2v1.8h0Z"/>
  <path class="st0" d="M476.9,166.5l-.5,1.8c-3.9,0-6.5,0-7.6,0-3.4,0-5.8-.1-7.5-.4-1.6-.3-3.1-.9-4.7-1.8-1.6-.9-2.9-2.2-4.1-3.9-.9,2-2.5,4.2-4.7,6.6l-1.5-1.3c3.8-3.5,5.9-8,6.5-13.5h1.8c-.3,2.4-.8,4.5-1.4,6.1,1.7,3.3,4.3,5.2,7.8,5.9v-14.6h-14.5v-1.8h14.1v-4.6h-11.7v-1.8h11.7v-4.6h1.8v4.6h11.6v1.8h-11.6v4.6h14.1v1.8h-13.7v5.9h11.3v1.8h-11.3v7.1c2.8.2,5.8.3,8.9.3s3.3,0,5,0Z"/>
  <path class="st0" d="M516.7,166.1c0,1.9-1,2.8-2.9,2.8h-4.8l-.7-1.8h5.7c.2,0,.3,0,.5-.3s.3-.3.3-.5v-21.3h-23.2v23.9h-1.8v-25.7h6.7c1.2-1.6,2.2-3.2,2.9-4.8l1.8.4c-.6,1.4-1.5,2.9-2.6,4.4h18v22.8h0ZM509.7,162.2h-12.9v-12.3h12.9v12.3ZM507.8,160.5v-8.8h-9.3v8.8h9.3Z"/>
  <path class="st0" d="M559.7,149h-5.5v11.1h-12v-11.1h-6.8v17.3h23.1v1.8h-24.9v-19.1h-4.1v-1.8h4.1v-7.4h1.8v7.4h6.8v-8.5h1.8v8.5h8.4v-8.5h1.8v8.5h5.5v1.8ZM552.4,158.2v-9.3h-8.4v9.3h8.4Z"/>
  <path class="st0" d="M601.5,159.2l-1,1.6c-5.3-2-9.3-4.8-11.9-8.3h-4.8c-2.7,3.5-6.7,6.1-11.8,8l-.9-1.6c4.6-1.6,8.1-3.7,10.5-6.4h-7.5v-13.2h24.3v13.2h-7.6c2.1,2.8,5.6,5,10.6,6.7h0ZM581.2,157.3c.3,5.9-2.2,9.8-7.5,11.5l-1.1-1.6c1.3-.4,2.6-1,3.7-1.8,1.1-.8,1.9-1.8,2.4-2.8.5-1.1.7-2.8.7-5.3h1.8ZM585.4,145v-3.9h-9.4v3.9h9.4ZM585.4,150.8v-4.1h-9.4v4.1h9.4ZM596.6,145v-3.9h-9.4v3.9h9.4ZM596.6,150.8v-4.1h-9.4v4.1h9.4ZM592.4,168.8h-1.9v-11.5h1.9v11.5Z"/>
  <path class="st0" d="M624.6,168.1h-1.7v-3h-7.5v3.7h-1.8v-24.5h3.2c.9-1.6,1.7-3.5,2.5-5.9l1.7.3c-.4,1.2-1.2,3.1-2.3,5.6h5.9v23.8h0ZM622.8,153.5v-7.4h-7.5v7.4h7.5ZM622.8,163.4v-8.2h-7.5v8.2h7.5ZM641.9,144.4c-.1,5.2-.4,10-.7,14.4-.4,4.4-.7,7.1-1.1,7.8-.4.8-.8,1.4-1.4,1.7-.6.3-1.7.5-3.3.5s-1.6,0-2.8,0l-.5-1.8c1,0,2,0,3.1,0s1.7,0,2,0c.3,0,.6-.2.9-.4.3-.3.5-.6.7-.9.1-.3.3-1.7.5-4,.2-2.3.4-4.8.5-7.6.1-2.8.3-5.4.3-8h-9c-1.2,2.4-2.6,4.7-4.2,6.8l-1.4-1c3-4,5.2-8.4,6.4-13.3l1.8.5c-.6,1.8-1.2,3.6-1.9,5.3h10.3ZM635.5,159.9l-1.4,1c-1.1-2.6-2.8-5.2-5-8l1.5-.9c2.1,2.5,3.7,5.2,5,8h0Z"/>
  <path class="st0" d="M659.2,159c-1.1,2.7-2.4,5.1-3.9,7.1l-1.5-1c1.3-1.6,2.6-3.8,3.9-6.8l1.6.8h0ZM669.8,156.2h-7v12.7h-1.7v-12.7h-7.1v-1.6h7.1v-3.4h-6.7v-1.7h4.2c-.2-1.1-.8-2.8-1.8-5.1l1.2-.8h-3.4v-1.8h6.4c-.3-.8-.8-1.6-1.4-2.5l1.6-.7c.5.7,1.2,1.8,1.8,3.2h6v1.8h-2.8l1.3.8c-.4,1.3-1.1,3-2.1,5.2h4v1.7h-6.6v3.4h7v1.6ZM665.7,143.5h-7.2c.9,2.2,1.6,4.2,2,6h2.9c1-1.9,1.8-3.9,2.3-6ZM668.7,162.9l-1.6.9c-.5-1.4-1.3-3-2.4-4.9l1.4-.8c1,1.5,1.8,3.1,2.5,4.8h0ZM683.9,151.5h-3.7v17.4h-1.8v-17.4h-5.2c0,7.7-1.5,13.6-4.4,17.5l-1.4-1.1c1.5-2.2,2.6-4.5,3.2-6.8.6-2.3,1-5.4,1-9.2v-10.4c4.3-.6,7.9-1.6,10.6-3l1.4,1.4c-3.1,1.4-6.5,2.4-10.3,3v6.7h10.6v1.7h0Z"/>
  <path class="st0" d="M710.5,142.8h-10.1c-1.2,1.8-2.3,3.1-3.4,3.9l-1.4-1.1c1.9-1.6,3.6-4.1,5.2-7.4l1.5.6c-.3.7-.6,1.5-1.1,2.4h9.2v1.6h0ZM724.2,147.2c-7.7,1.1-15.2,1.7-22.6,1.7v1.6h21.7v5.9h-21.7c-.3,5-1.4,9.1-3.5,12.1l-1.5-.9c1-1.3,1.8-3.1,2.4-5.3.6-2.2.9-4.5.9-6.8v-8.2c9.4,0,17.3-.5,23.6-1.6l.7,1.6ZM721.6,154.8v-2.6h-19.9v2.6h19.9ZM724.2,166.5c0,.9-.2,1.5-.7,1.8-.5.4-1.3.5-2.5.5s-1.1,0-1.6,0l-.4-1.7c.6,0,1.2.1,1.7.1,1.2,0,1.8-.3,1.8-1v-2h-4.7v4.2h-1.8v-4.2h-4.6v4.2h-1.8v-4.2h-4.6v4.5h-1.7v-10.3h20.8v8h0ZM706.9,145.9l-1.6.7c-.7-1.2-1.3-2-1.8-2.6l1.5-.7c.7.8,1.4,1.6,1.8,2.6ZM709.7,162.7v-2.5h-4.6v2.5h4.6ZM725.1,142.8h-10.8c-.9,1.1-1.9,2.2-3.1,3.2l-1.3-1.1c2.1-1.8,3.8-4,5.2-6.7l1.5.7c-.3.8-.8,1.6-1.2,2.2h9.8v1.6h0ZM716,162.7v-2.5h-4.5v2.5h4.5ZM720,145.3l-1.7.5c-.3-.8-.7-1.4-1.1-1.9l1.6-.5c.5.6.9,1.3,1.3,2ZM722.4,162.7v-2.5h-4.7v2.5h4.7Z"/>
  <path class="st0" d="M766.7,147.8h-29.2v-1.7h8.4c-.4-.6-.9-1.4-1.7-2.4l1.2-1h-6.8v-1.6h12.4c-.2-.5-.6-1.2-1-2l1.8-.6c.4.6.8,1.5,1.3,2.6h12.5v1.6h-6.7l1,.9c-.5.9-1,1.7-1.6,2.6h8.4v1.7h0ZM766.6,164.4h-13.4v4.4h-1.9v-4.4h-13.7v-1.7h13.7v-2.8h-10.5v-9.7h22.6v9.7h-10.3v2.8h13.4v1.7ZM761.6,154.1v-2.2h-18.9v2.2h18.9ZM761.6,158.2v-2.4h-18.9v2.4h18.9ZM758.4,142.6h-12.6c.7.9,1.5,2,2.3,3.4h8c1.2-1.6,2-2.7,2.3-3.4Z"/>
  <path class="st0" d="M793,156.9c-.8-.4-1.2-1-1.2-1.7s.1-.7.4-1c.3-.3.7-.5,1.2-.5,1.1,0,1.6.7,1.6,2.1s-.7,2.3-2,3.4l-.7-.5c.5-.7.8-1.3.8-1.7h0Z"/>
  <path class="st0" d="M310.9,210.3h-14.2c-.9,2.5-1.8,4.6-2.6,6.2h14.3v18.9c0,.5-.2,1.1-.6,1.7-.4.6-1.6.9-3.5.9s-.7,0-1,0l-.7-1.8c.5,0,1.1,0,1.7,0,1.1,0,1.7,0,2-.2.3-.1.4-.3.4-.6v-17.1h-6.1v18.9h-1.8v-18.9h-5.9v18.9h-1.7v-18.9h-5.8v19.7h-1.8v-21.5h8.7c1-1.8,1.8-3.8,2.7-6.2h-13.9v-1.8h30v1.8h0Z"/>
  <path class="st0" d="M339,219.3h-5.3v13.8c2.6-.7,4.3-1.3,5.1-1.6v1.9c-5,1.6-10.4,3.1-16.2,4.3l-.4-1.8c.8-.1,1.9-.4,3.3-.7v-23h1.8v22.4c1.6-.3,3.1-.7,4.5-1.2v-25.9h1.8v9.8h5.3v1.8h0ZM352.3,228.4c0,2.5-.3,4.5-.7,6-.4,1.5-.9,2.4-1.6,2.7-.7.3-2,.5-3.9.5s-2.6,0-3.2,0c-.6,0-1.2-.4-1.5-.9s-.6-1.2-.6-2v-26.9h1.8v9.8h8.6v1.8h-8.6v15.5c0,.4.2.7.5.8.4.1,1.7.2,3.9.2s1.6,0,1.8-.2c.3-.1.5-.3.7-.6.2-.3.3-1.2.5-2.6.2-1.4.3-2.9.3-4.5l1.8.5h0Z"/>
  <path class="st0" d="M382.6,235.5l-1.1,1.5c-2-2.1-3.9-3.9-6-5.4-3.3,2.9-6.8,5.1-10.6,6.5l-1-1.6c2-.7,4-1.6,6-2.9,2.1-1.2,3.8-2.6,5.3-4.3,1.5-1.6,3-4.1,4.6-7.6l1.6.7c-1.2,2.9-2.9,5.5-4.8,7.9,3.2,2.5,5.2,4.2,5.9,5.2h0ZM382.3,212.9h-9c-1.9,3.6-3.6,6.2-5.2,7.8,1.8-.1,4.2-.5,7.3-1.1.9-1.5,1.6-3,2.2-4.3l1.5.8c-2.7,6.6-7.3,11.5-13.9,14.7l-.9-1.7c4.1-1.8,7.3-4.3,9.7-7.5-3.5.6-6.3.9-8.5,1.1l-.3-1.8c2.4-1.7,4.4-4.4,6.1-8h-7v-1.7h8.2c-.2-.7-.6-1.8-1.4-3.2l1.8-.5c.6.9,1.1,2.1,1.5,3.6h7.8v1.7h0ZM386,231.1h-1.8v-21.1h1.8v21.1ZM393.1,234.3c0,.9-.2,1.6-.7,2.1-.5.5-1.2.7-2.2.7-1,0-1.8,0-2.6,0s-1.4,0-2,0l-.8-1.8c1.1,0,2.2,0,3.1,0,1.8,0,2.8,0,3.1-.3.3-.2.4-.5.4-.8v-26.6h1.7v26.6Z"/>
  <path class="st0" d="M419.8,226.1c-.8-.4-1.2-1-1.2-1.7s.1-.7.4-1c.3-.3.7-.5,1.2-.5,1.1,0,1.6.7,1.6,2.1s-.7,2.3-2,3.4l-.7-.5c.5-.7.8-1.3.8-1.7h0Z"/>
  <path class="st0" d="M455.9,208.2c-.7,1.8-1.8,3.7-3.1,5.7v13h-1.8v-10.5c-1.1,1.3-2.2,2.5-3.4,3.6l-1.2-1.4c3.4-3.2,6-6.9,7.9-11l1.6.6ZM453,228.6c-1.3,3.4-2.8,6.1-4.4,8l-1.6-1c1.8-2.2,3.3-4.8,4.3-7.7l1.6.7h0ZM475.5,210.3c-.6,2.2-1.2,4.2-1.9,5.9l-1.7-.4c.5-1.3,1-2.6,1.3-3.7h-12.5c-1.4,1.9-2.9,3.7-4.6,5.3l-1.4-1.2c3-3,5.2-5.8,6.5-8.6l1.7.7c-.2.6-.6,1.3-1.1,2.1h13.7ZM462.8,217.7c-2,3.3-3.9,5.8-5.8,7.3l-1.4-1.3c2-1.8,3.9-4.1,5.7-7.1l1.4,1ZM470.1,233c-.1,1.4-.4,2.4-.8,3.1s-1,1.2-1.6,1.4c-.7.2-1.9.3-3.8.3s-3.2,0-4.5,0c-1.3,0-2.1-.2-2.5-.3-.4-.2-.7-.5-.9-.9-.2-.4-.3-1-.3-1.9v-7h1.8v7.1c0,.5.2.9.5,1.1.4.1,3,.2,7.9.2s1.4-.3,1.8-.8c.3-.5.5-1.6.6-3l1.7.8h0ZM466.1,231.3l-1.4,1.1c-1-1.8-2.3-3.6-3.8-5.2l1.4-1.2c1.7,1.8,3,3.6,3.9,5.2h0ZM467.1,226.6h-1.8v-12.4h1.8v12.4ZM476.2,223.5l-1.5,1.2c-1.2-2.3-2.9-4.6-5.1-7l1.3-1.1c2.4,2.4,4.1,4.7,5.3,6.9h0ZM476.5,235.9l-1.6.9c-1.1-2.4-2.6-4.9-4.6-7.5l1.4-1c2.2,2.9,3.8,5.5,4.8,7.6h0Z"/>
  <path class="st0" d="M497.8,237.9h-1.8v-13.7h-3.3c-.2,6.3-1.2,10.7-2.9,13.3l-1.6-1.1c1.8-2.8,2.7-6.9,2.7-12.2h-2.6v-1.7h7.7v-4.5h-6v-8.5h1.8v6.8h4.2v-8.5h1.8v30.1h0ZM516.8,212.4c-3.4,5.3-8.9,8.9-16.5,10.8l-1.2-1.6c4.1-.7,7.5-2.1,10.5-4.1-1.4-1.2-3.5-2.4-6.3-3.9-.9.6-1.8,1.2-2.8,1.7l-1.4-1.4c3.9-2,6.7-4.1,8.5-6.5l1.7.8c-.6.8-1.3,1.6-2.1,2.4h9.6v1.8h0ZM518.4,226.1h-4v9.3c0,1-.3,1.6-1,2-.6.4-1.9.5-3.9.5s-1.2,0-1.9,0l-.6-1.8c1.4,0,2.6.1,3.5.1s1.5,0,1.7-.2c.2-.1.3-.4.3-.7v-9.1h-13.1v-1.8h13.1v-4.2h1.8v4.2h4v1.8h0ZM500.2,218.6v-1.7c1.5,0,3.4-.1,5.5-.5v1.6c-2.5.3-4.3.5-5.5.5ZM507.2,233.3l-1.5,1.1c-1.2-2-2.6-4-4.4-5.9l1.4-1c1.8,1.9,3.3,3.8,4.5,5.9h0ZM514.5,212.4h-9.6c2.2,1.3,4.2,2.6,6,3.9,1.3-1.1,2.5-2.4,3.6-3.9Z"/>
  <path class="st0" d="M538,215.3h-2.8v6.9c.9-.5,1.6-.9,2-1.2l.2,1.8-2.2,1.3v11.5c0,.7-.2,1.2-.7,1.6-.5.4-1,.6-1.8.6s-1.7,0-2,0l-.4-1.7c1.2,0,1.9.1,2.1.1.3,0,.5,0,.7-.3.2-.2.3-.4.3-.6v-10.3c-1.6.9-2.8,1.4-3.5,1.7l-.4-1.7c.8-.3,2.1-.9,3.9-1.8v-7.9h-3.8v-1.6h3.8v-5.9h1.8v5.9h2.8v1.6h0ZM556.9,237.9h-1.7v-5.4h-12.8c-.7,2.2-1.8,4.1-3.4,5.6l-1.2-1.2c2.4-2.1,3.6-5.4,3.6-9.9v-2.4h1.7v1.8h12.2v-1.8h1.7v13.3h0ZM545.7,214.3c0,1.7,0,2.8,0,3.2,0,3.1-.3,4.9-.8,5.5-.5.6-1.3.9-2.4.8l-.3-1.5c.8,0,1.2,0,1.5-.3.2-.2.3-.7.4-1.6,0-.9.1-2.4.1-4.5h-1.7c-.3,3.9-1.2,6.6-2.8,8.3l-1.3-.9c1.5-1.6,2.4-4,2.6-7.3h-1.5v-1.5h6.3ZM559.3,211.7h-20.1v-1.6h9c-.1-.6-.4-1.3-1-2.1l1.6-.4c.3.6.7,1.5,1.2,2.6h9.2v1.6ZM555.2,230.9v-2.9h-12.3c0,1.3-.2,2.2-.3,2.9h12.6ZM553,212.9c-1.1,1.6-2.2,2.9-3.3,3.8v7.5h-1.6v-7.4c-1.2-1.6-2.2-2.9-3.1-3.8l1.2-.9c.7.8,1.6,2,2.7,3.5.7-.6,1.6-1.7,2.8-3.4l1.2.8ZM560,223.1l-1.2,1.2c-1.7-2.5-2.6-5.4-2.7-8.8-.5.2-1.2.4-2,.6v5.7c.6-.2,1.3-.5,2.1-.9l.2,1.5c-1.4.7-2.6,1.2-3.6,1.6l-.7-1.4c.3-.3.5-.7.5-1v-6.6c2-.3,3.9-1,5.8-2.1l.9,1.2c-.3.2-.9.5-1.7.9.1,3.1,1,5.8,2.5,8h0Z"/>
  <path class="st0" d="M601.5,221.3c-1.6,1.4-3.2,2.8-5,4.2v9.5c0,.9-.2,1.6-.7,2-.4.5-1.2.7-2.3.7-1.1,0-2.3,0-3.5,0s-1.4,0-2.1,0l-.5-1.8c1.7,0,3.1,0,4.1,0,1.5,0,2.4,0,2.7-.2.3-.1.4-.5.4-1v-8c-4.7,3.9-12.3,7.5-22.9,10.5l-.8-1.7c9-2.5,16-5.5,21-9.1-6.9,1-13.6,1.7-20.1,2.1l-.4-1.8c1.2,0,2.4,0,3.6-.2v-16h4.4c1.4-1.4,2.3-2.5,2.8-3.4l2.1.4c-.5.7-1.3,1.6-2.4,2.9h14.5v12.4c1-.7,2.3-1.8,3.9-3.3l1.2,1.4h0ZM594.7,215.4v-2.9h-17.8v2.9h17.8ZM594.7,220.4v-3.1h-17.8v3.1h17.8ZM594.7,224.6v-2.4h-17.8v4.3c4.7-.3,10.6-.9,17.8-2h0Z"/>
  <path class="st0" d="M624.5,232.7c-2,1.9-5.6,3.8-10.7,5.6l-1.1-1.6c4.9-1.6,8.4-3.4,10.5-5.2l1.4,1.2ZM642.8,230.2h-30.1v-1.7h5.5v-15.2h-5.1v-1.7h5.1v-3.6h1.9v3.6h15.3v-3.6h1.8v3.6h5v1.7h-5v15.2h5.6v1.7h0ZM635.4,216.9v-3.6h-15.3v3.6h15.3ZM635.4,222.7v-4.1h-15.3v4.1h15.3ZM635.4,228.4v-4.1h-15.3v4.1h15.3ZM642.8,236.8l-1.1,1.5c-2.9-1.8-6.5-3.6-10.8-5.2l.9-1.5c4.8,1.8,8.5,3.5,11,5.2h0Z"/>
  <path class="st0" d="M682.2,227.6h-12.2v10.4h-1.8v-10.4h-12.2v-13.8h12.2v-6.1h1.8v6.1h12.2v13.8ZM668.2,225.8v-10.1h-10.4v10.1h10.4ZM680.4,225.8v-10.1h-10.3v10.1h10.3Z"/>
  <path class="st0" d="M710.6,219.5c1,0,1.8.3,2.5,1,.7.7,1,1.5,1,2.5s-.3,1.8-1,2.5c-.6.7-1.4,1-2.4,1s-1.7-.3-2.4-.9c-.7-.6-1-1.5-1-2.7s.3-2,1.1-2.5c.7-.6,1.4-.9,2.2-.9h0ZM712.7,223c0-.6-.2-1.1-.6-1.4-.4-.4-.9-.5-1.5-.5s-1,.2-1.4.6c-.4.4-.6.9-.6,1.4s.2,1,.5,1.4c.4.5.8.7,1.5.7s1.1-.2,1.5-.6c.4-.4.6-.9.6-1.5Z"/>
</svg>