<?xml version="1.0" encoding="UTF-8"?>
<svg id="_圖層_1" data-name="圖層_1" xmlns="http://www.w3.org/2000/svg" version="1.1" viewBox="0 0 995 133">
  <!-- Generator: Adobe Illustrator 29.4.0, SVG Export Plug-In . SVG Version: 2.1.0 Build 152)  -->
  <defs>
    <style>
      .st0 {
        fill: #fff;
      }
    </style>
  </defs>
  <path class="st0" d="M319.7,68.4l5.4-2.5-3.1,6.1h-99.2l-1.2-3.7h98.2v.2ZM319.1,11.5l5.4-2.5-2.9,6.1h-98.3l-1.2-3.7h97.1ZM245.3,110c-4.3,9.9-12,16.9-23,20.9,7.7-6.4,13-13.9,16-22.7,3-8.8,4.3-18.6,4.1-29.6l10.1-4.8c-.5,14.2-2.8,26.2-7.1,36.1ZM313.3,24l5.4-2.5-3.1,6.1h-86.8l-1.2-3.7h85.7ZM267.3,87.1v3.6h-38.4l-1-3.7h39.4ZM246.1,38.4v15.5l-10.2,4.8v-25.2l10.2,4.8ZM306.1,48.4v3.6h-66.4v-3.7h66.4ZM272.8,34.3c10.7,0,21.6,1.1,32.6,3.2v3.7c-11.2-2.1-22.1-3.2-32.9-3.2s-21.6,1.1-32.6,3.2v-3.7c11.3-2.1,22.2-3.2,32.9-3.2ZM251.4,60.3c-1.5-2.7-3.4-4.9-5.7-6.6,7.7,2.3,13.7,5.8,18.1,10.7l-7.1,7.2c-2-4.8-3.8-8.5-5.3-11.2h0ZM269,120.1c-3.8,6.1-10.6,9.3-20.4,9.7,6.5-2,10.9-5.7,12.9-11.1,2.1-5.4,3.1-12.2,3.1-20.6v-10.7l10.1-4.8v13.1c0,10.1-1.9,18.3-5.7,24.3ZM277.8,6.8v18.4h-10.2V1.9l10.2,4.8ZM289.4,66.5c-2.9,1.7-6.3,3-10.1,4.1,2.3-1.7,4.2-3.9,5.8-6.7,1.6-2.8,3.3-6.5,5.1-11l7.1,7.1c-2.3,2.7-4.9,4.8-7.9,6.5h0ZM292.1,86.7v36.2l-9.1,4.8v-45.9l9.1,4.8ZM310.7,116.1v3.7h-23.8v-3.7h23.8ZM298.7,82.5c3.5,0,7.2,1.1,11.2,3.2v3.7c-4.1-2.1-7.8-3.2-11.3-3.2s-7.2,1.1-11.2,3.2v-3.7c4.1-2.1,7.8-3.2,11.3-3.2ZM310.4,33.3v25.4l-10.2-4.8v-15.8l10.2-4.8ZM314.7,81.6v46.2l-9.1-4.8v-36.5l9.1-4.8Z"/>
  <path class="st0" d="M400.4,49c-4,7.9-8.7,15.3-14.2,22.2s-11.4,12.1-17.7,15.6c7-8.3,13.2-18.4,18.7-30.4,5.5-11.9,9.2-23.2,11.3-33.7l10.8,4.1c-1.9,6.8-4.9,14.2-8.8,22.1h0ZM373.7,28.5l-1.2-3.7h29.2v3.7h-27.9ZM386.5,11.3c-2.2-4.5-4.7-8-7.4-10.4,4.8,1.8,8.8,3.7,11.9,6,3.1,2.2,6,5.1,8.7,8.6l-8.8,8.6c-.6-4.1-2.1-8.4-4.3-12.8h0ZM396.9,55.6v72l-9.7,4.8V61l9.7-5.4ZM403,63.2c-1.8-5.7-3.9-9.9-6.1-12.8,7.8,4.5,14.2,11.8,19.1,21.7l-10,6.8c-.2-4.8-1.2-10-3.1-15.7h0ZM470.6,8.7l5.4-2.5-3.1,6.1h-59.6l-1.2-3.7h58.5c0,.1,0,.1,0,.1ZM426.1,67.6v57.4l-9.7,4.8V62.8l9.7,4.8ZM466.3,118.1v3.6h-43.8l-1.2-3.7h45.1ZM431.5,24.3v29.2l-9.5,4.8V19.5l9.5,4.8ZM443.5,63c6.9,0,14,1.3,21.3,4v3.7c-7.6-2.7-14.7-4-21.4-4s-14,1.3-21.4,4l.3-3.7c7.5-2.7,14.6-4,21.3-4ZM465.1,90.4l-.3,3.6h-42.5v-3.7c.1,0,42.7.1,42.7.1h0ZM462.9,46.6v3.6h-36.9l-1.1-3.7h38ZM443.4,20.6c6.3,0,12.3,1.1,18.1,3.2v3.6c-5.8-2.1-11.7-3.2-17.8-3.2s-12,1.1-17.8,3.2v-3.7c5.6-2,11.4-3.1,17.6-3.1h0ZM447.4,65.4v55.7h-8.4v-55.7h8.4ZM464.9,19.5v38.9l-9.7-4.8v-29.2l9.7-4.8ZM470.6,62.8v67l-9.7-4.8v-57.4l9.7-4.8Z"/>
  <path class="st0" d="M553,52.7c0,9.3-1.4,19.4-4.3,30.2-2.9,10.8-7.1,20.7-12.6,29.7-5.5,9-12,15.4-19.4,19.2,5.5-5.4,10.3-12.7,14.3-22,4-9.3,7-19,9-29.1,2-10.1,2.7-18.8,2.3-26.2l10.7-5.7v3.9c.1,0,.1,0,.1,0ZM545.1,10.2v3.6h-25.4l-1.2-3.7h26.7c0,.1,0,.1,0,.1ZM597,126.2c-13,0-24.5-1.6-34.4-4.8-9.9-3.2-18.6-9.3-26-18.3-7.4-9-12.8-21.8-16.1-38.4,7.1,18.3,17.3,31.2,30.6,38.9,13.3,7.7,29.3,11.5,47.9,11.5s14.8-.5,24.3-1.7l-4,11.9c-8.7.6-16.1,1-22.4,1ZM552,8.4l-17.8,47.7-10.2,2.1,18-48,10.1-1.8ZM547.9,52.5v3.7h-15.2l-1.1-3.7h16.3ZM617.2,84.8l5.4-2.5-3.1,6.1h-66.5l-1.2-3.7h65.4c0,.1,0,.2,0,.2ZM620.2,30.4l5.4-2.5-2.9,6.1h-68.1l-1.2-3.7h66.9c0,.1,0,.1,0,.1ZM612.6,67.9l5.4-2.5-3.1,6.1h-57l-1.2-3.7h55.8c0,.1,0,.1,0,.1ZM605.3,11.8v3.6h-46l-1.2-3.7h47.3c0,.1,0,.1,0,.1ZM605.1,50.5v3.6h-45.9l-1.2-3.7h47.1ZM587.8,4.8v100.8l-10.8,4.8V0l10.8,4.8ZM611.6,59.2l-10.8-4.8V12.4l10.8-4.8v51.6Z"/>
  <path class="st0" d="M711.6,22.3l5.4-2.5-3.1,6.1h-43.9l-1.2-3.7h42.9c0,.1,0,.1,0,.1ZM705.9,59.6l5.4-2.5-2.9,6.1h-32.8l-1.2-3.7h31.5c0,.1,0,.1,0,.1ZM706.3,41.1l5.4-2.5-2.9,6.1h-32.8l-1.2-3.7h31.5c0,.1,0,.2,0,.2ZM684.3,82.1v38.9l-9,4.8v-48.2l9,4.6ZM691.9,82.3c-4.3,0-9.2,1.1-14.5,3.2v-3.7c5.2-2.1,10-3.2,14.2-3.2s9.3,1.1,14.7,3.2v3.7c-5.2-2.1-10.1-3.2-14.4-3.2ZM678.1,116.8v-3.7c-.1,0,28.2.1,28.2.1v3.6h-28.2ZM686.5,10c-1.8-4.1-3.7-7.2-5.7-9.4,4.8,2.3,8.6,4.6,11.3,6.8s5.2,5.2,7.5,9l-8.8,6.1c-1-4.2-2.4-8.4-4.2-12.4h0ZM708.7,125.8l-9-4.8v-38.9l9-4.6v48.2ZM754.4,91c-5.5,9.5-12.7,17.8-21.6,24.7-8.8,6.9-18.9,12.2-30.1,15.8,29-16.4,46-38.6,50.9-66.8l11.2-4.8c-1.4,11.2-4.8,21.6-10.4,31.2ZM728.6,36.9c-2.7,9.8-8.2,17.9-16.5,24,4-6.1,6.7-12.6,8.4-19.4,1.6-6.9,2.4-14.1,2.4-21.8s-.3-9.2-.8-16l10.7,4.8c0,9-1.4,18.5-4.1,28.3h0ZM760.1,63v3.6h-44.9l-1.2-3.7h46.2c0,.1,0,.1,0,.1ZM737.1,105.3c-7.4-10.4-12.6-24.1-15.7-41.3,5.5,15.3,12.4,27.4,20.4,36.3,8.1,8.9,18.3,15.7,30.4,20.2l-5,9.5c-12.7-6.2-22.8-14.5-30.2-24.8h0ZM738.7,5.4c4.7,0,9.6,1.1,14.7,3.2v3.6c-4.8-2.1-9.4-3.2-14-3.2s-9,1.1-14,3.2l-1.1-3.7c4.7-2,9.5-3.1,14.4-3.1ZM755.9,3.7v28.9c0,5,.5,8.9,1.4,11.9.9,2.9,2.6,5.2,5,6.9s5.9,2.7,10.4,3.1c-3.1.5-5.9.8-8.4.8-6.6,0-11.3-1.9-14-5.7-2.7-3.8-4-9.4-4-16.8V8.9l9.5-5.1h0Z"/>
</svg>