<?xml version="1.0" encoding="UTF-8"?>
<svg id="_圖層_1" data-name="圖層_1" xmlns="http://www.w3.org/2000/svg" version="1.1" viewBox="0 0 995 189">
  <!-- Generator: Adobe Illustrator 29.4.0, SVG Export Plug-In . SVG Version: 2.1.0 Build 152)  -->
  <defs>
    <style>
      .st0 {
        fill: #fff;
      }
    </style>
  </defs>
  <path class="st0" d="M253.6,145.5l.9,14.5h-1.6c-.6-2.9-1.2-5.2-1.9-7.1s-1.5-3.4-2.5-4.6c-1.7-2.2-4.1-3.3-7.1-3.3s-3.5.5-5,1.4c-1.6.9-2.8,2.2-3.9,3.9-2.4,4-3.5,9-3.5,15.2s1.2,11.9,3.6,15.8c1,1.7,2.4,3,3.9,3.8s3.3,1.3,5.1,1.3c2.9,0,5.4-.9,7.4-2.8,2.1-1.8,3.7-4.5,5-8.1l1.6,1c-1.4,4.1-3.3,7.1-5.7,9.2-2.3,2-5.2,3.1-8.5,3.1-5.5,0-9.8-2-12.9-6-1.4-2-2.5-4.3-3.3-7.3-.8-2.9-1.2-6.1-1.2-9.7s.4-6.7,1.3-9.6c.8-2.9,2-5.3,3.6-7.3,3-3.9,7.1-5.9,12.2-5.9s6,.8,8.9,2.3h3.6Z"/>
  <path class="st0" d="M281.2,183.1c-2.8-3.9-4.2-9.4-4.2-16.6s1.4-13.2,4.3-17.3c2.9-4,6.9-6.1,11.9-6.1s9.1,2,12,5.8c1.4,2,2.5,4.4,3.3,7.4.7,3,1.1,6.3,1.1,10.2s-.4,6.9-1.1,9.7c-.7,2.8-1.8,5.2-3.3,7.1-1.5,1.9-3.2,3.3-5.1,4.3-1.9.9-4.2,1.4-6.8,1.4-5.1,0-9-2-12-5.9h0ZM298.1,185.7c1.5-.9,2.7-2.2,3.6-3.9,2-3.7,3-8.8,3-15.4s-1-12.5-2.9-16.2c-1.9-3.6-4.8-5.4-8.6-5.4s-6.6,1.8-8.5,5.4c-1.9,3.6-2.9,9-2.9,16.2s1,11.8,2.9,15.3c.9,1.7,2.2,3,3.7,3.9,1.5.9,3.1,1.4,4.9,1.4s3.5-.5,5-1.4h0Z"/>
  <path class="st0" d="M332.1,187.2l5.2-2.7v-37.7l-4.4-2v-.9h9.4l11.9,35.8,13.3-35.8h9.4v.9l-4.4,2v37.7l4.6,2.7v.9h-13.5v-.9l4.4-2.7v-36.6l-14.4,38.6h-2l-12.5-38.1v36.1l5.1,2.7v.9h-12.1v-.9h0Z"/>
  <path class="st0" d="M395.6,187.2l6.5-2.6v-36.8l-6.1-2.9v-.9h17.4v.9l-6.2,2.9v36.8l6.5,2.6v.9h-18v-.9Z"/>
  <path class="st0" d="M429.8,187.2l5.4-2.8v-37.4l-5.2-2.1v-.9h9l22.8,36.1v-32.7l-5.6-2.5v-.9h12.7v.9l-5.3,2.5v40.7h-2.6l-24-38.3v34.6l5.6,2.8v.9h-12.9v-.9Z"/>
  <path class="st0" d="M519.5,145.4l1,13.3h-1.7c-.6-2.6-1.2-4.8-1.9-6.5-.7-1.7-1.5-3.1-2.4-4.1-.8-.9-1.8-1.7-3.1-2.2-1.3-.5-2.8-.7-4.3-.7-3.7,0-6.7,1.8-9,5.2-2.4,3.9-3.7,9.1-3.7,15.7s1.2,11.9,3.4,15.7c1,1.6,2.2,2.9,3.7,3.8,1.5.9,3.1,1.3,5,1.3s3.2-.2,4.9-.6c1.7-.4,3.2-1,4.6-1.7v-9.2c0-1.7-.1-3-.3-3.9-.2-.9-.6-1.5-1.2-1.9-.6-.4-1.5-.6-2.6-.6v-1.8h12.4v1.8c-1.1,0-2,.7-2.7,2-.7,1.2-1,2.7-1,4.3v5.3c0,1.3,0,3,.3,5.3-2.2.1-4.1.6-6,1.3-3.4,1.2-6.1,1.8-8.2,1.8s-5.2-.5-7.3-1.4c-2.1-.9-3.9-2.4-5.4-4.3-1.5-1.9-2.6-4.3-3.3-7.2-.8-2.9-1.2-6.2-1.2-9.9,0-7.2,1.6-12.8,4.8-16.8,1.6-2,3.5-3.5,5.6-4.5,2.1-1,4.5-1.5,7.2-1.5s6.4.7,9.3,2.2h3.1,0Z"/>
  <path class="st0" d="M571.1,187.2l-.7-13.8h1.5c.5,2.6,1,4.8,1.5,6.5.5,1.7,1.2,3.1,2,4.1.7.9,1.6,1.6,2.8,2.1,1.2.5,2.4.7,3.8.7s2.4-.2,3.4-.5c1-.3,1.8-.9,2.5-1.6,1.5-1.5,2.3-3.6,2.3-6.1s-.8-4.6-2.5-6.4c-1.6-1.8-4.5-3.5-8.6-5.3-5.9-2.5-8.8-6.6-8.8-12.3s1-6.2,2.9-8.4c1-1.1,2.3-2,3.7-2.5,1.4-.5,3-.8,4.9-.8s4.9.5,7.6,1.6h2.8l.7,12.9h-1.6c-.5-2.4-1-4.3-1.6-5.9-.6-1.6-1.3-2.9-2-3.9-.7-.9-1.6-1.6-2.6-2.1-1-.5-2.1-.7-3.4-.7-2.4,0-4.3.7-5.5,2-1.2,1.4-1.8,3.1-1.8,5.4s.6,4.3,1.9,5.8c1.3,1.6,3.8,3.2,7.5,4.7,7,3,10.6,7.3,10.6,12.8s-1.1,7.5-3.4,9.7c-1.2,1.1-2.5,2-4,2.5-1.5.5-3.2.8-5.2.8s-4.8-.6-7.4-1.7h-3.3Z"/>
  <path class="st0" d="M620.1,183.1c-2.8-3.9-4.2-9.4-4.2-16.6s1.4-13.2,4.3-17.3c2.9-4,6.9-6.1,11.9-6.1s9.1,2,12,5.8c1.4,2,2.5,4.4,3.3,7.4.7,3,1.1,6.3,1.1,10.2s-.4,6.9-1.1,9.7c-.7,2.8-1.8,5.2-3.3,7.1-1.5,1.9-3.2,3.3-5.1,4.3-1.9.9-4.2,1.4-6.8,1.4-5.1,0-9-2-12-5.9h0ZM637,185.7c1.5-.9,2.7-2.2,3.6-3.9,2-3.7,3-8.8,3-15.4s-1-12.5-2.9-16.2c-2-3.6-4.8-5.4-8.6-5.4s-6.6,1.8-8.5,5.4-2.9,9-2.9,16.2,1,11.8,2.9,15.3c.9,1.7,2.2,3,3.7,3.9,1.5.9,3.1,1.4,4.9,1.4s3.5-.5,5-1.4h0Z"/>
  <path class="st0" d="M677.1,183.1c-2.8-3.9-4.2-9.4-4.2-16.6s1.4-13.2,4.3-17.3c2.9-4,6.9-6.1,11.9-6.1s9.1,2,12,5.8c1.4,2,2.5,4.4,3.3,7.4.7,3,1.1,6.3,1.1,10.2s-.4,6.9-1.1,9.7c-.7,2.8-1.8,5.2-3.3,7.1-1.5,1.9-3.2,3.3-5.1,4.3-1.9.9-4.2,1.4-6.8,1.4-5.1,0-9-2-12-5.9h0ZM694.1,185.7c1.5-.9,2.7-2.2,3.6-3.9,2-3.7,3-8.8,3-15.4s-1-12.5-2.9-16.2c-2-3.6-4.8-5.4-8.6-5.4s-6.6,1.8-8.5,5.4c-1.9,3.6-2.9,9-2.9,16.2s.9,11.8,2.9,15.3c.9,1.7,2.2,3,3.7,3.9,1.5.9,3.1,1.4,4.9,1.4s3.5-.5,5-1.4h0Z"/>
  <path class="st0" d="M727.4,187.2l5.4-2.8v-37.4l-5.2-2.1v-.9h9l22.8,36.1v-32.7l-5.6-2.5v-.9h12.7v.9l-5.3,2.5v40.7h-2.6l-24-38.3v34.6l5.6,2.8v.9h-12.9v-.9Z"/>
  <path class="st0" d="M229.3,66.1c-3,4.7-5.6,7.9-7.8,9.6,1.5-2.4,3-6.2,4.5-11.3,1.5-5.1,2.5-9.6,2.9-13.6l6.8,2.7c-1.3,3.7-3.5,7.9-6.4,12.6ZM256.2,35.3l3.5-1.6-2,3.9h-34.5l-.8-2.4h33.8ZM255.4,14.7l3.5-1.6-2,4h-32.9l-.8-2.4h32.1ZM254.7,45.7l3.5-1.6-2,4h-31.2l-.8-2.4h30.4ZM232.6,32.5c-.6-3.3-1.2-6-1.9-8-.7-2-1.7-3.9-3.2-5.5,2.3.9,4.6,2.5,6.8,4.8,2.3,2.3,4.1,4.6,5.5,7l-6.8,3.9-.4-2.1ZM243,70.2c-.8,3.3-2.3,6.2-4.6,9-2.3,2.7-5.7,4.8-10.1,6.2,2.9-2.6,5.1-5.2,6.4-7.8,1.4-2.6,2.2-5.3,2.6-8,.4-2.7.6-6.1.6-10.3v-22.1h6.2v21.9c0,4.2-.4,8-1.2,11.3h0ZM236.2,8.3c-1.6-2.4-3.5-4.3-5.6-5.8,2.6.8,5.5,2,8.8,3.7,3.2,1.7,5.6,3.4,7.1,5.1l-5.6,5.4c-1.5-3.3-3.1-6.1-4.7-8.5ZM248.7,30.4c-2.6,2.8-5.2,4.9-7.8,6.1,1.6-2.1,3-4.8,4.2-7.9,1.2-3.1,2.1-6.5,2.8-10.1l6.8,3.8c-1.4,2.6-3.4,5.2-6,8.1ZM248.8,57.9c-.9-3.1-2.1-5.8-3.6-8.1,2.4,1.7,4.8,4.1,7.1,7.2,2.4,3.1,4.3,6.3,5.8,9.8l-6.5,3.3c-1-5-1.9-9.1-2.8-12.2ZM268.5,17.4c0,13.9-.3,24.7-1,32.3-.7,7.7-2.1,14.4-4.3,20.2-2.2,5.8-5.6,11.1-10.4,16,2.7-4.8,4.7-9.7,5.9-14.8,1.3-5.1,2.1-10.9,2.5-17.5.4-6.5.6-15.5.6-27V8.3l6.6,3.1v6h0ZM282,12.4c-3.1.5-6.2.7-9.5.7s-6.5-.3-9.1-.9c4.1-.3,8.3-1.4,12.6-3,4.3-1.6,8.2-3.7,11.6-6.3l2.4,7.2c-2.3,1-5,1.7-8,2.2h0ZM288,29.6l3.5-1.6-2,3.9h-25.3v-2.4c0,0,23.8,0,23.8,0h0ZM283.2,30v52.2l-6.7,3.1V30h6.7Z"/>
  <path class="st0" d="M329.8,20.5v53.8l-6.6,3.1V17.4l6.6,3.1h0ZM345.5,70v2.3h-18.1l-1.1-2.4h19.2c0,0,0,0,0,0ZM335.6,18.1c3,0,5.9.7,8.8,2l-.2,2.3c-2.7-1.4-5.6-2-8.6-2s-5.8.7-8.7,2v-2.4c2.7-1.3,5.6-2,8.7-2ZM335.2,42l4.1-1.6-2.3,3.9h-8.9l-1-2.4h8.1ZM335.9,12.9c-2,3.5-4.2,6-6.8,7.6,1.1-2,1.9-4.9,2.4-8.6.5-3.7.7-7.2.6-10.5l8.5,1.4c-1.1,3.3-2.7,6.7-4.6,10.2h0ZM348,17.4v60.1l-6.6-3.1V20.5l6.6-3.1h0ZM360.9,21.9c-3.2,6.2-6.7,11.5-10.7,15.8,2.6-4.8,4.6-9.9,5.9-15.2,1.3-5.3,2.5-12.5,3.5-21.5l8.1,1.9c-1.4,6.5-3.7,12.8-6.9,19h0ZM356.5,31.9c3.2,2.4,6.4,5.5,9.6,9.4,3.1,3.9,5.4,7.4,6.9,10.4l-7.8,4.4c-2.1-11.4-5-19.4-8.7-24.2ZM381.4,14.8v2.3h-20.7v-2.4h20.7ZM368,85.1c6.2-5.8,9.4-15.2,9.4-28.3V14.9l6.8-3.1v44.3c0,13.3-5.4,23-16.2,29h0Z"/>
  <path class="st0" d="M478.5,80.9l3.5-1.6-2,3.9h-61.9l-.8-2.4h61.1ZM433,21.6c-2,5.1-4.3,10.3-6.9,15.5-2.6,5.2-5.2,9.5-7.7,12.8,2.2-5.6,4.3-13,6.3-22.1,2-9.1,3.1-15.9,3.3-20.2l9,2c-.8,2.9-2.1,6.9-4.1,12.1h0ZM474,48.8l3.5-1.6-2,4h-51.1l-.8-2.4h50.3ZM475.5,21.3l3.5-1.6-1.9,4h-46.9l-.8-2.4h46.1ZM454.5,4.2v77.9h-7.2V1l7.2,3.1h0Z"/>
  <path class="st0" d="M511.1,24c3.3,1.2,6.5,3,9.6,5.4,3.1,2.3,5.9,4.9,8.1,7.7l-6.2,5.7c-3.7-9.2-7.6-15.5-11.5-18.7ZM514.3,4.8c3.3,1,6.6,2.6,9.9,4.6,3.3,2.1,6.1,4.4,8.6,7.1l-5.7,6.2c-4.5-9-8.8-15-12.8-17.9h0ZM525,60.7c3.5-8,6-15.8,7.4-23.4,0,8.5-1.1,16.9-3.1,25.2-2,8.3-4.2,15.2-6.6,20.8l-8-3.3c3.4-4.8,6.9-11.3,10.4-19.3h0ZM576.5,28.4l3.4-1.6-1.9,3.9h-44.6l-.8-2.4h43.8ZM561.2,13c-5.8.8-11.4,1.2-17.1,1.2s-7.1-.2-10.1-.5c5.9-.4,12.6-1.9,20.2-4.4,7.6-2.5,13.5-5.2,17.8-7.9l2.6,8.7c-3.2,1.2-7.7,2.2-13.5,3h0ZM545.1,48.9v33.8l-6.9,3.1v-40.1l6.9,3.1h0ZM572.1,78v2.3h-31.2v-2.4h31.2ZM556.6,46.3c5,0,10.1.9,15.4,2.8v2.3c-5.1-1.8-10.1-2.7-15.3-2.7s-10.1.9-15.2,2.7v-2.4c5.1-1.8,10.1-2.7,15.1-2.7ZM559.8,12.2v35.6h-7V11.5l7,.7ZM575,45.8v40.1l-6.9-3.1v-33.8l6.9-3.1h0Z"/>
  <path class="st0" d="M625.9,60.2c-2,5.3-4.6,10.3-7.6,14.9-3,4.6-6.3,8.2-9.8,10.9,3.9-5.3,7.3-12.1,10.2-20.4,2.9-8.3,4.5-16.3,4.8-24.2l6.5,3.7c-.7,4.8-2.1,9.8-4.1,15.1ZM615.7,16.5c1.8-3,3.1-6.1,4-9.3.1,1.9.2,3.4.2,4.6,0,7.1-1.1,12.5-3.2,16.3l-7.3-3.9c2.4-2.1,4.6-4.7,6.3-7.7h0ZM665.9,30.4l3.5-1.6-2,3.9h-48.4l-.8-2.4h47.7ZM619.1,15.2l-.7-2.4h50.2c0,0-.3,2.4-.3,2.4h-49.2ZM661.3,82.8c-19.2,0-32.1-8.4-38.6-25.3,3.8,6.3,8.9,11,15.2,14.2,6.3,3.2,13.7,4.7,22.1,4.7s10.7-.6,16.2-1.7l-2,6.9c-4.8.8-9.1,1.2-13,1.2ZM639.2,6.4c-1.8-2.3-3.8-4.3-6.1-5.9,2.9.5,5.8,1.5,8.6,2.9,2.8,1.4,5.1,2.9,6.8,4.6l-5.4,5.6c-.9-2.4-2.2-4.8-4-7.1h0ZM647.8,31.2v44.9h-7V31.2h7ZM665.9,49.1l3.5-1.6-2,3.9h-23l-.8-2.4h22.2ZM668.2,21.5c-2.2,2-4.8,3.9-7.8,5.8,3.1-4.5,5.3-10,6.5-16.6l7.2,3.8c-1.7,2.6-3.7,5-5.9,7Z"/>
  <path class="st0" d="M768.6,28.8l3.5-1.6-1.9,3.9h-63.8l-.8-2.4h63ZM769,49l3.5-1.6-2,3.9h-64l-.8-2.4h63.3ZM765.8,11.5l3.5-1.6-2,3.9h-57l-.8-2.4h56.2ZM740.7,58.3l-28.9,11.3-2-7.9,31-3.4h0ZM727.8,43.2c-3.6.7-7.3,1-11.1,1s-3.7,0-5.6-.3c4.2-.7,8.2-1.9,12.1-3.5s7.8-3.9,11.8-7l2.7,6.8c-3,1.2-6.2,2.2-9.8,2.9h0ZM729,73.9c-.7,3.5-2.3,6.2-4.9,8.3s-6.6,3.2-12.2,3.5c3.7-1.2,6.3-2.9,7.9-4.9,1.6-2,2.6-4.5,3-7.5.4-3,.6-7.8.6-14.2v-17.3h6.6v17c0,6.6-.3,11.7-1,15.1h0ZM761.4,20.2l3.5-1.6-2,3.9h-48l-.8-2.4h47.3ZM724.2,5.8c-.9-1.9-2.2-3.6-4-5.2,5.4,1.6,9.7,4.1,12.8,7.8l-6.2,4.8c-.8-3-1.7-5.5-2.6-7.4ZM758.2,68c-3.5,3.8-7.4,6.9-11.8,9.4-4.3,2.4-8.7,4-13,4.7,3.2-1.4,6.6-3.6,10.1-6.4,3.5-2.8,6.8-6.2,9.8-10,3-3.8,5.3-7.8,7-12l6.2,1.6c-2,4.6-4.7,8.9-8.2,12.7h0ZM742.2,13.3v17.1h-6.6V13.3h6.6ZM751.8,59.5c1.2,5.7,3.3,10.6,6.6,14.7,3.2,4.1,7.9,7.7,14.2,10.9-7.6-1.1-13.5-3.7-17.7-7.9-4.2-4.2-7.1-9.8-8.8-16.6-1.7-6.9-2.6-15.6-2.9-26l7,3.1c0,8.9.5,16.2,1.6,21.9h0ZM744.2,12.6c2.9-2.6,5.2-6.8,6.9-12.6l6.1,4.6c-3.6,3.7-7.9,6.4-13,7.9ZM758.9,41.2c-.9-1.4-2.3-2.8-4.2-4,2.7.3,5,1,7,1.8s3.9,2,5.7,3.5l-5.2,5.1c-1.2-2.9-2.3-5-3.3-6.4Z"/>
</svg>