<svg width="995" height="59" viewBox="0 0 995 59" fill="none" xmlns="http://www.w3.org/2000/svg">
<path d="M994.176 0H0V58.8672H994.176V0Z" fill="#EFB652"/>
<path d="M454.378 38.9382L453.773 41.0982C451.123 41.2134 448.704 41.2999 446.487 41.2999C443.923 41.2999 442.109 41.2422 441.072 41.0982C440.035 40.9542 439.027 40.695 438.048 40.2918C437.069 39.8886 436.234 39.3702 435.514 38.7078C434.592 40.0038 433.757 41.0694 432.979 41.8758L431.136 40.407C433.296 38.3334 434.794 35.8566 435.658 32.9478H431.597V30.9894C433.181 29.175 434.362 27.6199 435.168 26.2663H431.309V24.0486H437.962V26.2374C437.127 27.6198 436.061 29.1175 434.794 30.7591H438.106V32.9191C437.703 34.3303 437.184 35.6551 436.551 36.8935C437.069 37.4119 437.875 37.8726 438.912 38.2758C439.978 38.679 441.447 38.9094 443.376 38.967C445.306 39.0246 447.207 39.0535 449.079 39.0535C450.951 39.0535 452.679 39.0534 454.349 38.967L454.378 38.9382ZM438.077 21.7446L436.522 23.4438C435.226 22.263 433.642 21.1398 431.77 20.103L433.383 18.375C435.37 19.527 436.925 20.6214 438.106 21.7446H438.077ZM453.888 30.183H447.091C446.803 31.8246 445.997 33.3798 444.672 34.8486C443.347 36.3174 441.792 37.4694 439.978 38.3046L438.509 36.4614C440.122 35.8278 441.504 34.935 442.627 33.8118C443.751 32.6886 444.442 31.479 444.701 30.2118H438.883V28.1094H445.075C445.133 27.5622 445.162 26.9863 445.162 26.3527C445.162 25.9783 445.162 25.5462 445.162 25.0854H439.747V23.0118H453.024V25.0854H447.523C447.523 25.9782 447.495 26.9862 447.408 28.0806H453.917V30.183H453.888ZM445.421 21.4854L443.434 22.5799C442.599 21.2551 441.85 20.2182 441.13 19.4406L443.117 18.375C443.837 19.0374 444.615 20.0742 445.392 21.4854H445.421ZM454.378 36.4038L452.967 38.2182C451.267 36.6054 449.136 34.9926 446.659 33.351L448.042 31.5654C450.288 32.9191 452.391 34.5318 454.378 36.4038ZM452.016 19.5558C451.239 20.7366 450.432 21.7735 449.597 22.6663L447.581 21.5142C448.359 20.679 449.165 19.6422 450.029 18.375L452.016 19.5558Z" fill="white"/>
<path d="M479.145 41.5878H476.726V40.2919H458.697V31.5942H461.088V38.0455H467.769V29.0311H459.907V20.3335H462.268V26.7558H467.769V18.6055H470.131V26.7558H475.632V20.3335H477.993V29.0311H470.131V38.0455H476.784V31.5942H479.145V41.5878Z" fill="white"/>
<path d="M494.381 27.0999L492.422 28.1655C492.192 27.6471 492.048 27.3303 491.933 27.1863C489.83 28.0503 487.498 28.8855 484.934 29.6343L484.128 27.6759C484.474 27.3591 484.646 26.9847 484.646 26.5815V20.5912C487.901 20.2168 490.637 19.4967 492.912 18.4023L494.266 20.3032C492.25 21.2536 489.83 21.9447 486.979 22.4055V26.7543C488.506 26.2647 489.802 25.7751 490.81 25.2855C490.608 24.9687 490.291 24.5368 489.802 23.932L491.616 22.8951C492.682 24.0759 493.574 25.4584 494.323 27.0712L494.381 27.0999ZM504.202 41.5576H501.898V40.6071H488.506V41.5576H486.23V30.2968H504.202V41.5576ZM494.035 34.3576V32.3991H488.506V34.3576H494.035ZM494.035 38.5048V36.3448H488.506V38.5048H494.035ZM505.93 19.324C505.93 21.3976 505.843 23.2408 505.728 24.8248C505.584 26.4088 505.382 27.4455 505.152 27.9351C504.922 28.4247 504.576 28.7703 504.144 29.0007C503.712 29.2311 503.021 29.3463 502.07 29.3463C501.638 29.3463 501.062 29.3464 500.342 29.3176L499.709 27.0999C500.4 27.0999 500.976 27.0999 501.408 27.0999C502.157 27.0999 502.646 27.0712 502.79 26.9848C502.934 26.8984 503.078 26.7831 503.165 26.6391C503.251 26.4951 503.338 25.8328 503.453 24.7096C503.539 23.5576 503.597 22.492 503.597 21.484H500.832C500.4 25.0264 498.758 27.7335 495.907 29.6343L494.15 28.0791C496.829 26.4087 498.269 24.22 498.47 21.484H495.187V19.324H505.93ZM501.898 34.3576V32.3991H496.339V34.3576H501.898ZM501.898 38.5048V36.3448H496.339V38.5048H501.898Z" fill="white"/>
<path d="M533.031 23.2135H510.135V21.111H520.273C520.014 20.535 519.668 19.9302 519.178 19.2966L521.598 18.375C522.087 19.1238 522.577 20.0454 523.066 21.111H533.06V23.2135H533.031ZM531.159 27.2455H511.978V25.2006H531.159V27.2455ZM531.159 31.3063H511.978V29.2902H531.159V31.3063ZM530.814 41.5878H528.394V40.5799H514.743V41.5302H512.382V33.5238H530.842V41.5878H530.814ZM528.394 38.5638V35.4822H514.743V38.5638H528.394Z" fill="white"/>
<path d="M559.21 28.5708V30.8172H547.604C546.682 31.8828 545.876 32.6891 545.242 33.2363V38.7947C547.086 38.4491 548.785 38.046 550.398 37.4988V39.9468C547.921 40.7244 545.415 41.3004 542.823 41.7036L542.103 39.5724C542.593 39.2268 542.823 38.766 542.823 38.1324V35.1372C541.009 36.3468 539.108 37.3548 537.15 38.1036L535.94 35.7996C539.482 34.6476 542.276 32.9772 544.321 30.846H536.257V28.5996H546.596V26.7275H538.042V24.5963H546.596V22.7244H536.89V20.5068H546.596V18.6924H549.044V20.5068H558.606V22.7244H549.044V24.5963H557.482V26.7275H549.044V28.5996H559.182L559.21 28.5708ZM559.556 39.63L558.231 41.8763C555.495 40.9259 553.335 39.6876 551.809 38.1324C550.254 36.606 549.044 34.5323 548.18 31.9691L550.57 31.6236C551.118 33.006 551.694 34.1292 552.298 34.9644C553.825 34.0716 555.121 32.9771 556.244 31.6811L558.346 33.0347C557.05 34.4459 555.582 35.7131 553.911 36.8363C555.294 38.0459 557.194 38.9964 559.556 39.6588V39.63Z" fill="white"/>
<path d="M585.563 38.1598H575.281V41.5583H572.948V38.1598H562.695V36.1727H572.948V34.7327H565.086V26.0062H583.201V34.7327H575.281V36.1727H585.563V38.1598ZM573.092 24.6527H564.193V19.123H573.092V24.6527ZM570.759 22.6942V21.0814H566.439V22.6942H570.759ZM572.948 29.4911V27.9358H567.419V29.4911H572.948ZM572.948 32.803V31.2766H567.419V32.803H572.948ZM583.95 24.6527H575.137V19.123H583.95V24.6527ZM580.897 29.4911V27.9358H575.281V29.4911H580.897ZM580.897 32.803V31.2766H575.281V32.803H580.897ZM581.675 22.6942V21.0814H577.47V22.6942H581.675Z" fill="white"/>
</svg>
