<?xml version="1.0" encoding="UTF-8"?>
<svg id="_圖層_1" data-name="圖層_1" xmlns="http://www.w3.org/2000/svg" xmlns:xlink="http://www.w3.org/1999/xlink" version="1.1" viewBox="0 0 995 109">
  <!-- Generator: Adobe Illustrator 29.4.0, SVG Export Plug-In . SVG Version: 2.1.0 Build 152)  -->
  <defs>
    <style>
      .st0 {
        fill: url(#_未命名漸層);
      }

      .st1 {
        fill: url(#_未命名漸層_7);
      }

      .st2 {
        fill: url(#_未命名漸層_5);
      }

      .st3 {
        fill: url(#_未命名漸層_6);
      }

      .st4 {
        fill: url(#_未命名漸層_2);
      }

      .st5 {
        fill: url(#_未命名漸層_3);
      }

      .st6 {
        fill: url(#_未命名漸層_4);
      }
    </style>
    <linearGradient id="_未命名漸層" data-name="未命名漸層" x1="148.9" y1="108.2" x2="148.9" y2="3.6" gradientTransform="translate(0 110) scale(1 -1)" gradientUnits="userSpaceOnUse">
      <stop offset=".2" stop-color="#fff"/>
      <stop offset="1" stop-color="#fff" stop-opacity=".2"/>
    </linearGradient>
    <linearGradient id="_未命名漸層_2" data-name="未命名漸層 2" x1="269.7" y1="110" x2="269.7" y2="1.8" gradientTransform="translate(0 110) scale(1 -1)" gradientUnits="userSpaceOnUse">
      <stop offset=".2" stop-color="#fff"/>
      <stop offset="1" stop-color="#fff" stop-opacity=".2"/>
    </linearGradient>
    <linearGradient id="_未命名漸層_3" data-name="未命名漸層 3" x1="349.9" y1="55.9" x2="361.4" y2="55.9" gradientTransform="translate(0 110) scale(1 -1)" gradientUnits="userSpaceOnUse">
      <stop offset=".2" stop-color="#fff"/>
      <stop offset="1" stop-color="#fff" stop-opacity=".2"/>
    </linearGradient>
    <linearGradient id="_未命名漸層_4" data-name="未命名漸層 4" x1="416.8" y1="55.9" x2="500.5" y2="55.9" gradientTransform="translate(0 110) scale(1 -1)" gradientUnits="userSpaceOnUse">
      <stop offset=".2" stop-color="#fff"/>
      <stop offset="1" stop-color="#fff" stop-opacity=".2"/>
    </linearGradient>
    <linearGradient id="_未命名漸層_5" data-name="未命名漸層 5" x1="587.9" y1="110" x2="587.9" y2="1.9" gradientTransform="translate(0 110) scale(1 -1)" gradientUnits="userSpaceOnUse">
      <stop offset=".2" stop-color="#fff"/>
      <stop offset="1" stop-color="#fff" stop-opacity=".2"/>
    </linearGradient>
    <linearGradient id="_未命名漸層_6" data-name="未命名漸層 6" x1="675.9" y1="55.9" x2="753.7" y2="55.9" gradientTransform="translate(0 110) scale(1 -1)" gradientUnits="userSpaceOnUse">
      <stop offset=".2" stop-color="#fff"/>
      <stop offset="1" stop-color="#fff" stop-opacity=".2"/>
    </linearGradient>
    <linearGradient id="_未命名漸層_7" data-name="未命名漸層 7" x1="846.4" y1="110" x2="846.4" y2="1.9" gradientTransform="translate(0 110) scale(1 -1)" gradientUnits="userSpaceOnUse">
      <stop offset=".2" stop-color="#fff"/>
      <stop offset="1" stop-color="#fff" stop-opacity=".2"/>
    </linearGradient>
  </defs>
  <path class="st0" d="M187.8,106.4h-11.5v-48h-54.8v48h-11.5V1.8h11.5v46.2h54.8V1.8h11.5v104.6h0Z"/>
  <path class="st4" d="M238.3,88.3c2.9,2.6,7.1,4.9,12.7,6.7,5.5,1.8,10.6,2.7,15.3,2.7,15.2,0,22.8-5.5,22.8-16.6s-.8-5.9-2.4-8.3c-1.6-2.4-3.7-4.5-6.4-6.3-2.7-1.8-7.9-4.7-15.8-8.8-11.3-5.8-18.5-10.9-21.5-15.2s-4.5-9.2-4.5-14.7c0-8.4,3.4-15.1,10.3-20.2,6.9-5,15.4-7.6,25.8-7.6s17.9,1.2,22.2,3.7v13.3c-6.1-4.2-14-6.3-23.7-6.3s-12,1.4-16.2,4.2c-4.2,2.8-6.3,6.8-6.3,11.9s.7,5.9,2.2,8.2c1.5,2.3,3.5,4.3,6,6,2.5,1.7,7.4,4.4,14.7,8,10.3,5.1,17.5,10.1,21.5,14.9,4.1,4.8,6.1,10.3,6.1,16.2,0,8.9-3.3,15.8-9.7,20.7-6.5,4.9-15.6,7.3-27.2,7.3s-8.2-.6-13.9-1.8c-5.7-1.2-9.7-2.6-12-4.3v-13.9h0Z"/>
  <path class="st5" d="M361.4,106.4h-11.5V1.8h11.5v104.6Z"/>
  <path class="st6" d="M500.5,106.4h-14.5l-54.6-84.5c-1.2-2-2.3-4.1-3.3-6.3h-.4c.4,2.2.5,6.9.5,14.1v76.7h-11.5V1.8h15.3l53.1,83.6c2.7,4.3,4.1,6.7,4.3,7.2h.3c-.5-3.5-.7-8.7-.7-15.7V1.8h11.5v104.6h0Z"/>
  <path class="st2" d="M626.8,101.9c-7.7,4.1-17.3,6.2-28.8,6.2s-26.5-4.8-35.5-14.5c-9-9.7-13.5-22.2-13.5-37.6s4.9-29.5,14.8-40.1c9.9-10.6,22.7-15.9,38.4-15.9s18.1,1.4,24.6,4.3v12.4c-7.5-4.1-15.8-6.2-24.9-6.2s-22.3,4.2-29.8,12.6c-7.4,8.4-11.1,19.1-11.1,32.3s3.5,22.6,10.4,30.5,16.2,11.8,27.9,11.8,19.7-2.3,27.4-7v11.2h0Z"/>
  <path class="st3" d="M753.7,106.4h-11.5v-48h-54.8v48h-11.5V1.8h11.5v46.2h54.8V1.8h11.5v104.6Z"/>
  <path class="st1" d="M885,64.3c0,29.2-13.2,43.8-39.5,43.8s-37.7-14.1-37.7-42.2V1.8h11.5v63.4c0,21.7,9.2,32.6,27.6,32.6s26.6-10.5,26.6-31.5V1.8h11.5v62.5h0Z"/>
</svg>