<?xml version="1.0" encoding="UTF-8"?>
<svg id="_圖層_1" data-name="圖層_1" xmlns="http://www.w3.org/2000/svg" version="1.1" viewBox="0 0 995 58">
  <!-- Generator: Adobe Illustrator 29.4.0, SVG Export Plug-In . SVG Version: 2.1.0 Build 152)  -->
  <defs>
    <style>
      .st0 {
        fill: #fff;
      }
    </style>
  </defs>
  <path class="st0" d="M148.6,17.6l3.4-1.1-1.3,2.6h-43.1l-.5-1.6h41.6ZM118.8,5.8v48.9l-5,2.1V3.7l5,2.1h0ZM147.4,53.2l2.3-1.1-1.3,2.6h-33l-.5-1.6h32.5c0,0,0,0,0,0ZM130.9,3.2v42.3l-4.6,2.1V1.1l4.6,2.1h0ZM129.3,43.3v-1.6h10.9v1.6h-10.9ZM143.2,47.5l-4.6-2.1V3l4.6-2.1v46.6h0Z"/>
  <path class="st0" d="M188.9,31.4c-2.9,2.1-6.1,3.9-9.4,5.5-3.3,1.6-6.4,2.7-9.2,3.5,3.8-1.8,7.7-4.4,11.6-7.7,3.9-3.3,7.2-6.9,9.8-10.9l3.9,3.3c-1.6,2.1-3.9,4.1-6.8,6.2h0ZM187.8,48.4c-1.3,2.4-3,4.2-5,5.5-2,1.3-4.6,2.6-7.9,3.9,0,0,.6-.5,1.7-1.5,2-1.8,3.5-3.4,4.6-4.6s2-2.9,2.7-4.9c.7-2,1-4.5,1-7.4v-3.4l4.8-2.1v5.1c0,3.9-.7,7-2,9.3ZM178.5,3.7l4.4,2.1v18.9l-4.4,2.1V3.7ZM180.1,21.8h26.5v1.6c.1,0-26.4,0-26.4,0v-1.6ZM180.3,13h26.5v1.6c0,0-26.4,0-26.4,0v-1.6ZM194,4.1c4.6,0,9.2.6,13.6,1.7v1.6c-4.4-1.2-8.9-1.7-13.4-1.7s-9.3.6-13.7,1.8v-1.6c4.5-1.2,9-1.7,13.6-1.7ZM191.3,4.8h4.3v17.8h-4.3V4.8ZM203.7,34.8c-2.9-1.7-5.2-3.3-6.9-5-1.7-1.6-3.5-3.5-5.3-5.7,3.7,2.5,7.4,4.6,10.9,6.1,3.5,1.6,8,2.8,13.3,3.7l-1.8,5.2c-4-1.2-7.4-2.7-10.3-4.3h0ZM202.9,36.3v19l-4.6,2.1v-23.1l4.6,2.1ZM204.6,5.8l4.3-2.1v23l-4.3-2.1V5.8Z"/>
  <path class="st0" d="M240.1,35.5c-1.4,4.5-3.2,8.2-5.3,10.9,1.1-3.6,2.1-7.9,2.9-13,.8-5.1,1.2-9.9,1.2-14.4l4.4,1.8c-.7,5.2-1.8,10.1-3.3,14.6h0ZM253.5,15.1l2.2-1.1-1.2,2.6h-18.5l-.5-1.6h18ZM242,8.3c-2.5,0-4.6-.2-6.2-.5,2.6-.5,5.3-1.3,7.9-2.2,2.6-1,5.3-2.4,8.2-4.3l1.2,5.5c-3.1,1-6.8,1.6-11,1.6ZM247.5,6.7v47.9l-4.1,2.1V6.7h4.1ZM247.9,18.9c1.5,1.7,2.9,3.9,4.3,6.9,1.4,2.9,2.4,5.8,3.3,8.6l-4.5,2.1c-.5-8.5-1.5-14.4-3-17.5h0ZM278.6,34.6l2.2-1.4-.9,2.8-25,4-.7-1.5,24.5-4h0ZM258.2,25.4c-.6-2.2-1.5-4.1-2.6-5.6,4.4,3.1,7.4,6.7,9,10.5l-5,2.6c-.3-2.8-.9-5.3-1.5-7.5ZM259.4,10.5c-.8-1.9-1.8-3.5-3.1-4.8,2.2,1.2,4.2,2.5,5.8,3.9,1.6,1.4,3.1,3,4.2,4.9l-4.6,3.2c-.8-2.9-1.6-5.3-2.4-7.1h0ZM272.7,3.4v52.1l-4.4,2.1V1.3l4.4,2.1Z"/>
  <path class="st0" d="M318.3,20.4l-15.8,18.8-2.9-4.6,18.7-14.2h0ZM311,43.9c-.6,3.5-1.7,6.2-3.5,8.3s-4.3,3.7-7.9,4.9c2.6-1.5,4.4-3.5,5.6-5.8,1.2-2.4,1.8-5.1,2.1-8.2.2-3.1.3-7.6.3-13.7V3.2l4.2-2.1v28c0,6.4-.3,11.4-.9,14.8h0ZM316.5,14.1l2.3-1.1-1.2,2.6h-16.8l-.5-1.6h16.3c0,0,0,0,0,0ZM331.6,43.7c-5.2,6-11.6,10.6-19,13.8,6.7-4.5,12-9.6,16.1-15.3,4.1-5.6,6.9-12.1,8.5-19.4l5.7-2.1c-2.3,9.3-6.1,16.9-11.3,22.9ZM343.4,11l2.3-1.1-1.2,2.6h-25.3l-.5-1.6h24.7ZM319.4,23.8l-.5-1.6h21.5v1.6h-20.9,0ZM328.6,42c-3.6-6.2-6-12.7-7-19.6,2.4,7,5.6,13,9.4,17.8,3.8,4.9,8.8,9,15,12.5l-3.7,4.4c-5.5-3.9-10.1-9-13.7-15.2h0ZM333,3v20.4h-4.6V.9l4.6,2.1h0Z"/>
  <path class="st0" d="M407,53.5l2.3-1.1-1.3,2.7h-43.2l-.5-1.6h42.8,0ZM372.9,35.3c-2,2.9-4.5,5.6-7.4,8.4,1.8-3.1,3.3-6.2,4.4-9.4,1.1-3.2,1.8-6.2,2.3-9l5.4,2c-1,2.4-2.6,5.1-4.6,8ZM375.6,4.3v18.2l-5.1,2.1V2.2l5.1,2.1ZM385.8,2.2c4.7,0,9.2.7,13.7,2.2v1.6c-4.5-1.5-9-2.2-13.6-2.2s-9.2.7-13.6,2.2v-1.6c4.6-1.4,9.1-2.1,13.6-2.1ZM402.9,32.9l2.3-1.1-1.3,2.7h-31.2l-.5-1.6h30.7ZM400.6,19.6v1.6h-27.6l-.5-1.6h28.1ZM401.4,42.4l2.3-1.1-1.3,2.6h-28.9l-.5-1.6h28.4ZM390.8,11.3l2.3-1.1-1.3,2.6h-17.7v-1.6h16.6c0,0,0,0,0,0ZM389.5,26.8v27.5h-4.8v-29.5l4.8,2.1ZM401.6,2.2v22.3l-5.1-2.1V4.3l5.1-2.1Z"/>
  <path class="st0" d="M433.7,14.4c-2.2,4.1-4.5,7.1-7,9.1,1.6-2.6,3-6.1,4.3-10.3,1.2-4.2,2.2-8.4,2.8-12.6l5.6,1.1c-1.6,4.3-3.5,8.6-5.6,12.7ZM442.3,27.4l2.2-1.1-1.2,2.6h-15.3l-.5-1.6h14.8c0,0,0,0,0,0ZM444.8,44.9l-15.6,9.3-1.4-5.5,17-3.8ZM429.7,41.8c0-4-.6-7.3-1.8-10,1.4,1,2.6,2.6,3.7,4.8,1.2,2.1,1.9,4.4,2.2,6.8l-4.3,1.2c0-1.3.1-2.2.1-2.7h0ZM442.2,16.2l2.2-1.1-1.2,2.7h-12.1l-.5-1.7h11.5ZM437.8,17.4v30.9h-3.5v-30.9h3.5ZM439.5,9c-.8-1.9-1.7-3.4-2.9-4.7,1.7.6,3.4,1.6,5.2,3,1.7,1.4,3.1,2.8,4.1,4.1l-4.6,3.3c-.4-2-1-3.9-1.8-5.8h0ZM442.1,39.3c-1.4,2-2.8,3.5-4.3,4.3,1.9-3.3,2.9-7.5,3-12.5l4.1,1.7c-.5,2.3-1.5,4.5-2.9,6.5h0ZM445.1,48.8c1.4-1.1,3.1-1.9,4.9-2.2-1.2,1.3-2.1,2.5-2.7,3.6-.6,1.1-1.4,2.8-2.2,5.2-.2.7-.4,1.2-.6,1.6l-3.5-3.3c1.4-2.1,2.8-3.7,4.2-4.8h0ZM444,22.1l-.5-1.6h6v1.6h-5.5ZM444.8,3.2c1.5,1.2,2.9,2.6,4.3,4.3,1.4,1.7,2.5,3.6,3.5,5.5l-4.3,2.2c-.8-5.3-1.9-9.3-3.5-12ZM451.2,47.7h-3.7v-27.2l3.7-2.1v29.3ZM470.2,56c-3.8,0-7.6-.8-11.5-2.4-3.9-1.6-7.2-4.2-9.9-7.8,5.4,3.8,11.5,5.6,18.2,5.6s4.7-.2,7-.7l-2.1,5.2c-.3,0-.9,0-1.7,0h0ZM470.9,36.7l2.2-1.1-1.2,2.6h-18.8l-.5-1.6h18.3ZM470.4,6.4l2.2-1.1-1.2,2.6h-17.8l-.5-1.6h17.3ZM457.9,14.5v17.4l-3,2.1V12.4l3,2.1h0ZM455.3,22.4v-1.6h14v1.6h-14ZM462.6,14.1c-1.9,0-4.3.6-7.1,1.7v-1.6c2.6-1.1,5-1.7,7-1.7s2.2.1,3.3.4c1.1.3,2.4.7,3.9,1.3v1.6c-2.8-1.2-5.1-1.7-7.1-1.7h0ZM457.5,30.6v-1.6h10.2v1.6h-10.2ZM460.8.8l3.5,2.1v10.2h-3.5V.8ZM464.4,46.7l-3.5,2.1v-19.3h3.5v17.3ZM461.1,13.1h2.8v16.4h-2.8V13.1ZM470.2,34l-3-2.1V14.5l3-2.1v21.6h0Z"/>
  <path class="st0" d="M555.1,18.4l-34.2,8v-5.7c-.1,0,34.2-2.3,34.2-2.3ZM533.6,13.7c-3.3,3.7-6.7,6.4-10,8.3,2.3-2.4,4.7-5.6,7.1-9.8,2.4-4.2,4.3-8.2,5.8-12.2l5.4,2.8c-2.1,3.7-4.9,7.3-8.2,10.9ZM530.2,33.8v21.3l-5,2.1v-25.5l5,2.1h0ZM526.5,53.7v-1.6c0,0,27.3,0,27.3,0v1.6h-27.3ZM540.3,32.8c-4.5,0-9.1.7-13.8,2.1v-1.6c4.5-1.4,9.1-2,13.6-2s9.1.7,13.7,2.1v1.6c-4.5-1.4-9-2.1-13.6-2.1ZM552,18c-2.1-3.7-4.1-6.6-6.2-8.8,2.9,1.9,5.8,4.3,8.7,7.1,2.9,2.8,5,5.4,6.4,7.7l-4.4,3.6c-.9-2.7-2.5-5.9-4.5-9.6h0ZM555.3,57.2l-4.9-2.1v-21.3l4.9-2.1v25.5h0Z"/>
  <path class="st0" d="M587.5,25.9c-1.1-2.7-2.1-4.8-2.9-6.3-.8-1.5-1.9-2.8-3.2-3.9,2.3.9,4.3,1.9,6,3.1s3.3,2.6,4.7,4.4l-4.2,3.9-.5-1.1h0ZM588.4,40.3c2.2-5.4,3.7-10.7,4.6-15.8,0,5.7-.5,11.4-1.7,17-1.2,5.6-2.5,10.2-3.9,13.7l-5.4-2.2c2.1-3.1,4.2-7.3,6.4-12.8h0ZM587,6.6c-.9-1.7-2.1-3.1-3.5-4.3,2.3.9,4.3,1.9,6.1,3.1,1.8,1.2,3.3,2.6,4.8,4.4l-4.2,3.8c-1.2-3-2.2-5.3-3.1-7h0ZM596,26.3c.7-1,1.3-2.2,1.7-3.6,0,.5.1,1.2.1,2.3s0,2.2-.3,3.3c-.2,1.1-.5,2-.8,2.8l-3.6-1.7c1.2-1,2.1-2,2.9-3h0ZM604.2,9.4l-9.2,4.5-.3-4.3,9.6-.2ZM605.1,17.6l-9.9,4.6-.3-4.3,10.2-.2ZM599.8,7.7c-1.6,2-3.1,3.5-4.5,4.3,1-1.6,2-3.3,2.9-5.4.9-2,1.5-4.1,1.8-6.1l3.5,1.6c-.9,1.7-2.1,3.6-3.7,5.6ZM601.1,14.8c-2.1,2.5-4.1,4.5-5.8,5.9,1.7-2.5,3.2-4.9,4.4-7.1,1.2-2.2,2.2-4.7,2.8-7.5l3.5,1.7c-1.1,2.2-2.7,4.5-4.8,7h0ZM599,33.7l-.5-1.6h22.8v1.6h-22.3ZM604.1,37.4l-1.1,7.7-4.3,1.6,1.6-12,3.9,2.7ZM599.7,27.4c0-1.8-.2-3.4-.7-4.9.9,1,1.8,2.2,2.6,3.7.8,1.4,1.3,2.7,1.6,3.8l-3.7,1c.2-1.2.3-2.4.3-3.6ZM600.5,45.1v-1.6c0,0,22.1,0,22.1,0v1.6h-22.1ZM600.5,38.3v-1.6c0,0,20.7,0,20.7,0v1.6h-20.7ZM603.1,24.7c-.4-1.1-1-2.2-1.9-3.3,1.2.6,2.4,1.4,3.5,2.4s2,1.9,2.6,2.9l-3.2,2.2c-.2-1.7-.5-3.1-.9-4.2h0ZM603.5,19c0-1,0-1.9-.2-2.8s-.5-1.8-1-2.8c2.1,1.8,3.7,4,4.6,6.5l-3.5,1.6v-2.6ZM615.9,5.5l2.3-1.1-1.3,2.6h-11.1l-.5-1.6h10.6ZM609,3.1c-.6-.9-1.4-1.7-2.5-2.6,3.2.6,5.5,1.6,6.9,2.9l-2.7,3.1c-.5-1.5-1.1-2.6-1.7-3.5h0ZM614.6,14.3l2.3-1.1-1.2,2.6h-8.1l-.5-1.6h7.6c0,0,0,0,0,0ZM614.3,9.6l2.2-1.1-1.2,2.6h-7.7l-.5-1.6h7.2ZM610,19.4v9l-2.9,2.1v-13.2l2.9,2.1ZM611.5,18.1c1.2,0,2.5.4,3.7,1.2v1.6c-1.2-.8-2.4-1.2-3.6-1.2s-2.4.4-3.6,1.2v-1.6c1.2-.7,2.3-1.1,3.5-1.1ZM608.7,25.9h6.2v1.6h-6.2v-1.6ZM615.9,30.2l-2.9-2.1v-8.9l2.9-2.1v13ZM622.2,54.3c-1.6,1.7-4.3,2.6-8.2,2.8,2.6-.7,4.3-1.9,5.1-3.5.7-1.6,1.1-3.4,1.1-5.4v-4.6l4.4-2.1v6.5c0,2.5-.8,4.6-2.4,6.3ZM618.4,25.2c.7-1,1.3-2.2,1.7-3.6,0,.9.1,1.6.1,2.1,0,1.2,0,2.3-.3,3.5-.2,1.2-.5,2.1-.8,2.9l-3.6-1.8c1.2-1,2.1-2,2.9-3ZM626.6,8.4l-9.3,4.5-.3-4.3,9.6-.2h0ZM621.7,7.1c-1.5,1.8-3,3-4.4,3.9,2.2-3.3,3.7-6.8,4.3-10.5l3.5,1.7c-.8,1.6-1.9,3.2-3.4,4.9ZM627.5,16.6l-9.9,4.6-.3-4.3,10.2-.2ZM623.3,14.2c-2,2.3-3.9,4.2-5.7,5.6,1.6-2.3,3-4.5,4.1-6.6,1.2-2.1,2.1-4.6,2.7-7.3l3.5,1.6c-1.1,2.2-2.6,4.4-4.6,6.7ZM622.5,40.2l-4.2-2.1v-5.5l4.2-2.1v9.6h0ZM622.1,26.3c0-1.8-.3-3.3-.8-4.8,1,1,1.8,2.2,2.6,3.7.8,1.4,1.3,2.7,1.5,3.8l-3.7,1c.3-1.4.4-2.6.4-3.7ZM625.5,23.9c-.4-1.2-1.1-2.4-2-3.5,1.2.6,2.3,1.4,3.5,2.5,1.1,1.1,2,2.1,2.7,3.2l-3.1,2.1c-.2-1.7-.6-3.1-1-4.3h0ZM625.9,18c0-1,0-1.9-.2-2.8-.1-.9-.5-1.8-.9-2.7,2.1,1.8,3.7,4,4.6,6.5l-3.6,1.6c0-.6,0-1.5,0-2.6Z"/>
  <path class="st0" d="M656.2,11.1v43.9l-4.6,2.1V9l4.6,2.1h0ZM669.7,9.2c5.7,0,11.5.6,17.7,1.9v1.6c-6-1.3-11.9-1.9-17.5-1.9s-11.4.6-17.3,1.9v-1.6c5.7-1.2,11.4-1.8,17.1-1.8ZM664.6.1l4.9,2.9c-.8,1.3-2,2.6-3.5,4-1.5,1.4-3.1,2.4-4.5,3.2,1.5-3,2.5-6.4,3.1-10.1h0ZM665.9,17.5v24.7l-4.1,2.1V15.4l4.1,2.1ZM669.7,17.9c-2.4,0-4.8.5-7.3,1.4v-1.6c2.2-.9,4.6-1.3,7.1-1.3s4.9.5,7.3,1.4v1.6c-2.4-.9-4.8-1.4-7.2-1.4ZM663.2,40.4v-1.6c0,0,12.7,0,12.7,0v1.6h-12.7ZM678.2,44.3l-4.1-2.1v-24.7l4.1-2.1v28.8ZM687.9,48c-.6,2.3-1.6,4.1-3,5.5-1.4,1.4-3.4,2.7-6.1,4.1,1.7-1.9,2.9-3.5,3.6-4.7.7-1.2,1.2-2.8,1.5-4.9.3-2.1.5-5.3.5-9.5V11.1l4.5-2.1v29.4c0,4.1-.3,7.3-1,9.5h0Z"/>
  <path class="st0" d="M754.7,53.3l2.3-1.1-1.3,2.6h-43.2l-.5-1.6h42.8ZM736.9,3.4v50.2h-5.1V1.3l5.1,2.1ZM751.1,20.9l2.3-1.1-1.3,2.6h-17.3l-.5-1.6h16.8Z"/>
  <path class="st0" d="M784,4.5v48.4l-4,2.1V2.4l4,2.1ZM794.2,12.7v1.6h-11.4l-.5-1.6h11.9ZM788.4,2.8c1.9,0,3.9.5,5.9,1.4v1.6c-1.9-.9-3.8-1.4-5.7-1.4s-3.8.5-5.7,1.4l-.5-1.6c2-.9,4-1.4,5.9-1.4h0ZM794.7,8v1.6h-11.4l-.5-1.6h11.9ZM797,24.9l-10.5,4.9-1.1-4.1,11.5-.8h0ZM797,32.5l-9.8,4.5-1.1-4.1,10.8-.4h0ZM791.3,23.6c-1.2,1.2-2.7,2.4-4.8,3.7,1.1-1.6,2-3.2,2.8-4.8.7-1.6,1.4-3.3,2-5.3l3.7,1.8c-1.3,1.9-2.5,3.4-3.7,4.5ZM790.7,40v6.8l-3.5,2.1v-11l3.5,2.1h0ZM793.9,29.1c-1.6,1.5-3.5,3-5.8,4.4,1.8-2.5,3.2-4.8,4.3-6.6,1.2-1.9,2.1-3.7,2.7-5.4l3.6,2.1c-1.8,2.1-3.4,4-4.9,5.5h0ZM797.7,38.6v2.3c0,3-.5,5.8-1.7,8.3-1.2,2.5-3.4,4.4-6.8,5.7,1.9-1.6,3.1-3.4,3.8-5.5.7-2.1,1-4.3,1-6.7s0-2.1-.1-3.4l3.7-2.1c0,.5,0,1,0,1.4h0ZM794.7,44.3v1.6h-5l-.5-1.6h5.5ZM796.7,17.3l-4.2-2.1V4.4l4.2-2.1v15ZM795.5,32.8c-.2-1.1-.5-2.3-1.1-3.6,2.2,1.8,3.7,3.8,4.5,6.1l-3.1,1.8c0-1.8,0-3.2-.3-4.3h0ZM810.2,24.7l-10.9,5.1-1.1-4.1,12-1h0ZM803.7,24c-1,1.2-2.5,2.5-4.5,3.9,1-1.7,1.8-3.3,2.4-4.8.6-1.5,1.1-3.3,1.6-5.3l3.8,1.6c-1.2,1.9-2.2,3.4-3.3,4.6ZM810.3,32.4l-9.6,4.5-1.1-4.2,10.7-.3h0ZM803.8,39.5v12.9l-3.5,2.1v-17.1l3.5,2.1h0ZM806.8,29.6c-1.4,1.6-3.2,3.1-5.4,4.6,1.7-2.9,3.1-5.2,4-7,1-1.8,1.8-3.5,2.3-5.2l3.7,2c-1.7,2.2-3.3,4.1-4.7,5.6h0ZM805.6,4.4v10.8l-4.1,2.1V2.3l4.1,2.1ZM808.3,44.3v1.6h-5l-.5-1.6h5.5ZM815.2,9.6h-11.8v-1.6h12.2c0,0-.5,1.6-.5,1.6h0ZM809.6,4.4c-1.9,0-3.9.5-5.9,1.4v-1.6c2.1-.9,4.2-1.4,6.1-1.4s4,.5,6.1,1.4l-.5,1.6c-1.9-.9-3.9-1.4-5.8-1.4h0ZM815.7,14.3h-11.8v-1.6h12.2l-.5,1.6h0ZM810.4,49l-3.5-2.1v-6.9l3.5-2.1v11.1ZM809.1,32.5c-.2-1.1-.6-2.3-1.2-3.6,2.4,1.8,4.1,3.8,4.9,6l-3.3,1.8c0-1.7-.2-3.1-.4-4.2ZM817.8,43.2c-.4,3.1-1.4,5.8-2.9,8.3-1.5,2.4-3.8,4.3-6.9,5.4,2-1.6,3.4-3.5,4.3-5.9.9-2.4,1.5-4.9,1.7-7.7.2-2.7.3-6.4.3-10.9V4.3l4-2.1v29.7c0,4.5-.2,8.2-.6,11.3h0Z"/>
  <path class="st0" d="M846.6,14.3c-2.5,4.3-5.1,7.4-7.7,9.4,1.7-2.6,3.2-6.1,4.5-10.4,1.3-4.3,2.3-8.5,2.9-12.7l6.4,1.1c-1.6,4.1-3.6,8.3-6.1,12.6ZM854.2,27.4l2.3-1.1-1.3,2.6h-15.3l-.5-1.6h14.8c0,0,0,0,0,0ZM857.9,45.2l-16.4,9.9-1.6-6.1,18-3.8ZM842.1,41.9c0-4-.7-7.4-2-10.1,1.4,1,2.7,2.6,3.9,4.8,1.2,2.1,2,4.4,2.4,6.8l-4.5,1.2c0-1.2.1-2.1.1-2.6h0ZM854.2,16.2l2.3-1.1-1.3,2.7h-11.5l-.5-1.7h11.1c0,0,0,0,0,0ZM850.6,17.4v31.2h-3.7v-31.2h3.7ZM850.8,8.8c-.8-1.8-1.8-3.2-3-4.4,1.8.5,3.6,1.5,5.4,2.8,1.8,1.3,3.3,2.7,4.5,4.1l-4.8,3.4c-.6-2.2-1.3-4.1-2-5.9h0ZM854.4,39.3c-1.4,2-2.9,3.5-4.5,4.3,2-3.3,3.1-7.5,3.2-12.5l4.3,1.7c-.5,2.3-1.6,4.5-3,6.5h0ZM863.3,43.5c-2.2,6.2-5.8,10.7-10.9,13.8,3.8-3.7,6.5-8.3,8-14,1.5-5.7,2.3-12.1,2.6-19.2l4.5-2.4c-.6,8.4-2,15.8-4.2,21.9ZM864.2,6.9v1.6h-7.7l-.5-1.6h8.2ZM867.2,6.1l-6.4,18.6-4.4.9,6.4-18.7,4.4-.8ZM871.9,54.5c-3.3-.9-6.3-3.1-9.1-6.6-2.8-3.5-4.8-8.7-6-15.8,2.1,5.1,4.4,9,6.8,11.9s5,4.8,7.9,5.8c2.8,1.1,6,1.6,9.7,1.6s2.7,0,4.9-.2l-1.7,5c-5-.2-9.1-.8-12.4-1.8h0ZM865.4,23.2v1.6h-6.2l-.5-1.6h6.7c0,0,0,0,0,0ZM885,14.9l2.3-1.1-1.2,2.7h-18.9l-.5-1.6h18.4ZM883.6,37.7l2.3-1.1-1.2,2.6h-17.5l-.5-1.6h16.9ZM881.9,30.3l2.3-1.1-1.3,2.6h-14.7l-.5-1.6h14.2ZM880.6,7.3v1.6h-12.1l-.5-1.6h12.6ZM880.5,23.5v1.6h-11.6l-.5-1.6h12.2ZM875.4,2.7v43.1l-3.9,2.1V.6l3.9,2.1h0ZM883,27.3l-3.9-2.1V7.6l3.9-2.1v21.8h0Z"/>
</svg>