<?xml version="1.0" encoding="UTF-8"?>
<svg id="_圖層_1" data-name="圖層_1" xmlns="http://www.w3.org/2000/svg" xmlns:xlink="http://www.w3.org/1999/xlink" version="1.1" viewBox="0 0 800 724">
  <!-- Generator: Adobe Illustrator 29.4.0, SVG Export Plug-In . SVG Version: 2.1.0 Build 152)  -->
  <defs>
    <style>
      .st0 {
        fill: none;
      }

      .st1 {
        mask: url(#mask);
      }

      .st2 {
        fill: url(#_未命名漸層);
      }

      .st3 {
        fill: #fff;
      }
    </style>
    <linearGradient id="_未命名漸層" data-name="未命名漸層" x1="399.5" y1="726" x2="399.5" y2="2.6" gradientTransform="translate(0 726) scale(1 -1)" gradientUnits="userSpaceOnUse">
      <stop offset="0" stop-color="#fff"/>
      <stop offset=".5" stop-color="#fff" stop-opacity="0"/>
    </linearGradient>
    <mask id="mask" x="104.5" y="45.9" width="548.2" height="522.2" maskUnits="userSpaceOnUse">
      <g id="mask0_2008_30">
        <path class="st3" d="M652.6,100.8H124.2v107.6h528.4v-107.6Z"/>
      </g>
    </mask>
  </defs>
  <path class="st3" d="M171,97.9h-40v-4.1h18.6v-10.1h-14v-4.1h14v-8.8h-10.3c-1.7,2.9-3.6,5.5-5.6,7.5l-3.1-3c4.2-4.3,7-9.6,8.4-15.8l4.1,1c-.5,2-1.2,4-1.9,6.2h8.4v-8.1h4.2v8.1h16.5v4.1h-16.5v8.8h14.7v4.1h-14.7v10.1h17.1v4.1h0Z"/>
  <path class="st3" d="M200.3,61.9h-9c-.1.5-.4,1.1-.7,1.6h8.6v2.3h-4.3c0,.4,0,1-.1,1.9h5v2.3h-4.6c2.4,1.2,3.9,2,4.6,2.3l-1.7,2.4h1.7v2.8h-15c-2.5,0-3.8-1.4-3.8-4.1v-11.5h-1.4v-2.4h20.8v2.4h0ZM219.7,81.7h-13.8v2h10.7v15.4h-4.1v-1.1h-25.8v1.1h-3.9v-15.4h10.9c.2-.7.3-1.4.2-2h-14.3v-2.6h40.1v2.6h0ZM191.5,65.7h-2.3c-.7.8-1.2,1.3-1.5,1.5l-2.4-1.8c1.4-1.4,2.3-2.6,2.8-3.5h-3.1v11.8c0,.7.4,1.1,1.2,1.1h1.1l-1.6-2.6c1.7-.3,3.1-1.1,4.4-2.2h-4v-2.3h5.4c.2-.8.3-1.4.2-1.9h0ZM212.4,95.3v-5.3h-7.3c-2,0-3-.9-3-2.6v-1.2h-5.4c-1,1.8-2.4,3.1-4.1,3.9-1.7.8-3,1.2-4,1.2l-1.7-3.1c1.9,0,3.7-.7,5.3-2h-5.6v9.1h25.8,0ZM197.4,74.7c-1.3-.9-2.9-1.8-4.7-2.8-1,1.1-2.5,2-4.5,2.8h9.2,0ZM209.3,93.7h-19.1v-2.3h19.1v2.3ZM202.2,83.7v-2h-4.4c0,.5,0,1.2-.2,2h4.7ZM219.3,65.8h-4.8c-1,0-1.6-.2-2-.5-.4-.3-.6-.9-.6-1.8v-1.6h-5.2c-.3,2.2-1.4,3.9-3.5,5l-2.9-2.2c2.3-1,3.3-2.7,3.1-5.4h12v3.4c0,.3.2.5.5.5h3.3v2.5h0ZM219.5,75.5l-2.2,2.6c-2.6-1.4-4.8-2.5-6.5-3.1-2.5,1.3-5.4,2.2-8.7,2.9l-1.5-3.1c2.4-.3,4.4-.9,6-1.5-2.4-.8-3.9-1.2-4.5-1.4l1.8-1.9h-2.6v-2.6h16v2.6c-.8.9-1.9,1.9-3.2,2.9,1.9.8,3.7,1.7,5.4,2.6h0ZM212.4,87.8v-1.6h-6.6v.7c0,.5.3.8.9.8h5.7ZM212.9,70h-6.5l4.3,1.4c.8-.5,1.6-1,2.2-1.4h0Z"/>
  <path class="st3" d="M243.5,64.1h-6.2c-.4,2.8-1.2,6.1-2.5,9.9h7.8v22.8h-3.9v-2h-3.4v3.1h-4v-16.7c-.5,1-1.1,1.7-1.6,2.3l-2.3-4c2.7-4.1,4.7-9.2,5.8-15.4h-5.1v-4h15.3v4h0ZM238.8,90.9v-12.8h-3.4v12.8h3.4ZM268,78.7h-5.3v20.2h-4.2v-20.2h-5.4c.2,8.6-1.9,15.4-6.5,20.5l-3-3.1c1.8-1.6,3.1-3.7,4-6.1.9-2.5,1.3-6.2,1.2-11.2h-4.8v-4h4.8v-10.7h-3.7v-3.9h22v3.9h-4.6v10.7h5.3v4h0ZM258.6,74.7v-10.7h-5.4v10.7h5.4Z"/>
  <path class="st3" d="M315.3,71.6h-4.1v-5.2h-8.1v6.1c0,.6.3,1,.9,1h9.5v3.9h-10.3c-2.8,0-4.1-1.3-4.1-3.9v-7.1h-5.2c-.9,4.1-2.6,7.1-5.4,9-2.7,1.9-6.1,3.2-10.1,3.8l-2.1-3.8c4-.5,7.1-1.5,9.3-2.8,2.2-1.3,3.6-3.4,4-6.3h-8.1v5.2h-4.2v-9h16.4c-.6-1-1.2-1.8-1.8-2.4l4.1-1.6c.9,1.1,1.8,2.4,2.5,4h16.6v9h0ZM316.4,88.9c0,3.7-.3,6-.8,7.1-.4,1.1-1.1,1.8-1.8,2.1-.8.3-2.6.5-5.4.5s-3.8-.1-4.5-.3c-.6-.2-1.2-.6-1.6-1.3-.4-.7-.6-1.7-.5-3l.5-9.4h-8.1c-1.3,6.8-6.4,11.7-15.2,14.7l-2.7-3.5c7.9-2.8,12.5-6.5,13.5-11.3h-11.4v-3.9h11.9c.2-1.4.3-3.3.3-5.6h4.3c0,1.7-.1,3.5-.3,5.6h11.8l-.5,12.7c0,.5.1.7.4.9.3.2,1,.3,2.3.3s2.3,0,2.5-.3c.2-.2.4-.3.5-.5.1-.2.3-1.1.4-2.7.1-1.7.2-3,.2-4l4,1.8h0Z"/>
  <path class="st3" d="M344.5,71.4c.9,0,1.7.3,2.3.9.6.6.9,1.3.9,2.2s-.3,1.6-.9,2.2c-.6.6-1.4.9-2.3.9s-1.6-.3-2.3-.9c-.6-.6-1-1.4-1-2.2s.3-1.6.9-2.2c.6-.6,1.4-.9,2.3-.9h0ZM344.5,91.1c.9,0,1.7.3,2.3.9s.9,1.4.9,2.2-.3,1.6-.9,2.2c-.6.6-1.4.9-2.3.9s-1.7-.3-2.3-.9c-.6-.6-.9-1.3-.9-2.2s.3-1.6,1-2.2c.6-.6,1.4-.9,2.3-.9h0Z"/>
  <path class="st3" d="M412.9,97.9h-40v-4.1h18.6v-10.1h-14v-4.1h14v-8.8h-10.3c-1.7,2.9-3.6,5.5-5.6,7.5l-3.1-3c4.2-4.3,7-9.6,8.4-15.8l4.1,1c-.5,2-1.2,4-1.9,6.2h8.4v-8.1h4.2v8.1h16.5v4.1h-16.5v8.8h14.7v4.1h-14.7v10.1h17.1v4.1h0Z"/>
  <path class="st3" d="M437.6,82.1c-1.2.5-2.8,1.1-4.7,1.7v15.2h-4v-13.9c-1.6.5-3.9,1.2-6.9,2l-.9-4c2.4-.6,5-1.3,7.8-2.2v-9.1h-3.2c-.3,1.8-.7,3.9-1.4,6.4l-3.5-1c1.2-4.5,2-9.5,2.2-15l3.7.7c-.1,2-.3,3.7-.5,5.2h2.7v-9.1h4v9.1h3.7v3.8c0,0-3.7,0-3.7,0v7.7c2.7-1,4.2-1.5,4.4-1.6l.3,4h0ZM460.8,64.7c0,5.2-.2,10.9-.5,17.1-.3,6.2-.5,10.1-.7,11.8-.2,1.7-.6,2.9-1.2,3.7-.6.7-1.3,1.2-2,1.5-.7.3-2.6.4-5.5.4s-1.9,0-2.6,0l-1.2-3.9c1.7,0,3.2.1,4.4.1,1.9,0,3.1-.1,3.5-.4.4-.3.7-.7.8-1.4.2-.6.4-3.4.6-8.2.2-4.8.4-10.4.5-16.7h-1.2c-.8,6.3-2.2,11.8-4.3,16.2-2.1,4.5-5.2,8.9-9.4,13.2l-3.4-2.6c4-4,7.1-8,9.1-12.1,2-4.1,3.4-9,4-14.7h-2.1c-1.6,8.3-5.1,15.1-10.5,20.4l-3.3-2.5c5.1-4.7,8.4-10.7,9.9-17.9h-1.9c-1.3,3.1-2.8,5.8-4.5,8.1l-3.5-2.1c2.9-3.5,5.2-8.8,7-15.9l4,.7c-.4,1.9-.9,3.6-1.6,5.3h15.7Z"/>
  <path class="st3" d="M490.6,61.9h-9c-.1.5-.4,1.1-.7,1.6h8.6v2.3h-4.3c0,.4,0,1-.1,1.9h5v2.3h-4.6c2.4,1.2,3.9,2,4.5,2.3l-1.7,2.4h1.7v2.8h-15c-2.5,0-3.8-1.4-3.8-4.1v-11.5h-1.4v-2.4h20.8v2.4h0ZM510,81.7h-13.8v2h10.7v15.4h-4.1v-1.1h-25.8v1.1h-3.9v-15.4h10.9c.2-.7.3-1.4.2-2h-14.3v-2.6h40.1v2.6h0ZM481.8,65.7h-2.3c-.7.8-1.2,1.3-1.5,1.5l-2.4-1.8c1.4-1.4,2.3-2.6,2.8-3.5h-3.1v11.8c0,.7.4,1.1,1.2,1.1h1.1l-1.6-2.6c1.7-.3,3.1-1.1,4.4-2.2h-4v-2.3h5.4c.2-.8.3-1.4.2-1.9h0ZM502.7,95.3v-5.3h-7.3c-2,0-3-.9-3-2.6v-1.2h-5.4c-1,1.8-2.4,3.1-4.1,3.9-1.7.8-3,1.2-4,1.2l-1.7-3.1c1.9,0,3.7-.7,5.3-2h-5.6v9.1h25.8,0ZM487.7,74.7c-1.3-.9-2.9-1.8-4.7-2.8-1,1.1-2.5,2-4.5,2.8h9.2,0ZM499.6,93.7h-19.1v-2.3h19.1v2.3ZM492.5,83.7v-2h-4.4c0,.5,0,1.2-.2,2h4.7ZM509.7,65.8h-4.8c-.9,0-1.6-.2-2-.5s-.6-.9-.6-1.8v-1.6h-5.2c-.3,2.2-1.4,3.9-3.5,5l-2.9-2.2c2.3-1,3.3-2.7,3.1-5.4h12v3.4c0,.3.2.5.5.5h3.3v2.5h0ZM509.9,75.5l-2.2,2.6c-2.6-1.4-4.8-2.5-6.5-3.1-2.5,1.3-5.4,2.2-8.7,2.9l-1.5-3.1c2.4-.3,4.4-.9,6-1.5-2.4-.8-3.9-1.2-4.5-1.4l1.8-1.9h-2.6v-2.6h16v2.6c-.8.9-1.9,1.9-3.2,2.9,1.9.8,3.7,1.7,5.4,2.6h0ZM502.7,87.8v-1.6h-6.6v.7c0,.5.3.8.9.8h5.7ZM503.2,70h-6.5l4.3,1.4c.8-.5,1.6-1,2.2-1.4h0Z"/>
  <path class="st3" d="M558.2,92.2h-17.7v2.9c0,1-.2,1.8-.7,2.4-.5.6-1.1,1-1.8,1.2-.7.2-2.1.3-4.1.3s-2,0-3.2,0l-1.3-3.7c1,0,3.1,0,6.1,0s.8-.3.8-.8v-2.3h-18.3v-3.3h18.3v-2c2.3-.5,4.4-1.1,6.4-1.8h-17.1v-2.9h24.5v2.9c-2.5,1.2-5.7,2.4-9.6,3.5v.3h17.7v3.3ZM557.5,85.4h-3.9v-5.2h-30.8v5.2h-4.1v-8.4h2.9l-.8-16.5c3-.1,6-.7,9-1.8l1.9,3.2c-2.2.7-4.4,1.2-6.8,1.4v2.4h6.2v3h-5.8v2.6h5.8v3h-5.6v2.6h25.5v-2.6c0,0-6.1,0-6.1,0v-3h6.4v-2.6c.1,0-6.4,0-6.4,0v-3h6.6v-2.4c.1,0-6.9,0-6.9,0v-3.2h11.1l-.7,16.9h2.8v8.5h0ZM543.5,60c-.7,1-1.7,1.9-3,2.9.7.7,1.4,1.3,2.1,2l-2.4,2.2c-.8-.9-1.5-1.7-2.3-2.3-1.6,1-3.1,1.7-4.7,2.3l-1.9-2.6c1.3-.5,2.7-1.1,3.9-1.8-.4-.4-1.3-1-2.5-1.9l2.2-2.2,3.1,2.2c1-.7,1.8-1.4,2.4-2.2l3.2,1.4h0ZM543.8,74.5l-2.4,2.1c-1.2-1.3-2.2-2.2-3.1-2.9-1.6,1-3.2,1.9-4.7,2.6l-1.9-2.5c1.1-.5,2.4-1.2,4-2.1-.8-.7-1.8-1.4-3-2.1l2.2-2.3c.8.5,2,1.3,3.6,2.4,1.3-1.1,2.1-1.9,2.6-2.4l2.8,1.7c-.9,1-1.8,1.9-2.9,2.7,1,.9,2,1.8,2.9,2.9h0Z"/>
  <path class="st3" d="M605,99h-4v-1.7h-28.7v1.7h-4.1v-39.5h36.8v39.5ZM600.9,93.8v-30.7h-28.7v30.7h28.7ZM597.2,83.1h-11.1c-.7.7-1.4,1.4-2.2,2.1v3.8c1.1-.2,2.4-.7,4-1.2l.3,3.2c-3.3,1.2-6,1.9-8,2.2l-.9-2.8c.5-.4.8-.9.8-1.5v-1c-2.1,1.1-3.9,1.9-5.5,2.4l-1.6-3c3.9-1.4,6.7-2.7,8.4-4.1h-5.5v-7.7h21.3v7.7ZM599.4,73.7h-25.9v-2.9h11v-2.1h-9.6v-2.8h9.6v-1.6h4v1.6h9.6v2.8h-9.6v2.1h10.9v2.9h0ZM593.1,80.3v-2.2h-13.1v2.2h13.1ZM599.8,90.5l-2.4,2.5c-3.2-2.4-6.9-4.6-11.1-6.7l2.3-2.3c1.2.4,2.5,1.1,4.1,2.1,1-.8,1.9-1.6,2.9-2.6l3.2,1.7c-1,1-2,1.8-3,2.6,1.3.9,2.6,1.8,3.9,2.7h0Z"/>
  <path class="st3" d="M655.1,98h-33.8c-1.3,0-2.4-.4-3.1-1.3-.7-.8-1.1-2-1.1-3.3v-29.9h-2.1v-3.5h39.7v3.5h-33.5v29.6c0,.3.1.6.4.9.3.3.6.4.9.4h32.7v3.5h0ZM636.5,91.7h-12.8v-12.8h12.8v12.8ZM648,76.5h-20.5v-10.5h20.5v10.5ZM632.7,88.2v-5.8h-5.1v5.8h5.1ZM643.9,73.1v-3.6h-12.2v3.6h12.2ZM652.2,91.7h-13v-12.8h13v12.8ZM648.4,88.2v-5.8h-5.3v5.8h5.3Z"/>
  <path class="st3" d="M233.7,242.3h-15.7v9.5h-4.3v-9.5h-20.1v-4h6.1v-11.8h14.1v-6.8h-10.5c-2.5,3.1-4.9,5.6-7.1,7.7l-2.9-3c4.3-3.7,7.9-8.2,10.7-13.2l4.2.8c-.5,1.2-1.1,2.5-2,3.7h26v4h-14.1v6.8h13v4h-13v7.8h15.7v4h0ZM213.7,238.2v-7.8h-9.8v7.8h9.8Z"/>
  <path class="st3" d="M284.3,231.2h-32.9v7.5c0,5.7-1.4,10.1-4.3,13.2l-3.3-2.9c1-.9,1.8-2.3,2.5-4.2.7-1.9,1-4.8,1-8.9v-8.5h36.9v3.7h0ZM283.1,218.2h-6.9c-1.2,1.3-2.6,2.4-4,3.3,3.6.8,6.9,1.7,9.9,2.7l-1.5,2.8c-3.9-1.3-7.9-2.3-12.3-3.2-5.8,2.2-11.6,3.2-17.6,3l-1.2-3.1c3.9,0,7.7-.3,11.5-1.1-2.7-.5-5.7-.9-9-1.2l1.8-2.7c4.3.4,8.9,1,13.8,1.9,1.4-.8,2.6-1.6,3.6-2.5h-25.8v-3.7h17.1c-.4-.7-.8-1.5-1.3-2.3l4.2-.9c.6,1,1.2,2.1,1.8,3.2h16v3.7ZM284.4,250.8h-33.1v-3.4h14.7v-3h-9.3v-3.3h9.3v-2.6h-8.1c-1.2,1.8-2.4,3.2-3.7,4.3l-2.5-3.2c2.2-1.8,3.9-4.2,5.1-7.3l3.8,1.2c-.2.7-.4,1.3-.7,1.7h6.1v-2.8h4.2v2.8h12.1v3.4h-12.1v2.6h11v3.3h-11v3h14.1v3.4Z"/>
  <path class="st3" d="M306.4,212.1c-.3,1.5-.9,3.3-1.7,5.5l-1.2,3.2v30.7h-4.1v-21.9c-.6,1.1-1.4,2.4-2.6,4l-2.3-4c3.2-4.7,5.8-10.9,7.8-18.6l4,1h0ZM335.1,250.8h-29.4v-3.5h3.1v-25.8h8c.4-1.4.7-2.5.9-3.3h-10.9v-3.6h11.9c.5-1.9.7-3.1.8-3.5l4.3.4c-.1.8-.3,1.8-.7,3h11.6v3.6h-12.5c-.2.7-.5,1.8-.9,3.3h10.6v25.8h3.3v3.5ZM327.8,228v-2.9h-14.9v2.9h14.9ZM327.8,234.4v-3.2h-14.9v3.2h14.9ZM327.8,241v-3.3h-14.9v3.3h14.9ZM327.8,247.3v-3.3h-14.9v3.3h14.9Z"/>
  <path class="st3" d="M352,241.2c-.7,4.1-1.6,7.7-2.9,10.7l-3.7-1.8c1.3-3.2,2.2-6.6,2.8-10.2l3.8,1.2h0ZM365.6,237.6l-3.5,1.5c-.3-.9-.6-1.8-1-2.7-5,1.3-9.6,2.2-13.9,2.8l-1.4-3.7c3.5-3.1,6.5-6.2,8.9-9.5-2,.4-4.5.8-7.4,1.1l-1-3.8c3.1-3.4,5.7-7.5,7.7-12.1l3.8,1.7c-2,3.9-4.2,7.2-6.5,9.8,2.2-.2,4.3-.5,6.5-1,1.1-1.5,2.1-3.1,3.1-4.9l3.5,2c-3.3,5.8-7.5,11-12.4,15.6,2.3-.3,4.8-.7,7.5-1.4-.2-.7-.6-1.4-1.1-2.1l3.5-1.4c1.3,1.8,2.5,4.5,3.7,8.1ZM359.3,249.6l-3.9,1c-.4-3.5-1-6.6-1.9-9.3l3.9-.7c.9,2.8,1.6,5.8,2,9ZM365.2,247.3l-3.5,1.2c-.3-2.3-1.1-4.9-2.4-7.8l3.5-.8c1.2,2.9,2,5.4,2.4,7.5ZM385.2,218.4c0,4.6-.2,10.6-.4,18-.3,7.4-.8,11.7-1.6,12.7-.7,1-1.6,1.7-2.4,2.1-.8.4-2.6.5-5.2.5s-2,0-3.1,0l-1.7-4.1h6.9c.5,0,1-.1,1.4-.4.3-.3.6-.6.7-1,.1-.4.3-2.1.5-5.2.2-3.1.4-6.2.5-9.4.1-3.2.2-6.2.2-9h-11.1c-1.2,2.6-2.4,4.8-3.7,6.5l-3.4-2.4c2.7-3.9,5-9,6.6-15.4l4,.8c-.3,1.6-.9,3.8-1.9,6.4h13.6ZM378.4,239.3l-3.3,2.3c-1.5-3.1-4.1-6.5-7.6-10.3l3.1-2.4c3.5,3.5,6.1,7.1,7.8,10.5h0Z"/>
  <path class="st3" d="M396.5,243.1c2.4,1.8,5.1,2.7,8.1,2.7s4-.5,5.4-1.6c1.3-1.1,2-2.6,2-4.4,0-4.1-3-6.1-9-6.1h-3v-4.3h2.8c5.3,0,8-1.9,8-5.7s-2-5.4-6.1-5.4-4.7.8-6.9,2.4v-4.7c2.3-1.3,5-2,8.1-2s5.4.7,7.4,2.3c1.9,1.5,2.9,3.6,2.9,6.2,0,4.6-2.3,7.5-7,8.8h0c2.4.3,4.4,1.2,5.9,2.7,1.5,1.5,2.2,3.4,2.2,5.6,0,3.2-1.2,5.8-3.5,7.7-2.4,1.9-5.4,2.8-9.2,2.8s-6.1-.6-8.2-1.8v-5.1h0Z"/>
  <path class="st3" d="M429.3,244.1c1.9,1.2,4,1.7,6.3,1.7s5.4-1.2,7-3.5c1.6-2.3,2.4-5.6,2.4-9.7h-.1c-1.5,2.7-4,4.1-7.5,4.1s-5.4-1-7.3-3.1c-1.9-2-2.8-4.6-2.8-7.7s1.1-6.3,3.2-8.6c2.1-2.2,4.9-3.3,8.4-3.3s6.4,1.4,8.4,4.2c2,2.8,3,6.7,3,11.9s-1.2,11.1-3.7,14.7c-2.5,3.5-6.1,5.3-10.7,5.3s-4.7-.4-6.5-1.2v-4.7h0ZM432.6,225.3c0,2.2.5,3.9,1.6,5.2,1.1,1.3,2.6,1.9,4.6,1.9s3.1-.6,4.2-1.8c1.1-1.2,1.7-2.6,1.7-4.3s-.5-4.1-1.7-5.7c-1.1-1.6-2.6-2.4-4.5-2.4s-3.2.7-4.3,2c-1.1,1.4-1.7,3-1.7,5h0Z"/>
  <path class="st3" d="M459.8,246.8c0-.9.3-1.7,1-2.3.7-.6,1.4-.9,2.4-.9s1.7.3,2.3.9c.7.6,1,1.4,1,2.3s-.3,1.6-.9,2.2-1.4.9-2.4.9-1.7-.3-2.3-.9c-.6-.6-1-1.4-1-2.3h0Z"/>
  <path class="st3" d="M475.9,240.4c0-2.6.6-4.6,1.8-5.9,1.2-1.3,3.1-2.4,5.5-3.2-2.1-1.1-3.6-2.2-4.6-3.3-1-1.1-1.5-2.8-1.5-5s.5-3.2,1.3-4.6c.9-1.4,2.1-2.4,3.7-3.2,1.6-.8,3.3-1.2,5.2-1.2s3.7.4,5.4,1.2c1.6.8,2.8,1.8,3.7,3.2.9,1.4,1.3,2.9,1.3,4.5s-.5,3.8-1.6,5c-1.1,1.2-2.6,2.2-4.8,3.3,2.4.9,4.3,2,5.6,3.3,1.3,1.3,1.9,3.3,1.9,6s-1.1,5.2-3.2,7c-2.1,1.8-4.9,2.7-8.3,2.7s-6.2-.9-8.3-2.7c-2.1-1.8-3.2-4.1-3.2-7h0ZM481.3,239.7c0,2,.6,3.5,1.7,4.6,1.1,1.1,2.6,1.7,4.4,1.7s3.3-.6,4.4-1.8c1.1-1.2,1.7-2.7,1.7-4.6s-.6-3.3-1.7-4.5c-1.2-1.2-2.6-1.8-4.4-1.8s-3.3.6-4.4,1.8-1.7,2.7-1.7,4.5h0ZM482.4,223.7c0,1.6.5,2.9,1.5,3.9,1,1,2.2,1.6,3.7,1.6s2.7-.5,3.7-1.6c1-1.1,1.5-2.4,1.5-3.9s-.5-2.9-1.5-4c-1-1.1-2.2-1.6-3.7-1.6s-2.7.5-3.7,1.6c-1,1.1-1.4,2.4-1.4,4Z"/>
  <path class="st3" d="M529.9,244.5v4.9h-21.5v-2c0-2.3.6-4.5,1.8-6.5,1.2-2,3-3.9,5.4-5.8,2.9-2.2,4.9-3.9,5.9-4.9,1-1,1.8-2.1,2.3-3.1.5-1,.7-2,.7-3,0-1.7-.6-3-1.8-4-1.2-1-2.9-1.5-5-1.5s-5.3.9-7.7,2.6v-4.6c2.9-1.8,6-2.7,9.4-2.7s5.8.9,7.6,2.6c1.9,1.7,2.8,4.1,2.8,7s-.3,3.2-.8,4.6c-.5,1.4-1.4,2.7-2.4,3.8-1,1.2-2.8,2.7-5.4,4.7-2.2,1.6-3.6,2.7-4.4,3.5-.7.7-1.4,1.4-1.8,2.2s-.7,1.4-.7,2.2h15.6Z"/>
  <path class="st3" d="M551.8,212.2c-.4,1.6-1,3.6-1.7,6l-1.1,3.5v30.1h-4.1v-21.8c-.6,1.1-1.4,2.3-2.5,3.7l-2.1-4.2c3.1-4.6,5.6-10.6,7.5-18.1l3.9.9h0ZM556.8,242.5c-1.1,4.1-2.2,7-3.4,8.8l-3.3-2.4c1.4-2.2,2.4-4.8,3-7.6l3.7,1.2ZM580.9,223.9h-29.9v-3.2h7.9c-.3-1.1-.7-2.1-1.4-3h-5v-3.2h11.6c-.5-1.1-1-1.9-1.3-2.5l3.9-.8c.6,1.1,1.1,2.2,1.4,3.3h11.5v3.2h-4.8c-.5,1.2-.9,2.2-1.4,3h7.5v3.2ZM578.1,239h-24.5v-13h24.5v13ZM574,231v-2h-16.4v2h16.4ZM574,236.1v-2.3h-16.4v2.3h16.4ZM574.4,246.2c-.1,1.4-.5,2.5-.9,3.3-.4.8-1,1.4-1.7,1.6-.7.2-2.4.3-5.1.3-3.9,0-6.3-.2-7.2-.7-.9-.5-1.4-1.3-1.4-2.6v-7h4v5.6c0,.4.1.7.4.8.3.1,1.4.2,3.5.2s2.9,0,3.5-.2c.6-.1,1-1,1.2-2.7l3.7,1.4h0ZM570.8,217.7h-9.1c.5.8.8,1.8,1.2,3h6.5c.7-1.1,1.2-2.1,1.5-3h0ZM570.1,244.1l-3,2.1c-1.1-1.5-2.3-2.9-3.7-4.1l3.2-2.2c1.4,1.3,2.6,2.7,3.6,4.2ZM581.1,249l-3.3,1.8c-1-3-2.4-5.6-4.2-8l3.5-1.8c2.2,3.1,3.5,5.8,4.1,7.9h0Z"/>
  <path class="st3" d="M214.8,320.8h-4v-1.7h-28.7v1.7h-4.1v-39.5h36.8v39.5ZM210.8,315.6v-30.7h-28.7v30.7h28.7ZM207.1,304.9h-11.1c-.7.7-1.4,1.4-2.2,2.1v3.8c1.1-.2,2.4-.7,4-1.2l.3,3.2c-3.3,1.2-6,1.9-8,2.2l-.9-2.8c.5-.4.8-.9.8-1.5v-1c-2.1,1.1-3.9,1.9-5.5,2.4l-1.6-3c3.9-1.4,6.7-2.7,8.4-4.1h-5.5v-7.7h21.3v7.7ZM209.3,295.5h-25.9v-2.9h11v-2.1h-9.6v-2.8h9.6v-1.6h4v1.6h9.6v2.8h-9.6v2.1h10.9v2.9h0ZM203,302.1v-2.2h-13.1v2.2h13.1ZM209.6,312.3l-2.4,2.5c-3.2-2.4-6.9-4.6-11.1-6.7l2.3-2.3c1.2.4,2.5,1.1,4.1,2.1.9-.8,1.9-1.6,2.9-2.6l3.2,1.7c-1,1-2,1.8-3,2.6,1.3.9,2.6,1.8,3.9,2.7h0Z"/>
  <path class="st3" d="M267.2,319.8h-33.8c-1.3,0-2.4-.4-3.1-1.3-.7-.8-1.1-2-1.1-3.3v-29.9h-2.1v-3.5h39.7v3.5h-33.5v29.6c0,.3.1.6.4.9.3.3.6.4.9.4h32.7v3.5h0ZM248.7,313.5h-12.8v-12.8h12.8v12.8ZM260.2,298.3h-20.5v-10.5h20.5v10.5ZM244.8,310v-5.8h-5.1v5.8h5.1ZM256.1,294.9v-3.6h-12.2v3.6h12.2ZM264.3,313.5h-13v-12.8h13v12.8ZM260.5,309.9v-5.8h-5.3v5.8h5.3Z"/>
  <path class="st3" d="M318.2,317.8l-2.6,3.4c-9-6.8-14.9-13.9-17.7-21.4-2.2,8.4-8.1,15.4-17.6,21.1l-2.8-3.3c12.1-7.5,18.1-17.4,18.1-29.5v-7.3h4.4v9.5c0,5,1.7,9.9,5,14.7,3.3,4.8,7.7,9.1,13.2,12.9h0Z"/>
  <path class="st3" d="M352.9,310.9h-5.6c-1.1,1.6-2.1,2.9-2.9,3.8,2.4,1,4.6,1.9,6.4,2.8l-2.3,2.9c-3.1-1.4-5.4-2.4-7.1-3.1-4.1,2-7.9,3.4-11.5,3.9l-1.6-3.5c3.2-.4,6-1.1,8.4-2.1-2.4-.9-4.3-1.4-5.9-1.8,1.4-1.6,2.3-2.6,2.6-3h-4.8v-3.1h7.3l1.7-2.6h-7v-7.6h8.1v-2.2h-8.2v-5h-2.1v-2.9h2.1v-5h8.2v-1.8h3.8v1.8h8.1v5h2.3v2.9h-2.3v5h-8.1v2.2h8.2v7.6h-8.4l-1.7,2.6h4.2c.2-.4.5-.9.7-1.6l3.5.8c0,.2,0,.5-.3.7h4.1v3.1h0ZM338.7,287.4v-2h-4.5v2h4.5ZM338.7,292.6v-2.2h-4.5v2.2h4.5ZM338.7,302.2v-1.8h-4.3v1.8h4.3ZM342.8,310.9h-4.6s-.4.6-1.1,1.4l3.5,1.1c.9-.9,1.6-1.7,2.1-2.4h0ZM346.8,287.4v-2h-4.3v2h4.3ZM346.8,292.5v-2.2h-4.3v2.2h4.3ZM347,302.2v-1.8h-4.5v1.8h4.5ZM369.2,317.8l-2,3.4c-3.2-2.4-5.4-4.7-6.8-6.8-1.9,2.6-4,4.8-6.3,6.7l-2.7-3c2.9-2.3,5.1-4.8,6.7-7.3-1.5-2.7-2.6-5.8-3.5-9.2l3.5-1.9c.6,2.8,1.3,5,1.9,6.4,1.2-3.7,1.8-8.8,2-15.1h-3.4c-1.4,4.3-2.9,7.5-4.3,9.8l-2.6-3.3c2.5-4.6,4.3-10.3,5.3-17.1l3.9.6c-.2,1.3-.6,3.4-1.2,6.2h8.8v3.8h-2.5c-.3,8.4-1.5,15-3.5,19.8,1.8,2.8,4,5.1,6.7,7.1h0Z"/>
  <path class="st3" d="M385.5,310.3c-.7,4.1-1.6,7.7-2.9,10.7l-3.7-1.8c1.3-3.2,2.2-6.6,2.8-10.2l3.8,1.2h0ZM399.1,306.7l-3.5,1.5c-.3-.9-.6-1.8-1-2.7-5,1.3-9.6,2.2-13.9,2.8l-1.4-3.7c3.5-3.1,6.5-6.2,8.9-9.5-2,.4-4.5.8-7.4,1.1l-1-3.8c3.1-3.4,5.7-7.5,7.7-12.1l3.8,1.7c-2,3.9-4.2,7.2-6.5,9.9,2.2-.2,4.3-.5,6.5-1,1.1-1.5,2.1-3.1,3.1-4.9l3.5,2c-3.3,5.8-7.5,11-12.4,15.6,2.3-.3,4.8-.7,7.5-1.4-.2-.7-.6-1.4-1.1-2.1l3.5-1.4c1.3,1.8,2.5,4.5,3.7,8.1ZM392.8,318.8l-3.9,1c-.4-3.5-1-6.6-1.9-9.3l3.9-.7c.9,2.8,1.6,5.8,2,9ZM398.7,316.5l-3.5,1.2c-.3-2.3-1.1-4.9-2.4-7.8l3.5-.8c1.2,2.9,2,5.4,2.4,7.5ZM418.7,287.5c0,4.6-.2,10.6-.4,18-.3,7.4-.8,11.7-1.6,12.7-.7,1-1.6,1.7-2.4,2.1s-2.6.5-5.2.5-2,0-3.1,0l-1.7-4.1h6.9c.5,0,1-.1,1.4-.4.3-.3.6-.6.7-1,.1-.4.3-2.1.5-5.2.2-3.1.4-6.2.5-9.4.1-3.2.2-6.2.2-9h-11.1c-1.2,2.6-2.4,4.8-3.7,6.5l-3.4-2.4c2.7-3.9,5-9,6.6-15.4l4,.8c-.3,1.6-.9,3.8-1.9,6.4h13.6ZM412,308.4l-3.3,2.3c-1.5-3.1-4.1-6.5-7.6-10.3l3.1-2.4c3.5,3.5,6.1,7.1,7.8,10.5h0Z"/>
  <path class="st3" d="M430,312.2c2.4,1.8,5.1,2.7,8.1,2.7s4-.5,5.4-1.6c1.3-1.1,2-2.6,2-4.4,0-4.1-3-6.1-9-6.1h-3v-4.3h2.8c5.3,0,8-1.9,8-5.7s-2-5.4-6.1-5.4-4.7.8-6.9,2.4v-4.7c2.3-1.3,5-2,8.2-2s5.4.7,7.4,2.3c1.9,1.5,2.9,3.6,2.9,6.2,0,4.6-2.3,7.5-7,8.8h0c2.4.3,4.4,1.2,5.9,2.7,1.5,1.5,2.2,3.4,2.2,5.6,0,3.2-1.2,5.8-3.5,7.7-2.4,1.9-5.4,2.8-9.2,2.8s-6.1-.6-8.2-1.8v-5.1h0Z"/>
  <path class="st3" d="M483,313.7v4.9h-21.5v-2c0-2.3.6-4.5,1.8-6.5,1.2-2,3-3.9,5.4-5.8,2.9-2.2,4.9-3.9,5.9-4.9s1.8-2.1,2.3-3.1c.5-1,.7-2,.7-3,0-1.7-.6-3-1.8-4-1.2-1-2.9-1.5-5-1.5s-5.3.9-7.7,2.6v-4.6c2.9-1.8,6-2.7,9.4-2.7s5.8.9,7.6,2.6c1.9,1.7,2.8,4.1,2.8,7s-.3,3.2-.8,4.6c-.5,1.4-1.4,2.6-2.4,3.8-1,1.2-2.8,2.7-5.4,4.7-2.2,1.6-3.6,2.7-4.4,3.5-.7.7-1.4,1.4-1.8,2.2-.5.7-.7,1.4-.7,2.2h15.6Z"/>
  <path class="st3" d="M494.8,313.2c1.9,1.2,4,1.7,6.3,1.7s5.4-1.2,7-3.5c1.6-2.3,2.4-5.6,2.4-9.7h-.1c-1.5,2.7-4,4.1-7.5,4.1s-5.4-1-7.3-3.1c-1.9-2-2.8-4.6-2.8-7.7s1.1-6.3,3.2-8.6c2.1-2.2,4.9-3.3,8.4-3.3s6.4,1.4,8.4,4.2c2,2.8,3,6.7,3,11.9s-1.2,11.1-3.7,14.7c-2.5,3.5-6.1,5.3-10.7,5.3s-4.7-.4-6.5-1.2v-4.7h0ZM498.2,294.4c0,2.2.5,3.9,1.6,5.2,1.1,1.3,2.6,1.9,4.6,1.9s3.1-.6,4.2-1.8c1.1-1.2,1.7-2.6,1.7-4.3s-.5-4.1-1.7-5.7c-1.1-1.6-2.6-2.4-4.5-2.4s-3.2.7-4.3,2c-1.1,1.4-1.7,3-1.7,5h0Z"/>
  <path class="st3" d="M526.9,313.2c1.9,1.2,4,1.7,6.3,1.7s5.4-1.2,7-3.5c1.6-2.3,2.4-5.6,2.4-9.7h-.1c-1.5,2.7-4,4.1-7.5,4.1s-5.4-1-7.3-3.1c-1.9-2-2.8-4.6-2.8-7.7s1.1-6.3,3.2-8.6c2.1-2.2,4.9-3.3,8.4-3.3s6.4,1.4,8.4,4.2c2,2.8,3,6.7,3,11.9s-1.2,11.1-3.7,14.7c-2.5,3.5-6.1,5.3-10.7,5.3s-4.7-.4-6.5-1.2v-4.7h0ZM530.3,294.4c0,2.2.5,3.9,1.6,5.2,1.1,1.3,2.6,1.9,4.6,1.9s3.1-.6,4.2-1.8c1.1-1.2,1.7-2.6,1.7-4.3s-.5-4.1-1.7-5.7c-1.1-1.6-2.6-2.4-4.5-2.4s-3.2.7-4.3,2c-1.1,1.4-1.7,3-1.7,5h0Z"/>
  <path class="st3" d="M598.4,317.8l-2.7,3.4c-9-6.8-14.9-13.9-17.7-21.4-2.2,8.4-8.1,15.4-17.6,21.1l-2.8-3.3c12.1-7.5,18.1-17.4,18.1-29.5v-7.3h4.4v9.5c0,5,1.7,9.9,5,14.7,3.3,4.8,7.7,9.1,13.2,12.9h0Z"/>
  <path class="st2" d="M764.3,723.3H34.7c-13.6,0-24.7-11.1-24.7-24.7V24.7C10,11.1,21.1,0,34.7,0h729.6c13.6,0,24.7,11.1,24.7,24.7v673.9c0,13.6-11.1,24.7-24.7,24.7h0ZM34.7,4c-11.4,0-20.6,9.3-20.6,20.6v673.9c0,11.4,9.3,20.7,20.6,20.7h729.6c11.4,0,20.6-9.3,20.6-20.7V24.7c0-11.4-9.3-20.6-20.6-20.6H34.7Z"/>
  <g class="st1">
    <rect class="st0" x="104.5" y="45.9" width="530.3" height="522.2"/>
  </g>
</svg>