<?xml version="1.0" encoding="UTF-8"?>
<svg id="_圖層_1" data-name="圖層_1" xmlns="http://www.w3.org/2000/svg" version="1.1" viewBox="0 0 995 175">
  <!-- Generator: Adobe Illustrator 29.4.0, SVG Export Plug-In . SVG Version: 2.1.0 Build 152)  -->
  <defs>
    <style>
      .st0 {
        fill: #004899;
      }
    </style>
  </defs>
  <path class="st0" d="M422.2,157.7l2-.9-1.2,2.3h-37l-.5-1.4h36.6ZM395.7,128.4v22.2l-4,1.8v-25.9l4,1.8ZM416.9,148.1v1.4h-23.3l-.4-1.4h23.7c0,0,0,0,0,0ZM404.7,126.3c3.8,0,7.6.6,11.5,1.9v1.4c-4-1.3-7.8-1.9-11.5-1.9s-7.6.6-11.5,1.9v-1.4c4-1.2,7.8-1.9,11.4-1.9h0ZM409.2,137.6l2-.9-1.2,2.3h-15.4v-1.4h14.5ZM406.9,148.6v23.9c-.1,0-4.3,1.8-4.3,1.8v-25.7h4.3,0ZM417.9,126.6v25.9l-4-1.8v-22.2l4-1.8Z"/>
  <path class="st0" d="M446.1,162.5c1.4-1.9,2.5-3.6,3.1-5.1,0,.9,0,2.1-.3,3.6-.3,1.5-.7,3.1-1.2,4.6s-1.2,2.7-1.9,3.5l-3.9-2.3c1.4-.9,2.9-2.4,4.3-4.3h0ZM453,130.6v20.9h23.3c0,0,0,1.4,0,1.4h-23.6l-3.7,1.7v-25.7l4,1.8h0ZM460.8,130.4c-2.9,0-5.8.4-8.9,1.2l-.5-1.4c2.9-.7,5.9-1.2,8.9-1.2s6.1.4,9.2,1.2v1.4c-3-.8-5.9-1.2-8.8-1.2h0ZM451.9,136.9l-.5-1.4h18.1v1.4h-17.6ZM451.9,143l-.5-1.4h18.1v1.4h-17.6ZM452.4,166.6c0-1.7,0-3.4-.3-5-.2-1.6-.4-2.8-.7-3.6,1,.7,2.1,2.1,3.2,4.1,1.1,2,1.8,3.7,2,5.4l-4.3,1.4c0-.5,0-1.2,0-2.2h0ZM477.3,146.7l2-.9-1.1,2.3h-25.8l-.5-1.4h25.3c0,0,0,0,0,0ZM458.3,129.1c-.9.5-2.1,1-3.7,1.4.9-.8,1.5-1.7,1.9-2.6.4-.9.8-2.1,1.2-3.7l3.3,2.1c-.9,1.2-1.8,2.1-2.7,2.7h0ZM458.9,160.8c-.7-1.9-1.4-3.3-2.1-4.3,1.2.5,2.6,1.6,4.2,3.1,1.6,1.5,2.7,2.9,3.2,4.1l-3.9,2.4c-.2-1.6-.7-3.4-1.4-5.2ZM465.4,159.1c-.9-1.7-1.7-3-2.5-3.9,1.2.4,2.7,1.2,4.5,2.4,1.7,1.2,2.9,2.4,3.6,3.5l-3.5,3c-.5-1.6-1.2-3.2-2.1-4.9h0ZM476.4,167.1c-.7,1.9-1.8,3.5-3.3,4.8-1.5,1.3-3.4,2-5.7,2.1,2.1-.9,3.6-2.6,4.6-5,.9-2.4,1.4-5,1.4-7.9v-9.3l4-1.8v11.1c0,2-.3,4-1,5.9h0ZM472.6,144.8l-4-1.8v-12.4l4-1.8v16Z"/>
  <path class="st0" d="M511.9,159.5c-1.1,3.4-2.9,6.4-5.4,9-2.5,2.6-5.8,4.5-9.9,5.6,4.7-2.4,8-5.8,9.9-10.1,1.9-4.3,2.8-9.4,2.8-15.1h4.3c0,3.7-.5,7.2-1.6,10.6ZM534,148.3l2-.9-1.2,2.3h-36.9l-.5-1.4h36.4c0,0,0,0,0,0ZM505.3,139.2c-1.8,3.1-3.7,5.7-5.7,7.6,1.4-2.3,2.4-5,3.3-8.2.8-3.2,1.6-7.1,2.2-11.6l4.6,1.8c-1.2,3.8-2.7,7.3-4.4,10.5h0ZM529.9,135l2-.9-1.2,2.3h-24.8l-.5-1.4h24.4ZM519,127.4v21.6h-4.3v-23.4c0,0,4.3,1.8,4.3,1.8ZM523.9,148.9v14.4c0,2.4.3,4.3.9,5.6.6,1.3,1.8,2.2,3.5,2.8,1.7.6,4.3,1,7.8,1.2-2.5.2-4.4.3-5.6.3-2.7,0-4.9-.3-6.4-1-1.5-.7-2.6-1.7-3.3-3-.6-1.4-.9-3.1-.9-5.3v-14.9h4,0Z"/>
  <path class="st0" d="M553.6,150.1l-.5-1.4h24.7v1.4h-24.2ZM563.7,138.3c0,7.3-.3,12.8-.6,16.5-.3,3.7-1.2,7.1-2.5,10.2-1.3,3.1-3.5,6.1-6.6,8.9,1.8-3.1,3.2-5.8,4-8.2.8-2.4,1.4-5.2,1.6-8.4.3-3.2.4-7.8.4-13.9v-6.9h3.6v1.9h0ZM560.9,138.6c-2.3,1-4.5,1.6-6.6,1.8,1.8-1,3.7-2.3,5.5-3.8,1.8-1.6,3.2-3,4-4.3l2.7,3.4c-1.4,1-3.3,1.9-5.6,2.9h0ZM556.2,129l-.5-1.4h21.8v1.4h-21.3ZM571.8,134.5v37.8c0,0-3.6,1.8-3.6,1.8v-41.5l3.6,1.8ZM578.8,131.8c0,3.8.5,6.9,1.4,9.1,1,2.3,2.1,4,3.5,5.1,1.4,1.1,3.1,2.2,5.3,3.3.2.1.4.3.6.3l.5.2c-4.4-.1-8-1.6-10.9-4.6-2.9-3-4.3-8.1-4.3-15.4s0-1.6,0-2l4.3-1.8c-.2,2-.4,4-.4,5.8h0ZM579.1,152.7c0,6.4,1.2,11.1,3.5,14.2,2.3,3.1,5.2,5.3,8.6,6.6-2.7,0-5.3-.9-7.7-2.4-2.4-1.5-4.4-4-6-7.4-1.6-3.4-2.3-7.7-2.3-12.9v-1.9c0,0,4.3-1.8,4.3-1.8-.2,2-.3,3.9-.3,5.6h0ZM580.9,136.1c-1.8-1.9-3.5-3.3-5-4.1,1.8.3,4,1,6.4,2.2,2.4,1.2,4.5,2.4,6.1,3.7l-2.8,4c-1.3-1.9-2.9-3.9-4.7-5.8ZM581.7,159.6c-1.9-2-3.6-3.4-5-4.2,1.8.3,4,1,6.4,2.2,2.4,1.2,4.5,2.5,6.2,3.8l-2.9,4c-1.2-1.9-2.8-3.9-4.7-5.9ZM584.9,131.4c-1.6,1.6-3.2,2.9-4.8,3.9,1.6-2.6,2.6-5.9,3.3-10l4.1,2.4c-.2.8-1.1,2-2.7,3.6h0ZM585.1,155.6c-1.2,1.3-2.6,2.4-4,3.2.6-1.1,1.2-2.3,1.6-3.7.4-1.4.8-3.3,1.2-5.6l4,2.4c-.6,1.2-1.6,2.4-2.8,3.7h0Z"/>
  <path class="st0" d="M127.9,56.1c-3.5,6.5-9.5,11.1-17.9,14,4.5-2.7,8-5.9,10.5-9.4,2.5-3.6,4.3-7.7,5.3-12.4,1-4.7,1.5-10.4,1.5-17.1h6c0,10.2-1.8,18.6-5.3,25.1h0ZM162.2,30.4l2.9-1.3-1.6,3.2h-52.7l-.7-2h52.1ZM120.1,16.5c-1.7-3.8-3.7-6.8-5.8-9,3.1,2,6,4.4,8.9,7.4s5.2,5.9,6.7,8.9l-5.5,4.2c-1.2-3.9-2.7-7.7-4.4-11.5ZM140.9,3.6v27.7h-6V1.1l6,2.6h0ZM148,30.9v23.9c0,3.5.4,6,1.3,7.8.9,1.8,2.5,3.1,4.9,3.9,2.4.8,6.1,1.4,11,1.7-2.9.3-5.5.5-8,.5-3.8,0-6.8-.5-8.9-1.4-2.2-1-3.7-2.4-4.6-4.3-.9-1.9-1.4-4.4-1.4-7.5v-24.7h5.8ZM154,21.5c-2.8,3.6-6,6.6-9.6,8.9,2.2-2.8,4.3-6.5,6.3-11.1s3.4-8.8,4.3-12.7l5.8,3.8c-1.8,3.7-4,7.4-6.9,11.1Z"/>
  <path class="st0" d="M194.7,57.1c1.8-2.5,2.9-5.1,3.4-7.6.1,1.1.2,2.2.2,3.4,0,2.4-.3,4.8-.9,7.2s-1.5,4.4-2.7,6.1l-5.8-3.2c2.1-1.5,4-3.5,5.8-6ZM200.3,13.5c0,7.7-.7,14.7-2.1,20.9-1.4,6.2-4.2,11.6-8.5,16.3,1.9-3.7,3.2-8.1,3.9-13.1.7-5,1-10.8,1-17.4s0-7.3-.1-12.9l5.8,2.6v3.7h0ZM241.2,9.6l2.9-1.3-1.6,3.3h-44.4l-.7-2h43.9ZM217.6,16.1l2.9-1.3-1.5,3.3h-15.8l-.7-2h15.1ZM209.4,54.8c0,3.8.5,6.7,1.4,8.6.9,1.9,2.9,3.3,6,4.2,3.1.9,7.9,1.4,14.5,1.4-4.8.8-8.7,1.2-11.7,1.2-4.2,0-7.5-.6-9.9-1.9-2.4-1.3-4.1-3.2-5-5.7-1-2.5-1.5-5.8-1.5-9.9s0-2.3.1-4.2l6.2,2.6v3.9c0,0,0,0,0,0ZM208.2,24.4v17.1l-4.8,2.6v-22.1l4.8,2.4ZM214.2,25.4c-1-.3-2-.5-3-.5s-1.9.2-2.9.5-2.3.9-3.8,1.6v-2c1.5-.7,2.8-1.3,3.8-1.6,1-.3,2-.5,2.9-.5s1.9.2,3,.5c1,.3,2.3.9,3.7,1.6v2c-1.5-.7-2.7-1.3-3.7-1.6ZM206.2,39.3v-2c0,0,9.9,0,9.9,0v1.9h-9.9,0ZM211.5,45.7c6,2.7,10.5,6.2,13.4,10.6l-5.3,3.7c-2.6-7.1-5.3-11.9-8.1-14.3h0ZM218.5,44.1l-4.7-2.6v-17.1l4.8-2.4v22.1ZM231.8,33.7c-3.7,4.9-8.8,9.3-15.3,13.3,5-5.2,8.9-10.1,11.8-14.8,2.8-4.6,5.2-10.5,7.3-17.7l5.5,3.2c-2.4,5.8-5.4,11.1-9.2,16ZM228.7,24c1.3,5.5,3.2,10.2,5.5,14,2.4,3.8,5.5,7.8,9.4,11.9-7.4-3.2-13-9-16.9-17.2-3.9-8.3-5.8-18.7-5.6-31.3l5.7,2.6c0,7.9.6,14.6,1.9,20.1h0ZM231,3.5c-1.4-1.5-3-2.6-4.7-3.4,1.8,0,4.1.3,6.9,1.1,2.7.8,4.9,1.7,6.4,2.9l-3.7,5.7c-1.8-2.7-3.5-4.8-4.8-6.3h0ZM235.4,56.3c-1.3-3-2.8-5.6-4.4-7.7,3,1.6,5.6,3.7,7.8,6.3,2.3,2.6,4,5.3,5.2,8.1l-6.1,2.3c-.3-3-1.2-6-2.4-9Z"/>
  <path class="st0" d="M272.9,53.9c-2.4,3.8-4.6,6.5-6.3,7.9,1.2-2,2.4-5.1,3.7-9.3,1.2-4.2,2-7.9,2.4-11.1l5.6,2.2c-1.1,3-2.8,6.5-5.2,10.3h0ZM295,28.8l2.9-1.3-1.6,3.2h-28.2l-.7-2h27.6ZM294.3,12l2.9-1.3-1.6,3.3h-26.8l-.7-2h26.3ZM293.7,37.3l2.9-1.3-1.6,3.3h-25.5l-.7-2h24.9ZM275.6,26.5c-.5-2.7-1-4.9-1.6-6.6s-1.4-3.2-2.6-4.5c1.8.7,3.7,2,5.6,3.9,1.9,1.9,3.4,3.8,4.5,5.7l-5.6,3.2-.4-1.8h0ZM284.2,57.3c-.6,2.7-1.9,5.1-3.8,7.3-1.9,2.2-4.6,3.9-8.2,5.1,2.4-2.1,4.1-4.2,5.2-6.4,1.1-2.2,1.8-4.3,2.2-6.6.3-2.2.5-5,.5-8.4v-18.1h5.1v17.9c0,3.5-.3,6.5-1,9.2h0ZM278.6,6.7c-1.3-2-2.9-3.5-4.6-4.7,2.1.6,4.5,1.6,7.1,3.1s4.6,2.8,5.8,4.1l-4.6,4.5c-1.2-2.7-2.5-5-3.8-7ZM288.8,24.8c-2.1,2.3-4.3,4-6.3,5,1.3-1.8,2.4-3.9,3.4-6.5,1-2.6,1.7-5.3,2.2-8.3l5.6,3.1c-1.1,2.1-2.7,4.3-4.9,6.6h0ZM288.8,47.3c-.7-2.6-1.7-4.8-3-6.6,2,1.4,3.9,3.4,5.8,5.9,2,2.5,3.5,5.2,4.8,8l-5.3,2.7c-.8-4.1-1.6-7.4-2.3-10ZM304.9,14.2c0,11.3-.3,20.1-.8,26.4-.5,6.3-1.7,11.8-3.5,16.5-1.8,4.7-4.6,9.1-8.5,13,2.2-3.9,3.8-7.9,4.8-12.1,1-4.2,1.7-9,2-14.3.3-5.4.5-12.7.5-22V6.7l5.4,2.6v4.9h0ZM315.9,10.1c-2.5.4-5.1.6-7.7.6s-5.4-.2-7.4-.7c3.4-.3,6.8-1.1,10.3-2.4,3.5-1.3,6.7-3.1,9.5-5.2l2,5.9c-1.8.8-4,1.4-6.6,1.8h0ZM320.9,24.2l2.9-1.3-1.6,3.2h-20.6v-2c0,0,19.4,0,19.4,0h0ZM317,24.5v42.7l-5.5,2.6V24.5h5.5Z"/>
  <path class="st0" d="M350.8,44.3c-1.5,5.4-3.6,9.8-6.1,13,1.3-4,2.3-9.1,3.3-15.4.9-6.3,1.3-12.4,1.3-18.1l5.4,2.2c-1,6.8-2.3,12.9-3.8,18.3h0ZM367.1,19.1l2.9-1.3-1.5,3.2h-21.8l-.7-2h21.2c0,0,0,0,0,0ZM359.7,8.5c-2.7.4-5.3.6-7.7.6s-4.1-.2-5.6-.5c6.1-1.2,12.6-4,19.4-8.6l1.4,6.8c-2.2.7-4.7,1.3-7.4,1.7ZM360,7.4v59.8l-5.1,2.6V7.4h5.1ZM359.8,19.3c1.8,2,3.5,4.9,5.2,8.4,1.7,3.6,3,7.1,4,10.5l-5.6,2.5c-.7-10.4-1.9-17.6-3.7-21.5h0ZM389.3,35c-3.3,7.1-7.1,13.4-11.5,19.2-4.4,5.8-9.6,10.8-15.6,15.2,14.1-14.1,24.2-34.5,30.6-61.4l5.8,2.4c-3,9.3-6.2,17.5-9.4,24.6h0ZM369.2,36.2c1.2-4.9,1.9-9.5,1.9-13.7.9,4.5,1.3,8.9,1.3,13.1s-.7,10.3-2.1,15.6l-6-2.6c2-3.3,3.7-7.5,4.9-12.4h0ZM378.6,8.8c-1.9-2.9-4.1-5.2-6.6-6.9,3.5,1.2,6.5,2.7,9.1,4.4,2.6,1.7,5.1,3.8,7.4,6.3l-5.1,5.1c-1.3-3.1-2.9-6.1-4.8-8.9ZM381,19.5v31.6c0,4.7.6,8.2,1.9,10.7,1.2,2.4,3.1,4.1,5.6,5.1,2.5,1,6,1.6,10.5,1.9-3,.5-5.5.7-7.4.7-5.2,0-9.1-1.5-11.8-4.4-2.6-2.9-3.9-7.7-3.9-14.5V16.9l5.1,2.6ZM395.9,40c-.9-4.1-2.3-7.8-4.3-11.3,3.4,4,6,7.6,7.7,10.7s3.2,6.8,4.3,11.1l-6.6,1.6c0-4-.3-8-1.2-12.1Z"/>
  <path class="st0" d="M444.4,44l-16.6,12.5-2.6-6.5,19.2-6h0ZM440.2,21.3l2.9-1.3-1.6,3.3h-15.4l-.7-2h14.8ZM436.9,5.8v43.5l-5.4.2V3.2l5.4,2.6ZM458.3,55c-1.1,3.7-2.9,7-5.6,9.7-2.6,2.7-6.2,4.4-10.6,5,4.6-2.3,7.9-5.5,10-9.7,2-4.2,3.1-9,3.1-14.3s0-1.8,0-2.3h4.7c0,4-.4,7.9-1.5,11.6h0ZM478.8,22.3l2.9-1.3-1.6,3.2h-36.3l-.7-2h35.7ZM477.1,10.2l2.9-1.3-1.5,3.2h-33.1l-.7-2h32.4ZM452.7,30.1v15.8l-5.1,2.6v-20.9l5.1,2.6h0ZM474.3,42.3v1.9h-23.9l-.6-2h24.5ZM465,35.4l2.9-1.3-1.6,3.2h-15.6l-.7-2h14.9c0,0,0,0,0,0ZM461.8,28c4,0,7.9.5,11.8,1.7v1.9c-3.9-1.1-7.8-1.7-11.8-1.7s-7.7.5-11.6,1.7v-2c3.8-1.1,7.6-1.6,11.5-1.6h0ZM453,16.9c-.7-1.7-1.5-3.1-2.6-4.2,2.2.9,4.1,2,5.6,3.4,1.5,1.4,2.7,2.8,3.6,4.2l-4.9,2.9c-.5-2.5-1.2-4.6-1.8-6.2h0ZM458.3,5.9c-1.5-1.9-2.9-3.3-4.2-4.3,2,.2,4.1.8,6.4,1.8,2.2,1,4,2.1,5.2,3.3l-4.5,4.3c-.4-1.5-1.4-3.1-2.9-5ZM467.9,43.1v14.5c0,3,.4,5.1,1.2,6.5.8,1.4,1.9,2.3,3.4,2.7,1.5.5,3.9.9,7.4,1.4-2.9.6-5.4,1-7.3,1-3.2,0-5.5-.9-7-2.7-1.5-1.8-2.3-5-2.3-9.4v-13.9h4.6,0ZM469.6,19.6c-1.8,1.4-3.8,2.4-5.9,3.1,1.3-1.4,2.3-2.9,3.1-4.5.7-1.6,1.4-3.6,2-5.9l5,2.7c-1,1.6-2.4,3.2-4.2,4.6h0ZM475.6,27.5v21l-5.1-2.6v-15.9l5.1-2.6Z"/>
  <path class="st0" d="M535.7,34.3c1.2,0,2.2.4,3,1.2.8.8,1.2,1.8,1.2,3s-.4,2.1-1.2,2.9c-.8.8-1.8,1.2-3,1.2s-2.2-.4-3-1.2c-.8-.8-1.2-1.8-1.2-3s.4-2.2,1.2-3,1.8-1.2,2.9-1.2h0Z"/>
  <path class="st0" d="M643.8,7.2l2.9-1.3-1.6,3.2h-52.4l-.7-2h51.9c0,0,0,0,0,0ZM642.4,33l2.9-1.3-1.5,3.2h-50.3l-.7-2h49.6c0,0,0,0,0,0ZM638.2,18.1l2.8-1.3-1.5,3.2h-41.6l-.7-2h41ZM637.6,25.4l2.8-1.3-1.5,3.2h-40.3l-.7-2h39.8c0,0,0,0,0,0ZM607.4,41v26.8l-5.6,2.6v-32l5.6,2.6ZM619.5,40.9c-5.2,0-10.4.7-15.3,2.1v-2c5.1-1.4,10.1-2.1,15.1-2.1s10.3.7,15.5,2.2v1.9c-4.9-1.4-10-2.1-15.3-2.1h0ZM611.4,3.4v8.8l-6.3,2.6V.8l6.3,2.6ZM626.1,47.5l2.9-1.3-1.6,3.2h-22.2v-2h20.9ZM626,55.8l2.8-1.3-1.5,3.2h-22v-2h20.8c0,0,0,0,0,0ZM622.2,15.1v18.7h-6.3V12.6l6.3,2.6ZM634.2,63.6c-2,2.9-5.2,5.2-9.5,7,1.8-1.8,3.3-3.5,4.2-5,1-1.5,1.6-3.2,2-5.2.4-1.9.6-4.4.6-7.5v-12l5.7-2.6v14.2c0,4.5-1,8.2-3,11.1h0ZM633.2,3.4v8.8l-6.3,2.6V.8l6.3,2.6Z"/>
  <path class="st0" d="M724.5,6.7l2.9-1.2-1.6,3.2h-54.6l-.7-2h54ZM724.4,43.5l2.9-1.2-1.6,3.2h-54.3l-.7-2h53.7ZM700.6,18.7c0,3,.1,5.3.1,6.8,0,7.5-.7,14.1-2.2,19.8s-4.3,10.8-8.6,15.2-10.6,7.5-18.8,9.2c6.7-3,11.8-6.7,15.4-11.1s5.9-9,7.1-13.9c1.2-5,1.8-10.5,1.8-16.7s0-6.6-.2-9.8l5.3-2.6v3c0,0,.1,0,.1,0ZM686.1,24.5v19.8h-5.7v-22.4l5.7,2.6ZM690.5,22.9c2.7-.4,5.3-.7,7.8-.7s5.2.2,7.9.6c2.7.4,5.8,1.1,9.2,2v2c-3.5-.9-6.5-1.5-9.2-2-2.7-.4-5.3-.7-7.8-.7s-5.2.2-7.8.7c-2.7.4-5.8,1.1-9.2,2v-2c3.4-.9,6.5-1.5,9.2-2h0ZM691.1,3.5v10.5l-6.3,2.6V.9l6.3,2.6h0ZM711.9,63.2c-2.8-2.6-5.2-5.6-7.1-9-2-3.4-3.2-6.9-3.7-10.4,2.6,4.8,5.7,8.6,9.4,11.3,3.7,2.7,8.4,5.1,14.1,7l-4,6.9c-3-1.3-5.9-3.3-8.7-5.9ZM711.1,3.5v10.5l-6.3,2.6V.9l6.3,2.6h0ZM716.3,44.4h-5.7v-19.8l5.7-2.6v22.4Z"/>
  <path class="st0" d="M802.4,12.9l2.9-1.3-1.6,3.2h-53.8l-.7-2h53.2ZM764.6,26.7v39.5l-5.7,2.6V24.2l5.7,2.6h0ZM791.4,62.3v1.9h-29.3l-.7-2h29.9ZM764.7,5.8c-.9-2.2-2-4-3.1-5.3,2.4,1,4.6,2.3,6.7,3.9,2,1.6,3.6,3.2,4.6,5l-5.9,3.3c-.6-2.4-1.3-4.7-2.2-6.9h0ZM783.5,38.1l2.9-1.3-1.6,3.2h-22l-.7-2h21.5ZM783.5,49.9l2.9-1.3-1.6,3.2h-22l-.7-2h21.5ZM777,23.9c4.9,0,9.9.9,15,2.7v1.9c-4.9-1.8-9.8-2.6-14.8-2.6s-9.8.9-14.5,2.6l-.6-2c5-1.8,9.9-2.6,14.9-2.6h0ZM773.5,20.8c-1.5,2.4-3.2,4.3-5.1,5.8,1.1-2.8,1.7-5.7,1.7-8.7s0-2.7-.3-3.8h6.9c-.6,2.1-1.7,4.3-3.1,6.7ZM788.2,8.2c-1.8,1.6-4.2,3.3-7.2,5.1,1.3-2,2.4-4,3.2-6.3.8-2.2,1.3-4.4,1.5-6.5l6.2,2.7c-.7,1.8-2,3.4-3.7,5h0ZM794.5,24.2v44.6l-5.7-2.6V26.7l5.7-2.6h0Z"/>
  <path class="st0" d="M838.5,24l2.9-1.3-1.6,3.2h-11l-.7-2h10.4c0,0,0,0,0,0ZM833.7,58.9c2.1-1.6,4.8-3.1,8.1-4.3-2.1,2.5-3.7,5-4.9,7.4-1.2,2.4-2.3,5.2-3.3,8.3l-5.6-5.3c1.6-2.4,3.5-4.5,5.6-6h0ZM835.2,9.1c-1.4-2.9-2.9-5.2-4.6-6.9,2.5,1.2,5,2.9,7.5,5.2,2.5,2.2,4.5,4.5,6.1,6.7l-5.6,4.1c-.9-3.2-2.1-6.2-3.5-9.2h0ZM842.9,57.9h-5.8V24.1l5.8-2.6v36.3ZM870.5,68.6c-7.4,0-14.1-1.2-20.2-3.7-6-2.5-10.1-6.8-12.2-12.8,2.8,4,6.9,6.9,12.2,8.6,5.3,1.7,11.1,2.6,17.4,2.6s6.3-.2,9.3-.6c3-.4,5.5-.9,7.5-1.5l-2.5,6.4c-3.7.7-7.6,1-11.6,1h0ZM854.9,55c-3.1,1.6-6.5,2.8-10,3.6,5.8-3.5,9.9-7.9,12.3-13l5.2,4.2c-1.9,1.9-4.4,3.7-7.5,5.2ZM880.1,43.5l2.9-1.3-1.6,3.2h-34.4l-.7-2h33.8c0,0,0,0,0,0ZM878.4,33.8l2.9-1.3-1.5,3.3h-31.9l-.7-2h31.2ZM852.2,3.4v7.1c0,4.4.2,7.4.5,9,.3,1.6,1.4,2.8,3.2,3.7,1.8.8,5,1.5,9.6,1.9-2.8.4-5.2.7-7.1.7-3.1,0-5.3-.5-6.8-1.6-1.5-1.1-2.5-2.7-3-4.9-.5-2.2-.7-5.2-.7-9.2V.9l4.4,2.6h0ZM856.2,3.9c-.7-.2-1.5-.4-2.2-.4s-1.3.1-2.1.4c-.7.3-1.8.7-3,1.2v-2c1.3-.5,2.3-.9,3-1.2.7-.2,1.4-.4,2-.4s1.4.1,2.2.4c.7.3,1.8.7,3,1.2v1.9c-1.2-.6-2.2-1-3-1.2ZM849.6,12.9v-2h9.5v2h-9.5ZM859.9,29.5v15.3h-5.1v-17.8l5.1,2.6h0ZM861.2,16.4l-4.5-2.6V3.3l4.5-2.6v15.7ZM869.5,3.8v7.1c0,4.4.2,7.4.5,9,.3,1.6,1.4,2.8,3.2,3.7,1.8.8,5,1.4,9.6,1.8-3.2.5-5.6.7-7.3.7-3,0-5.2-.5-6.7-1.6s-2.4-2.7-2.9-4.9c-.5-2.2-.7-5.2-.7-9.2V1.3l4.4,2.6h0ZM870.8,51.1c-1.4-1.7-3.1-3.3-5.2-4.7,3.5,1,6.5,2.1,8.8,3.3,2.3,1.2,4.5,2.8,6.5,4.8l-4,5.2c-2.6-4-4.6-6.9-6-8.6ZM867,13.3v-2h9.5v2h-9.5ZM874.5,4.5c-.7-.2-1.5-.4-2.2-.4s-1.3.1-2,.4c-.7.3-1.8.7-3.1,1.2v-2c1.3-.5,2.3-.9,3-1.2.7-.2,1.4-.4,2-.4s1.4.1,2.2.4c.7.3,1.8.7,3,1.2v1.9c-1.2-.6-2.2-1-3-1.2ZM873.6,29.8v15.1h-5.1v-17.7l5.1,2.6ZM879.3,16.9l-4.5-2.6V3.7l4.5-2.6v15.7Z"/>
</svg>