<?xml version="1.0" encoding="UTF-8"?>
<svg id="_圖層_1" data-name="圖層_1" xmlns="http://www.w3.org/2000/svg" xmlns:xlink="http://www.w3.org/1999/xlink" version="1.1" viewBox="0 0 995 185">
  <!-- Generator: Adobe Illustrator 29.4.0, SVG Export Plug-In . SVG Version: 2.1.0 Build 152)  -->
  <defs>
    <style>
      .st0 {
        fill: url(#_未命名漸層);
      }

      .st1 {
        fill: url(#_未命名漸層_14);
      }

      .st2 {
        fill: url(#_未命名漸層_19);
      }

      .st3 {
        fill: url(#_未命名漸層_13);
      }

      .st4 {
        fill: url(#_未命名漸層_18);
      }

      .st5 {
        fill: url(#_未命名漸層_16);
      }

      .st6 {
        fill: url(#_未命名漸層_15);
      }

      .st7 {
        fill: url(#_未命名漸層_12);
      }

      .st8 {
        fill: url(#_未命名漸層_17);
      }

      .st9 {
        fill: url(#_未命名漸層_20);
      }

      .st10 {
        fill: url(#_未命名漸層_10);
      }

      .st11 {
        fill: url(#_未命名漸層_11);
      }

      .st12 {
        fill: url(#_未命名漸層_7);
      }

      .st13 {
        fill: url(#_未命名漸層_8);
      }

      .st14 {
        fill: url(#_未命名漸層_5);
      }

      .st15 {
        fill: url(#_未命名漸層_6);
      }

      .st16 {
        fill: url(#_未命名漸層_9);
      }

      .st17 {
        fill: url(#_未命名漸層_2);
      }

      .st18 {
        fill: url(#_未命名漸層_3);
      }

      .st19 {
        fill: url(#_未命名漸層_4);
      }
    </style>
    <linearGradient id="_未命名漸層" data-name="未命名漸層" x1="133.6" y1="186" x2="133.6" y2="115.1" gradientTransform="translate(0 186) scale(1 -1)" gradientUnits="userSpaceOnUse">
      <stop offset=".4" stop-color="#fff"/>
      <stop offset="1" stop-color="#fff" stop-opacity=".2"/>
    </linearGradient>
    <linearGradient id="_未命名漸層_2" data-name="未命名漸層 2" x1="181.7" y1="150.5" x2="232.7" y2="150.5" gradientTransform="translate(0 186) scale(1 -1)" gradientUnits="userSpaceOnUse">
      <stop offset=".4" stop-color="#fff"/>
      <stop offset="1" stop-color="#fff" stop-opacity=".2"/>
    </linearGradient>
    <linearGradient id="_未命名漸層_3" data-name="未命名漸層 3" x1="268.7" y1="184.8" x2="268.7" y2="116.2" gradientTransform="translate(0 186) scale(1 -1)" gradientUnits="userSpaceOnUse">
      <stop offset=".4" stop-color="#fff"/>
      <stop offset="1" stop-color="#fff" stop-opacity=".2"/>
    </linearGradient>
    <linearGradient id="_未命名漸層_4" data-name="未命名漸層 4" x1="326.9" y1="184.8" x2="326.9" y2="116.2" gradientTransform="translate(0 186) scale(1 -1)" gradientUnits="userSpaceOnUse">
      <stop offset=".4" stop-color="#fff"/>
      <stop offset="1" stop-color="#fff" stop-opacity=".2"/>
    </linearGradient>
    <linearGradient id="_未命名漸層_5" data-name="未命名漸層 5" x1="403.8" y1="184.8" x2="403.8" y2="116.2" gradientTransform="translate(0 186) scale(1 -1)" gradientUnits="userSpaceOnUse">
      <stop offset=".4" stop-color="#fff"/>
      <stop offset="1" stop-color="#fff" stop-opacity=".2"/>
    </linearGradient>
    <linearGradient id="_未命名漸層_6" data-name="未命名漸層 6" x1="463" y1="150.5" x2="514" y2="150.5" gradientTransform="translate(0 186) scale(1 -1)" gradientUnits="userSpaceOnUse">
      <stop offset=".4" stop-color="#fff"/>
      <stop offset="1" stop-color="#fff" stop-opacity=".2"/>
    </linearGradient>
    <linearGradient id="_未命名漸層_7" data-name="未命名漸層 7" x1="564.2" y1="184.8" x2="564.2" y2="116.2" gradientTransform="translate(0 186) scale(1 -1)" gradientUnits="userSpaceOnUse">
      <stop offset=".4" stop-color="#fff"/>
      <stop offset="1" stop-color="#fff" stop-opacity=".2"/>
    </linearGradient>
    <linearGradient id="_未命名漸層_8" data-name="未命名漸層 8" x1="676.9" y1="184.8" x2="676.9" y2="116.2" gradientTransform="translate(0 186) scale(1 -1)" gradientUnits="userSpaceOnUse">
      <stop offset=".4" stop-color="#fff"/>
      <stop offset="1" stop-color="#fff" stop-opacity=".2"/>
    </linearGradient>
    <linearGradient id="_未命名漸層_9" data-name="未命名漸層 9" x1="762.9" y1="184.8" x2="762.9" y2="116.2" gradientTransform="translate(0 186) scale(1 -1)" gradientUnits="userSpaceOnUse">
      <stop offset=".4" stop-color="#fff"/>
      <stop offset="1" stop-color="#fff" stop-opacity=".2"/>
    </linearGradient>
    <linearGradient id="_未命名漸層_10" data-name="未命名漸層 10" x1="854.1" y1="184.8" x2="854.1" y2="116.2" gradientTransform="translate(0 186) scale(1 -1)" gradientUnits="userSpaceOnUse">
      <stop offset=".4" stop-color="#fff"/>
      <stop offset="1" stop-color="#fff" stop-opacity=".2"/>
    </linearGradient>
    <linearGradient id="_未命名漸層_11" data-name="未命名漸層 11" x1="133.6" y1="71.5" x2="133.6" y2="2.9" gradientTransform="translate(0 186) scale(1 -1)" gradientUnits="userSpaceOnUse">
      <stop offset=".4" stop-color="#fff"/>
      <stop offset="1" stop-color="#fff" stop-opacity=".2"/>
    </linearGradient>
    <linearGradient id="_未命名漸層_12" data-name="未命名漸層 12" x1="204.1" y1="71.5" x2="204.1" y2="2.9" gradientTransform="translate(0 186) scale(1 -1)" gradientUnits="userSpaceOnUse">
      <stop offset=".4" stop-color="#fff"/>
      <stop offset="1" stop-color="#fff" stop-opacity=".2"/>
    </linearGradient>
    <linearGradient id="_未命名漸層_13" data-name="未命名漸層 13" x1="274.6" y1="72.6" x2="274.6" y2="1.7" gradientTransform="translate(0 186) scale(1 -1)" gradientUnits="userSpaceOnUse">
      <stop offset=".4" stop-color="#fff"/>
      <stop offset="1" stop-color="#fff" stop-opacity=".2"/>
    </linearGradient>
    <linearGradient id="_未命名漸層_14" data-name="未命名漸層 14" x1="357.9" y1="71.5" x2="357.9" y2="2.9" gradientTransform="translate(0 186) scale(1 -1)" gradientUnits="userSpaceOnUse">
      <stop offset=".4" stop-color="#fff"/>
      <stop offset="1" stop-color="#fff" stop-opacity=".2"/>
    </linearGradient>
    <linearGradient id="_未命名漸層_15" data-name="未命名漸層 15" x1="447.1" y1="71.4" x2="447.1" y2="2.8" gradientTransform="translate(0 186) scale(1 -1)" gradientUnits="userSpaceOnUse">
      <stop offset=".4" stop-color="#fff"/>
      <stop offset="1" stop-color="#fff" stop-opacity=".2"/>
    </linearGradient>
    <linearGradient id="_未命名漸層_16" data-name="未命名漸層 16" x1="538.7" y1="72.6" x2="538.7" y2="1.7" gradientTransform="translate(0 186) scale(1 -1)" gradientUnits="userSpaceOnUse">
      <stop offset=".4" stop-color="#fff"/>
      <stop offset="1" stop-color="#fff" stop-opacity=".2"/>
    </linearGradient>
    <linearGradient id="_未命名漸層_17" data-name="未命名漸層 17" x1="620.4" y1="71.5" x2="620.4" y2="2.9" gradientTransform="translate(0 186) scale(1 -1)" gradientUnits="userSpaceOnUse">
      <stop offset=".4" stop-color="#fff"/>
      <stop offset="1" stop-color="#fff" stop-opacity=".2"/>
    </linearGradient>
    <linearGradient id="_未命名漸層_18" data-name="未命名漸層 18" x1="691.2" y1="72.6" x2="691.2" y2="1.7" gradientTransform="translate(0 186) scale(1 -1)" gradientUnits="userSpaceOnUse">
      <stop offset=".4" stop-color="#fff"/>
      <stop offset="1" stop-color="#fff" stop-opacity=".2"/>
    </linearGradient>
    <linearGradient id="_未命名漸層_19" data-name="未命名漸層 19" x1="778.5" y1="72.6" x2="778.5" y2="1.7" gradientTransform="translate(0 186) scale(1 -1)" gradientUnits="userSpaceOnUse">
      <stop offset=".4" stop-color="#fff"/>
      <stop offset="1" stop-color="#fff" stop-opacity=".2"/>
    </linearGradient>
    <linearGradient id="_未命名漸層_20" data-name="未命名漸層 20" x1="858.4" y1="71.5" x2="858.4" y2="2.9" gradientTransform="translate(0 186) scale(1 -1)" gradientUnits="userSpaceOnUse">
      <stop offset=".4" stop-color="#fff"/>
      <stop offset="1" stop-color="#fff" stop-opacity=".2"/>
    </linearGradient>
  </defs>
  <path class="st0" d="M113.1,57.9c1.9,1.8,4.7,3.2,8.3,4.3,3.6,1.2,7,1.8,10,1.8,10,0,15-3.6,15-10.9s-.5-3.9-1.6-5.4-2.4-3-4.2-4.1c-1.8-1.2-5.2-3.1-10.4-5.7-7.4-3.8-12.2-7.1-14.1-10-2-2.8-3-6-3-9.6,0-5.5,2.2-9.9,6.7-13.2C124.4,1.7,130,0,136.8,0s11.7.8,14.6,2.4v8.7c-4-2.8-9.2-4.2-15.6-4.2s-7.9.9-10.6,2.8c-2.7,1.8-4.1,4.4-4.1,7.8s.5,3.9,1.4,5.4,2.3,2.9,3.9,4,4.9,2.9,9.6,5.3c6.7,3.3,11.4,6.6,14.1,9.8,2.7,3.2,4,6.7,4,10.7,0,5.8-2.1,10.4-6.4,13.5-4.3,3.2-10.2,4.8-17.9,4.8s-5.4-.4-9.1-1.2c-3.7-.8-6.4-1.7-7.9-2.8v-9.1h0Z"/>
  <path class="st17" d="M232.7,66.8c-5,2.7-11.3,4.1-18.9,4.1s-17.4-3.2-23.3-9.5c-5.9-6.3-8.8-14.5-8.8-24.6s3.2-19.3,9.7-26.3c6.5-7,14.9-10.5,25.2-10.5s11.9,1,16.1,2.8v8.2c-4.9-2.7-10.4-4.1-16.3-4.1s-14.7,2.7-19.5,8.2c-4.8,5.5-7.3,12.6-7.3,21.2s2.3,14.9,6.8,20c4.6,5.2,10.6,7.7,18.3,7.7s12.9-1.5,18-4.6v7.3h0Z"/>
  <path class="st18" d="M272.5,69.8h-7.5V1.2h7.5v68.6Z"/>
  <path class="st19" d="M344.9,69.8h-36.1V1.2h34.5v6.9h-27v23.3h24.9v6.9h-24.9v24.5h28.5v6.9Z"/>
  <path class="st14" d="M431.2,69.8h-9.5l-35.8-55.4c-.8-1.3-1.5-2.7-2.1-4.1h-.3c.2,1.4.3,4.5.3,9.2v50.3h-7.6V1.2h10l34.8,54.8c1.8,2.8,2.7,4.4,2.8,4.7h.2c-.3-2.3-.5-5.7-.5-10.3V1.2h7.6v68.6h0Z"/>
  <path class="st15" d="M514,66.8c-5,2.7-11.3,4.1-18.9,4.1s-17.4-3.2-23.3-9.5c-5.9-6.3-8.8-14.5-8.8-24.6s3.2-19.3,9.7-26.3c6.5-7,14.9-10.5,25.2-10.5s11.9,1,16.1,2.8v8.2c-4.9-2.7-10.4-4.1-16.3-4.1s-14.7,2.7-19.5,8.2c-4.9,5.5-7.3,12.6-7.3,21.2s2.3,14.9,6.8,20c4.6,5.2,10.6,7.7,18.3,7.7s12.9-1.5,18-4.6v7.3h0Z"/>
  <path class="st12" d="M582.3,69.8h-36.1V1.2h34.5v6.9h-27v23.3h24.9v6.9h-24.9v24.5h28.5v6.9Z"/>
  <path class="st13" d="M707.1,69.8h-8.4l-7.4-19.5h-29.4l-6.9,19.5h-8.4L673,1.2h7.7l26.5,68.6ZM688.8,43.4l-11-29.6c-.3-.8-.6-2.3-1-4.5h-.2c-.3,2-.7,3.5-1.1,4.5l-10.9,29.6h24.2Z"/>
  <path class="st16" d="M790.4,69.8h-9.5l-35.8-55.4c-.8-1.3-1.5-2.7-2.1-4.1h-.3c.2,1.4.3,4.5.3,9.2v50.3h-7.6V1.2h10l34.8,54.8c1.8,2.8,2.7,4.4,2.8,4.7h.2c-.3-2.3-.5-5.7-.5-10.3V1.2h7.6v68.6h0Z"/>
  <path class="st10" d="M826.7,69.8V1.2h18.6c24.1,0,36.2,11.1,36.2,33.4s-3.3,19.2-9.7,25.6c-6.5,6.4-15.6,9.6-27.2,9.6h-17.9ZM834.2,8.1v54.8h10.5c9.1,0,16.2-2.4,21.3-7.3,5.1-4.9,7.6-11.8,7.6-20.7,0-17.8-9.5-26.8-28.5-26.8h-10.9Z"/>
  <path class="st11" d="M157.1,121.4h-19.8v61.7h-7.6v-61.7h-19.8v-6.9h47.1v6.9Z"/>
  <path class="st7" d="M222.2,183.1h-36.1v-68.6h34.5v6.9h-27v23.3h24.9v6.9h-24.9v24.5h28.5v6.9Z"/>
  <path class="st3" d="M300.1,180.2c-5,2.7-11.3,4.1-18.9,4.1s-17.4-3.2-23.3-9.5c-5.9-6.4-8.8-14.5-8.8-24.6s3.2-19.3,9.7-26.3c6.5-7,14.9-10.5,25.2-10.5s11.9,1,16.1,2.8v8.2c-4.9-2.7-10.4-4.1-16.3-4.1s-14.7,2.7-19.5,8.2c-4.8,5.5-7.3,12.6-7.3,21.2s2.3,14.9,6.8,20c4.5,5.2,10.6,7.7,18.3,7.7s12.9-1.5,18-4.6v7.3h0Z"/>
  <path class="st1" d="M383.4,183.1h-7.5v-31.5h-35.9v31.5h-7.5v-68.6h7.5v30.3h35.9v-30.3h7.5v68.6Z"/>
  <path class="st6" d="M474.5,183.1h-9.5l-35.8-55.4c-.8-1.3-1.5-2.7-2.1-4.1h-.3c.2,1.4.3,4.5.3,9.2v50.3h-7.6v-68.6h10l34.8,54.8c1.8,2.8,2.7,4.4,2.8,4.7h.2c-.3-2.3-.5-5.7-.5-10.3v-49.2h7.6v68.6h0Z"/>
  <path class="st5" d="M506.3,149.6c0-11,3-19.8,9-26.4,6-6.6,14.1-9.9,24.2-9.9s17,3.2,22.8,9.6c5.8,6.4,8.7,14.7,8.7,24.9s-2.9,19.8-8.8,26.4c-5.8,6.7-13.8,10-23.9,10s-17.4-3.2-23.3-9.7c-5.8-6.5-8.8-14.8-8.8-24.9h0ZM514.2,149c0,8.2,2.2,15.1,6.6,20.4,4.4,5.4,10.2,8.1,17.5,8.1s13.9-2.5,18.3-7.6c4.3-5.1,6.5-12,6.5-20.7s-2.1-16.1-6.3-21.2c-4.2-5.1-10.2-7.6-17.9-7.6s-13.5,2.7-18,8.1c-4.5,5.4-6.7,12.3-6.7,20.5h0Z"/>
  <path class="st8" d="M638,183.1h-35.3v-68.6h7.5v61.7h27.7v6.9h0Z"/>
  <path class="st4" d="M658.9,149.6c0-11,3-19.8,9-26.4,6-6.6,14.1-9.9,24.2-9.9s17,3.2,22.8,9.6c5.8,6.4,8.7,14.7,8.7,24.9s-2.9,19.8-8.8,26.4c-5.8,6.6-13.8,10-23.9,10s-17.4-3.2-23.3-9.7c-5.8-6.5-8.8-14.8-8.8-24.9h0ZM666.8,149c0,8.2,2.2,15.1,6.6,20.4,4.4,5.4,10.2,8.1,17.5,8.1s13.9-2.5,18.3-7.6c4.3-5.1,6.5-12,6.5-20.7s-2.1-16.1-6.3-21.2c-4.2-5.1-10.2-7.6-17.9-7.6s-13.5,2.7-18,8.1c-4.5,5.4-6.7,12.3-6.7,20.5h0Z"/>
  <path class="st2" d="M806.3,178.4c-6.9,3.9-14.5,5.8-22.8,5.8s-17.6-3.2-23.6-9.5c-6-6.4-9-14.7-9-25s3.3-19.3,10-26.1c6.7-6.8,15.1-10.3,25.4-10.3s13.8,1.2,18.7,3.7v8.6c-5.5-3.5-12-5.3-19.7-5.3s-14.1,2.6-19.1,8c-5,5.3-7.5,12.3-7.5,20.8s2.3,15.6,6.9,20.7c4.6,5,10.9,7.6,18.9,7.6s10.3-1.1,14.2-3.3v-19.6h-15.1v-6.9h22.7v30.9h0Z"/>
  <path class="st9" d="M884.6,114.5l-22.6,43.2v25.4h-7.6v-25.2l-22.1-43.3h8.6l15.6,31.4c.2.5.8,1.8,1.7,4.1h.1c.3-1,1-2.4,1.9-4.1l16.4-31.4h8Z"/>
</svg>