<?xml version="1.0" encoding="UTF-8"?>
<svg id="_圖層_1" data-name="圖層_1" xmlns="http://www.w3.org/2000/svg" version="1.1" viewBox="0 0 995 44">
  <!-- Generator: Adobe Illustrator 29.4.0, SVG Export Plug-In . SVG Version: 2.1.0 Build 152)  -->
  <defs>
    <style>
      .st0 {
        fill: #fff;
      }
    </style>
  </defs>
  <path class="st0" d="M812.1,1.6l.9,1.8c-2.3.8-4.6,1.5-7,2.1v7.6h7.9v1.8h-7.9v28.1h-2v-22.8c-.7,2.1-1.5,4-2.4,5.7-1.2,2.4-2.7,4.7-4.6,6.9l-1.6-1.4c1.9-2.2,3.7-4.9,5.3-8.1,1.3-2.7,2.3-5.5,2.9-8.3h-7.6v-1.8h7.9v-7.2c-2.3.6-4.7,1.1-7.2,1.4l-.7-2c5.8-.8,11.2-2.1,16-3.8ZM808.1,17.5c1.9,2.4,3.5,5,4.8,7.9l-1.8,1.2c-1.2-2.8-2.7-5.5-4.7-8.1l1.6-1.1ZM818,5c3.2,2.1,6.1,4.5,8.8,7.2l-1.4,1.8c-2.8-2.9-5.6-5.5-8.6-7.6l1.2-1.4ZM815.7,15.7c3.3,2.1,6.3,4.6,9,7.4l-1.4,1.8c-2.8-3-5.8-5.6-8.8-7.7l1.2-1.4ZM837.6,26.3l.2,2-6.7,1.1v13.6h-2.2v-13.3l-17.8,3v-2c-.1,0,17.8-3,17.8-3V.7h2.2v26.7l6.5-1.1Z"/>
  <path class="st0" d="M746.1,1.2l2.2.6c-.6,3.3-1.6,6.5-2.8,9.5h12.9v2h-7.9v29.7h-2.2V13.3h-3.5c-1.8,4.1-3.7,7.6-5.8,10.6l-1.4-1.4c1.8-2.7,3.5-5.8,5-9.2,1.5-3.5,2.7-7.5,3.6-12ZM763.9,1.2l2.2.6c-.6,3.3-1.5,6.5-2.6,9.5h16.3v2h-7.4v25c0,2.6-1.3,4-4,4s-3.5-.2-5-.6l-.2-2.4c1.8.5,3.5.7,5.2.7s1.8-.8,1.8-2.4V13.3h-7.4c0,0,0,.2,0,.2-1.7,4.2-3.6,8-5.7,11.1l-1.4-1.4c1.8-2.8,3.4-6,4.8-9.5,1.4-3.6,2.6-7.8,3.5-12.4Z"/>
  <path class="st0" d="M685.7,2.9h29.9v17.5h-8.7c3.3,3.4,8.4,6.5,15.3,9.4l-1.8,2.2c-7.3-3.4-12.7-7.3-16.2-11.5h-7.8c-3.4,4.2-8.5,8-15.5,11.3l-1.8-1.6c6.7-2.9,11.6-6.1,14.7-9.7h-8.1V2.9ZM687.7,18.5h11.9v-6.1h-11.9v6.1ZM701.5,12.4v6.1h12.1v-6.1h-12.1ZM687.7,10.6h11.9v-5.9h-11.9v5.9ZM701.5,4.7v5.9h12.1v-5.9h-12.1ZM693,26.1l2,.2c-.1,3.6-.6,6.5-1.6,8.5-1,2.2-2.4,3.8-4.2,5.1-1.9,1.4-4.2,2.4-7,3l-.9-1.8c2.5-.6,4.7-1.5,6.4-2.7,1.7-1.1,2.9-2.7,3.8-4.6.8-1.8,1.3-4.4,1.4-7.6ZM706.7,26.1h2.2v16.9h-2.2v-16.9Z"/>
  <path class="st0" d="M621.2,12.9h6.8V3.8h2.5v9.2h9.2V.7h2.4v12.3h11V.7h2.4v12.3h8.4v2.2h-8.4v14.7h-15.7v-14.7h-9.2v22.1h31.8v2.2h-31.8v3.5h-2.5V15.1h-6.8v-2.2ZM642,15.1v12.6h11v-12.6h-11Z"/>
  <path class="st0" d="M584.5,16c.9,0,1.8.2,2.5.6.7.4,1.3,1,1.8,1.8.4.7.6,1.6.6,2.5s-.2,1.7-.6,2.5c-.4.7-1,1.3-1.8,1.8-.7.4-1.6.6-2.5.6s-1.7-.2-2.5-.6c-.7-.4-1.3-1-1.8-1.8-.4-.8-.6-1.6-.6-2.5s.2-1.8.6-2.5c.4-.7,1-1.3,1.8-1.8.8-.4,1.6-.6,2.5-.6Z"/>
  <path class="st0" d="M523.9.4l2.2.9c-.9,1.7-1.9,3.1-2.9,4.3h14.3v2c-2.6,4.7-6.2,8.4-10.8,11.3-5,3.2-11.2,5.9-18.9,8.2l-.9-2.2c6.5-1.8,11.8-4,16.2-6.4-1.5-1.9-3.3-3.8-5.6-5.5l1.8-1.2c2.3,1.7,4.3,3.5,5.9,5.6.4-.2.7-.5,1.1-.7,4-2.7,6.8-5.7,8.6-9h-13.3c-1,1-2,1.9-3,2.7-2.9,2.2-6.4,4.1-10.5,5.6l-1.1-2c4-1.5,7.3-3.2,10-5.3,2.7-2,5-4.7,7.1-8.2ZM533.1,15.1l2.2.9c-1.1,1.7-2.1,3.2-3.2,4.5h14v2c-3.1,5-7.6,9-13.2,12-6.1,3.4-13.8,6.3-23.1,8.7l-.9-2.2c8.2-2,15-4.3,20.5-7-1.2-1.8-2.7-3.4-4.5-5l1.8-1.3c1.8,1.7,3.5,3.4,4.8,5.2.4-.2.8-.4,1.2-.7,4.9-2.9,8.5-6.1,10.6-9.7h-13c-1.4,1.4-2.8,2.6-4.3,3.6-3.5,2.4-7.7,4.5-12.7,6.3l-1.1-2c4.9-1.7,8.9-3.6,12.2-5.9,3.2-2.3,6.1-5.4,8.7-9.4Z"/>
  <path class="st0" d="M465.9,0c1.8,1.8,3.4,3.9,4.7,6.1l-1.5,1.1h20.6v2.2h-20.1v8.3h15.7v16.5c0,2.4-1.2,3.6-3.6,3.6s-3.9-.4-6.3-1.2l-.2-2.2c2.5,1,4.7,1.4,6.5,1.4s1.2-.6,1.2-2v-14h-13.3v23.2h-2.4v-23.2h-12.8v18.5h-2.4v-20.7h15.1v-8.3h-20.1v-2.2h21.4c-1.1-2.1-2.5-4.1-4.3-5.9l1.8-1.2Z"/>
  <path class="st0" d="M397.5.6l2.2.3c-.5,3.4-1,6.7-1.7,9.9h8c-.2,4.8-1,9.4-2.4,13.6-.6,1.9-1.3,3.7-2,5.3,2.2,1.6,4.2,3.2,6,4.9l-1.2,2c-1.8-1.7-3.7-3.3-5.8-4.8-.7,1.3-1.5,2.5-2.3,3.5-2.1,3-4.7,5.3-8,7.2l-1.2-1.6c3-1.9,5.4-4.1,7.4-6.6.8-1.1,1.7-2.3,2.4-3.7-1.9-1.2-3.9-2.4-6-3.5-.4,1-.8,2-1.3,2.9l-2-.7c2.4-5.1,4.2-10.6,5.7-16.4h-5.9v-2h6.3c.7-3.3,1.3-6.7,1.8-10.2ZM399.8,28.4c.6-1.3,1.1-2.7,1.6-4.2,1.2-3.6,1.9-7.4,2.3-11.4h-6.2c-1,4.2-2.3,8.3-3.8,12.1,2.2,1.1,4.2,2.3,6.1,3.5ZM407.1,2.7h21.8v1.8c-2.9,5.2-6.2,9.6-10.1,13.1.2.7.3,1.5.5,2.2h12.3v2h-11.9c0,.1,0,.3,0,.4.6,4.3.9,8.2.9,11.8s-.4,6-1.2,7.1c-.7.8-1.6,1.2-2.8,1.2-1.9,0-4-.4-6.1-1.1v-2.3c2,.8,4,1.2,5.6,1.2s1.2-.2,1.6-.6c.5-.6.7-2.4.7-5.5s-.3-8.4-.8-11.9c0,0,0-.2,0-.3h-11.7v-2h11.4c-.5-2.6-1.1-5-1.8-7.1l1.6-.9c.4,1.2.8,2.3,1.2,3.5,3-2.9,5.8-6.5,8.2-10.7h-19.2v-2Z"/>
  <path class="st0" d="M352.3,16c.9,0,1.8.2,2.5.6.7.4,1.3,1,1.8,1.8.4.7.6,1.6.6,2.5s-.2,1.7-.6,2.5c-.4.7-1,1.3-1.8,1.8-.7.4-1.6.6-2.5.6s-1.7-.2-2.5-.6c-.7-.4-1.3-1-1.8-1.8-.4-.8-.6-1.6-.6-2.5s.2-1.8.6-2.5c.4-.7,1-1.3,1.8-1.8.8-.4,1.6-.6,2.5-.6Z"/>
  <path class="st0" d="M276.6,2.4c2.7,1.6,5.2,3.5,7.4,5.6l-1.2,1.6c-2.3-2.2-4.7-4.1-7.2-5.8l1.1-1.4ZM273.9,12.8c2.8,1.7,5.4,3.7,7.7,5.9l-1.2,1.6c-2.4-2.4-5-4.4-7.6-6.1l1.1-1.4ZM280,23.9l1.6,1.1c-1.5,5.8-3.7,11.5-6.6,17.3l-1.8-1.3c2.9-5.2,5.3-10.9,6.9-17.1ZM282.8,11h6.9V.7h2v10.3h6.6v1.8h-6.6v8.5h5v15.7h-2v-2.7h-8.1v4.1h-2v-17.1h5.1v-8.5h-6.9v-1.8ZM286.6,32.4h8.1v-9.4h-8.1v9.4ZM304.5,3.2h8.1v36c0,1.9-1,2.9-3,2.9s-3.6-.3-5.6-.7v-2c2.2.5,4.1.7,5.6.7s1.1-.5,1.1-1.4v-12.6h-8.2c-.3,2.4-.7,4.7-1.4,6.9-.9,3.2-2.4,6.5-4.4,9.9l-1.6-1.1c2.2-3.9,3.7-7.3,4.5-10.4.8-3.6,1.2-7.2,1.2-10.8V3.2h3.8ZM302.5,24.3h8.1v-8.6h-7.9v4.8c0,1.3,0,2.6-.2,3.8ZM302.7,13.9h7.9V5.2h-7.9v8.7Z"/>
  <path class="st0" d="M221.2,15.9l2.2,1.1c-1.2,6.2-3.4,11.8-6.5,16.9l-2-1.2c3-5.3,5.1-10.8,6.3-16.7ZM227.3,11.3h2.4v24.8c0,1.3.2,2.1.7,2.2.6.5,3.6.7,9.2.7s4.2-.6,4.9-1.7c.6-.6,1.2-4,1.7-10.2l2.2.9c-.6,6.3-1.3,9.9-2.2,10.8-.8,1.5-3,2.3-6.6,2.3-6.4,0-10-.3-11-1-.9-.5-1.3-1.4-1.3-2.8V11.3ZM231.5.9c4.2,3.3,8.1,7.2,11.5,11.7l-1.6,2c-3.6-4.7-7.4-8.7-11.3-12l1.4-1.7ZM250.4,15.9c2.8,5.2,5.1,10.8,7,16.9l-2.5,1.1c-1.8-6.2-3.9-11.8-6.5-16.7l2-1.2Z"/>
  <path class="st0" d="M158.1,4.5h7.7V.7h2v3.8h7.6v1.8h-7.6v3.4h6.3v1.8h-6.3v4h9v1.8h-19.8v-1.8h8.8v-4h-6.3v-1.8h6.3v-3.4h-7.7v-1.8ZM174.1,20.7v18.4c0,2.1-1.1,3.2-3.1,3.2s-2.3-.2-3.6-.6v-2c1.4.5,2.6.7,3.6.7s1.1-.6,1.1-1.8v-4.1h-10.1v8.4h-2v-22.3h14.1ZM162.1,32.8h10.1v-4.5h-10.1v4.5ZM162.1,26.5h10.1v-4h-10.1v4ZM197.7,1.2l.9,1.8c-6.5.8-13.8,1.4-21.8,1.8l-.7-2c7.8-.4,15-.9,21.6-1.6ZM179,6.3c1.3,2.2,2.4,4.6,3.2,7.2l-1.8.7c-.8-2.6-1.8-4.9-2.9-7l1.4-.9ZM186,5.8c1.1,2.3,2,4.7,2.7,7.4l-2,.7c-.6-2.6-1.3-5-2.2-7.1l1.4-1.1ZM194.1,5.4l2,.6c-.6,2.8-1.7,5.6-3,8.4l-1.8-.9c1.3-2.8,2.3-5.5,2.9-8.1ZM178.4,15.9h17.5v6.6h3.6v1.8h-3.6v6.9h-8.1v7c0,2.8-1,4.1-3,4.1s-3.1-.2-4.5-.6l-.2-2.2c1.6.5,3.1.7,4.7.7s1.1-.8,1.1-2.4v-6.8h-7.6v-1.8h7.6v-5.1h-10v-1.8h10v-4.8h-7.4v-1.8ZM187.8,17.6v4.8h6.1v-4.8h-6.1ZM187.8,24.3v5.1h6.1v-5.1h-6.1Z"/>
</svg>