<?xml version="1.0" encoding="UTF-8"?>
<svg id="_圖層_1" data-name="圖層_1" xmlns="http://www.w3.org/2000/svg" xmlns:xlink="http://www.w3.org/1999/xlink" version="1.1" viewBox="0 0 800 724">
  <!-- Generator: Adobe Illustrator 29.4.0, SVG Export Plug-In . SVG Version: 2.1.0 Build 152)  -->
  <defs>
    <style>
      .st0 {
        fill: none;
      }

      .st1 {
        mask: url(#mask);
      }

      .st2 {
        fill: url(#_未命名漸層);
      }

      .st3 {
        fill: #fff;
      }
    </style>
    <linearGradient id="_未命名漸層" data-name="未命名漸層" x1="399.5" y1="726" x2="399.5" y2="2.6" gradientTransform="translate(0 726) scale(1 -1)" gradientUnits="userSpaceOnUse">
      <stop offset="0" stop-color="#fff"/>
      <stop offset=".5" stop-color="#fff" stop-opacity="0"/>
    </linearGradient>
    <mask id="mask" x="104.5" y="45.9" width="548.2" height="522.2" maskUnits="userSpaceOnUse">
      <g id="mask0_2008_27">
        <path class="st3" d="M652.6,100.8H124.2v107.6h528.4v-107.6Z"/>
      </g>
    </mask>
  </defs>
  <path class="st3" d="M174.8,89.4c-.5,3.5-.9,5.7-1.3,6.6s-1.1,1.6-2,2.2c-.9.5-2.5.8-4.7.7-2.2,0-3.8,0-4.7,0-1.6,0-2.8-.3-3.6-1-.8-.7-1.2-2-1.2-3.8v-13.5h-6.6c-.3,5.2-1.5,9.1-3.7,11.9-2.2,2.8-5.9,5.1-11,6.9l-1.9-3.8c8.3-2.5,12.5-7.5,12.4-15h-11.6v-3.8h17.5v-7.1h-8.8c-1.7,2.5-3.2,4.3-4.6,5.5l-3.7-2.4c3.6-3.3,6.6-7.7,8.9-13.2l4,1.4-2.3,4.8h6.4v-6.7h4.1v6.7h15.9v3.9h-15.9v7.1h17.6v3.8h-12.5v13.3c0,.5.2.7.6.9.4.2,1.5.2,3.4.2s2.7-.1,3.2-.3c.4-.2.8-.8,1.1-1.7.3-.9.5-2.5.7-4.9l4.1,1.4h0Z"/>
  <path class="st3" d="M223.5,94.8l-1.2,3.8h-17.2c-6.4,0-11.3-1.6-14.9-4.8-1.5,2.3-2.9,4.2-4.4,5.8l-3.3-2.6c3.7-3.8,6.2-8.2,7.5-13.2h-6.6v-3.7c2.3-2.7,4.1-5.3,5.6-8h-6.4v-3.7h11v3.6c-1.3,2.5-3,5.2-5.3,8.1h5.7v3.7c-.5,2.3-1.3,4.5-2.2,6.7,3.1,2.8,7.4,4.2,13.1,4.2h18.5ZM193.6,64.4l-2.8,2.9c-2.1-2.3-4.3-4.2-6.6-5.8l2.7-2.9c2.1,1.3,4.3,3.2,6.8,5.8h0ZM222.4,91.2h-23.6v-16.9c-.7,1.1-1.6,2.1-2.4,3.2l-2.2-3.7c3.1-4.1,5.6-9.2,7.7-15.3l4,.9c-.6,1.8-1.4,3.8-2.3,5.8h6.3c-.6-1.6-1.4-3.4-2.4-5.4l3.8-1.2c1.3,2.5,2.2,4.8,2.8,6.7h8v3.6h-8.6v3.8h7.9v3.5h-7.9v3.9h8v3.5h-8v4.1h9.2v3.7h0ZM209.3,72.6v-3.8h-6.5v3.8h6.5ZM209.3,79.9v-3.9h-6.5v3.9h6.5ZM209.3,87.6v-4.1h-6.5v4.1h6.5Z"/>
  <path class="st3" d="M271.5,86.2h-20.2c-2.4,2-4.4,3.4-6,4.2v4.7c2.7-.4,5.6-1,8.7-1.8v3.6c-5,1.3-9.4,2.1-13.1,2.4l-.8-3.4c.7-.3,1.1-.8,1.1-1.4v-2.1c-2.3,1-5,2-8.1,2.9l-2.3-3.6c6-1.3,10.8-3.1,14.5-5.4h-14v-3.5h18.2c-.2-.5-.5-1.1-1-1.8l4.4-.6c.5.8.9,1.6,1.3,2.4h17.4v3.5h0ZM257.6,69.6h-11.2v1.9h9.1v5.2c0,.9-.3,1.7-.9,2.2-.6.5-2.5.7-5.8.7l-.9-3h3.3c.3,0,.5-.3.5-.7v-1.4h-5.4v6.3h-3.8v-6.3h-5.5v5h-3.7v-8.1h9.2v-1.9h-11.5v-3.1h11.5v-2.1h-6.6c-.3.3-.7.9-1.5,1.8l-3.1-2.1c1.4-1.6,2.7-3.4,3.8-5.3l3.7,1.1c-.3.5-.5,1-.8,1.4h4.6v-2.5h3.8v2.5h9.6v3.1h-9.6v2.1h11.2v3.1h0ZM271.9,96l-2.1,3.5c-8.7-1.5-14.4-5.4-17.1-11.7l4-.7c1,1.8,2.2,3.3,3.7,4.6,2.2-1.1,4.3-2.6,6.3-4.6l3.4,2.3c-1.4,1.5-3.4,3-6,4.5,3,1.1,5.6,1.8,7.9,2.1ZM263.2,74.1h-3.8v-13.2h3.8v13.2ZM270.3,76.9c0,.8-.2,1.5-.7,2.1-.5.6-1,1-1.6,1.3-.6.2-2,.3-4.1.3s-1.6,0-2.3,0l-1.2-3.7c.5,0,1.1,0,1.8,0,2,0,3.1,0,3.4-.2.3-.1.5-.4.5-.7v-17h4v18.1h0Z"/>
  <path class="st3" d="M295.8,81.8l-2.8,2.8c-.7-1.6-1.6-3.1-2.6-4.6v19h-4v-16.6c-1.1,2.3-2.7,4.8-4.8,7.5l-2.3-3.9c2.6-3.2,4.9-7.3,6.9-12.2h-6.6v-3.8h6.8v-5.8c-2.2.4-3.9.6-5.1.7l-1.6-3.5c5.4-.5,9.9-1.5,13.5-2.9l1.8,3.4c-1.4.6-3,1.1-4.7,1.6v6.7h5v3.8h-5v1c2.3,2.7,4.1,5,5.4,7.1h0ZM319.7,98.6h-25.9v-3.7h11.3v-5.8h-9.6v-3.7h9.6v-4.7c-3.7.3-6.5.4-8.5.5l-1.4-3.6c8.8-.2,16.3-1,22.3-2.4l1.6,3.5c-3.4.8-6.7,1.4-9.9,1.7v5.1h9.6v3.7h-9.6v5.8h10.6v3.7h0ZM317.3,73.7h-20.4v-13.8h20.4v13.8ZM313.1,70v-6.3h-12v6.3h12Z"/>
  <path class="st3" d="M341.2,74.6c0-.9.3-1.7,1-2.3.7-.6,1.4-.9,2.4-.9s1.7.3,2.3.9,1,1.4,1,2.3-.3,1.6-1,2.3-1.4.9-2.4.9-1.7-.3-2.3-.9c-.6-.6-1-1.4-1-2.3h0ZM341.2,94.1c0-.9.3-1.7,1-2.3.7-.6,1.4-.9,2.4-.9s1.7.3,2.3.9c.7.6,1,1.4,1,2.3s-.3,1.6-1,2.2c-.6.6-1.4.9-2.4.9s-1.7-.3-2.3-.9c-.6-.6-1-1.4-1-2.3h0Z"/>
  <path class="st3" d="M377.1,86.7c-1.5,4-3,7.1-4.5,9.2l-3.3-2.5c1.6-2.3,3-5.1,4.2-8.4l3.5,1.7ZM390.9,83.8h-8.6v15.4h-4.1v-15.4h-8.5v-3.8h8.5v-3.6h-8v-3.7h4.5c-.4-1.5-1.1-3.3-1.9-5.3l2.7-1.4h-5.2v-3.7h7.4c-.3-.9-.7-1.8-1.4-2.8l4.4-1c.8,1.6,1.4,2.8,1.7,3.8h7.7v3.7h-5l2.9,1.6c-.7,1.8-1.5,3.5-2.3,5.1h4.5v3.7h-7.9v3.6h8.6v3.8h0ZM384.1,66h-7.5c1,2.3,1.8,4.5,2.4,6.7h2.4c1-2.1,1.9-4.3,2.6-6.7ZM390,91.1l-3.3,1.9c-.7-2.4-1.7-4.7-2.9-6.9l3.4-1.6c1.4,2.4,2.4,4.6,2.9,6.6ZM409.8,76.6h-4.2v22.5h-4v-22.5h-4.7c0,10.5-1.8,18-5.3,22.6l-3.3-2.7c3-4,4.5-10.2,4.5-18.5v-15.8c5.2-.7,9.5-1.8,13-3.4l2.8,3.4c-3.3,1.5-7.3,2.6-11.7,3.5v7.1h12.8v4h0Z"/>
  <path class="st3" d="M438.1,70.1h-6.8v29h-4.2v-29h-1.2c-1.5,2.5-3.2,5-5.2,7.4l-2.9-3c3.8-4.3,6.8-9.6,9.2-15.8l4.3.7c-.9,2.3-1.9,4.5-3,6.7h9.9v4.1h0ZM458.1,70.1h-5.7v24.5c0,1.2-.3,2.1-.9,2.8-.6.7-1.2,1.2-1.8,1.4-.7.2-1.9.3-3.7.3s-2.4,0-3.5-.1l-1.5-4.2c2.2,0,4.2.1,6.1.1s1.2-.4,1.2-1.2v-23.6h-4c-1.7,3-3.5,5.5-5.5,7.7l-3-2.8c3.4-3.7,6.5-9.2,9.2-16.3l4.1.8c-.7,2.2-1.7,4.4-2.7,6.6h11.7v4.1h0Z"/>
  <path class="st3" d="M485.4,62c-2.1.7-4.4,1.3-6.8,1.6v6h5.8v3.9h-5.8v1.3c2.4,2.5,4.5,5.1,6.2,7.8l-2.9,3c-1.1-2.2-2.2-4.1-3.3-5.6v19.1h-4v-18.3c-2.2,4.2-4.2,7.3-6.2,9.2l-2.3-3.7c3.2-3.2,6-7.5,8.4-12.9h-7.9v-3.9h8.1v-5.3c-2,.3-4,.5-6.1.7l-1.7-3.7c5.9-.3,11.4-1.2,16.7-2.7l2,3.5h0ZM506.6,87.5l-4.3.7v11.1h-4.1v-10.5l-13.9,1.9-.3-4.1,14.2-1.9v-25.5h4.1v25l4.1-.5v4c.1,0,0,0,0,0ZM496.2,79.3l-2.8,3.1c-1.9-2.5-4.8-5.1-8.6-7.9l2.7-3c3.7,2.7,6.6,5.4,8.7,7.8ZM496.9,68.1l-2.8,3c-2.6-2.9-5.3-5.4-8.1-7.5l2.9-2.9c3.1,2.4,5.8,4.9,8.1,7.5Z"/>
  <path class="st3" d="M554.9,92.2h-17.7v2.9c0,1-.2,1.8-.7,2.4-.5.6-1.1,1-1.8,1.2-.7.2-2.1.3-4.1.3s-2,0-3.2,0l-1.3-3.7c1,0,3.1,0,6.1,0s.8-.3.8-.8v-2.3h-18.3v-3.3h18.3v-2c2.3-.5,4.4-1.1,6.4-1.8h-17.1v-2.9h24.5v2.9c-2.5,1.2-5.7,2.4-9.6,3.5v.3h17.7v3.3ZM554.2,85.4h-3.9v-5.2h-30.8v5.2h-4.1v-8.4h2.9l-.8-16.5c3-.1,6-.7,9-1.8l1.9,3.2c-2.2.7-4.4,1.2-6.8,1.4v2.4h6.2v3h-5.8v2.6h5.8v3h-5.6v2.6h25.5v-2.6c0,0-6.1,0-6.1,0v-3h6.4v-2.6c.1,0-6.4,0-6.4,0v-3h6.6v-2.4c.1,0-6.9,0-6.9,0v-3.2h11.1l-.7,16.9h2.8v8.5h0ZM540.2,60c-.7,1-1.7,1.9-3,2.9.7.7,1.4,1.3,2.1,2l-2.4,2.2c-.8-.9-1.5-1.7-2.3-2.3-1.6,1-3.1,1.7-4.7,2.3l-1.9-2.6c1.3-.5,2.7-1.1,3.9-1.8-.4-.4-1.3-1-2.5-1.9l2.2-2.2,3.1,2.2c1-.7,1.8-1.4,2.4-2.2l3.2,1.4h0ZM540.4,74.5l-2.4,2.1c-1.2-1.3-2.2-2.2-3.1-2.9-1.6,1-3.2,1.9-4.7,2.6l-1.9-2.5c1.1-.5,2.4-1.2,4-2.1-.8-.7-1.8-1.4-3-2.1l2.2-2.3c.8.5,2,1.3,3.6,2.4,1.3-1.1,2.1-1.9,2.6-2.4l2.8,1.7c-.9,1-1.8,1.9-2.9,2.7,1,.9,2,1.8,2.9,2.9h0Z"/>
  <path class="st3" d="M601.6,99h-4v-1.7h-28.7v1.7h-4.1v-39.5h36.8v39.5ZM597.6,93.8v-30.7h-28.7v30.7h28.7ZM593.9,83.1h-11.1c-.7.7-1.4,1.4-2.2,2.1v3.8c1.1-.2,2.4-.7,4-1.2l.3,3.2c-3.3,1.2-6,1.9-8,2.2l-.9-2.8c.5-.4.8-.9.8-1.5v-1c-2.1,1.1-3.9,1.9-5.5,2.4l-1.6-3c3.9-1.4,6.7-2.7,8.4-4.1h-5.5v-7.7h21.3v7.7ZM596.1,73.7h-25.9v-2.9h11v-2.1h-9.6v-2.8h9.6v-1.6h4v1.6h9.6v2.8h-9.6v2.1h10.9v2.9h0ZM589.7,80.3v-2.2h-13.1v2.2h13.1ZM596.4,90.5l-2.4,2.5c-3.2-2.4-6.9-4.6-11.1-6.7l2.3-2.3c1.2.4,2.5,1.1,4.1,2.1,1-.8,1.9-1.6,2.9-2.6l3.2,1.7c-1,1-2,1.8-3,2.6,1.3.9,2.6,1.8,3.9,2.7h0Z"/>
  <path class="st3" d="M651.7,98h-33.8c-1.3,0-2.4-.4-3.1-1.3-.7-.8-1.1-2-1.1-3.3v-29.9h-2.1v-3.5h39.7v3.5h-33.5v29.6c0,.3.1.6.4.9.3.3.6.4.9.4h32.7v3.5h0ZM633.2,91.7h-12.8v-12.8h12.8v12.8ZM644.7,76.5h-20.5v-10.5h20.5v10.5ZM629.3,88.2v-5.8h-5.1v5.8h5.1ZM640.6,73.1v-3.6h-12.2v3.6h12.2ZM648.8,91.7h-13v-12.8h13v12.8ZM645,88.2v-5.8h-5.3v5.8h5.3Z"/>
  <path class="st3" d="M200.5,242.3h-15.7v9.5h-4.3v-9.5h-20.1v-4h6.1v-11.8h14.1v-6.8h-10.5c-2.5,3.1-4.9,5.6-7.1,7.7l-2.9-3c4.3-3.7,7.9-8.2,10.7-13.2l4.2.8c-.5,1.2-1.1,2.5-2,3.7h26v4h-14.1v6.8h13v4h-13v7.8h15.7v4h0ZM180.5,238.2v-7.8h-9.9v7.8h9.9Z"/>
  <path class="st3" d="M251.1,231.2h-32.9v7.5c0,5.7-1.4,10.1-4.3,13.2l-3.3-2.9c1-.9,1.8-2.3,2.5-4.2.7-1.9,1-4.8,1-8.9v-8.5h36.9v3.7h0ZM249.9,218.2h-6.9c-1.2,1.3-2.6,2.4-4,3.3,3.6.8,6.9,1.7,9.9,2.7l-1.5,2.8c-3.9-1.3-7.9-2.3-12.3-3.2-5.8,2.2-11.6,3.2-17.6,3l-1.2-3.1c3.9,0,7.7-.3,11.5-1.1-2.7-.5-5.7-.9-9-1.2l1.8-2.7c4.3.4,8.9,1,13.8,1.9,1.4-.8,2.6-1.6,3.6-2.5h-25.8v-3.7h17.1c-.4-.7-.8-1.5-1.3-2.3l4.2-.9c.6,1,1.2,2.1,1.8,3.2h16v3.7ZM251.2,250.8h-33.1v-3.4h14.7v-3h-9.3v-3.3h9.3v-2.6h-8.1c-1.2,1.8-2.4,3.2-3.7,4.3l-2.5-3.2c2.2-1.8,3.9-4.2,5.1-7.3l3.8,1.2c-.2.7-.4,1.3-.7,1.7h6.1v-2.8h4.2v2.8h12.1v3.4h-12.1v2.6h11v3.3h-11v3h14.1v3.4Z"/>
  <path class="st3" d="M273.1,212.1c-.3,1.5-.9,3.3-1.7,5.5l-1.2,3.2v30.7h-4.1v-21.9c-.6,1.1-1.4,2.4-2.6,4l-2.3-4c3.2-4.7,5.8-10.9,7.8-18.6l4,1h0ZM301.9,250.8h-29.4v-3.5h3.1v-25.8h8c.4-1.4.7-2.5.9-3.3h-10.9v-3.6h11.9c.5-1.9.7-3.1.8-3.5l4.3.4c-.1.8-.3,1.8-.7,3h11.6v3.6h-12.5c-.2.7-.5,1.8-.9,3.3h10.6v25.8h3.3v3.5ZM294.6,228v-2.9h-14.9v2.9h14.9ZM294.6,234.4v-3.2h-14.9v3.2h14.9ZM294.6,241v-3.3h-14.9v3.3h14.9ZM294.6,247.3v-3.3h-14.9v3.3h14.9Z"/>
  <path class="st3" d="M318.8,241.2c-.7,4.1-1.6,7.7-2.9,10.7l-3.7-1.8c1.3-3.2,2.2-6.6,2.8-10.2l3.8,1.2h0ZM332.4,237.6l-3.5,1.5c-.3-.9-.6-1.8-1-2.7-5,1.3-9.6,2.2-13.9,2.8l-1.4-3.7c3.5-3.1,6.5-6.2,8.9-9.5-2,.4-4.5.8-7.4,1.1l-1-3.8c3.1-3.4,5.7-7.5,7.7-12.1l3.8,1.7c-2,3.9-4.2,7.2-6.5,9.8,2.2-.2,4.3-.5,6.5-1,1.1-1.5,2.1-3.1,3.1-4.9l3.5,2c-3.3,5.8-7.5,11-12.4,15.6,2.3-.3,4.8-.7,7.5-1.4-.2-.7-.6-1.4-1.1-2.1l3.5-1.4c1.3,1.8,2.5,4.5,3.7,8.1ZM326.1,249.6l-3.9,1c-.4-3.5-1-6.6-1.9-9.3l3.9-.7c.9,2.8,1.6,5.8,2,9ZM332,247.3l-3.5,1.2c-.3-2.3-1.1-4.9-2.4-7.8l3.5-.8c1.2,2.9,2,5.4,2.4,7.5ZM352,218.4c0,4.6-.2,10.6-.4,18-.3,7.4-.8,11.7-1.6,12.7-.7,1-1.6,1.7-2.4,2.1-.8.4-2.6.5-5.2.5s-2,0-3.1,0l-1.7-4.1h6.9c.5,0,1-.1,1.4-.4.3-.3.6-.6.7-1,.1-.4.3-2.1.5-5.2.2-3.1.4-6.2.5-9.4.1-3.2.2-6.2.2-9h-11.1c-1.2,2.6-2.4,4.8-3.7,6.5l-3.4-2.4c2.7-3.9,5-9,6.6-15.4l4,.8c-.3,1.6-.9,3.8-1.9,6.4h13.6ZM345.2,239.3l-3.3,2.3c-1.5-3.1-4.1-6.5-7.6-10.3l3.1-2.4c3.5,3.5,6.1,7.1,7.8,10.5h0Z"/>
  <path class="st3" d="M378.2,213.7v35.8h-5.4v-29.9c-1.2,1-2.4,1.9-3.9,2.7-1.4.8-2.9,1.4-4.2,1.7v-5.1c3.8-1.2,7.2-3,10.2-5.2h3.3Z"/>
  <path class="st3" d="M412.5,232.1c0,10.4-5.1,17-15.3,19.9l-2-3.8c8.3-2.2,12.6-7,13-14.3-4.6,3.3-8.4,5.6-11.4,7.2l-2.1-3.7c4.2-2,8.7-4.8,13.6-8.4v-17.2h4.2v20.3h0ZM406.3,226.1l-3.5,2c-2-4.1-4.3-7.6-6.7-10.6l3.5-2.2c2.9,3.8,5.1,7.4,6.7,10.8ZM435.5,237.2l-2.5,3.3c-2.9-2.4-6.6-4.9-11.1-7.3v13.2c0,.4.2.7.5.8.4.1,1.6.2,3.6.2s3-.1,3.5-.4c.4-.3.8-.9,1.2-1.8.3-.9.5-2.2.5-3.8l4.1,1.6c-.4,2.9-.9,4.8-1.4,5.8-.5,1-1.3,1.6-2.2,2-.9.4-2.9.6-5.9.6s-4.4-.1-5.2-.3c-.8-.2-1.5-.6-2-1.3-.5-.7-.8-1.4-.8-2.2v-36h4.2v10c3.6-1.8,6.5-4,8.9-6.4l3.5,2.2c-2.8,3.2-7,6.1-12.5,8.6v2.4c5.4,2.8,10,5.6,13.6,8.5h0Z"/>
  <path class="st3" d="M446,243.1c2.4,1.8,5.1,2.7,8.1,2.7s4-.5,5.4-1.6c1.3-1.1,2-2.6,2-4.4,0-4.1-3-6.1-9-6.1h-3v-4.3h2.8c5.3,0,8-1.9,8-5.7s-2-5.4-6.1-5.4-4.7.8-6.9,2.4v-4.7c2.3-1.3,5-2,8.1-2s5.4.7,7.4,2.3c1.9,1.5,2.9,3.6,2.9,6.2,0,4.6-2.3,7.5-7,8.8h0c2.4.3,4.4,1.2,5.9,2.7,1.5,1.5,2.2,3.4,2.2,5.6,0,3.2-1.2,5.8-3.5,7.7-2.4,1.9-5.4,2.8-9.2,2.8s-6.1-.6-8.2-1.8v-5.1h0Z"/>
  <path class="st3" d="M478.8,244.1c1.9,1.2,4,1.7,6.3,1.7s5.4-1.2,7-3.5,2.4-5.6,2.4-9.7h-.1c-1.5,2.7-4,4.1-7.5,4.1s-5.4-1-7.3-3.1c-1.9-2-2.8-4.6-2.8-7.7s1.1-6.3,3.2-8.6c2.1-2.2,4.9-3.3,8.4-3.3s6.4,1.4,8.4,4.2c2,2.8,3,6.7,3,11.9s-1.2,11.1-3.7,14.7c-2.5,3.5-6.1,5.3-10.7,5.3s-4.7-.4-6.5-1.2v-4.7h0ZM482.2,225.3c0,2.2.5,3.9,1.6,5.2,1.1,1.3,2.6,1.9,4.6,1.9s3.1-.6,4.2-1.8c1.1-1.2,1.7-2.6,1.7-4.3s-.5-4.1-1.7-5.7c-1.1-1.6-2.6-2.4-4.5-2.4s-3.2.7-4.3,2c-1.1,1.4-1.7,3-1.7,5h0Z"/>
  <path class="st3" d="M530.2,219.7c-1.8-1-3.7-1.4-5.7-1.4-3,0-5.4,1.3-7.1,3.8-1.7,2.5-2.6,5.8-2.6,9.9h.1c1.6-3,4.2-4.5,7.7-4.5s5.4,1,7.1,3c1.8,2,2.7,4.6,2.7,7.8s-1.1,6.2-3.2,8.4c-2.1,2.2-4.8,3.4-8.1,3.4s-6.7-1.4-8.7-4.3c-2-2.9-3-6.7-3-11.7s1.3-10.7,3.9-14.4c2.6-3.7,6.2-5.6,10.9-5.6s4.5.3,5.9,1v4.7h0ZM515,238c0,2.2.6,4,1.7,5.5,1.1,1.5,2.6,2.3,4.5,2.3s3.3-.7,4.3-2c1.1-1.4,1.6-3.1,1.6-5.1s-.5-4-1.5-5.2c-1-1.2-2.5-1.8-4.5-1.8s-3.2.6-4.4,1.8c-1.2,1.2-1.8,2.7-1.8,4.6h0Z"/>
  <path class="st3" d="M563.1,244.5v4.9h-21.5v-2c0-2.3.6-4.5,1.8-6.5,1.2-2,3-3.9,5.4-5.8,2.9-2.2,4.9-3.9,5.9-4.9,1-1,1.8-2.1,2.3-3.1.5-1,.7-2,.7-3,0-1.7-.6-3-1.8-4-1.2-1-2.9-1.5-5-1.5s-5.3.9-7.7,2.6v-4.6c2.9-1.8,6-2.7,9.4-2.7s5.8.9,7.6,2.6c1.9,1.7,2.8,4.1,2.8,7s-.3,3.2-.8,4.6c-.5,1.4-1.4,2.7-2.4,3.8s-2.8,2.7-5.4,4.7c-2.2,1.6-3.6,2.7-4.4,3.5-.7.7-1.4,1.4-1.8,2.2-.5.7-.7,1.4-.7,2.2h15.6Z"/>
  <path class="st3" d="M585,212.2c-.4,1.6-1,3.6-1.7,6l-1.1,3.5v30.1h-4.1v-21.8c-.6,1.1-1.4,2.3-2.5,3.7l-2.1-4.2c3.1-4.6,5.6-10.6,7.5-18.1l3.9.9h0ZM590,242.5c-1.1,4.1-2.2,7-3.4,8.8l-3.3-2.4c1.4-2.2,2.4-4.8,3-7.6l3.7,1.2ZM614.1,223.9h-29.9v-3.2h7.9c-.3-1.1-.7-2.1-1.4-3h-5v-3.2h11.6c-.5-1.1-1-1.9-1.3-2.5l3.9-.8c.6,1.1,1.1,2.2,1.4,3.3h11.5v3.2h-4.8c-.5,1.2-.9,2.2-1.4,3h7.5v3.2ZM611.3,239h-24.5v-13h24.5v13ZM607.2,231v-2h-16.4v2h16.4ZM607.2,236.1v-2.3h-16.4v2.3h16.4ZM607.6,246.2c-.1,1.4-.5,2.5-.9,3.3-.4.8-1,1.4-1.7,1.6-.7.2-2.4.3-5.1.3-3.9,0-6.3-.2-7.2-.7-.9-.5-1.4-1.3-1.4-2.6v-7h4v5.6c0,.4.1.7.4.8.3.1,1.4.2,3.5.2s2.9,0,3.5-.2c.6-.1,1-1,1.2-2.7l3.7,1.4h0ZM604,217.7h-9.1c.5.8.8,1.8,1.2,3h6.5c.7-1.1,1.2-2.1,1.5-3h0ZM603.3,244.1l-3,2.1c-1.1-1.5-2.3-2.9-3.7-4.1l3.2-2.2c1.4,1.3,2.6,2.7,3.6,4.2ZM614.3,249l-3.3,1.8c-1-3-2.4-5.6-4.2-8l3.5-1.8c2.2,3.1,3.5,5.8,4.1,7.9h0Z"/>
  <path class="st3" d="M182.7,320.8h-4v-1.7h-28.7v1.7h-4.1v-39.5h36.8v39.5ZM178.7,315.6v-30.7h-28.7v30.7h28.7ZM175,304.9h-11.1c-.7.7-1.4,1.4-2.2,2.1v3.8c1.1-.2,2.4-.7,4-1.2l.3,3.2c-3.3,1.2-6,1.9-8,2.2l-.9-2.8c.5-.4.8-.9.8-1.5v-1c-2.1,1.1-3.9,1.9-5.5,2.4l-1.6-3c3.9-1.4,6.7-2.7,8.4-4.1h-5.5v-7.7h21.3v7.7ZM177.2,295.5h-25.9v-2.9h11v-2.1h-9.6v-2.8h9.6v-1.6h4v1.6h9.6v2.8h-9.6v2.1h10.9v2.9h0ZM170.9,302.1v-2.2h-13.1v2.2h13.1ZM177.6,312.3l-2.4,2.5c-3.2-2.4-6.9-4.6-11.1-6.7l2.3-2.3c1.2.4,2.5,1.1,4.1,2.1,1-.8,1.9-1.6,2.9-2.6l3.2,1.7c-1,1-2,1.8-3,2.6,1.3.9,2.6,1.8,3.9,2.7h0Z"/>
  <path class="st3" d="M235.2,319.8h-33.8c-1.3,0-2.4-.4-3.1-1.3-.7-.8-1.1-2-1.1-3.3v-29.9h-2.1v-3.5h39.7v3.5h-33.5v29.6c0,.3.1.6.4.9s.6.4.9.4h32.7v3.5h0ZM216.6,313.5h-12.8v-12.8h12.8v12.8ZM228.1,298.3h-20.5v-10.5h20.5v10.5ZM212.8,310v-5.8h-5.1v5.8h5.1ZM224,294.9v-3.6h-12.2v3.6h12.2ZM232.3,313.5h-13v-12.8h13v12.8ZM228.4,309.9v-5.8h-5.3v5.8h5.3Z"/>
  <path class="st3" d="M286.1,317.8l-2.6,3.4c-9-6.8-14.9-13.9-17.7-21.4-2.2,8.4-8.1,15.4-17.6,21.1l-2.8-3.3c12.1-7.5,18.1-17.4,18.1-29.5v-7.3h4.4v9.5c0,5,1.7,9.9,5,14.7,3.3,4.8,7.7,9.1,13.2,12.9h0Z"/>
  <path class="st3" d="M320.8,310.9h-5.6c-1.1,1.6-2.1,2.9-2.9,3.8,2.4,1,4.6,1.9,6.4,2.8l-2.3,2.9c-3.1-1.4-5.4-2.4-7.1-3.1-4.1,2-7.9,3.4-11.5,3.9l-1.6-3.5c3.2-.4,6-1.1,8.4-2.1-2.4-.9-4.3-1.4-5.9-1.8,1.4-1.6,2.3-2.6,2.6-3h-4.8v-3.1h7.3l1.7-2.6h-7v-7.6h8.1v-2.2h-8.2v-5h-2.1v-2.9h2.1v-5h8.2v-1.8h3.8v1.8h8.1v5h2.3v2.9h-2.3v5h-8.1v2.2h8.1v7.6h-8.4l-1.7,2.6h4.2c.2-.4.5-.9.7-1.6l3.5.8c0,.2,0,.5-.3.7h4.1v3.1h0ZM306.6,287.4v-2h-4.5v2h4.5ZM306.6,292.6v-2.2h-4.5v2.2h4.5ZM306.6,302.2v-1.8h-4.3v1.8h4.3ZM310.8,310.9h-4.5s-.4.6-1.1,1.4l3.5,1.1c.9-.9,1.6-1.7,2.1-2.4h0ZM314.8,287.4v-2h-4.3v2h4.3ZM314.8,292.5v-2.2h-4.3v2.2h4.3ZM314.9,302.2v-1.8h-4.5v1.8h4.5ZM337.1,317.8l-2,3.4c-3.2-2.4-5.4-4.7-6.8-6.8-1.9,2.6-4,4.8-6.3,6.7l-2.7-3c2.9-2.3,5.1-4.8,6.7-7.3-1.5-2.7-2.6-5.8-3.5-9.2l3.5-1.9c.6,2.8,1.3,5,1.9,6.4,1.2-3.7,1.8-8.8,2-15.1h-3.4c-1.4,4.3-2.9,7.5-4.3,9.8l-2.6-3.3c2.5-4.6,4.3-10.3,5.3-17.1l3.9.6c-.2,1.3-.6,3.4-1.2,6.2h8.8v3.8h-2.5c-.3,8.4-1.5,15-3.5,19.8,1.8,2.8,4,5.1,6.7,7.1h0Z"/>
  <path class="st3" d="M353.4,310.3c-.7,4.1-1.6,7.7-2.9,10.7l-3.7-1.8c1.3-3.2,2.2-6.6,2.8-10.2l3.8,1.2h0ZM367,306.7l-3.5,1.5c-.3-.9-.6-1.8-1-2.7-5,1.3-9.6,2.2-13.9,2.8l-1.4-3.7c3.5-3.1,6.5-6.2,8.9-9.5-2,.4-4.5.8-7.4,1.1l-1-3.8c3.1-3.4,5.7-7.5,7.7-12.1l3.8,1.7c-2,3.9-4.2,7.2-6.5,9.9,2.2-.2,4.3-.5,6.5-1,1.1-1.5,2.1-3.1,3.1-4.9l3.5,2c-3.3,5.8-7.5,11-12.4,15.6,2.3-.3,4.8-.7,7.5-1.4-.2-.7-.6-1.4-1.1-2.1l3.5-1.4c1.3,1.8,2.5,4.5,3.7,8.1ZM360.8,318.8l-3.9,1c-.4-3.5-1-6.6-1.9-9.3l3.9-.7c.9,2.8,1.6,5.8,2,9ZM366.7,316.5l-3.5,1.2c-.3-2.3-1.1-4.9-2.4-7.8l3.5-.8c1.2,2.9,2,5.4,2.4,7.5ZM386.6,287.5c0,4.6-.2,10.6-.4,18-.3,7.4-.8,11.7-1.6,12.7-.7,1-1.6,1.7-2.4,2.1s-2.6.5-5.2.5-2,0-3.1,0l-1.7-4.1h6.9c.5,0,1-.1,1.4-.4.3-.3.6-.6.7-1,.1-.4.3-2.1.5-5.2.2-3.1.4-6.2.5-9.4.1-3.2.2-6.2.2-9h-11.1c-1.2,2.6-2.4,4.8-3.7,6.5l-3.4-2.4c2.7-3.9,5-9,6.6-15.4l4,.8c-.3,1.6-1,3.8-1.9,6.4h13.6ZM379.9,308.4l-3.3,2.3c-1.5-3.1-4.1-6.5-7.6-10.3l3.1-2.4c3.5,3.5,6.1,7.1,7.8,10.5h0Z"/>
  <path class="st3" d="M412.9,282.8v35.8h-5.4v-29.9c-1.2,1-2.4,1.9-3.9,2.7-1.4.8-2.9,1.4-4.2,1.7v-5.1c3.8-1.2,7.2-3,10.2-5.2h3.3Z"/>
  <path class="st3" d="M448.2,283.7v23h5v4.1h-5v7.7h-4.7v-7.7h-15.7v-4.7c3.1-3.7,6.1-7.6,8.9-11.6,2.8-4.1,4.9-7.7,6.4-10.8h5.1ZM443.5,306.7v-16.8c-1.1,2.2-2.8,4.9-5.1,8.2-2.3,3.3-4.6,6.2-6.7,8.6h11.8Z"/>
  <path class="st3" d="M482.1,288.8c-1.8-1-3.7-1.4-5.7-1.4-3,0-5.4,1.3-7.1,3.8-1.7,2.5-2.6,5.8-2.6,9.9h.1c1.6-3,4.2-4.5,7.7-4.5s5.4,1,7.1,3c1.8,2,2.6,4.6,2.6,7.8s-1.1,6.2-3.2,8.4c-2.1,2.2-4.8,3.4-8.1,3.4s-6.7-1.4-8.7-4.3c-2-2.9-3-6.7-3-11.7s1.3-10.7,3.9-14.4,6.2-5.6,10.9-5.6,4.5.3,5.9,1v4.7h0ZM466.9,307.1c0,2.2.6,4,1.7,5.5,1.1,1.5,2.6,2.3,4.5,2.3s3.3-.7,4.3-2c1.1-1.4,1.6-3.1,1.6-5.1s-.5-4-1.5-5.2c-1-1.2-2.5-1.8-4.5-1.8s-3.2.6-4.4,1.8c-1.2,1.2-1.8,2.7-1.8,4.6h0Z"/>
  <path class="st3" d="M509,282.8v35.8h-5.4v-29.9c-1.2,1-2.4,1.9-3.9,2.7-1.4.8-2.9,1.4-4.2,1.7v-5.1c3.8-1.2,7.2-3,10.2-5.2h3.3Z"/>
  <path class="st3" d="M526.2,312.2c2.4,1.8,5.1,2.7,8.1,2.7s4-.5,5.4-1.6c1.3-1.1,2-2.6,2-4.4,0-4.1-3-6.1-9-6.1h-3v-4.3h2.8c5.3,0,8-1.9,8-5.7s-2-5.4-6.1-5.4-4.7.8-6.9,2.4v-4.7c2.3-1.3,5-2,8.1-2s5.4.7,7.4,2.3c1.9,1.5,2.9,3.6,2.9,6.2,0,4.6-2.3,7.5-7,8.8h0c2.4.3,4.4,1.2,5.9,2.7,1.5,1.5,2.2,3.4,2.2,5.6,0,3.2-1.2,5.8-3.5,7.7-2.4,1.9-5.4,2.8-9.2,2.8s-6.1-.6-8.2-1.8v-5.1h0Z"/>
  <path class="st3" d="M557.2,309.5c0-2.6.6-4.6,1.8-5.9,1.2-1.3,3.1-2.4,5.5-3.2-2.1-1.1-3.6-2.2-4.6-3.3-1-1.1-1.5-2.8-1.5-5s.5-3.2,1.3-4.6c.9-1.4,2.1-2.4,3.7-3.2,1.6-.8,3.3-1.2,5.2-1.2s3.7.4,5.4,1.2c1.6.8,2.8,1.8,3.7,3.2.9,1.4,1.3,2.9,1.3,4.5s-.5,3.8-1.6,5c-1.1,1.2-2.7,2.2-4.8,3.3,2.4.9,4.3,2,5.6,3.3,1.3,1.3,1.9,3.3,1.9,6s-1.1,5.2-3.2,7c-2.1,1.8-4.9,2.7-8.3,2.7s-6.2-.9-8.3-2.7-3.2-4.1-3.2-7h0ZM562.6,308.8c0,2,.6,3.5,1.7,4.6,1.1,1.1,2.6,1.7,4.4,1.7s3.3-.6,4.4-1.8c1.1-1.2,1.7-2.7,1.7-4.5s-.6-3.3-1.7-4.5-2.6-1.8-4.4-1.8-3.3.6-4.4,1.8c-1.1,1.2-1.7,2.7-1.7,4.5h0ZM563.7,292.8c0,1.6.5,2.9,1.5,3.9,1,1,2.2,1.6,3.7,1.6s2.7-.5,3.7-1.6,1.5-2.4,1.5-3.9-.5-2.9-1.5-4c-1-1.1-2.2-1.6-3.7-1.6s-2.7.5-3.7,1.6c-1,1.1-1.4,2.4-1.4,4Z"/>
  <path class="st3" d="M630.5,317.8l-2.7,3.4c-9-6.8-14.9-13.9-17.7-21.4-2.2,8.4-8.1,15.4-17.6,21.1l-2.8-3.3c12.1-7.5,18.1-17.4,18.1-29.5v-7.3h4.4v9.5c0,5,1.7,9.9,5,14.7,3.3,4.8,7.7,9.1,13.2,12.9h0Z"/>
  <path class="st2" d="M764.3,723.3H34.7c-13.6,0-24.7-11.1-24.7-24.7V24.7C10,11.1,21.1,0,34.7,0h729.6c13.6,0,24.7,11.1,24.7,24.7v673.9c0,13.6-11.1,24.7-24.7,24.7h0ZM34.7,4c-11.4,0-20.6,9.3-20.6,20.6v673.9c0,11.4,9.3,20.7,20.6,20.7h729.6c11.4,0,20.6-9.3,20.6-20.7V24.7c0-11.4-9.3-20.6-20.6-20.6H34.7Z"/>
  <g class="st1">
    <rect class="st0" x="104.5" y="45.9" width="530.3" height="522.2"/>
  </g>
</svg>