<?xml version="1.0" encoding="UTF-8"?>
<svg id="_圖層_1" data-name="圖層_1" xmlns="http://www.w3.org/2000/svg" version="1.1" viewBox="0 0 995 106">
  <!-- Generator: Adobe Illustrator 29.4.0, SVG Export Plug-In . SVG Version: 2.1.0 Build 152)  -->
  <defs>
    <style>
      .st0 {
        fill: #33353a;
      }
    </style>
  </defs>
  <path class="st0" d="M272.8,12.5l-1.2,1.9c-7.7-3.4-13.2-7.1-16.4-11.1-3.2,4.3-8.7,8.1-16.6,11.1l-1.1-2c6.9-2.4,11.9-5.5,15-9.2h-3.9V1.1h7.7c3,4.3,8.4,8.2,16.4,11.4h0ZM271.8,34.7h-33.3v-2h15.6v-7.7h-11.1v-2h11.1v-7.5h-11v-2h24.1v2h-11v7.5h11v2h-11v7.7h15.6v2h0Z"/>
  <path class="st0" d="M321.5,15.5l-1.7,1.3c-.9-1.3-2-2.7-3.4-4.1-8.3,1.7-18,2.8-29.1,3.2l-.6-1.9c6-4.6,10.1-9.2,12.5-13.8l2.2.7c-2.2,4-5.8,8.2-10.9,12.7,8.8-.3,16.9-1.2,24.2-2.8-1.6-1.8-3.8-3.8-6.5-6.1l1.8-1.4c4.6,4,8.4,8,11.5,12.1h0ZM317.6,35.7h-2.2v-2.5h-23.3v2.4h-2.2v-15.8h27.7v15.8ZM315.4,31.1v-9h-23.3v9h23.3Z"/>
  <path class="st0" d="M341.6,22.7c-1.5,4.6-3.3,8.9-5.4,12.8l-1.6-1.2c2-3.7,3.8-8,5.4-12.8l1.6,1.2h0ZM341.3,14.9l-1.2,1.6c-1.3-1.5-3.1-3.1-5.4-4.8l1.3-1.6c2.2,1.8,4,3.4,5.3,4.8ZM342.1,5.2l-1.4,1.5c-1.4-1.6-3.2-3.2-5.4-4.8l1.3-1.5c1.7,1.2,3.5,2.8,5.5,4.8ZM344.3,15.1c-.4,1.6-.8,3-1.4,4.3l-1.6-.6c.6-1.4,1.1-2.9,1.4-4.3l1.6.5ZM351,13l-1.5.6c0-.3-.2-.6-.4-.9-2.2.5-4.3.9-6.6,1.1l-.7-1.3c2.1-2.1,3.6-3.7,4.5-4.8-1.7.2-2.9.3-3.5.3l-.6-1.4c2-2.2,3.5-4.3,4.5-6.5l1.6.8c-.8,1.5-2,3.2-3.6,5.2,1.2,0,2.1-.2,2.9-.4.3-.4.7-1,1.2-1.8l1.6.8c-1.2,2.1-3.1,4.4-5.6,7,1.1-.1,2.2-.3,3.4-.6,0-.4-.2-.7-.5-1.2l1.5-.6c.5.7,1,2,1.5,3.7h0ZM368,29.1l-.5,3.7c-.1.7-.4,1.4-1,2-.6.5-1.3.8-2.3.8h-9l-.8-1.9h9.7c.7,0,1.2-.4,1.3-1.2l.3-1.7h-22.8l2.2-5.9h19.5v-2.3h-21.5v-1.7h23.6v5.8h-19.9l-.9,2.4h22.2ZM347.3,19.2l-1.5.2c-.1-1.7-.3-3.1-.7-4.2l1.6-.2c.4,2.1.5,3.5.5,4.2h0ZM350.5,18.3l-1.6.4c-.2-1.3-.5-2.6-.9-3.9l1.5-.5c.4,1.2.7,2.5,1,3.9h0ZM360,4.6h-8.9v-1.7h3.8c-.1-.6-.5-1.4-1-2.2l1.6-.7c.4.8.9,1.8,1.3,2.9h3.1v1.7ZM358.8,7.9h-6.9v-1.6h6.9v1.6ZM358.8,11.3h-6.9v-1.6h6.9v1.6ZM358.9,18.9h-6.9v-6h6.9v6ZM357.2,17.2v-2.6h-3.5v2.6h3.5ZM362.3,15.1c0,1.3-.3,2.8-.9,4.6l-1.6-.4c.4-1.2.7-2.8,1-4.6l1.6.3ZM369.4,13.3l-1.6.6c0-.4-.2-.8-.4-1.2-2.7.5-4.9.8-6.8,1l-.5-1.4c1.4-1.2,2.9-2.7,4.6-4.6l-3.9.3-.4-1.3c2.5-2.8,4.1-5,4.9-6.6l1.8.7c-1,1.6-2.3,3.4-4,5.3,1.3,0,2.4-.2,3.3-.4.6-.9,1.1-1.6,1.3-2l1.6,1c-1.1,1.8-3,4.1-5.7,6.9.8,0,1.8-.2,3.2-.5-.1-.4-.3-.7-.5-1.1l1.6-.6c.7,1.4,1.2,2.7,1.7,3.9h0ZM365.9,19.2l-1.8.3c0-1.3,0-2.8-.5-4.3l1.6-.3c.4,1.4.6,2.9.7,4.3h0ZM369.6,18.9l-1.6.4c-.6-2-1.1-3.3-1.5-4.1l1.5-.4c.6,1.1,1.1,2.5,1.5,4.1h0Z"/>
  <path class="st0" d="M400.5,23.4c-7.2,5.1-12.9,8.6-16.9,10.5l-.8-1.9,3.8-2V.7h2.2v27.9c2.8-1.5,6.7-4.1,11.6-7.6l.2,2.3ZM404,14l-1.9,1c-1.7-3.5-4.3-7.2-7.7-11.1l2-1c3.7,4.5,6.2,8.2,7.5,11.1ZM417.8,34.3l-1.6,1.5c-1.8-2.7-4.4-5.9-7.9-9.6-2.4,3.3-6.2,6.5-11.4,9.8l-1.6-1.7c3.7-2,6.9-4.5,9.6-7.3,2.7-2.9,4.5-6.3,5.4-10.3.9-4,1.5-9.4,1.6-16.4h2.2c-.3,11.7-1.8,19.8-4.7,24.1,3.9,4.2,6.7,7.5,8.4,10h0Z"/>
  <path class="st0" d="M447.6,1.8c-1.7.8-3.8,1.5-6.2,2.1v6.5h6v2.1h-6v2c2.5,2.5,4.5,4.8,6,6.9l-1.5,1.7c-1.2-2-2.7-3.9-4.5-5.8v18.3h-2v-18.9c-1.7,3.5-3.9,6.8-6.5,10.2l-1.5-1.8c3.5-4.1,6.1-8.3,7.8-12.7h-7.6v-2.1h7.8v-5.9c-1.1.3-3.1.6-5.8,1l-1.2-2c5.3-.6,9.9-1.7,13.9-3.3l1.4,1.7h0ZM466.7,24.8l-4.1.6v10.1h-2.1v-9.8l-13.3,2v-2.1c-.1,0,13.3-2.1,13.3-2.1V.3h2.1v22.9l4-.5v2.1c0,0,0,0,0,0ZM457.2,19.6l-1.5,1.6c-1.7-2.3-4.2-4.7-7.4-7.1l1.3-1.6c3.1,2.2,5.6,4.6,7.5,7.1h0ZM458.1,8.7l-1.3,1.8c-2.2-2.4-4.6-4.5-7.2-6.2l1.2-1.6c2.5,1.6,4.9,3.6,7.3,6.1h0Z"/>
  <path class="st0" d="M492.8,17.9c-1.6.7-3.3,1.4-5.1,2.1v13c0,.7-.3,1.4-.9,2-.6.6-2.3.8-5.1.7l-.8-2.2c.8,0,1.6,0,2.3,0,1.1,0,1.8,0,2.1-.3.3-.2.4-.5.4-.9v-11.6c-1.5.5-3.3,1-5.4,1.6l-.7-1.9c2.2-.7,4.3-1.3,6.1-1.9v-9.1h-5.8v-2.1h5.8V.3h2.1v7.1h4.6v2.1h-4.6v8.2c1.1-.3,2.6-.9,4.5-1.8l.6,1.9h0ZM515.1,34l-1.2,1.8c-4.3-1.9-7.6-3.9-10.1-6.1-3.4,2.4-7.4,4.4-12,6.1,0,0,0,0,0,0,0,0-.1-.2-.3-.4-.2-.3-.5-.7-.9-1.4,4.2-1.3,8.1-3.2,11.8-5.7-2.7-3.1-4.7-6.8-6-11.3h-1.8v-2h8.4v-6.6h-8.9v-2h8.9V.3h2.2v6h9.4v2h-9.4v6.6h7.5v2c-.8,3-1.8,5.3-3,7-1.2,1.7-2.5,3.2-4,4.4,2.2,2.1,5.5,4,9.6,5.6h0ZM510.4,17h-11.9c1.2,3.9,3,7.2,5.4,10,3.3-2.6,5.4-5.9,6.5-10Z"/>
  <path class="st0" d="M562.4,20.2c0,2.6-.1,5.1-.4,7.6-.3,2.5-.6,4.1-.8,4.8-.3.7-.7,1.3-1.2,1.8-.5.5-1.2.9-2.1,1.1-.9.2-2.3.3-4.3.3l-.8-2.3c.6,0,1.8,0,3.7,0s1.2-.1,1.7-.4c.5-.3.8-.7,1-1.2.2-.5.4-1.6.7-3.4.3-1.7.4-3.8.5-6.3h-24.8c-1.9,2.2-4,4.3-6.3,6.2l-1.2-2c6.2-5,10.3-11,12.3-18.2h-10.7v-2.1h11.2c.6-2.7,1-4.7,1.2-6l2,.5c-.2,1.5-.5,3.3-1,5.6h14.8c-.4,2.3-.9,4.6-1.4,7h4c-.3,2.2-.7,4.5-1.2,6.9h3.2,0ZM537.9,4.4l-1.8,1.2c-.9-1.4-2-2.7-3.4-4.1l1.8-1.2c1.3,1.3,2.4,2.7,3.4,4.1ZM538.9,25.3c-1.1,3.7-2.6,7-4.3,9.7l-1.9-1c1.7-2.4,3.1-5.5,4.3-9.2l1.9.5h0ZM557.9,15.3h-17.9c-.7,1.4-1.6,3.1-2.9,4.9h19.9c.4-1.8.7-3.4.9-4.9h0ZM555.3,8.3h-12.8c-.4,1.5-1,3.2-1.6,4.9h13.4c.3-1.4.7-3.1,1.1-4.9ZM544.8,34.5l-2.2.4c.1-2.7-.2-5.9-1-9.6l2-.4c.6,2.8,1.1,6,1.3,9.7ZM551.2,32.4l-2.1.7c-.5-2.8-1.2-5.4-2.2-7.9l1.9-.7c.9,2.3,1.7,4.9,2.3,7.8h0ZM557,30.2l-1.9.9c-.6-1.9-1.4-3.9-2.6-6.2l1.8-.9c1,1.8,1.9,3.8,2.8,6.2h0Z"/>
  <path class="st0" d="M611.6,20.7h-29v3h27.2c-.2,2.4-.4,4.6-.7,6.7-.3,2.1-.6,3.3-1,3.8-.3.5-.8.9-1.5,1.1s-2.2.3-4.8.3l-.7-2.1c1.1,0,2,0,2.7,0s1.7,0,2-.2.5-.3.7-.6c.2-.3.3-1.2.5-2.8.2-1.6.3-3,.4-4.3h-17.4v5.8h7.9v-3.9h2v5.9h-21.8v-5.9h2.1v3.9h7.7v-5.8h-7.3V3.1h8.7c.7-1,1.4-2,1.9-3.1l1.9.6c-.3.8-.7,1.6-1.4,2.5h15.1v12.5h-24.2v3.2h29v1.9h0ZM604.6,8.3v-3.1h-22v3.1h22ZM604.6,13.6v-3.5h-22v3.5h22Z"/>
  <path class="st0" d="M636.7,32.5h-1.8v-1.5h-8.8V5.4h1.9v23.8h2.4V.9h2v28.3h2.4V5.4h1.8v27h0ZM646.2,29.9c-2.2,2.2-4.9,4.1-7.9,5.8l-1.4-1.6c3.5-1.8,6.1-3.6,7.9-5.4l1.5,1.2ZM659.8,27h-21.5v-1.9h1.4l-.2-21.4c1.4-.5,2.8-1.1,4.4-2l.8,1.6c-1.4.7-2.4,1.2-3.2,1.4v5.6h2.7v1.9h-2.6v5.4h2.6v1.8h-2.4v5.6h13.7l.2-5.6h-2.5v-1.8h2.6l.3-5.4h-2.9v-1.9h2.9l.2-5.8h-3.4v-2h5.5l-.8,22.4h2.3v1.9h0ZM648.1,14c-.4,3.9-1.1,7.1-2.2,9.6l-1.7-.8c1.1-2.8,1.8-5.8,2.2-9.1l1.8.3h0ZM652.1,10.4c-.2,6.7-.5,10.7-.9,11.9s-1.6,1.7-3.6,1.6l-.5-1.8c.3,0,.6,0,.8,0,.6,0,1-.1,1.3-.4.3-.3.5-1.4.7-3.5.2-2,.3-4.1.4-6h-4.8l.8-11.8h1.9l-.3,4h3.8v1.9h-3.9l-.2,3.9h4.6,0ZM659.9,34.4l-1.5,1.4c-2.3-2.1-4.8-4-7.7-5.6l1.4-1.4c3.4,2,6,3.9,7.8,5.7h0Z"/>
  <path class="st0" d="M686.5,18l-1.6,1.5c-1.1-2.1-2.1-3.8-3.1-5.1v21.2h-2V15.4c-1.6,3.7-3.4,6.8-5.3,9.3l-1.4-1.7c2.6-3.3,4.7-7.4,6.4-12.2h-5.4v-2h5.8V.3h2v8.4h4.5v2h-4.5v.4c1.5,1.9,3.1,4.1,4.7,6.9ZM708.6,34.2l-1.5,1.6c-2.6-2.7-5.4-5.1-8.4-7.1-4.2,3.3-8.5,5.6-12.9,7.1l-1.2-1.7c9.7-3.4,16.8-9.2,21.2-17.6l2,.8c-2.1,3.8-4.6,7.1-7.5,9.8,3.3,2.4,6,4.8,8.2,7.1h0ZM708.5,7h-10.8c-1.8,3.1-3.9,6-6.2,8.6,2.3-.2,5.1-.5,8.4-1,1.1-1.6,2-3,2.6-4.2l1.9.9c-3.7,7.6-9.6,12.9-17.7,15.8l-1.2-1.8c5.5-2,9.8-4.8,12.7-8.4-4.3.5-7.6.9-10,1l-.7-2.1c1.5,0,4.1-3,7.7-8.8h-8.8v-2h10.4c-.5-1-1.2-2.3-2.2-3.9l2-.8c.9,1.4,1.8,3,2.6,4.7h9.2v2h0Z"/>
  <path class="st0" d="M729.1,13.7c-1.6,7.3-3.5,13.1-5.6,17.3l-2-1.4c2.3-4.1,4.1-9.6,5.4-16.6l2.2.7h0ZM748.9,24.2c-.1,2.5-.4,4.7-.7,6.4-.3,1.7-.7,2.8-1.1,3.3-.4.5-1,.9-1.6,1.1-.7.2-2.3.3-4.8.3s-3.4,0-4.7-.1c-1.2,0-2.1-.4-2.7-.9-.5-.5-.8-1.2-.8-2.2V9.6h2.2v21.8c0,.4.1.7.3,1,.2.3.5.5.7.5.2,0,1.2,0,3,0h5.2c.4,0,.8-.1,1.2-.5.4-.3.7-1.5,1-3.5.3-2,.4-3.9.3-5.6l2.3.8ZM745.2,11.2l-1.8,1.5c-2-3.7-5.1-7.3-9.1-11l1.6-1.5c3.8,3.5,6.9,7.2,9.2,11ZM756.8,28.7l-2.3.8c-1-4.5-3.1-9.6-6.2-15.3l2-1.2c3.1,6,5.2,11.3,6.5,15.7Z"/>
  <path class="st0" d="M254,70.9c-1.7.8-3.8,1.5-6.2,2.1v6.5h6v2.1h-6v2c2.5,2.5,4.5,4.8,6,6.9l-1.5,1.7c-1.2-2-2.7-3.9-4.5-5.8v18.3h-2v-18.9c-1.7,3.5-3.9,6.8-6.5,10.2l-1.5-1.8c3.5-4.1,6.1-8.3,7.8-12.7h-7.6v-2.1h7.8v-5.9c-1.1.3-3.1.6-5.8,1l-1.2-2c5.3-.6,9.9-1.7,13.9-3.3l1.4,1.7h0ZM273.2,93.9l-4.1.6v10.1h-2.1v-9.8l-13.3,2v-2.1c-.1,0,13.3-2.1,13.3-2.1v-23.3h2.1v22.9l4-.5v2.1c0,0,0,0,0,0ZM263.6,88.7l-1.5,1.6c-1.7-2.3-4.2-4.7-7.4-7.1l1.3-1.6c3.1,2.2,5.6,4.6,7.5,7.1h0ZM264.5,77.8l-1.3,1.8c-2.2-2.4-4.6-4.5-7.2-6.2l1.2-1.6c2.5,1.6,4.9,3.6,7.3,6.1h0Z"/>
  <path class="st0" d="M299.2,87c-1.6.7-3.3,1.4-5.1,2.1v13c0,.7-.3,1.4-.9,2-.6.6-2.3.8-5.1.7l-.8-2.2c.8,0,1.6,0,2.3,0,1.1,0,1.8,0,2.1-.3.3-.2.4-.5.4-.9v-11.6c-1.5.5-3.3,1-5.4,1.6l-.7-1.9c2.2-.7,4.3-1.3,6.1-1.9v-9.1h-5.8v-2.1h5.8v-7.1h2.1v7.1h4.6v2.1h-4.6v8.2c1.1-.3,2.6-.9,4.5-1.8l.6,1.9h0ZM321.5,103.1l-1.2,1.8c-4.3-1.9-7.6-3.9-10.1-6.1-3.4,2.4-7.4,4.4-12,6.1,0,0,0,0,0,0,0,0-.1-.2-.3-.4-.2-.3-.5-.7-.9-1.4,4.2-1.3,8.1-3.2,11.8-5.7-2.7-3.1-4.7-6.8-6-11.3h-1.8v-2h8.4v-6.6h-8.9v-2h8.9v-6h2.2v6h9.4v2h-9.4v6.6h7.5v2c-.8,3-1.8,5.3-3,7-1.2,1.7-2.5,3.2-4,4.4,2.2,2.1,5.5,4,9.6,5.6h0ZM316.9,86.1h-11.9c1.2,3.9,3,7.2,5.4,10,3.3-2.6,5.4-5.9,6.5-10Z"/>
  <path class="st0" d="M351.5,90.9c-1-.5-1.5-1.2-1.5-2s.2-.8.5-1.2.8-.6,1.4-.6c1.3,0,1.9.8,1.9,2.5s-.8,2.6-2.4,3.9l-.8-.7c.6-.8.9-1.5.9-2h0Z"/>
  <path class="st0" d="M400.5,92.5c-7.2,5.1-12.9,8.6-16.9,10.5l-.8-1.9,3.8-2v-29.2h2.2v27.9c2.8-1.5,6.7-4.1,11.6-7.6l.2,2.3ZM404,83.1l-1.9,1c-1.7-3.5-4.3-7.2-7.7-11.1l2-1c3.7,4.5,6.2,8.2,7.5,11.1ZM417.8,103.4l-1.6,1.5c-1.8-2.7-4.4-5.9-7.9-9.6-2.4,3.3-6.2,6.5-11.4,9.8l-1.6-1.7c3.7-2,6.9-4.5,9.6-7.3,2.7-2.9,4.5-6.3,5.4-10.3.9-4,1.5-9.4,1.6-16.4h2.2c-.3,11.7-1.8,19.8-4.7,24.1,3.9,4.2,6.7,7.5,8.4,10h0Z"/>
  <path class="st0" d="M437.4,93.3c-1.3,3.2-2.8,6-4.6,8.3l-1.8-1.2c1.5-1.8,3-4.5,4.5-8l1.8.9ZM449.7,90.1h-8.2v14.8h-2v-14.8h-8.2v-1.9h8.2v-3.9h-7.8v-2h4.9c-.2-1.3-1-3.3-2.1-6l1.4-1h-3.9v-2.1h7.4c-.4-.9-1-1.9-1.7-2.9l1.9-.8c.6.9,1.3,2.1,2.1,3.8h7.1v2.1h-3.2l1.5.9c-.5,1.5-1.3,3.5-2.5,6h4.7v2h-7.7v3.9h8.1v1.9h0ZM444.9,75.2h-8.4c1.1,2.6,1.8,5,2.3,6.9h3.4c1.2-2.2,2-4.6,2.7-6.9h0ZM448.5,97.8l-1.9,1.1c-.6-1.6-1.6-3.5-2.8-5.7l1.7-1c1.1,1.7,2.1,3.5,3,5.6h0ZM466.2,84.6h-4.3v20.3h-2.1v-20.3h-6c0,9-1.7,15.8-5.1,20.4l-1.7-1.3c1.8-2.6,3-5.2,3.7-7.9.7-2.7,1.1-6.3,1.1-10.7v-12.1c5.1-.7,9.2-1.8,12.4-3.5l1.6,1.6c-3.6,1.6-7.5,2.8-12,3.5v7.9h12.4v2h0Z"/>
  <path class="st0" d="M497.3,78.4h-6.9v26.3h-2.2v-26.3h-2.2c-1.3,2.2-3,4.5-4.9,6.7l-1.7-1.5c3.7-3.9,6.6-8.7,8.6-14.5l2.1.8c-1,2.6-2,4.8-2.8,6.4h10.1v2.1h0ZM514.9,78.4h-5.7v22.9c0,.9-.2,1.6-.7,2.1-.5.5-1,.9-1.6,1.1-.6.1-1.8.2-3.8.2s-1.6,0-2.4,0l-.8-2.2c2,.1,3.6.1,4.9.1s2.2-.5,2.2-1.6v-22.6h-5.2c-1.6,2.8-3.4,5.2-5.3,7.4l-1.6-1.5c3.8-4.2,6.6-9.2,8.6-15l2,.7c-.5,1.5-1.4,3.7-2.6,6.4h11.9v2.1h0Z"/>
  <path class="st0" d="M545.7,78.4h-6.9v26.3h-2.2v-26.3h-2.2c-1.3,2.2-3,4.5-4.9,6.7l-1.7-1.5c3.7-3.9,6.6-8.7,8.6-14.5l2.1.8c-1,2.6-2,4.8-2.8,6.4h10.1v2.1h0ZM563.3,78.4h-5.7v22.9c0,.9-.2,1.6-.7,2.1-.5.5-1,.9-1.6,1.1-.6.1-1.8.2-3.8.2s-1.6,0-2.4,0l-.8-2.2c2,.1,3.6.1,4.9.1s2.2-.5,2.2-1.6v-22.6h-5.2c-1.6,2.8-3.4,5.2-5.3,7.4l-1.6-1.5c3.8-4.2,6.6-9.2,8.6-15l2,.7c-.5,1.5-1.4,3.7-2.6,6.4h11.9v2.1h0Z"/>
  <path class="st0" d="M592.7,70.9c-1.7.8-3.8,1.5-6.2,2.1v6.5h6v2.1h-6v2c2.5,2.5,4.5,4.8,6,6.9l-1.5,1.7c-1.2-2-2.7-3.9-4.5-5.8v18.3h-2v-18.9c-1.7,3.5-3.9,6.8-6.5,10.2l-1.5-1.8c3.5-4.1,6.1-8.3,7.8-12.7h-7.6v-2.1h7.8v-5.9c-1.1.3-3.1.6-5.8,1l-1.2-2c5.3-.6,9.9-1.7,13.9-3.3l1.4,1.7h0ZM611.9,93.9l-4.1.6v10.1h-2.1v-9.8l-13.3,2v-2.1c-.1,0,13.3-2.1,13.3-2.1v-23.3h2.1v22.9l4-.5v2.1c0,0,0,0,0,0ZM602.3,88.7l-1.5,1.6c-1.7-2.3-4.2-4.7-7.4-7.1l1.3-1.6c3.1,2.2,5.6,4.6,7.5,7.1h0ZM603.2,77.8l-1.3,1.8c-2.2-2.4-4.6-4.5-7.2-6.2l1.2-1.6c2.5,1.6,4.9,3.6,7.3,6.1h0Z"/>
  <path class="st0" d="M659.1,89.3c0,2.6-.1,5.1-.4,7.6-.3,2.5-.6,4.1-.8,4.8-.3.7-.7,1.3-1.2,1.8-.5.5-1.2.9-2.1,1.1-.9.2-2.3.3-4.3.3l-.8-2.3c.6,0,1.8,0,3.7,0s1.2-.1,1.7-.4c.5-.3.8-.7,1-1.2.2-.5.4-1.6.7-3.4s.4-3.8.5-6.3h-24.8c-1.9,2.2-4,4.3-6.3,6.2l-1.2-2c6.2-5,10.3-11,12.3-18.2h-10.7v-2.1h11.2c.6-2.7,1-4.7,1.2-6l2,.5c-.2,1.5-.5,3.3-1,5.6h14.8c-.4,2.3-.9,4.6-1.4,7h4c-.3,2.2-.7,4.5-1.2,6.9h3.2,0ZM634.7,73.5l-1.8,1.2c-.9-1.4-2-2.7-3.4-4.1l1.8-1.2c1.3,1.3,2.4,2.7,3.4,4.1ZM635.7,94.5c-1.1,3.7-2.6,7-4.3,9.7l-1.9-1c1.7-2.4,3.1-5.5,4.3-9.2l1.9.5h0ZM654.6,84.4h-17.9c-.7,1.4-1.6,3.1-2.9,4.9h19.9c.4-1.8.7-3.4.9-4.9h0ZM652,77.4h-12.8c-.4,1.5-.9,3.2-1.6,4.9h13.4c.3-1.4.7-3.1,1.1-4.9ZM641.6,103.6l-2.2.4c.1-2.7-.2-5.9-1-9.6l2-.4c.6,2.8,1.1,6,1.3,9.7ZM648,101.5l-2.1.7c-.5-2.8-1.2-5.4-2.2-7.9l1.9-.7c.9,2.3,1.7,4.9,2.3,7.8h0ZM653.7,99.3l-1.9.9c-.6-1.9-1.4-3.9-2.6-6.2l1.8-.9c1,1.8,1.9,3.8,2.8,6.2h0Z"/>
  <path class="st0" d="M689,81.1h-11.9v23.7h-2.1v-34.2h14v10.5ZM687,74.8v-2.4h-9.9v2.4h9.9ZM687,79.2v-2.5h-9.9v2.5h9.9ZM690.3,92l-1.6.8-.6-1.1-8.3,1.1-.5-1.6c1.3-.7,3-2,5-3.8l-4.6.6-.5-1.6c2.1-1.4,3.9-3,5.3-4.8l1.9.9c-1.2,1.3-2.4,2.5-3.8,3.5l3.6-.5c.6-.5,1.3-1.1,2-1.9l1.8.8c-3.1,3-5.5,5.2-7.2,6.4l4.4-.6c-.3-.5-.5-1-.8-1.2l1.6-.7c.8,1.2,1.6,2.4,2.2,3.8h0ZM689,95.6c0,2.6-.5,4.6-1.6,5.8-1.1,1.2-2.8,2.1-5.3,2.7l-1.3-1.7c3.5-.7,5.6-2.1,6-4.1h-6.2v-4.8h1.9v3h4.4c0-.3,0-.8,0-1.4v-1.8h2v2.3h0ZM703.2,91.8l-1.6,1c-.4-.6-.7-1.1-.8-1.3l-9.5.8-.4-1.6c1.3-.6,2.9-1.8,4.7-3.5l-4.6.4-.5-1.5c2.1-1.3,3.8-2.8,5.1-4.7l1.9.8c-1,1.2-2.1,2.3-3.4,3.4l3.5-.3c.3-.3.9-.8,1.7-1.6l1.7.8c-1.7,1.8-3.8,3.7-6.4,5.8l4.9-.4c-.2-.4-.6-.9-1.1-1.3l1.6-.9c1,1.2,2.1,2.5,3.1,4.1h0ZM700.5,98.4h-6.6v5.6h-2v-10.6h2v3.2h4.7v-3h1.9v4.8h0ZM706.7,102.4c0,.7-.2,1.3-.7,1.8-.5.4-1,.7-1.6.7-2.1,0-3.4,0-3.8,0l-.9-2.1c.9,0,1.7.1,2.6.1s1.9,0,2.1-.2c.2-.1.3-.3.3-.7v-20.8h-12v-10.5h14v31.9h0ZM704.6,74.8v-2.4h-9.8v2.4h9.8ZM704.6,79.2v-2.5h-9.8v2.5h9.8Z"/>
  <path class="st0" d="M735.1,77.2l-1.5,1.1c-1.6-2.3-3.2-4.1-4.6-5.5-1.4,2.3-2.8,4.5-4.3,6.5h8.6v1.8h-3.9v4.7h4.5v1.8h-4.5v12.7c1.4-.3,2.8-.7,4.4-1.2v1.9c-3.3,1.1-7.1,2.1-11.5,3.1l-.5-1.9c1.4-.3,3.3-.7,5.7-1.4v-13.2h-5.4v-1.8h5.4v-4.7h-3.1v-1.5c-.4.5-.9,1.1-1.7,1.8l-1.3-1.6c2.6-2.6,5-6.1,7.1-10.5l1.7.8c0,.3-.2.6-.4.9,2.5,2.5,4.2,4.6,5.1,6.2h0ZM726.2,98.5l-1.9.4c-.3-2.8-.9-5.5-1.8-8.1l1.8-.5c.9,2.2,1.5,4.9,1.9,8.1h0ZM733.8,90.7c-.3,2.4-.8,4.8-1.5,7.1l-1.8-.5c.5-1.9,1-4.3,1.4-7.3l1.9.7h0ZM756.8,102l-.7,2c-5.5,0-9.4-.2-11.9-.9-2.4-.7-4.4-2-6.1-4-1.2,2.3-2.5,4.3-3.9,5.8l-1.6-1.3c1.5-1.5,2.9-3.7,4.2-6.5-1.2-2.7-2-5.6-2.2-8.5l1.9-.3c.1,2,.5,4.1,1.3,6.1.8-2.4,1.3-5.5,1.5-9.5h-4.3v-1.8c1.6-3.8,3-7.3,3.9-10.5h-4.7v-1.9h6.7v1.9c-.9,3.1-2.1,6.6-3.7,10.5h4.1c-.2,6.1-1,10.8-2.3,14.1,1.2,1.7,2.7,2.9,4.7,3.7,2,.8,4.7,1.2,8.4,1.2s2.9,0,4.7-.2h0ZM756.7,96.2h-7.3v3.9h-2v-3.9h-5.6v-1.7h5.6v-3.5h-4.7v-1.8h4.7v-3.2h-4.6v-1.8h4.6v-3.9h-5.5v-1.8h5.5v-3.8h-4.6v-1.7h4.6v-3.3h2v3.3h5.1v5.5h2.2v1.8h-2.2v5.6h-5.1v3.2h6.1v1.8h-6.1v3.5h7.3v1.7h0ZM752.6,78.4v-3.8h-3.1v3.8h3.1ZM752.6,84.2v-3.9h-3.1v3.9h3.1Z"/>
</svg>