<?xml version="1.0" encoding="UTF-8"?>
<svg id="_圖層_1" xmlns="http://www.w3.org/2000/svg" version="1.1" viewBox="0 0 226.1 26">
  <!-- Generator: Adobe Illustrator 29.4.0, SVG Export Plug-In . SVG Version: 2.1.0 Build 152)  -->
  <defs>
    <style>
      .st0 {
        fill: #fff;
      }
    </style>
  </defs>
  <path class="st0" d="M28.6,25.4h-2.5v-1.5H8.1v1.4h-2.5V.7h23s0,24.7,0,24.7ZM26.1,21.7V2.9H8.1v18.8s18,0,18,0ZM25.2,10.8H9v-1.8h6.9v-1h-5.8V3.8h13.9v4.2h-5.7v1h6.9v1.8h0ZM24.4,20.7h-14.5v-9h14.5v9ZM22,19v-5.6h-9.7v5.6h9.7ZM21.5,6.5v-1.2h-8.9v1.2h8.9ZM20.4,18.1h-6.7v-3.8h6.7v3.8ZM18.3,16.7v-1h-2.3v1h2.3Z"/>
  <path class="st0" d="M57.7,25.3h-2.7v-9.3h-11.4c-.4,3.3-1.8,6.3-4.2,9.2l-2.2-1.6c2.7-3.1,4.1-7.5,4.1-13.2V.5h2.6v5.9h10.1V.2h2.7v8.7h-12.7c0,1.5,0,3.1-.1,4.6h13.9v11.8h0Z"/>
  <path class="st0" d="M74.6,13.9c-.5.3-1.1.6-1.9,1v7.9c0,.9-.2,1.6-.6,1.9-.4.4-1,.5-1.9.5h-1.6l-.6-2.4h1.1c.6,0,1,0,1.1-.1.1,0,.2-.3.2-.5v-6.4c-.6.3-1.2.5-1.9.8l-.7-2.3,2.6-1v-6.3h-2.3v-2.4h2.3V.2h2.4v4.5h1.1v2.4h-1.1v5.2c.5-.2,1-.5,1.6-.8l.3,2.4h-.1ZM82.9,5.4h-3v4h2.6v2.2h-7.5v-2.2h2.5v-4h-2.9v-2.3h2.9V.2h2.4v2.9h3v2.3ZM82.4,25h-2.3v-1.4h-2.8v1.7h-2.3v-11.3h7.4v11h0ZM80.1,21.3v-5h-2.8v5h2.8ZM93,3h-3.7c-.2.8-.4,1.6-.7,2.4h3.6v14.5h-5.7l1.1.8c-.7,1.6-1.8,3.1-3.3,4.7l-1.7-1.6c1.4-1.6,2.3-2.9,2.9-3.9h-1.7V5.4h2.2c.2-.7.4-1.5.6-2.4h-3.5V.8h9.8v2.2h.1ZM89.9,9.6v-2h-3.7v2h3.7ZM89.9,13.7v-2h-3.7v2h3.7ZM89.9,17.8v-2.1h-3.7v2.1h3.7ZM93.3,24l-1.7,1.5c-.9-1.4-1.9-2.7-3.1-3.9l1.8-1.3c1.2,1.2,2.3,2.4,3.1,3.7h0Z"/>
  <path class="st0" d="M124.9,23.7l-1.8,1.8c-2.1-1.8-3.7-3.5-4.9-5-1.2,1.6-2.9,3.3-5,5l-1.8-1.8c2.4-1.9,4.2-3.7,5.4-5.4-2-3.3-3.3-7.7-3.8-13.2h-.6v-1.9h-1.5v22h-2.5v-4.8c-2.7.9-5.4,1.6-8.3,2.2l-.9-2.5c.7,0,1.4-.2,2.2-.3V3.3h-1.8V.9h13.1v1.8h10.9c-.3,7-1.6,12.3-3.9,15.8,1.2,1.7,2.9,3.4,5.1,5.3h0ZM108.5,6.8v-3.5h-4.4v3.5h4.4ZM108.5,12.7v-3.5h-4.4v3.5h4.4ZM108.5,18v-2.9h-4.4v4.2c1.7-.4,3.1-.8,4.4-1.3ZM121,5.2h-5.5c.5,4.3,1.4,7.9,2.9,10.7,1.4-2.7,2.2-6.3,2.7-10.7h-.1Z"/>
  <path class="st0" d="M156.4,24.6h-25.1v-2.5h11.3v-4.1h-9.5v-2.5h9.5v-3.1h2.6v3.1h9.5v2.5h-9.5v4.1h11.2v2.5ZM156,3.3h-12.3c-1.9,2.7-3.9,4.8-5.9,6.1,4.2,0,8.2-.4,12-.9-.9-1-1.8-2-2.9-3l2.2-1.4c2.6,2.5,4.8,5.2,6.7,7.9l-2.1,1.4c-.5-.7-1.2-1.6-2-2.8-6.6.7-12.4,1.2-17.7,1.3l-.5-2.4c2.7-1.2,5-3.3,7-6.4h-8.7V.9h24.4v2.5h-.2Z"/>
  <path class="st0" d="M166.4,18.6c-.2,2.5-.7,4.7-1.4,6.8l-2.2-1.1c.7-2.2,1.2-4.3,1.4-6.3l2.3.6h0ZM172.8,4.7c-1.9,4-4.1,7.3-6.4,10,1.3-.2,2.4-.5,3.3-.7-.2-.7-.4-1.2-.6-1.6l2.1-.7c.6,1.5,1.2,3.2,1.6,5l-2.1.7c0-.3,0-.7-.3-1.2-2.3.6-4.6,1.1-6.8,1.4l-.7-2.1c1.7-1.8,3.2-3.8,4.5-5.9-1.4.3-2.7.5-3.8.6l-.4-2.3c1.7-2,3.1-4.6,4.2-7.8l2.4,1c-1,2.6-2.2,4.7-3.5,6.3.9,0,1.8-.2,2.6-.4.5-.9,1.1-2,1.6-3.3l2.3,1.1h0ZM169.9,24l-2.3.4c0-2.2-.2-4.1-.5-5.7l2.1-.3c.3,1.7.6,3.6.7,5.6ZM172.6,23l-1.9.4c-.2-1.9-.5-3.6-.8-5.1l1.9-.4c.4,1.7.7,3.4.8,5.1ZM187.3,22.9c0,.8-.2,1.5-.7,1.9s-1.4.6-2.7.6h-1.5l-.8-2.4h2.9c.9,0,.3,0,.4-.2,0-.1.2-.2.2-.3V3.2h-9.4v22.2h-2.4V.7h14.1v22.2h0ZM184.1,9.9h-7.7v-2.3h1.2c-.3-1.1-.7-2.2-1.2-3.2l2.2-.6c.5,1.2.9,2.4,1.2,3.8h.6c.5-1.1.9-2.3,1.2-3.7l2.3.6c-.3,1-.6,2.1-1.1,3.1h1.2v2.3h0ZM184.1,15h-4.6v3.7s0,.2.2.3c0,0,.3.1.3.1h3.7v2.2h-4.3c-1.4,0-2.1-.7-2.1-2.2v-4.2h-.9v-2.2h3c-.2-.6-.4-1.3-.7-2l2.4-.4c.3.7.6,1.6.9,2.4h2.2v2.2h-.1Z"/>
  <path class="st0" d="M204.8,22.1c-3.3,1.3-6.5,2.4-9.7,3.2l-.7-2.3c.6-.2,1-.3,1.2-.3v-11.1h2.3v10.4c.3,0,.7-.2,1.4-.4v-12h-3.8V.9h8.6v8.6h-2.3v3.7h2.7v2.4h-2.7v5.1c.8-.2,1.8-.6,2.9-1.1v2.5h0ZM201.6,7.1v-3.7h-3.7v3.7h3.7ZM220,12l-1.4,2.2c-2.5-.8-4.7-1.9-6.5-3.1-2.1,1.3-4.2,2.4-6.5,3.2l-1.4-2.3c2.6-.9,4.6-1.8,5.8-2.6-.7-.7-1.5-1.6-2.2-2.9-.6.5-1.2,1-1.9,1.5l-1.5-1.9C207,4.2,208.8,2.2,209.9,0l2.4.7c-.2.5-.5,1-.8,1.5h6.7v2.4c-1.4,2.2-2.7,3.8-4,4.8,1.4.9,3.3,1.7,5.7,2.5h.1ZM218.2,25.3h-2.6v-1h-6.7v1h-2.6v-10.7h12v10.7h-.1ZM215.6,21.9v-4.8h-6.7v4.8s6.7,0,6.7,0ZM215.4,4.7h-5.7c.5,1.3,1.4,2.4,2.4,3.4,1.3-1,2.4-2.1,3.3-3.4Z"/>
</svg>