<?xml version="1.0" encoding="UTF-8"?>
<svg id="_圖層_1" data-name="圖層_1" xmlns="http://www.w3.org/2000/svg" version="1.1" viewBox="0 0 995 17">
  <!-- Generator: Adobe Illustrator 29.4.0, SVG Export Plug-In . SVG Version: 2.1.0 Build 152)  -->
  <defs>
    <style>
      .st0 {
        fill: #8df;
      }
    </style>
  </defs>
  <path class="st0" d="M271,15.3c-1.6.9-3.4,1.4-5.4,1.4s-4.1-.7-5.5-2.2c-1.4-1.5-2.1-3.5-2.1-5.9s.8-4.5,2.4-6.1c1.6-1.6,3.6-2.4,6-2.4s3.3.3,4.4.9v2c-1.3-.8-2.8-1.2-4.6-1.2s-3.3.6-4.5,1.9c-1.2,1.2-1.8,2.9-1.8,4.9s.5,3.7,1.6,4.9c1.1,1.2,2.6,1.8,4.4,1.8s2.4-.3,3.3-.8v-4.6h-3.5v-1.6h5.3v7.3h0Z"/>
  <path class="st0" d="M287.3,16.4h-8.3V.3h1.8v14.5h6.5v1.6h0Z"/>
  <path class="st0" d="M292.2,8.6c0-2.6.7-4.7,2.1-6.2,1.4-1.6,3.3-2.3,5.7-2.3s4,.7,5.4,2.3c1.4,1.5,2,3.5,2,5.8s-.7,4.6-2,6.2c-1.4,1.6-3.2,2.3-5.6,2.3s-4.1-.7-5.5-2.3c-1.4-1.5-2.1-3.5-2.1-5.8ZM294.1,8.4c0,1.9.5,3.5,1.5,4.8,1,1.3,2.4,1.9,4.1,1.9s3.3-.6,4.3-1.8c1-1.2,1.5-2.8,1.5-4.9s-.5-3.8-1.5-5c-1-1.2-2.4-1.8-4.2-1.8s-3.2.6-4.2,1.9c-1.1,1.3-1.6,2.9-1.6,4.8h0Z"/>
  <path class="st0" d="M314.9,16.4V.3h4.5c1.3,0,2.4.3,3.2,1,.8.7,1.2,1.6,1.2,2.7s-.2,1.7-.7,2.4c-.5.7-1.2,1.2-2,1.5,1.1.1,1.9.5,2.6,1.2s1,1.6,1,2.7-.5,2.5-1.5,3.3c-1,.9-2.2,1.3-3.7,1.3h-4.6ZM316.6,1.9v5.3h2c1.1,0,1.9-.3,2.5-.8s.9-1.2.9-2.1c0-1.6-1-2.4-3.1-2.4h-2.2ZM316.6,8.9v5.9h2.6c1.1,0,2-.3,2.6-.8.6-.5,1-1.3,1-2.2,0-1.9-1.3-2.9-4-2.9h-2.2Z"/>
  <path class="st0" d="M344.6,16.4h-2l-1.8-4.6h-6.9l-1.6,4.6h-2l6.2-16.1h1.8l6.2,16.1h0ZM340.3,10.2l-2.6-7c0-.2-.1-.5-.2-1.1h0c0,.5-.2.8-.3,1.1l-2.5,7h5.7Z"/>
  <path class="st0" d="M359.5,16.4h-8.3V.3h1.8v14.5h6.5v1.6h0Z"/>
  <path class="st0" d="M385.2,1.9h-4.6v14.5h-1.8V1.9h-4.6V.3h11.1v1.6Z"/>
  <path class="st0" d="M400.5,16.4h-8.5V.3h8.1v1.6h-6.3v5.5h5.8v1.6h-5.8v5.8h6.7v1.6h0Z"/>
  <path class="st0" d="M418.8,15.7c-1.2.6-2.7,1-4.4,1s-4.1-.7-5.5-2.2c-1.4-1.5-2.1-3.4-2.1-5.8s.7-4.6,2.3-6.2c1.5-1.6,3.5-2.4,5.9-2.4s2.8.2,3.8.7v1.9c-1.2-.6-2.4-1-3.8-1s-3.4.6-4.6,1.9c-1.2,1.3-1.7,2.9-1.7,5s.5,3.5,1.6,4.7c1.1,1.2,2.5,1.8,4.3,1.8s3-.3,4.2-1.1v1.7h0Z"/>
  <path class="st0" d="M438.4,16.4h-1.8v-7.4h-8.4v7.4h-1.8V.3h1.8v7.1h8.4V.3h1.8v16.1Z"/>
  <path class="st0" d="M465.9,1.9h-4.6v14.5h-1.8V1.9h-4.6V.3h11.1v1.6Z"/>
  <path class="st0" d="M483.4,16.4h-2l-1.8-4.6h-6.9l-1.6,4.6h-2l6.2-16.1h1.8l6.2,16.1h0ZM479,10.2l-2.6-7c0-.2-.1-.5-.2-1.1h0c0,.5-.2.8-.3,1.1l-2.5,7h5.7Z"/>
  <path class="st0" d="M498.3,16.4h-8.3V.3h1.8v14.5h6.5v1.6h0Z"/>
  <path class="st0" d="M513.5,16.4h-8.5V.3h8.1v1.6h-6.3v5.5h5.8v1.6h-5.8v5.8h6.7v1.6h0Z"/>
  <path class="st0" d="M533.8,16.4h-2.2l-8.4-13c-.2-.3-.3-.6-.5-1h0c0,.3,0,1.1,0,2.2v11.8h-1.8V.3h2.4l8.2,12.9c.4.7.6,1,.7,1.1h0c0-.5-.1-1.4-.1-2.4V.3h1.8v16.1h0Z"/>
  <path class="st0" d="M551.7,1.9h-4.6v14.5h-1.8V1.9h-4.6V.3h11.1v1.6Z"/>
  <path class="st0" d="M557.8,13.6c.5.4,1.1.7,2,1,.9.3,1.6.4,2.4.4,2.3,0,3.5-.9,3.5-2.6s-.1-.9-.4-1.3c-.3-.4-.6-.7-1-1-.4-.3-1.2-.7-2.4-1.4-1.8-.9-2.9-1.7-3.3-2.3-.5-.7-.7-1.4-.7-2.2,0-1.3.5-2.3,1.6-3.1,1.1-.8,2.4-1.2,4-1.2s2.7.2,3.4.6v2c-1-.7-2.2-1-3.7-1s-1.8.2-2.5.7c-.6.4-1,1-1,1.8s.1.9.3,1.3c.2.3.5.7.9.9.4.3,1.2.7,2.3,1.2,1.6.8,2.7,1.6,3.3,2.3.6.7.9,1.6.9,2.5,0,1.4-.5,2.4-1.5,3.2-1,.7-2.4,1.1-4.2,1.1s-1.3,0-2.1-.3-1.5-.4-1.8-.7v-2.1h0Z"/>
  <path class="st0" d="M596.5,15.3c-1.6.9-3.4,1.4-5.4,1.4s-4.1-.7-5.5-2.2c-1.4-1.5-2.1-3.5-2.1-5.9s.8-4.5,2.4-6.1c1.6-1.6,3.6-2.4,6-2.4s3.3.3,4.4.9v2c-1.3-.8-2.8-1.2-4.6-1.2s-3.3.6-4.5,1.9c-1.2,1.2-1.8,2.9-1.8,4.9s.5,3.7,1.6,4.9c1.1,1.2,2.6,1.8,4.4,1.8s2.4-.3,3.3-.8v-4.6h-3.5v-1.6h5.3v7.3h0Z"/>
  <path class="st0" d="M616.9,16.4h-2l-1.8-4.6h-6.9l-1.6,4.6h-2l6.2-16.1h1.8l6.2,16.1h0ZM612.6,10.2l-2.6-7c0-.2-.1-.5-.2-1.1h0c0,.5-.2.8-.3,1.1l-2.5,7h5.7Z"/>
  <path class="st0" d="M631.4,1.9h-4.6v14.5h-1.8V1.9h-4.6V.3h11.1v1.6Z"/>
  <path class="st0" d="M650.2,16.4h-1.8v-7.4h-8.4v7.4h-1.8V.3h1.8v7.1h8.4V.3h1.8v16.1Z"/>
  <path class="st0" d="M667.2,16.4h-8.5V.3h8.1v1.6h-6.3v5.5h5.8v1.6h-5.8v5.8h6.7v1.6h0Z"/>
  <path class="st0" d="M685.9,16.4h-2.1l-2.7-4.5c-.6-1-1.1-1.6-1.6-1.9-.5-.3-1-.5-1.6-.5h-1.6v6.9h-1.8V.3h4.8c1.5,0,2.6.4,3.5,1.2.9.8,1.3,1.8,1.3,3.1,0,2.2-1.2,3.7-3.6,4.3.4.2.8.5,1.1.8.3.3.7.9,1.3,1.8l3,4.8h0ZM676.3,1.9v5.9h2.6c1,0,1.8-.3,2.4-.9.6-.6.9-1.3.9-2.3s-.3-1.6-.8-2c-.6-.5-1.4-.7-2.4-.7h-2.6Z"/>
  <path class="st0" d="M694.3,16.4h-1.8V.3h1.8v16.1Z"/>
  <path class="st0" d="M715.7,16.4h-2.2l-8.4-13c-.2-.3-.3-.6-.5-1h0c0,.3,0,1.1,0,2.2v11.8h-1.8V.3h2.4l8.2,12.9c.4.7.6,1,.7,1.1h0c0-.5-.1-1.4-.1-2.4V.3h1.8v16.1h0Z"/>
  <path class="st0" d="M736.2,15.3c-1.6.9-3.4,1.4-5.4,1.4s-4.1-.7-5.5-2.2c-1.4-1.5-2.1-3.5-2.1-5.9s.8-4.5,2.4-6.1c1.6-1.6,3.6-2.4,6-2.4s3.3.3,4.4.9v2c-1.3-.8-2.8-1.2-4.6-1.2s-3.3.6-4.5,1.9c-1.2,1.2-1.8,2.9-1.8,4.9s.5,3.7,1.6,4.9c1.1,1.2,2.6,1.8,4.4,1.8s2.4-.3,3.3-.8v-4.6h-3.5v-1.6h5.3v7.3h0Z"/>
</svg>