<svg width="994" height="79" viewBox="0 0 994 79" fill="none" xmlns="http://www.w3.org/2000/svg">
<path d="M994.176 0H0V78.87H994.176V0Z" fill="#EFB652"/>
<path d="M423.67 51.5636L422.846 54.5069C419.236 54.6639 415.939 54.7817 412.917 54.7817C409.425 54.7817 406.952 54.7032 405.539 54.5069C404.127 54.3107 402.753 53.9575 401.419 53.4081C400.084 52.8587 398.946 52.1522 397.965 51.2496C396.709 53.0156 395.571 54.4677 394.512 55.5665L392 53.565C394.943 50.7394 396.984 47.3644 398.161 43.4007H392.628V40.7321C394.786 38.2597 396.395 36.1405 397.494 34.296H392.235V31.2741H401.301V34.2568C400.163 36.1405 398.711 38.1812 396.984 40.4182H401.497V43.3615C400.948 45.2845 400.241 47.0898 399.378 48.7773C400.084 49.4837 401.183 50.1115 402.596 50.6609C404.048 51.2104 406.05 51.5243 408.679 51.6028C411.308 51.6813 413.898 51.7206 416.449 51.7206C419 51.7206 421.355 51.7205 423.631 51.6028L423.67 51.5636ZM401.458 28.1346L399.339 30.45C397.573 28.841 395.414 27.3105 392.863 25.8977L395.061 23.543C397.769 25.1127 399.888 26.6041 401.497 28.1346H401.458ZM423.003 39.6332H413.741C413.349 41.8702 412.25 43.9894 410.445 45.9908C408.64 47.9923 406.52 49.5621 404.048 50.7002L402.047 48.1885C404.244 47.3251 406.128 46.1086 407.659 44.5781C409.189 43.0476 410.131 41.3993 410.484 39.6725H402.557V36.8076H410.994C411.073 36.062 411.112 35.2772 411.112 34.4138C411.112 33.9036 411.112 33.3149 411.112 32.687H403.734V29.8614H421.826V32.687H414.33C414.33 33.9036 414.291 35.2771 414.173 36.7684H423.042V39.6332H423.003ZM411.465 27.7814L408.757 29.2728C407.619 27.4675 406.599 26.0546 405.618 24.995L408.326 23.543C409.307 24.4456 410.366 25.8585 411.426 27.7814H411.465ZM423.67 48.1101L421.747 50.5825C419.432 48.3848 416.528 46.1871 413.153 43.9502L415.037 41.517C418.098 43.3615 420.962 45.5592 423.67 48.1101ZM420.452 25.152C419.393 26.761 418.294 28.1739 417.156 29.3905L414.409 27.8206C415.468 26.6825 416.567 25.2697 417.744 23.543L420.452 25.152Z" fill="white"/>
<path d="M457.42 55.1745H454.123V53.4085H429.556V41.5566H432.813V50.3475H441.918V38.0639H431.204V26.2121H434.422V34.9636H441.918V23.8574H445.136V34.9636H452.632V26.2121H455.85V38.0639H445.136V50.3475H454.202V41.5566H457.42V55.1745Z" fill="white"/>
<path d="M478.181 35.4329L475.512 36.8849C475.198 36.1785 475.002 35.7468 474.845 35.5506C471.98 36.7279 468.802 37.866 465.309 38.8864L464.21 36.2178C464.681 35.7861 464.916 35.2759 464.916 34.7265V26.5637C469.351 26.0535 473.079 25.0723 476.18 23.5811L478.024 26.1712C475.277 27.4663 471.98 28.4081 468.095 29.036V34.9619C470.175 34.2948 471.941 33.6276 473.315 32.9604C473.04 32.5287 472.608 31.9402 471.941 31.1161L474.414 29.7032C475.866 31.3122 477.082 33.196 478.103 35.3937L478.181 35.4329ZM491.563 55.1337H488.424V53.8385H470.175V55.1337H467.075V39.7891H491.563V55.1337ZM477.71 45.3225V42.6538H470.175V45.3225H477.71ZM477.71 50.9738V48.0304H470.175V50.9738H477.71ZM493.918 24.8369C493.918 27.6625 493.8 30.1742 493.643 32.3326C493.447 34.4911 493.172 35.9038 492.858 36.571C492.545 37.2381 492.074 37.709 491.485 38.023C490.896 38.337 489.954 38.4939 488.659 38.4939C488.071 38.4939 487.286 38.494 486.305 38.4548L485.441 35.4329C486.383 35.4329 487.168 35.4329 487.757 35.4329C488.777 35.4329 489.444 35.3937 489.64 35.276C489.837 35.1582 490.033 35.0011 490.151 34.8049C490.268 34.6087 490.386 33.7061 490.543 32.1756C490.661 30.6058 490.739 29.1538 490.739 27.7802H486.972C486.383 32.6073 484.146 36.2963 480.261 38.8864L477.867 36.7672C481.517 34.491 483.479 31.5085 483.754 27.7802H479.28V24.8369H493.918ZM488.424 45.3225V42.6538H480.85V45.3225H488.424ZM488.424 50.9738V48.0304H480.85V50.9738H488.424Z" fill="white"/>
<path d="M530.848 30.1361H499.648V27.2712H513.463C513.109 26.4864 512.638 25.6622 511.971 24.7988L515.268 23.543C515.935 24.5633 516.602 25.8192 517.269 27.2712H530.887V30.1361H530.848ZM528.297 35.6303H502.16V32.8439H528.297V35.6303ZM528.297 41.1638H502.16V38.4167H528.297V41.1638ZM527.826 55.174H524.529V53.8006H505.928V55.0956H502.71V44.1856H527.865V55.174H527.826ZM524.529 51.0534V46.8542H505.928V51.0534H524.529Z" fill="white"/>
<path d="M566.521 37.4364V40.4975H550.706C549.45 41.9495 548.351 43.0484 547.487 43.794V51.3682C549.999 50.8972 552.315 50.3479 554.512 49.6022V52.9381C551.137 53.9977 547.723 54.7825 544.191 55.3319L543.21 52.4279C543.877 51.9569 544.191 51.329 544.191 50.4656V46.3842C541.719 48.0324 539.128 49.406 536.46 50.4263L534.812 47.2868C539.639 45.7171 543.445 43.4409 546.232 40.5368H535.243V37.4757H549.332V34.9247H537.676V32.0207H549.332V29.4698H536.107V26.448H549.332V23.9756H552.668V26.448H565.697V29.4698H552.668V32.0207H564.166V34.9247H552.668V37.4757H566.482L566.521 37.4364ZM566.992 52.5063L565.187 55.5674C561.459 54.2723 558.515 52.5848 556.435 50.4656C554.316 48.3857 552.668 45.56 551.49 42.0672L554.748 41.5963C555.493 43.4801 556.278 45.0106 557.102 46.1487C559.182 44.9321 560.948 43.4408 562.479 41.6748L565.344 43.5193C563.578 45.4423 561.576 47.169 559.3 48.6996C561.184 50.3479 563.774 51.643 566.992 52.5456V52.5063Z" fill="white"/>
<path d="M602.43 50.5031H588.419V55.134H585.241V50.5031H571.27V47.7953H585.241V45.8331H574.527V33.9419H599.212V45.8331H588.419V47.7953H602.43V50.5031ZM585.437 32.0975H573.31V24.5625H585.437V32.0975ZM582.258 29.4288V27.2311H576.371V29.4288H582.258ZM585.241 38.6905V36.5713H577.706V38.6905H585.241ZM585.241 43.2036V41.1237H577.706V43.2036H585.241ZM600.232 32.0975H588.223V24.5625H600.232V32.0975ZM596.072 38.6905V36.5713H588.419V38.6905H596.072ZM596.072 43.2036V41.1237H588.419V43.2036H596.072ZM597.132 29.4288V27.2311H591.402V29.4288H597.132Z" fill="white"/>
</svg>
