<?xml version="1.0" encoding="UTF-8"?>
<svg id="_圖層_1" data-name="圖層_1" xmlns="http://www.w3.org/2000/svg" version="1.1" viewBox="0 0 995 28">
  <!-- Generator: Adobe Illustrator 29.4.0, SVG Export Plug-In . SVG Version: 2.1.0 Build 152)  -->
  <defs>
    <style>
      .st0 {
        fill: #8df;
      }
    </style>
  </defs>
  <path class="st0" d="M497.1,27.5c-.7,0-1.4-.1-1.9-.4l-2.2-1.1-1.8-.8-44.4-21c-1.1-.5-1.3-1.3-1.4-1.7,0-.7.3-1.4,1-1.8,1-.7,2.7-1,4.2-.3l46.5,22L543.7.4c1.5-.7,3.3-.4,4.2.3.7.5,1,1.1.9,1.8,0,.4-.3,1.2-1.4,1.7l-44.4,21-1.8.8-2.2,1.1c-.5.3-1.2.4-1.9.4Z"/>
</svg>