<?xml version="1.0" encoding="UTF-8"?>
<svg id="_圖層_1" data-name="圖層_1" xmlns="http://www.w3.org/2000/svg" xmlns:xlink="http://www.w3.org/1999/xlink" version="1.1" viewBox="0 0 800 724">
  <!-- Generator: Adobe Illustrator 29.4.0, SVG Export Plug-In . SVG Version: 2.1.0 Build 152)  -->
  <defs>
    <style>
      .st0 {
        fill: none;
      }

      .st1 {
        mask: url(#mask);
      }

      .st2 {
        fill: url(#_未命名漸層);
      }

      .st3 {
        fill: #fff;
      }
    </style>
    <linearGradient id="_未命名漸層" data-name="未命名漸層" x1="399.5" y1="726" x2="399.5" y2="2.6" gradientTransform="translate(0 726) scale(1 -1)" gradientUnits="userSpaceOnUse">
      <stop offset="0" stop-color="#fff"/>
      <stop offset=".5" stop-color="#fff" stop-opacity="0"/>
    </linearGradient>
    <mask id="mask" x="104.5" y="45.9" width="548.2" height="522.2" maskUnits="userSpaceOnUse">
      <g id="mask0_2008_29">
        <path class="st3" d="M652.6,100.8H124.2v107.6h528.4v-107.6Z"/>
      </g>
    </mask>
  </defs>
  <path class="st3" d="M108.7,96.8h-5.9l-3.3-9.1h-13.9l-3.1,9.1h-5.9l13.1-34.8h6l13,34.8h0ZM98,83.2l-4.9-13.7c-.2-.5-.3-1.4-.5-2.6h-.1c-.1,1-.3,1.9-.6,2.6l-4.8,13.8h11Z"/>
  <path class="st3" d="M121.2,66.3v30.4h-5.4v-34.8h5.4v4.4Z"/>
  <path class="st3" d="M146.8,64.1h-6.2c-.4,2.8-1.2,6.1-2.5,9.9h7.8v22.8h-3.9v-2h-3.4v3.1h-4v-16.7c-.5,1-1.1,1.7-1.6,2.3l-2.3-4c2.7-4.1,4.7-9.2,5.8-15.4h-5.1v-4h15.4v4h0ZM142,90.9v-12.8h-3.4v12.8h3.4ZM171.3,78.7h-5.3v20.2h-4.2v-20.2h-5.4c.2,8.6-1.9,15.4-6.5,20.5l-3-3.1c1.8-1.6,3.1-3.7,4-6.1.9-2.5,1.3-6.2,1.2-11.2h-4.8v-4h4.8v-10.7h-3.7v-3.9h22v3.9h-4.6v10.7h5.3v4h0ZM161.8,74.7v-10.7h-5.4v10.7h5.4Z"/>
  <path class="st3" d="M198.6,63.1c-2.3,3.3-5.8,6.3-10.4,8.8h8.3v10.5h-9.1l-.5,4h10.1c0,4.1-.3,7.1-.8,8.7-.4,1.7-1.2,2.7-2.2,3.2-1,.5-3,.7-6,.7s-2.2,0-3.7,0l-1.4-3.8c1.6.1,4.1.1,7.7.1s2.2-1.8,2.2-5.5h-10.4l1.4-10.9h8.8v-3.5h-7.7v-1.9c-1,.5-2.2,1-3.8,1.5l-1.9-3.3c2.4-.7,4.6-1.7,6.8-2.8-1.1-.7-2.4-1.4-4-2.1l2.7-2.9c1.3.5,2.9,1.4,5,2.6,1.5-1,2.8-2.2,3.9-3.4h-10.4v-3.6h15.3v3.6h0ZM220.1,71.7l-2.1,3.2c-1.6-.7-3-1.4-4.2-2.2v4.7c0,.5.3.7.8.7h4.1v3.5h-5.4c-2.2,0-3.3-1.1-3.3-3.4v-2.8h-4.5c0,3.2-1.8,5.7-5.3,7.4l-2.5-3c1.2-.5,2.2-1.2,2.9-2,.7-.9,1.1-2.3,1.1-4.2v-1.7h10.7c-5.7-3.5-9.6-7.6-11.8-12.3l3.7-1.2c.4,1.1,1.2,2.3,2.3,3.7,1.4-1.1,2.5-2.3,3.5-3.7l3.3,2.1c-1.4,1.8-2.9,3.2-4.3,4.3.5.5,1.2,1,2.1,1.8,1.7-1.4,3.2-2.9,4.5-4.3l3.2,2c-1.5,1.8-3,3.2-4.6,4.4,1.5,1,3.5,1.9,5.9,3h0ZM219.2,96.8l-2.9,2.6c-2-1.4-4.2-2.9-6.8-4.5-2.6,2-5.9,3.5-9.8,4.6l-2-3.4c3.6-1,6.3-2,8.2-3.3-2.4-1.4-4.5-2.5-6.2-3.4l2.4-2.4h-2.7v-3.5h17.2v3.5c-1.3,1.9-2.6,3.6-4.1,5.2,2.3,1.5,4.6,3,6.7,4.6h0ZM211.8,87.1h-8.7c2.1,1.1,4.1,2.1,6,3.2,1.2-1.2,2-2.3,2.6-3.2h0Z"/>
  <path class="st3" d="M268.6,88.9l-2.3,3.4c-2.4-.9-4.8-2.3-7.1-4.1v2.7h-9.3v3.7h16.6v3.6h-36.9v-3.6h16.2v-3.7h-8.9v-2.8c-2.4,1.9-4.8,3.3-7.1,4.2l-2.2-3.5c3.9-1.4,7-3.2,9.1-5.7h-8.6v-3.7h7.5v-14h-6.5v-3.6h6.5v-3h4.1v3h16.8v-3h4.1v3h6.6v3.6h-6.6v14h7.5v3.7h-8.5c2.3,2.3,5.3,4.2,9.2,5.7h0ZM258,87.3c-1.9-1.7-3.3-3.1-4.1-4.1h-12.5c-1.1,1.6-2.2,3-3.5,4.1h7.9v-2.9h4.2v2.9h8ZM256.2,68v-2.4h-16.8v2.4h16.8ZM256.2,73.7v-2.5h-16.8v2.5h16.8ZM256.2,79.6v-2.7h-16.8v2.7h16.8Z"/>
  <path class="st3" d="M290.1,90.5c-4.9,2.5-9.2,4.4-12.9,5.7l-1.1-3.9c1.6-.5,3.3-1.2,5-1.9v-16.9h-4.4v-3.9h4.4v-10.5h4.1v10.5h4.1v3.9h-4.1v15.1c1.5-.6,3-1.4,4.5-2.2l.3,4.2h0ZM316.7,90.3c-.1,3.1-.5,5.1-1.2,6.2-.7,1.1-1.8,1.7-3.5,2s-4.7.3-9,.3-5.7,0-6.9-.2c-1.2-.1-2.2-.6-2.9-1.4-.7-.8-1-2-1-3.5v-14.7l-3.2,1.3-.5-4.2,3.7-1.5v-10.3h4v8.6l5.4-2.1v-11.8h4v10.2l9.6-3.9c-.1,7.8-.8,14.5-2,20.1l-3.9-1.2c.9-4.2,1.5-8.5,1.7-12.9l-5.4,2.2v17.3h-4v-15.6l-5.4,2.2v16c0,.9.3,1.4,1,1.5.7,0,2.8.1,6.3.1s6,0,7.1,0c1.1,0,1.8-.6,1.9-1.6.2-1,.3-2.5.3-4.4l3.9,1.5h0Z"/>
  <path class="st3" d="M344.5,71.4c.9,0,1.7.3,2.3.9.6.6.9,1.3.9,2.2s-.3,1.6-1,2.2c-.6.6-1.4.9-2.3.9s-1.6-.3-2.3-.9c-.6-.6-1-1.4-1-2.2s.3-1.6.9-2.2c.6-.6,1.4-.9,2.3-.9h0ZM344.5,91.1c.9,0,1.7.3,2.3.9.6.6,1,1.4,1,2.2s-.3,1.6-.9,2.2c-.6.6-1.4.9-2.3.9s-1.7-.3-2.3-.9c-.6-.6-.9-1.3-.9-2.2s.3-1.6,1-2.2c.6-.6,1.4-.9,2.3-.9h0Z"/>
  <path class="st3" d="M411.5,99.1h-4.1v-1.8h-28.7v1.8h-4.1v-39.6h36.9v39.6ZM407.4,93.7v-30.6h-28.7v30.6h28.7ZM393.6,87.4c-4.3,1.7-8.8,3-13.5,4.1l-.5-3.7c4.4-.8,9-2.1,13.8-3.9l.2,3.5ZM406.8,85.6c-.7,4.5-2.4,6.8-4.8,6.8s-2.9-1.1-4.1-3.2c-1.4,1.6-2.8,2.9-4.1,3.8l-2.7-2.6c1.8-1.4,3.5-3.1,5.2-5.2-1.1-3.5-1.9-8.3-2.3-14.3h-13.7v-3.3h13.5c0-.6,0-1.8,0-3.5h3.8c0,1.2,0,2.4.1,3.6h5.2c-1.1-.7-2.4-1.3-4-1.7l2.2-2.3c1.5.5,2.9,1.2,4.2,1.9l-2,2.1h2.5v3.3h-8.1c.2,4,.7,7.3,1.3,9.8,1.3-2.5,2.4-5.3,3.5-8.5l3.3,1.5c-1.4,5-3.2,9-5.4,12,.2.8.5,1.4.9,1.8.4.5.6.7.8.7s.5-.4.8-1.3c.3-.9.6-2.2.9-4l3,2.5h0ZM392.3,83.2h-11v-9.8h11v9.8ZM388.5,79.9v-3.2h-3.5v3.2h3.5Z"/>
  <path class="st3" d="M434.3,63.9c0,.2-.3,1.3-.8,3.3s-1.2,4-1.9,5.9c1.9,3.4,2.9,6.7,2.9,10.1s-.4,4.1-1.3,5c-.9,1-2.2,1.5-4,1.5s-.9,0-1.3,0l-.8-4c.3,0,.7,0,1.2,0,1.1,0,1.8-.1,2.1-.5.3-.3.4-1,.4-1.9,0-2.8-1.1-6.2-3.2-10.1,1.2-2.7,2.2-5.8,3-9.4h-4v35h-4v-39h11.8v3.9ZM444.5,88.8c-2.8,3.9-5.7,7-8.8,9.3l-3.1-2.7c3-2.2,5.8-5.2,8.5-8.7l3.5,2.1h0ZM439.8,71.8c-2,1-3.7,1.7-5.2,2.1l-.8-2.6c1.9-.6,3.7-1.4,5.3-2.1l.8,2.6h0ZM449,62.2c-1.3,5.2-3.1,9-5.3,11.4-2.2,2.4-4.7,4.4-7.3,5.8l-2.5-2.9c3.6-1.9,6.2-4,7.9-6.3-1-.9-2-1.7-3-2.4-.6.8-1.2,1.3-1.6,1.7l-2.9-2.3c3-2.8,5.2-5.8,6.4-8.8l3.3,1.2c-.1.4-.3.8-.5,1.3l5.5,1.2h0ZM461,85.3h-10.7v13.6h-4v-13.6h-10.5v-3.7h25.1v3.7ZM444.4,64.8l-2.7-.7c-.2.3-.5.7-.8,1.1,1.3.9,2.2,1.5,2.6,1.9.4-.9.7-1.6.8-2.3h0ZM453.6,78.7h-10.6v-3.7h10.6v3.7ZM462.2,76.6l-2.4,3c-5.4-3.4-9-7.8-10.8-13.3l3.3-1.5c.5,1.2,1.1,2.4,1.6,3.4,1.2-1.6,2-3.1,2.5-4.5h-6.4v-3.7h10.5v3.7c-1.3,2.9-2.7,5.4-4.3,7.7,1.3,1.7,3.4,3.4,6.1,5.1h0ZM462,95.8l-3.4,2.1c-1.3-2.5-3.3-5.4-5.9-8.7l3.1-2.4c2.3,2.4,4.4,5.4,6.3,9Z"/>
  <path class="st3" d="M499.3,96.8h-5.9l-3.3-9.1h-13.9l-3.1,9.1h-5.9l13.1-34.8h6l13,34.8h0ZM488.5,83.2l-4.9-13.7c-.2-.5-.3-1.4-.5-2.6h-.1c-.1,1-.3,1.9-.6,2.6l-4.8,13.8h11Z"/>
  <path class="st3" d="M511.8,66.3v30.4h-5.4v-34.8h5.4v4.4Z"/>
  <path class="st3" d="M543.8,77.1l-2.2,2.9c-2.2-1.7-5-3.4-8.6-5.3-2.3,3-5.5,5.2-9.5,6.6l-2.5-3.1c4.9-1.8,8-4,9.3-6.5h-8.3v-3.5h9.2c.2-.9.3-2.2.3-3.7h-3.7c-1,1.1-2.1,2-3.3,2.9l-3.1-2.4c2.9-2.3,5.2-4.7,6.8-7l3.8,1.2c-.3.7-.7,1.4-1.1,1.8h11.5v3.5h-6.8l-.3,3.7h8.2v3.5h-8.8c3.3,1.5,6.4,3.3,9.3,5.3h0ZM557.3,99.2h-4.1v-2.3h-23v2.2h-4.1v-18.3h31.2v18.4h0ZM553.2,87.2v-2.7h-23v2.7h23ZM553.2,93.3v-2.8h-23v2.8h23ZM560.7,78h-15.4v-16.6h15.4v16.6ZM556.7,74.3v-9.3h-7.5v9.3h7.5Z"/>
  <path class="st3" d="M578.3,91.8c-1.8,3.1-3.5,5.5-5,7.2l-3.4-2.6c1.7-1.6,3.3-3.7,5-6.5l3.4,1.9ZM610.2,84.1h-4.3v4.8h-32.6v-2.8h28.7v-1.9h-31.8v-2.9h31.8v-1.8h-28.7v-2.7h32.6v4.5h4.3v2.9ZM589,74.1h-7.1v1.4h-3.8v-1.4h-7.6v-3h7.6v-2.2h-6v-2.8h6v-2h-7.1v-3.1h7.1v-2.1h3.8v2.1h6.9v3.1h-6.9v2h6v2.8h-6v2.2h7.1v3ZM601.8,93.2c-.3,2.5-.8,4-1.4,4.6-.7.6-1.2,1-1.6,1.1-.4.1-3.5.2-9.4.2s-4.9,0-5.7-.2c-.8-.1-1.5-.5-2.1-1.1-.6-.6-.9-1.5-.9-2.7v-5.2h4.1v4.5c0,.4.2.7.6.8.4.1,3.1.2,8,.2s2.4,0,2.8,0,.8-.3,1-.7c.3-.4.4-1.5.5-3.1l4.1,1.6h0ZM595.9,92.4l-2.9,2.4c-2-1.4-3.9-2.3-5.6-2.9l3-2.4c2.1.9,3.9,1.9,5.5,3ZM609.7,74.1h-7.9v1.4h-4v-1.4h-6.8v-3h6.8v-2.2h-5.7v-2.8h5.7v-2h-6.7v-3.1h6.7v-2.1h4v2.1h7.3v3.1h-7.3v2h6.1v2.8h-6.1v2.2h7.9v3ZM610.6,96.1l-3.2,2.6c-.9-1.7-2.7-4-5.2-6.9l3.1-2.2c2.5,2.5,4.3,4.7,5.4,6.5Z"/>
  <path class="st3" d="M656.8,99h-4v-1.7h-28.7v1.7h-4.1v-39.5h36.8v39.5ZM652.8,93.8v-30.7h-28.7v30.7h28.7ZM649.1,83.1h-11.1c-.7.7-1.4,1.4-2.2,2.1v3.8c1.1-.2,2.4-.7,4-1.2l.3,3.2c-3.3,1.2-6,1.9-8,2.2l-.9-2.8c.5-.4.8-.9.8-1.5v-1c-2.1,1.1-3.9,1.9-5.5,2.4l-1.6-3c3.9-1.4,6.7-2.7,8.4-4.1h-5.5v-7.7h21.3v7.7ZM651.3,73.7h-25.9v-2.9h11v-2.1h-9.6v-2.8h9.6v-1.6h4v1.6h9.6v2.8h-9.6v2.1h10.9v2.9h0ZM645,80.3v-2.2h-13.1v2.2h13.1ZM651.6,90.5l-2.4,2.5c-3.2-2.4-6.9-4.6-11.1-6.7l2.3-2.3c1.2.4,2.5,1.1,4.1,2.1,1-.8,1.9-1.6,2.9-2.6l3.2,1.7c-1,1-2,1.8-3,2.6,1.3.9,2.6,1.8,3.9,2.7h0Z"/>
  <path class="st3" d="M706.9,97.9h-33.8c-1.3,0-2.4-.4-3.1-1.3-.7-.8-1.1-2-1.1-3.3v-29.9h-2.1v-3.5h39.7v3.5h-33.5v29.6c0,.3.1.6.4.9.3.3.6.4.9.4h32.7v3.5h0ZM688.4,91.7h-12.8v-12.8h12.8v12.8ZM699.9,76.5h-20.5v-10.5h20.5v10.5ZM684.6,88.2v-5.8h-5.1v5.8h5.1ZM695.8,73.1v-3.6h-12.2v3.6h12.2ZM704.1,91.7h-13v-12.8h13v12.8ZM700.2,88.2v-5.8h-5.3v5.8h5.3Z"/>
  <path class="st3" d="M241.8,242.3h-15.7v9.5h-4.3v-9.5h-20.1v-4h6.1v-11.8h14.1v-6.8h-10.5c-2.5,3.1-4.9,5.6-7.1,7.7l-2.9-3c4.3-3.7,7.9-8.2,10.7-13.2l4.2.8c-.5,1.2-1.1,2.5-2,3.7h26v4h-14.1v6.8h13v4h-13v7.8h15.7v4h0ZM221.9,238.2v-7.8h-9.8v7.8h9.8Z"/>
  <path class="st3" d="M292.4,231.2h-32.9v7.5c0,5.7-1.4,10.1-4.3,13.2l-3.3-2.9c1-.9,1.8-2.3,2.5-4.2s1-4.8,1-8.9v-8.5h36.9v3.7h0ZM291.3,218.2h-6.9c-1.2,1.3-2.6,2.4-4,3.3,3.6.8,6.9,1.7,9.9,2.7l-1.5,2.8c-3.9-1.3-7.9-2.3-12.3-3.2-5.8,2.2-11.6,3.2-17.6,3l-1.2-3.1c3.9,0,7.7-.3,11.5-1.1-2.7-.5-5.7-.9-9-1.2l1.8-2.7c4.3.4,8.9,1,13.8,1.9,1.4-.8,2.6-1.6,3.6-2.5h-25.8v-3.7h17.1c-.4-.7-.8-1.5-1.3-2.3l4.2-.9c.6,1,1.2,2.1,1.8,3.2h16v3.7ZM292.5,250.8h-33.1v-3.4h14.7v-3h-9.3v-3.3h9.3v-2.6h-8.1c-1.2,1.8-2.4,3.2-3.7,4.3l-2.5-3.2c2.2-1.8,3.9-4.2,5.1-7.3l3.8,1.2c-.2.7-.4,1.3-.7,1.7h6.1v-2.8h4.2v2.8h12.1v3.4h-12.1v2.6h11v3.3h-11v3h14.1v3.4Z"/>
  <path class="st3" d="M314.5,212.1c-.3,1.5-.9,3.3-1.7,5.5l-1.2,3.2v30.7h-4.1v-21.9c-.6,1.1-1.4,2.4-2.6,4l-2.3-4c3.2-4.7,5.8-10.9,7.8-18.6l4,1h0ZM343.3,250.8h-29.4v-3.5h3.1v-25.8h8c.4-1.4.7-2.5.9-3.3h-10.9v-3.6h11.9c.5-1.9.7-3.1.8-3.5l4.3.4c-.1.8-.3,1.8-.7,3h11.6v3.6h-12.5c-.2.7-.5,1.8-.9,3.3h10.6v25.8h3.3v3.5ZM335.9,228v-2.9h-14.9v2.9h14.9ZM336,234.4v-3.2h-14.9v3.2h14.9ZM336,241v-3.3h-14.9v3.3h14.9ZM336,247.3v-3.3h-14.9v3.3h14.9Z"/>
  <path class="st3" d="M360.1,241.2c-.7,4.1-1.6,7.7-2.9,10.7l-3.7-1.8c1.3-3.2,2.2-6.6,2.8-10.2l3.8,1.2h0ZM373.7,237.6l-3.5,1.5c-.3-.9-.6-1.8-1-2.7-5,1.3-9.6,2.2-13.9,2.8l-1.4-3.7c3.5-3.1,6.5-6.2,8.9-9.5-2,.4-4.5.8-7.4,1.1l-1-3.8c3.1-3.4,5.7-7.5,7.7-12.1l3.8,1.7c-2,3.9-4.2,7.2-6.5,9.8,2.2-.2,4.3-.5,6.5-1,1.1-1.5,2.1-3.1,3.1-4.9l3.5,2c-3.3,5.8-7.5,11-12.4,15.6,2.3-.3,4.8-.7,7.5-1.4-.2-.7-.6-1.4-1.1-2.1l3.5-1.4c1.3,1.8,2.5,4.5,3.7,8.1ZM367.5,249.6l-3.9,1c-.4-3.5-1-6.6-1.9-9.3l3.9-.7c.9,2.8,1.6,5.8,2,9ZM373.4,247.3l-3.5,1.2c-.3-2.3-1.1-4.9-2.4-7.8l3.5-.8c1.2,2.9,2,5.4,2.4,7.5ZM393.4,218.4c0,4.6-.2,10.6-.4,18-.3,7.4-.8,11.7-1.6,12.7-.7,1-1.6,1.7-2.4,2.1-.8.4-2.6.5-5.2.5s-2,0-3.1,0l-1.7-4.1h6.9c.5,0,1-.1,1.4-.4.3-.3.6-.6.7-1,.1-.4.3-2.1.5-5.2.2-3.1.4-6.2.5-9.4.1-3.2.2-6.2.2-9h-11.1c-1.2,2.6-2.4,4.8-3.7,6.5l-3.4-2.4c2.7-3.9,5-9,6.6-15.4l4,.8c-.3,1.6-1,3.8-1.9,6.4h13.6ZM386.6,239.3l-3.3,2.3c-1.5-3.1-4.1-6.5-7.6-10.3l3.1-2.4c3.5,3.5,6.1,7.1,7.8,10.5h0Z"/>
  <path class="st3" d="M419.6,213.7v35.8h-5.4v-29.9c-1.2,1-2.4,1.9-3.9,2.7-1.4.8-2.9,1.4-4.2,1.7v-5.1c3.8-1.2,7.2-3,10.2-5.2h3.3Z"/>
  <path class="st3" d="M435.3,232.7c0-6.1,1-10.8,3.1-13.9s5.1-4.8,9.1-4.8c7.6,0,11.4,6,11.4,17.9s-1,10.3-3.1,13.4c-2.1,3.1-5.1,4.7-9,4.7s-6.7-1.5-8.6-4.5c-1.9-3-2.9-7.3-2.9-12.9h0ZM440.7,232.5c0,8.9,2.2,13.3,6.5,13.3s6.4-4.5,6.4-13.6-2.1-13.9-6.2-13.9-6.6,4.8-6.6,14.2Z"/>
  <path class="st3" d="M467.4,232.7c0-6.1,1-10.8,3.1-13.9,2.1-3.2,5.1-4.8,9.1-4.8,7.6,0,11.4,6,11.4,17.9s-1,10.3-3.1,13.4c-2.1,3.1-5.1,4.7-9,4.7s-6.7-1.5-8.6-4.5c-1.9-3-2.9-7.3-2.9-12.9h0ZM472.8,232.5c0,8.9,2.2,13.3,6.5,13.3s6.4-4.5,6.4-13.6-2.1-13.9-6.2-13.9-6.6,4.8-6.6,14.2Z"/>
  <path class="st3" d="M499.5,232.7c0-6.1,1-10.8,3.1-13.9,2.1-3.2,5.1-4.8,9.1-4.8,7.6,0,11.4,6,11.4,17.9s-1,10.3-3.1,13.4c-2.1,3.1-5.1,4.7-9,4.7s-6.7-1.5-8.6-4.5c-1.9-3-2.9-7.3-2.9-12.9h0ZM504.8,232.5c0,8.9,2.2,13.3,6.5,13.3s6.4-4.5,6.4-13.6-2.1-13.9-6.2-13.9-6.6,4.8-6.6,14.2Z"/>
  <path class="st3" d="M543.6,212.2c-.4,1.6-1,3.6-1.7,6l-1.1,3.5v30.1h-4.1v-21.8c-.6,1.1-1.4,2.3-2.5,3.7l-2.1-4.2c3.1-4.6,5.6-10.6,7.5-18.1l3.9.9h0ZM548.6,242.5c-1.1,4.1-2.2,7-3.4,8.8l-3.3-2.4c1.4-2.2,2.4-4.8,3-7.6l3.7,1.2ZM572.7,223.9h-29.9v-3.2h7.9c-.3-1.1-.7-2.1-1.4-3h-5v-3.2h11.6c-.5-1.1-1-1.9-1.3-2.5l3.9-.8c.6,1.1,1.1,2.2,1.4,3.3h11.5v3.2h-4.8c-.5,1.2-.9,2.2-1.4,3h7.5v3.2ZM570,239h-24.5v-13h24.5v13ZM565.8,231v-2h-16.4v2h16.4ZM565.8,236.1v-2.3h-16.4v2.3h16.4ZM566.2,246.2c-.1,1.4-.5,2.5-.9,3.3-.4.8-1,1.4-1.7,1.6-.7.2-2.4.3-5.1.3-3.9,0-6.3-.2-7.2-.7-.9-.5-1.4-1.3-1.4-2.6v-7h4v5.6c0,.4.1.7.4.8.3.1,1.4.2,3.5.2s2.9,0,3.5-.2c.6-.1,1-1,1.2-2.7l3.7,1.4h0ZM562.6,217.7h-9.1c.5.8.8,1.8,1.2,3h6.5c.7-1.1,1.2-2.1,1.5-3h0ZM561.9,244.1l-3,2.1c-1.1-1.5-2.3-2.9-3.7-4.1l3.2-2.2c1.4,1.3,2.6,2.7,3.6,4.2ZM573,249l-3.3,1.8c-1-3-2.4-5.6-4.2-8l3.5-1.8c2.2,3.1,3.5,5.8,4.1,7.9h0Z"/>
  <path class="st3" d="M214.8,320.8h-4v-1.7h-28.7v1.7h-4.1v-39.5h36.8v39.5ZM210.8,315.6v-30.7h-28.7v30.7h28.7ZM207.1,304.9h-11.1c-.7.7-1.4,1.4-2.2,2.1v3.8c1.1-.2,2.4-.7,4-1.2l.3,3.2c-3.3,1.2-6,1.9-8,2.2l-.9-2.8c.5-.4.8-.9.8-1.5v-1c-2.1,1.1-3.9,1.9-5.5,2.4l-1.6-3c3.9-1.4,6.7-2.7,8.4-4.1h-5.5v-7.7h21.3v7.7ZM209.3,295.5h-25.9v-2.9h11v-2.1h-9.6v-2.8h9.6v-1.6h4v1.6h9.6v2.8h-9.6v2.1h10.9v2.9h0ZM203,302.1v-2.2h-13.1v2.2h13.1ZM209.6,312.3l-2.4,2.5c-3.2-2.4-6.9-4.6-11.1-6.7l2.3-2.3c1.2.4,2.5,1.1,4.1,2.1,1-.8,1.9-1.6,2.9-2.6l3.2,1.7c-1,1-2,1.8-3,2.6,1.3.9,2.6,1.8,3.9,2.7h0Z"/>
  <path class="st3" d="M267.2,319.8h-33.8c-1.3,0-2.4-.4-3.1-1.3-.7-.8-1.1-2-1.1-3.3v-29.9h-2.1v-3.5h39.7v3.5h-33.5v29.6c0,.3.1.6.4.9s.6.4.9.4h32.7v3.5h0ZM248.7,313.5h-12.8v-12.8h12.8v12.8ZM260.2,298.3h-20.5v-10.5h20.5v10.5ZM244.8,310v-5.8h-5.1v5.8h5.1ZM256.1,294.9v-3.6h-12.2v3.6h12.2ZM264.3,313.5h-13v-12.8h13v12.8ZM260.5,309.9v-5.8h-5.3v5.8h5.3Z"/>
  <path class="st3" d="M318.2,317.8l-2.6,3.4c-9-6.8-14.9-13.9-17.7-21.4-2.2,8.4-8.1,15.4-17.6,21.1l-2.8-3.3c12.1-7.5,18.1-17.4,18.1-29.5v-7.3h4.4v9.5c0,5,1.7,9.9,5,14.7,3.3,4.8,7.7,9.1,13.2,12.9h0Z"/>
  <path class="st3" d="M352.9,310.9h-5.6c-1.1,1.6-2.1,2.9-2.9,3.8,2.4,1,4.6,1.9,6.4,2.8l-2.3,2.9c-3.1-1.4-5.4-2.4-7.1-3.1-4.1,2-7.9,3.4-11.5,3.9l-1.6-3.5c3.2-.4,6-1.1,8.4-2.1-2.4-.9-4.3-1.4-5.9-1.8,1.4-1.6,2.3-2.6,2.6-3h-4.8v-3.1h7.3l1.7-2.6h-7v-7.6h8.1v-2.2h-8.2v-5h-2.1v-2.9h2.1v-5h8.2v-1.8h3.8v1.8h8.1v5h2.3v2.9h-2.3v5h-8.1v2.2h8.2v7.6h-8.4l-1.7,2.6h4.2c.2-.4.5-.9.7-1.6l3.5.8c0,.2,0,.5-.3.7h4.1v3.1h0ZM338.7,287.4v-2h-4.5v2h4.5ZM338.7,292.6v-2.2h-4.5v2.2h4.5ZM338.7,302.2v-1.8h-4.3v1.8h4.3ZM342.8,310.9h-4.6s-.4.6-1.1,1.4l3.5,1.1c.9-.9,1.6-1.7,2.1-2.4h0ZM346.8,287.4v-2h-4.3v2h4.3ZM346.8,292.5v-2.2h-4.3v2.2h4.3ZM347,302.2v-1.8h-4.5v1.8h4.5ZM369.2,317.8l-2,3.4c-3.2-2.4-5.4-4.7-6.8-6.8-1.9,2.6-4,4.8-6.3,6.7l-2.7-3c2.9-2.3,5.1-4.8,6.7-7.3-1.5-2.7-2.6-5.8-3.5-9.2l3.5-1.9c.6,2.8,1.3,5,1.9,6.4,1.2-3.7,1.8-8.8,2-15.1h-3.4c-1.4,4.3-2.9,7.5-4.3,9.8l-2.6-3.3c2.5-4.6,4.3-10.3,5.3-17.1l3.9.6c-.2,1.3-.6,3.4-1.2,6.2h8.8v3.8h-2.5c-.3,8.4-1.5,15-3.5,19.8,1.8,2.8,4,5.1,6.7,7.1h0Z"/>
  <path class="st3" d="M385.5,310.3c-.7,4.1-1.6,7.7-2.9,10.7l-3.7-1.8c1.3-3.2,2.2-6.6,2.8-10.2l3.8,1.2h0ZM399.1,306.7l-3.5,1.5c-.3-.9-.6-1.8-1-2.7-5,1.3-9.6,2.2-13.9,2.8l-1.4-3.7c3.5-3.1,6.5-6.2,8.9-9.5-2,.4-4.5.8-7.4,1.1l-1-3.8c3.1-3.4,5.7-7.5,7.7-12.1l3.8,1.7c-2,3.9-4.2,7.2-6.5,9.9,2.2-.2,4.3-.5,6.5-1,1.1-1.5,2.1-3.1,3.1-4.9l3.5,2c-3.3,5.8-7.5,11-12.4,15.6,2.3-.3,4.8-.7,7.5-1.4-.2-.7-.6-1.4-1.1-2.1l3.5-1.4c1.3,1.8,2.5,4.5,3.7,8.1ZM392.8,318.8l-3.9,1c-.4-3.5-1-6.6-1.9-9.3l3.9-.7c.9,2.8,1.6,5.8,2,9ZM398.7,316.5l-3.5,1.2c-.3-2.3-1.1-4.9-2.4-7.8l3.5-.8c1.2,2.9,2,5.4,2.4,7.5ZM418.7,287.5c0,4.6-.2,10.6-.4,18-.3,7.4-.8,11.7-1.6,12.7-.7,1-1.6,1.7-2.4,2.1-.8.4-2.6.5-5.2.5s-2,0-3.1,0l-1.7-4.1h6.9c.5,0,1-.1,1.4-.4.3-.3.6-.6.7-1,.1-.4.3-2.1.5-5.2.2-3.1.4-6.2.5-9.4.1-3.2.2-6.2.2-9h-11.1c-1.2,2.6-2.4,4.8-3.7,6.5l-3.4-2.4c2.7-3.9,5-9,6.6-15.4l4,.8c-.3,1.6-.9,3.8-1.9,6.4h13.6ZM412,308.4l-3.3,2.3c-1.5-3.1-4.1-6.5-7.6-10.3l3.1-2.4c3.5,3.5,6.1,7.1,7.8,10.5h0Z"/>
  <path class="st3" d="M448.2,283.7v23h5v4.1h-5v7.7h-4.7v-7.7h-15.7v-4.7c3.1-3.7,6.1-7.6,8.9-11.6,2.8-4.1,4.9-7.7,6.4-10.8h5.1ZM443.5,306.7v-16.8c-1.1,2.2-2.8,4.9-5.1,8.2-2.3,3.3-4.6,6.2-6.7,8.6h11.8Z"/>
  <path class="st3" d="M460.7,301.8c0-6.1,1-10.8,3.1-13.9,2.1-3.2,5.1-4.8,9.1-4.8,7.6,0,11.4,6,11.4,17.9s-1,10.3-3.1,13.4c-2.1,3.1-5.1,4.7-9,4.7s-6.7-1.5-8.6-4.5c-1.9-3-2.9-7.3-2.9-12.9h0ZM466.1,301.6c0,8.9,2.2,13.3,6.5,13.3s6.4-4.5,6.4-13.6-2.1-13.9-6.2-13.9-6.6,4.8-6.6,14.2Z"/>
  <path class="st3" d="M492.7,301.8c0-6.1,1-10.8,3.1-13.9,2.1-3.2,5.1-4.8,9.1-4.8,7.6,0,11.4,6,11.4,17.9s-1,10.3-3.1,13.4c-2.1,3.1-5.1,4.7-9,4.7s-6.7-1.5-8.6-4.5c-1.9-3-2.9-7.3-2.9-12.9h0ZM498.1,301.6c0,8.9,2.2,13.3,6.5,13.3s6.4-4.5,6.4-13.6-2.1-13.9-6.2-13.9-6.6,4.8-6.6,14.2Z"/>
  <path class="st3" d="M524.8,301.8c0-6.1,1-10.8,3.1-13.9,2.1-3.2,5.1-4.8,9.1-4.8,7.6,0,11.4,6,11.4,17.9s-1,10.3-3.1,13.4c-2.1,3.1-5.1,4.7-9,4.7s-6.7-1.5-8.6-4.5c-1.9-3-2.9-7.3-2.9-12.9h0ZM530.2,301.6c0,8.9,2.2,13.3,6.5,13.3s6.4-4.5,6.4-13.6-2.1-13.9-6.2-13.9-6.6,4.8-6.6,14.2Z"/>
  <path class="st3" d="M598.4,317.8l-2.6,3.4c-9-6.8-14.9-13.9-17.7-21.4-2.2,8.4-8.1,15.4-17.6,21.1l-2.8-3.3c12.1-7.5,18.1-17.4,18.1-29.5v-7.3h4.4v9.5c0,5,1.7,9.9,5,14.7,3.3,4.8,7.7,9.1,13.2,12.9h0Z"/>
  <path class="st2" d="M764.3,723.3H34.7c-13.6,0-24.7-11.1-24.7-24.7V24.7C10,11.1,21.1,0,34.7,0h729.6c13.6,0,24.7,11.1,24.7,24.7v673.9c0,13.6-11.1,24.7-24.7,24.7h0ZM34.7,4c-11.4,0-20.6,9.3-20.6,20.6v673.9c0,11.4,9.3,20.7,20.6,20.7h729.6c11.4,0,20.6-9.3,20.6-20.7V24.7c0-11.4-9.3-20.6-20.6-20.6H34.7Z"/>
  <g class="st1">
    <rect class="st0" x="104.5" y="45.9" width="530.3" height="522.2"/>
  </g>
</svg>