<?xml version="1.0" encoding="UTF-8"?>
<svg id="_圖層_1" data-name="圖層_1" xmlns="http://www.w3.org/2000/svg" version="1.1" viewBox="0 0 995 51">
  <!-- Generator: Adobe Illustrator 29.4.0, SVG Export Plug-In . SVG Version: 2.1.0 Build 152)  -->
  <defs>
    <style>
      .st0 {
        fill: #fff;
      }
    </style>
  </defs>
  <path class="st0" d="M425,39.1c1.3-2.2,2.1-4.3,2.5-6.2.2,1.2.3,2.3.3,3.5,0,1.9-.2,3.7-.7,5.6-.5,1.8-1.2,3.3-2,4.5l-4.1-2.3c1.4-1.2,2.8-2.9,4-5.1h0ZM426,19.7c-1.6,3.6-3.3,6.1-4.9,7.5,1-1.8,2.1-4.6,3.2-8.3,1.1-3.7,1.7-7,1.8-9.8l3.3.7c-.7,3.1-1.8,6.3-3.4,9.9ZM437.6,6.5l2-.9-1.1,2.3h-16.5l-.5-1.4h16ZM432.7,2.5v25l-3.8,1.8V.7l3.8,1.8ZM435.6,33.4v5.7c0,2.5.4,4.3,1.2,5.6.8,1.2,2.2,2.1,4.4,2.6,2.2.5,5.5.8,9.9.9-3.3.5-6.1.8-8.4.8-4,0-6.9-.8-8.7-2.3-1.8-1.6-2.7-4-2.7-7.4v-7.6l4.3,1.8h0ZM434.2,14.6c-.6-2.2-1.4-4.1-2.3-5.8,1.4,1.1,2.6,2.6,3.9,4.8,1.3,2.1,2.2,4.2,2.9,6.2l-3.4,1.4c-.2-2.1-.6-4.3-1.2-6.5h0ZM440.8,33.8c-.9-1.8-2-3.1-3.1-4.1,1.9.9,3.7,2,5.6,3.5,1.8,1.4,3.3,3,4.4,4.6l-4.2,2.1c-.8-2.2-1.7-4.3-2.6-6h0ZM444.9,3.6v23.8l-3.9,1.8V1.8l3.9,1.8ZM448.9,2c2.5,0,5.1.5,7.7,1.5v1.4c-2.5-1-5-1.5-7.5-1.5s-4.8.5-7.1,1.5l-.4-1.4c2.4-1,4.9-1.4,7.4-1.4ZM455.7,25.1v1.4h-12.7l-.4-1.4h13.1ZM450.2,10.2l2-.9-1.1,2.3h-7.6l-.4-1.4h7.1ZM450.2,17.8l2-.9-1.1,2.3h-7.6l-.4-1.4h7.1ZM454.3,38c-.9-2.1-2-3.9-3.1-5.4,2.2,1.2,4,2.6,5.5,4.3,1.5,1.7,2.7,3.7,3.7,6l-4.4,1.7c-.2-2.2-.8-4.3-1.7-6.5h0ZM457,1.8v27.4l-4-1.8V3.6l4-1.8Z"/>
  <path class="st0" d="M481.2,6l-.5-1.4h27.2v1.4h-26.8ZM497.8,44.7c-1.7,2.8-4.4,4.8-8.2,5.9,2.4-1.6,4.1-3.6,5-6.1.9-2.4,1.3-5.6,1.3-9.5v-17.5l4.5-1.8v19c0,3.9-.8,7.2-2.5,10h0ZM505.9,12.7c-2.9,2.2-5.4,3.8-7.6,4.6,1.7-1.7,3.7-4.1,5.8-7.2,2.2-3.1,3.7-5.5,4.6-7.3l3.8,3.8c-1.6,1.8-3.9,3.8-6.7,6.1h0Z"/>
  <path class="st0" d="M539.2,10.9c-1.8,3.3-3.8,6-6,8.1,1.2-2.6,2.4-5.8,3.5-9.6,1.1-3.9,1.8-7,2-9.3l4.3,1.8c-.8,2.8-2.1,5.8-3.9,9.1h0ZM538,42c-.9,3.3-2.4,5.9-4.6,7.8,1.2-2.5,1.9-5.3,2.2-8.3.4-3,.5-7,.5-12V11.9l3.2,1.8v15.9c0,5-.5,9.2-1.4,12.4ZM543.4,14.1c-2.2,0-4.5.4-6.9,1.2v-1.4c2.4-.8,4.8-1.2,6.9-1.2s4.4.4,6.9,1.2v1.4c-2.4-.8-4.8-1.2-6.9-1.2ZM538.1,23.6l-.4-1.4h12.6v1.4h-12.2ZM538.1,33.4l-.4-1.4h12.6v1.4h-12.2ZM540.4,6.2l-.4-1.4h6.2v1.4h-5.8ZM544.8,13.5v27.9l-2.3,1.8V13.5h2.3ZM546.5,10.5c-1.2,1.1-2.4,1.9-3.7,2.6.7-1.2,1.3-2.4,1.7-3.7.4-1.3.7-3.1,1-5.3l3.9,2.3c-.7,1.7-1.7,3-2.9,4.1h0ZM549.4,45.2c-1.2,2.4-3.4,3.7-6.6,3.8,1.6-.6,2.7-1.6,3.5-2.8.8-1.3,1.3-2.7,1.5-4.3.2-1.6.3-3.7.3-6.1V13.7l3.1-1.8v23.5c0,4.1-.6,7.4-1.8,9.8h0ZM556.8,28.2c-1,1.9-2.3,3.7-4,5.6.9-2.1,1.5-4.1,1.8-5.9.4-1.8.6-4.3.8-7.3l3.9.8c-.7,2.7-1.6,5-2.6,6.9ZM559.4,12.6c-1.7,3.1-3.8,5.5-6.5,7.2,1.9-2.4,3.2-4.9,4.1-7.6.8-2.7,1.4-5.7,1.5-9h3.9c-.3,3.1-1.4,6.2-3,9.4ZM571.6,35.4l2-.9-1.2,2.3h-19l-.5-1.4h18.6ZM553.1,2.7h15.8v1.4h-15.4l-.5-1.4ZM570,26.2l2-.9-1.1,2.3h-14.5l-.5-1.4h14ZM561.7,19.4l3.6,1.8v26.6l-3.6,1.8v-30.2ZM568.6,15.4c-1.5,1.6-3.5,2.4-6.1,2.5,1.8-.8,3-1.9,3.7-3.1.7-1.2,1-2.9,1-4.9V3.2l3.7-1.7v7.8c0,2.4-.7,4.5-2.2,6Z"/>
</svg>