<?xml version="1.0" encoding="UTF-8"?>
<svg id="_圖層_1" xmlns="http://www.w3.org/2000/svg" version="1.1" viewBox="0 0 57 170">
  <!-- Generator: Adobe Illustrator 29.4.0, SVG Export Plug-In . SVG Version: 2.1.0 Build 152)  -->
  <defs>
    <style>
      .st0 {
        fill: none;
      }

      .st1 {
        fill: #fff;
      }
    </style>
  </defs>
  <rect class="st0" width="56.9" height="169.9"/>
  <path class="st1" d="M41.6,83.6c0-.7-.1-1.4-.4-1.9l-1.1-2.2-.8-1.8-21-44.4c-.5-1.1-1.3-1.3-1.7-1.4-.7,0-1.4.3-1.8,1-.7,1-1,2.7-.3,4.2l22,46.5-22,46.5c-.7,1.5-.4,3.3.3,4.2.5.7,1.1,1,1.8.9.4,0,1.2-.3,1.7-1.4l21-44.4.8-1.8,1.1-2.2c.3-.5.4-1.2.4-1.9h0Z"/>
</svg>