<?xml version="1.0" encoding="UTF-8"?>
<svg id="_圖層_1" data-name="圖層_1" xmlns="http://www.w3.org/2000/svg" xmlns:xlink="http://www.w3.org/1999/xlink" version="1.1" viewBox="0 0 800 724">
  <!-- Generator: Adobe Illustrator 29.4.0, SVG Export Plug-In . SVG Version: 2.1.0 Build 152)  -->
  <defs>
    <style>
      .st0 {
        fill: none;
      }

      .st1 {
        mask: url(#mask);
      }

      .st2 {
        fill: url(#_未命名漸層);
      }

      .st3 {
        fill: #fff;
      }
    </style>
    <linearGradient id="_未命名漸層" data-name="未命名漸層" x1="399.5" y1="726" x2="399.5" y2="2.6" gradientTransform="translate(0 726) scale(1 -1)" gradientUnits="userSpaceOnUse">
      <stop offset="0" stop-color="#fff"/>
      <stop offset=".5" stop-color="#fff" stop-opacity="0"/>
    </linearGradient>
    <mask id="mask" x="104.5" y="45.9" width="548.2" height="522.2" maskUnits="userSpaceOnUse">
      <g id="mask0_2008_28">
        <path class="st3" d="M652.6,100.8H124.2v107.6h528.4v-107.6Z"/>
      </g>
    </mask>
  </defs>
  <path class="st3" d="M87.5,64.5h-7.4v2.4h5.9v16.3h-5.9v2.3h6.7v3.1h-6.7v5.2h-3.4v-5.2h-6.8v-3.1h6.8v-2.3h-5.8v-16.3h5.8v-2.4h-6.8v-3.2h6.8v-2.9h3.4v2.9h7.4v3.2ZM76.7,73.4v-3.4h-2.6v3.4h2.6ZM76.7,80v-3.7h-2.6v3.7h2.6ZM82.7,73.4v-3.4h-2.6v3.4h2.6ZM82.7,80v-3.7h-2.6v3.7h2.6ZM105.3,91.3l-2.3,2.6c-4.4-3.6-7.1-7.5-8-11.9-1.2,4.5-3.8,8.4-7.9,11.8l-2.7-2.4c2.6-1.8,4.7-4.3,6.5-7.4,1.7-3.1,2.5-7.6,2.4-13.6h3.4c0,.9,0,1.7,0,2.5,0,4.3.7,7.8,2.2,10.7,1.5,2.9,3.7,5.4,6.6,7.6h0ZM104.7,63.8c-.6,4.6-1.7,8.8-3.3,12.7l-3.1-1.7c.9-2,1.7-4.5,2.4-7.5h-7.6c-1.1,2.9-2.4,5.4-3.8,7.4l-2.7-2.4c2.3-3.4,4.2-8.1,5.8-14.1l3.4.8c-.3,1.4-.7,3-1.4,4.8h10.3Z"/>
  <path class="st3" d="M127.6,74.6h-2v15.4c0,1.6-.5,2.6-1.5,3.1-1,.4-2.4.7-4.3.7l-1.1-3.3c.6,0,1.1,0,1.5,0,1,0,1.6,0,1.8-.2.2-.1.3-.3.3-.7v-3.3c-1.2.7-2.5,1.4-3.8,2.1l-1.1-1.8c-.5,2.8-1.3,5.2-2.6,7l-2.8-1.9c1.6-2.5,2.4-5.3,2.4-8.6v-8.4h-1.9v-5.9h1.5v-9.9h12.5v9.9h1.2v5.9ZM124.4,74v-2.2h-8.7v2.2h8.7ZM123.2,63.6v-1.7h-6.2v6.8h1.6v-5.1h4.6ZM122.3,82.7v-5.6h-4.6v1.7c1.6.4,2.9.7,3.9,1l-.9,2.9c-1.2-.4-2.2-.7-2.9-.9,0,1.4,0,2.5-.1,3.4,1.7-.9,3.3-1.7,4.7-2.6h0ZM123.2,68.7v-2.4h-1.9v2.4h1.9ZM147.4,93h-20.1v-2.9h5.2c-.5-1.3-.8-2.3-1.1-2.8h-1.8v-7.7h16.3v7.7h-2c0,.3-.4,1.2-1,2.8h4.5v2.9ZM147.1,78h-18.8v-2.9h18.8v2.9ZM146.6,73.2h-17.6v-11.9h4.9v-2.9h3v2.9h1.8v-2.9h3.1v2.9h4.8v11.9h0ZM134,66v-2h-1.9v2h1.9ZM134,70.6v-2.2h-1.9v2.2h1.9ZM142.5,84.6v-2.4h-9.4v2.4h9.4ZM140.2,87.3h-5.2c.4,1,.8,1.9,1.1,2.8h3c.5-1.1.8-2,1-2.8ZM138.7,66v-2h-1.8v2h1.8ZM138.7,70.6v-2.2h-1.8v2.2h1.8ZM143.5,66v-2h-1.7v2h1.7ZM143.5,70.6v-2.2h-1.7v2.2h1.7Z"/>
  <path class="st3" d="M168.4,63.1h-5.4c-.3,2.4-1.1,5.3-2.2,8.7h6.9v20h-3.4v-1.7h-3v2.7h-3.5v-14.6c-.5.8-.9,1.5-1.4,2l-2-3.5c2.4-3.5,4.1-8,5.1-13.5h-4.5v-3.5h13.4v3.5ZM164.3,86.5v-11.2h-3v11.2h3ZM189.8,75.9h-4.6v17.7h-3.6v-17.7h-4.8c.2,7.5-1.7,13.5-5.6,17.9l-2.6-2.8c1.6-1.4,2.7-3.2,3.5-5.4.8-2.2,1.2-5.4,1.1-9.8h-4.1v-3.5h4.1v-9.4h-3.2v-3.4h19.3v3.4h-4v9.4h4.6v3.5h0ZM181.5,72.4v-9.4h-4.8v9.4h4.8Z"/>
  <path class="st3" d="M213.7,62.2c-2,2.9-5,5.5-9.1,7.7h7.3v9.2h-8l-.4,3.5h8.8c0,3.6-.3,6.2-.7,7.6-.4,1.4-1,2.4-1.9,2.8-.9.4-2.6.6-5.2.6s-2,0-3.3,0l-1.2-3.3c1.4,0,3.6.1,6.7.1s1.9-1.6,1.9-4.8h-9.1l1.2-9.6h7.7v-3.1h-6.7v-1.7c-.9.4-2,.8-3.3,1.3l-1.6-2.9c2.1-.6,4-1.4,5.9-2.4-1-.6-2.1-1.2-3.5-1.8l2.4-2.5c1.1.5,2.6,1.2,4.4,2.3,1.3-.9,2.5-1.9,3.4-3h-9.1v-3.1h13.3v3.1h0ZM232.5,69.8l-1.8,2.8c-1.4-.6-2.6-1.2-3.7-1.9v4.1c0,.4.2.7.7.7h3.6v3.1h-4.7c-1.9,0-2.9-1-2.9-3v-2.4h-3.9c0,2.8-1.6,5-4.6,6.5l-2.2-2.6c1.1-.4,1.9-1,2.5-1.8.6-.7.9-2,.9-3.7v-1.5h9.3c-5-3.1-8.4-6.7-10.3-10.7l3.2-1c.4.9,1,2,2,3.2,1.2-1,2.2-2,3.1-3.2l2.9,1.8c-1.3,1.6-2.5,2.8-3.7,3.8.4.4,1,.9,1.8,1.5,1.5-1.2,2.8-2.5,3.9-3.8l2.8,1.8c-1.3,1.6-2.7,2.8-4,3.8,1.3.8,3,1.7,5.2,2.6h0ZM231.8,91.7l-2.5,2.3c-1.7-1.3-3.7-2.6-5.9-3.9-2.3,1.7-5.2,3.1-8.6,4l-1.8-3c3.1-.8,5.6-1.8,7.2-2.9-2.1-1.2-3.9-2.2-5.4-3l2.1-2.1h-2.4v-3.1h15.1v3.1c-1.1,1.6-2.3,3.2-3.5,4.6,2,1.3,4,2.6,5.8,4ZM225.3,83.1h-7.6c1.8.9,3.6,1.9,5.3,2.8,1-1.1,1.8-2,2.3-2.8Z"/>
  <path class="st3" d="M272.5,82h-13.9v11.6h-3.7v-11.6h-13.8v-17h13.8v-6.5h3.7v6.5h13.9v17ZM255,78.5v-9.9h-10.1v9.9h10.1ZM268.8,78.5v-9.9h-10.1v9.9h10.1Z"/>
  <path class="st3" d="M289.4,71.4c-1.2,7.7-2.9,13.8-4.9,18.2l-3.3-2c2.3-5.2,3.8-10.9,4.6-17l3.6.7h0ZM309,81.8c0,2.6-.2,4.6-.4,6.2-.2,1.6-.5,2.6-.8,3.1-.3.5-.8,1-1.4,1.4-.6.5-1.5.7-2.7.8s-2.4.1-3.7.1-2.8,0-4.1-.2c-1.3-.1-2.1-.3-2.6-.6-.4-.3-.7-.7-1-1.2-.3-.5-.4-1.2-.4-1.9v-22.3h3.6v21.4c0,1,.6,1.4,1.8,1.4s3.1,0,5.9,0,.9-.1,1.3-.4c.4-.3.7-1.5.9-3.5.1-2.1.2-3.8.2-5.2l3.5,1ZM305.8,69.4l-3.1,2.2c-2.1-3.9-4.9-7.5-8.3-11.1l2.5-2.2c3.3,3.1,6.2,6.8,8.8,11.1ZM317,86.7l-3.5,1.6c-1.3-5.4-3.3-10.6-6.2-15.8l3.1-1.7c3.1,6,5.3,11.2,6.5,15.8h0Z"/>
  <path class="st3" d="M341.4,69.5c.8,0,1.5.3,2,.8.5.5.8,1.2.8,1.9s-.3,1.4-.8,2-1.2.8-2,.8-1.4-.3-2-.8c-.5-.5-.8-1.2-.8-2s.3-1.4.8-1.9,1.2-.8,2-.8h0ZM341.4,86.7c.8,0,1.5.3,2,.8.5.5.8,1.2.8,2s-.3,1.4-.8,1.9c-.5.5-1.2.8-2,.8s-1.4-.3-2-.8c-.5-.5-.8-1.2-.8-1.9s.3-1.4.8-2c.5-.5,1.2-.8,2-.8h0Z"/>
  <path class="st3" d="M383.9,68.3h-5.9v25.4h-3.7v-25.4h-1.1c-1.3,2.2-2.8,4.4-4.6,6.5l-2.6-2.6c3.3-3.8,6-8.4,8-13.9l3.8.7c-.7,2-1.6,3.9-2.6,5.8h8.7v3.5ZM401.4,68.3h-5v21.5c0,1-.3,1.9-.7,2.5-.5.6-1,1-1.6,1.2-.6.2-1.7.3-3.3.3s-2.1,0-3-.1l-1.3-3.7c1.9,0,3.7.1,5.4.1s1-.3,1-1v-20.7h-3.5c-1.5,2.6-3.1,4.8-4.8,6.7l-2.6-2.4c3-3.3,5.6-8,8.1-14.3l3.6.7c-.7,1.9-1.4,3.9-2.4,5.8h10.2v3.5h0Z"/>
  <path class="st3" d="M425.3,61.2c-1.8.6-3.8,1.1-6,1.4v5.2h5.1v3.4h-5.1v1.1c2.1,2.2,3.9,4.5,5.4,6.9l-2.5,2.6c-1-1.9-1.9-3.5-2.9-4.9v16.7h-3.5v-16c-1.9,3.7-3.7,6.3-5.4,8l-2-3.2c2.8-2.8,5.2-6.6,7.3-11.3h-6.9v-3.4h7.1v-4.6c-1.7.3-3.5.5-5.4.6l-1.5-3.3c5.1-.3,10-1,14.6-2.3l1.7,3h0ZM443.8,83.5l-3.7.6v9.7h-3.6v-9.2l-12.1,1.6-.3-3.5,12.4-1.7v-22.3h3.6v21.9l3.6-.5v3.5c.1,0,.1,0,.1,0ZM434.7,76.3l-2.4,2.7c-1.7-2.2-4.2-4.5-7.5-6.9l2.3-2.6c3.3,2.4,5.8,4.7,7.6,6.9ZM435.3,66.6l-2.4,2.6c-2.2-2.5-4.6-4.8-7.1-6.6l2.5-2.5c2.7,2.1,5,4.3,7.1,6.5h0Z"/>
  <path class="st3" d="M474.5,91.6h-5.7l-6.4-11.1c-.2-.3-.4-.9-.7-1.7h0c-.1.3-.3.9-.7,1.7l-6.5,11h-5.7l10.1-15.3-9.2-15.2h5.8l5.6,10.2c.4.7.7,1.5,1,2.3h0c.1-.3.5-1.1,1.1-2.4l5.9-10.1h5.4l-9.4,15.1,9.6,15.4h0Z"/>
  <path class="st3" d="M496.5,65.3h-16.8v-3.2h6.7c-.4-1.1-.9-2.2-1.5-3.3l3.8-.7c.6,1.1,1.2,2.4,1.8,3.9h6.1v3.2h0ZM494.6,71.3h-13.4v-3.2h13.4v3.2ZM494.6,77.1h-13.4v-3.2h13.4v3.2ZM494.6,93.1h-3.5v-2h-6.2v2.5h-3.5v-13.9h13.3v13.3ZM491.1,87.9v-4.8h-6.2v4.8h6.2ZM514.9,73.1h-7.3v20.5h-3.7v-20.5h-7.2v-3.5h7.2v-11.1h3.7v11.1h7.3v3.5Z"/>
  <path class="st3" d="M545.8,66.4h-2.5v3.8h-7.9v1.6h8.5v2.3h-8.5v1.8h9.4v2.3h-22.4v-2.3h9.6v-1.8h-8.5v-2.4h8.5v-1.6h-7.7v-2.2h7.7v-1.6h-10v-2.3h10v-1.6h-7.7v-2.2h7.7v-1.9h3.4v1.9h7.9v3.8h2.5v2.3ZM545.2,93.1h-23.2v-2.5h23.2v2.5ZM543.3,88.8h-19.4v-8.8h19.4v8.8ZM532.1,83.3v-1.3h-4.8v1.3h4.8ZM532,86.7v-1.4h-4.7v1.4h4.7ZM540,83.3v-1.3h-4.7v1.3h4.7ZM540,86.7v-1.4h-4.7v1.4h4.7ZM539.8,64.1v-1.6h-4.5v1.6h4.5ZM539.8,68.1v-1.6h-4.5v1.6h4.5ZM550.2,86.3h-3.4v-25h3.4v25ZM556.5,90.3c0,1.2-.4,2-1.2,2.6-.8.5-3,.8-6.6.8l-.7-3.6c1,0,2,0,3,0s1.5,0,1.8-.2c.2-.1.3-.4.3-.8v-30.8h3.4v31.9h0Z"/>
  <path class="st3" d="M571.4,98.6c-4.4-5-6.7-11.2-6.7-18.6s2.2-13.6,6.7-18.8h3.9c-4.4,5.5-6.6,11.8-6.6,18.8s2.2,13.2,6.6,18.6h-3.9Z"/>
  <path class="st3" d="M593.8,60.3v31.3h-4.8v-26.1c-1,.9-2.1,1.6-3.4,2.4s-2.5,1.2-3.6,1.5v-4.5c3.4-1.1,6.3-2.6,8.9-4.6h2.9,0Z"/>
  <path class="st3" d="M629.1,80.7h-8.5v8.4h-3.3v-8.4h-8.4v-3.4h8.4v-8.4h3.3v8.4h8.5v3.4Z"/>
  <path class="st3" d="M657.2,87.4v4.3h-18.7v-1.8c0-2,.5-3.9,1.5-5.7,1-1.8,2.6-3.5,4.7-5,2.6-2,4.3-3.4,5.2-4.3s1.6-1.8,2-2.7.6-1.7.6-2.6c0-1.5-.5-2.6-1.6-3.5s-2.5-1.3-4.4-1.3-4.6.7-6.7,2.3v-4c2.5-1.6,5.2-2.3,8.2-2.3s5,.7,6.7,2.3c1.6,1.5,2.4,3.6,2.4,6.1s-.3,2.8-.7,4c-.5,1.2-1.2,2.3-2.1,3.4-.9,1-2.5,2.4-4.7,4.1-1.9,1.4-3.2,2.4-3.8,3.1-.7.6-1.2,1.3-1.6,1.9-.4.6-.6,1.3-.6,1.9h13.7Z"/>
  <path class="st3" d="M673.8,86.3c-2,3.1-4.2,5.6-6.5,7.6l-2.7-2.4c2.3-1.8,4.4-4.1,6.3-6.9l3,1.7ZM684.1,83.7h-19.5v-3.2h3.3v-14.8h-2.7v-3.2h2.7v-4.1h3.5v4.1h6.1v-4.1h3.5v4.1h2.8v3.2h-2.8v14.8h3.1v3.2h0ZM677.6,68.6v-2.8h-6.1v2.8h6.1ZM677.6,74.5v-2.8h-6.1v2.8h6.1ZM677.6,80.5v-3h-6.1v3h6.1ZM682.1,89.6l-2.7,2c-1.2-2-2.5-3.7-3.9-5.2l2.6-2c1.3,1.3,2.6,3,3.9,5.1h0ZM698.7,89c0,3.1-1.5,4.7-4.4,4.7s-1.7,0-2.9,0l-1.2-3.5c1,0,1.7,0,2.3,0,1.2,0,2-.1,2.3-.3.3-.2.4-.6.4-1.1v-7.1h-6.4c-.3,4.8-1.7,9-4.2,12.5l-3.1-2c2.7-3.5,4.1-8.8,4.1-15.9v-17.1h13v29.8h0ZM695.2,68.3v-5.7h-6.1v5.7h6.1ZM695.2,78.1v-6.3h-6.1v6.3h6.1Z"/>
  <path class="st3" d="M704.8,98.6c4.4-5.4,6.6-11.5,6.6-18.6s-2.2-13.3-6.6-18.8h4c4.5,5.3,6.7,11.6,6.7,18.8s-2.2,13.5-6.7,18.6h-3.9,0Z"/>
  <path class="st3" d="M241.8,242.3h-15.7v9.5h-4.3v-9.5h-20.1v-4h6.1v-11.8h14.1v-6.8h-10.5c-2.5,3.1-4.9,5.6-7.1,7.7l-2.9-3c4.3-3.7,7.9-8.2,10.7-13.2l4.2.8c-.5,1.2-1.1,2.5-2,3.7h26v4h-14.1v6.8h13v4h-13v7.8h15.7v4h0ZM221.9,238.2v-7.8h-9.8v7.8h9.8Z"/>
  <path class="st3" d="M292.4,231.2h-32.9v7.5c0,5.7-1.4,10.1-4.3,13.2l-3.3-2.9c1-.9,1.8-2.3,2.5-4.2s1-4.8,1-8.9v-8.5h36.9v3.7h0ZM291.3,218.2h-6.9c-1.2,1.3-2.6,2.4-4,3.3,3.6.8,6.9,1.7,9.9,2.7l-1.5,2.8c-3.9-1.3-7.9-2.3-12.3-3.2-5.8,2.2-11.6,3.2-17.6,3l-1.2-3.1c3.9,0,7.7-.3,11.5-1.1-2.7-.5-5.7-.9-9-1.2l1.8-2.7c4.3.4,8.9,1,13.8,1.9,1.4-.8,2.6-1.6,3.6-2.5h-25.8v-3.7h17.1c-.4-.7-.8-1.5-1.3-2.3l4.2-.9c.6,1,1.2,2.1,1.8,3.2h16v3.7ZM292.5,250.8h-33.1v-3.4h14.7v-3h-9.3v-3.3h9.3v-2.6h-8.1c-1.2,1.8-2.4,3.2-3.7,4.3l-2.5-3.2c2.2-1.8,3.9-4.2,5.1-7.3l3.8,1.2c-.2.7-.4,1.3-.7,1.7h6.1v-2.8h4.2v2.8h12.1v3.4h-12.1v2.6h11v3.3h-11v3h14.1v3.4Z"/>
  <path class="st3" d="M314.5,212.1c-.3,1.5-.9,3.3-1.7,5.5l-1.2,3.2v30.7h-4.1v-21.9c-.6,1.1-1.4,2.4-2.6,4l-2.3-4c3.2-4.7,5.8-10.9,7.8-18.6l4,1h0ZM343.3,250.8h-29.4v-3.5h3.1v-25.8h8c.4-1.4.7-2.5.9-3.3h-10.9v-3.6h11.9c.5-1.9.7-3.1.8-3.5l4.3.4c-.1.8-.3,1.8-.7,3h11.6v3.6h-12.5c-.2.7-.5,1.8-.9,3.3h10.6v25.8h3.3v3.5ZM335.9,228v-2.9h-14.9v2.9h14.9ZM336,234.4v-3.2h-14.9v3.2h14.9ZM336,241v-3.3h-14.9v3.3h14.9ZM336,247.3v-3.3h-14.9v3.3h14.9Z"/>
  <path class="st3" d="M360.1,241.2c-.7,4.1-1.6,7.7-2.9,10.7l-3.7-1.8c1.3-3.2,2.2-6.6,2.8-10.2l3.8,1.2h0ZM373.7,237.6l-3.5,1.5c-.3-.9-.6-1.8-1-2.7-5,1.3-9.6,2.2-13.9,2.8l-1.4-3.7c3.5-3.1,6.5-6.2,8.9-9.5-2,.4-4.5.8-7.4,1.1l-1-3.8c3.1-3.4,5.7-7.5,7.7-12.1l3.8,1.7c-2,3.9-4.2,7.2-6.5,9.8,2.2-.2,4.3-.5,6.5-1,1.1-1.5,2.1-3.1,3.1-4.9l3.5,2c-3.3,5.8-7.5,11-12.4,15.6,2.3-.3,4.8-.7,7.5-1.4-.2-.7-.6-1.4-1.1-2.1l3.5-1.4c1.3,1.8,2.5,4.5,3.7,8.1ZM367.5,249.6l-3.9,1c-.4-3.5-1-6.6-1.9-9.3l3.9-.7c.9,2.8,1.6,5.8,2,9ZM373.4,247.3l-3.5,1.2c-.3-2.3-1.1-4.9-2.4-7.8l3.5-.8c1.2,2.9,2,5.4,2.4,7.5ZM393.4,218.4c0,4.6-.2,10.6-.4,18-.3,7.4-.8,11.7-1.6,12.7-.7,1-1.6,1.7-2.4,2.1-.8.4-2.6.5-5.2.5s-2,0-3.1,0l-1.7-4.1h6.9c.5,0,1-.1,1.4-.4.3-.3.6-.6.7-1,.1-.4.3-2.1.5-5.2.2-3.1.4-6.2.5-9.4.1-3.2.2-6.2.2-9h-11.1c-1.2,2.6-2.4,4.8-3.7,6.5l-3.4-2.4c2.7-3.9,5-9,6.6-15.4l4,.8c-.3,1.6-.9,3.8-1.9,6.4h13.6ZM386.6,239.3l-3.3,2.3c-1.5-3.1-4.1-6.5-7.6-10.3l3.1-2.4c3.5,3.5,6.1,7.1,7.8,10.5h0Z"/>
  <path class="st3" d="M405.6,244.1c2.2,1,4.4,1.6,6.8,1.6s4.2-.6,5.6-1.8c1.4-1.2,2-2.8,2-4.8,0-4.2-2.8-6.4-8.4-6.4s-3.5,0-5.4.3c0-1.6.2-3.2.3-4.7.1-1.5.2-3,.3-4.5.1-1.5.2-3,.3-4.6.1-1.5.2-3.1.3-4.7h16.7v4.8h-12.6l-.6,9c2-.2,3.5-.3,4.5-.3,3.1,0,5.6.9,7.4,2.7,1.8,1.8,2.8,4.2,2.8,7.4s-1.1,6.3-3.3,8.4c-2.2,2.2-5.3,3.3-9.1,3.3s-5.4-.4-7.5-1.3v-4.7h0Z"/>
  <path class="st3" d="M451.6,213.7v35.8h-5.4v-29.9c-1.2,1-2.4,1.9-3.9,2.7-1.4.8-2.9,1.4-4.2,1.7v-5.1c3.8-1.2,7.2-3,10.2-5.2h3.3Z"/>
  <path class="st3" d="M467.4,232.7c0-6.1,1-10.8,3.1-13.9,2.1-3.2,5.1-4.8,9.1-4.8,7.6,0,11.4,6,11.4,17.9s-1,10.3-3.1,13.4c-2.1,3.1-5.1,4.7-9,4.7s-6.7-1.5-8.6-4.5c-1.9-3-2.9-7.3-2.9-12.9h0ZM472.8,232.5c0,8.9,2.2,13.3,6.5,13.3s6.4-4.5,6.4-13.6-2.1-13.9-6.2-13.9-6.6,4.8-6.6,14.2Z"/>
  <path class="st3" d="M519,214.6v23h5v4.1h-5v7.7h-4.7v-7.7h-15.7v-4.7c3.1-3.7,6.1-7.6,8.9-11.6,2.8-4.1,4.9-7.7,6.4-10.8h5.1ZM514.3,237.6v-16.8c-1.1,2.2-2.8,4.9-5.1,8.2-2.3,3.3-4.5,6.2-6.7,8.6h11.8Z"/>
  <path class="st3" d="M543.6,212.2c-.4,1.6-1,3.6-1.7,6l-1.1,3.5v30.1h-4.1v-21.8c-.6,1.1-1.4,2.3-2.5,3.7l-2.1-4.2c3.1-4.6,5.6-10.6,7.5-18.1l3.9.9h0ZM548.6,242.5c-1.1,4.1-2.2,7-3.4,8.8l-3.3-2.4c1.4-2.2,2.4-4.8,3-7.6l3.7,1.2ZM572.7,223.9h-29.9v-3.2h7.9c-.3-1.1-.7-2.1-1.4-3h-5v-3.2h11.6c-.5-1.1-1-1.9-1.3-2.5l3.9-.8c.6,1.1,1.1,2.2,1.4,3.3h11.5v3.2h-4.8c-.5,1.2-.9,2.2-1.4,3h7.5v3.2ZM570,239h-24.5v-13h24.5v13ZM565.8,231v-2h-16.4v2h16.4ZM565.8,236.1v-2.3h-16.4v2.3h16.4ZM566.2,246.2c-.1,1.4-.5,2.5-.9,3.3-.4.8-1,1.4-1.7,1.6-.7.2-2.4.3-5.1.3-3.9,0-6.3-.2-7.2-.7-.9-.5-1.4-1.3-1.4-2.6v-7h4v5.6c0,.4.1.7.4.8.3.1,1.4.2,3.5.2s2.9,0,3.5-.2c.6-.1,1-1,1.2-2.7l3.7,1.4h0ZM562.6,217.7h-9.1c.5.8.8,1.8,1.2,3h6.5c.7-1.1,1.2-2.1,1.5-3h0ZM561.9,244.1l-3,2.1c-1.1-1.5-2.3-2.9-3.7-4.1l3.2-2.2c1.4,1.3,2.6,2.7,3.6,4.2ZM573,249l-3.3,1.8c-1-3-2.4-5.6-4.2-8l3.5-1.8c2.2,3.1,3.5,5.8,4.1,7.9h0Z"/>
  <path class="st3" d="M198.8,320.8h-4v-1.7h-28.7v1.7h-4.1v-39.5h36.8v39.5ZM194.8,315.6v-30.7h-28.7v30.7h28.7ZM191,304.9h-11.1c-.7.7-1.4,1.4-2.2,2.1v3.8c1.1-.2,2.4-.7,4-1.2l.3,3.2c-3.3,1.2-6,1.9-8,2.2l-.9-2.8c.5-.4.8-.9.8-1.5v-1c-2.1,1.1-3.9,1.9-5.5,2.4l-1.6-3c3.9-1.4,6.7-2.7,8.4-4.1h-5.5v-7.7h21.3v7.7ZM193.3,295.5h-25.9v-2.9h11v-2.1h-9.6v-2.8h9.6v-1.6h4v1.6h9.6v2.8h-9.6v2.1h10.9v2.9h0ZM186.9,302.1v-2.2h-13.1v2.2h13.1ZM193.6,312.3l-2.4,2.5c-3.2-2.4-6.9-4.6-11.1-6.7l2.3-2.3c1.2.4,2.5,1.1,4.1,2.1,1-.8,1.9-1.6,2.9-2.6l3.2,1.7c-1,1-2,1.8-3,2.6,1.3.9,2.6,1.8,3.9,2.7h0Z"/>
  <path class="st3" d="M251.2,319.8h-33.8c-1.3,0-2.4-.4-3.1-1.3-.7-.8-1.1-2-1.1-3.3v-29.9h-2.1v-3.5h39.7v3.5h-33.5v29.6c0,.3.1.6.4.9s.6.4.9.4h32.7v3.5h0ZM232.7,313.5h-12.8v-12.8h12.8v12.8ZM244.2,298.3h-20.5v-10.5h20.5v10.5ZM228.8,310v-5.8h-5.1v5.8h5.1ZM240.1,294.9v-3.6h-12.2v3.6h12.2ZM248.3,313.5h-13v-12.8h13v12.8ZM244.5,309.9v-5.8h-5.3v5.8h5.3Z"/>
  <path class="st3" d="M302.1,317.8l-2.7,3.4c-9-6.8-14.9-13.9-17.7-21.4-2.2,8.4-8.1,15.4-17.6,21.1l-2.8-3.3c12.1-7.5,18.1-17.4,18.1-29.5v-7.3h4.4v9.5c0,5,1.7,9.9,5,14.7,3.3,4.8,7.7,9.1,13.2,12.9h0Z"/>
  <path class="st3" d="M336.9,310.9h-5.6c-1.1,1.6-2.1,2.9-2.9,3.8,2.4,1,4.6,1.9,6.4,2.8l-2.3,2.9c-3.1-1.4-5.4-2.4-7.1-3.1-4.1,2-7.9,3.4-11.5,3.9l-1.6-3.5c3.2-.4,6-1.1,8.4-2.1-2.4-.9-4.3-1.4-5.9-1.8,1.4-1.6,2.3-2.6,2.6-3h-4.8v-3.1h7.3l1.7-2.6h-7v-7.6h8.1v-2.2h-8.2v-5h-2.1v-2.9h2.1v-5h8.2v-1.8h3.8v1.8h8.1v5h2.3v2.9h-2.3v5h-8.1v2.2h8.2v7.6h-8.4l-1.7,2.6h4.2c.2-.4.5-.9.7-1.6l3.5.8c0,.2,0,.5-.3.7h4.1v3.1h0ZM322.6,287.4v-2h-4.5v2h4.5ZM322.6,292.6v-2.2h-4.5v2.2h4.5ZM322.6,302.2v-1.8h-4.3v1.8h4.3ZM326.8,310.9h-4.6s-.4.6-1.1,1.4l3.5,1.1c.9-.9,1.6-1.7,2.1-2.4h0ZM330.8,287.4v-2h-4.3v2h4.3ZM330.8,292.5v-2.2h-4.3v2.2h4.3ZM330.9,302.2v-1.8h-4.5v1.8h4.5ZM353.2,317.8l-2,3.4c-3.2-2.4-5.4-4.7-6.8-6.8-1.9,2.6-4,4.8-6.3,6.7l-2.7-3c2.9-2.3,5.1-4.8,6.7-7.3-1.5-2.7-2.6-5.8-3.5-9.2l3.5-1.9c.6,2.8,1.3,5,1.9,6.4,1.2-3.7,1.8-8.8,2-15.1h-3.4c-1.4,4.3-2.9,7.5-4.3,9.8l-2.6-3.3c2.5-4.6,4.3-10.3,5.3-17.1l3.9.6c-.2,1.3-.6,3.4-1.2,6.2h8.8v3.8h-2.5c-.3,8.4-1.5,15-3.5,19.8,1.8,2.8,4,5.1,6.7,7.1h0Z"/>
  <path class="st3" d="M369.5,310.3c-.7,4.1-1.6,7.7-2.9,10.7l-3.7-1.8c1.3-3.2,2.2-6.6,2.8-10.2l3.8,1.2h0ZM383,306.7l-3.5,1.5c-.3-.9-.6-1.8-1-2.7-5,1.3-9.6,2.2-13.9,2.8l-1.4-3.7c3.5-3.1,6.5-6.2,8.9-9.5-2,.4-4.5.8-7.4,1.1l-1-3.8c3.1-3.4,5.7-7.5,7.7-12.1l3.8,1.7c-2,3.9-4.2,7.2-6.5,9.9,2.2-.2,4.3-.5,6.5-1,1.1-1.5,2.1-3.1,3.1-4.9l3.5,2c-3.3,5.8-7.5,11-12.4,15.6,2.3-.3,4.8-.7,7.5-1.4-.2-.7-.6-1.4-1.1-2.1l3.5-1.4c1.3,1.8,2.5,4.5,3.7,8.1ZM376.8,318.8l-3.9,1c-.4-3.5-1-6.6-1.9-9.3l3.9-.7c.9,2.8,1.6,5.8,2,9ZM382.7,316.5l-3.5,1.2c-.3-2.3-1.1-4.9-2.4-7.8l3.5-.8c1.2,2.9,2,5.4,2.4,7.5ZM402.7,287.5c0,4.6-.2,10.6-.4,18-.3,7.4-.8,11.7-1.6,12.7-.7,1-1.6,1.7-2.4,2.1-.8.4-2.6.5-5.2.5s-2,0-3.1,0l-1.7-4.1h6.9c.5,0,1-.1,1.4-.4.3-.3.6-.6.7-1,.1-.4.3-2.1.5-5.2.2-3.1.4-6.2.5-9.4.1-3.2.2-6.2.2-9h-11.1c-1.2,2.6-2.4,4.8-3.7,6.5l-3.4-2.4c2.7-3.9,5-9,6.6-15.4l4,.8c-.3,1.6-1,3.8-1.9,6.4h13.6ZM395.9,308.4l-3.3,2.3c-1.5-3.1-4.1-6.5-7.6-10.3l3.1-2.4c3.5,3.5,6.1,7.1,7.8,10.5h0Z"/>
  <path class="st3" d="M435.8,287.5c-2.9,5.3-5,9.6-6.4,12.7-1.4,3.1-2.5,6.2-3.3,9.2-.8,3-1.5,6-2,9.2h-5.9c.7-4.5,2.1-9.1,4-13.8,1.9-4.7,4.7-10.1,8.4-16.2h-17.3v-4.8h22.6v3.8h0Z"/>
  <path class="st3" d="M467.8,287.5c-2.9,5.3-5,9.6-6.4,12.7-1.4,3.1-2.5,6.2-3.3,9.2-.8,3-1.5,6-2,9.2h-5.9c.7-4.5,2.1-9.1,4-13.8,1.9-4.7,4.7-10.1,8.4-16.2h-17.3v-4.8h22.6v3.8h0Z"/>
  <path class="st3" d="M499,313.7v4.9h-21.5v-2c0-2.3.6-4.5,1.8-6.5,1.2-2,3-3.9,5.4-5.8,2.9-2.2,4.9-3.9,5.9-4.9,1-1,1.8-2.1,2.3-3.1.5-1,.7-2,.7-3,0-1.7-.6-3-1.8-4-1.2-1-2.9-1.5-5-1.5s-5.3.9-7.7,2.6v-4.6c2.9-1.8,6-2.7,9.4-2.7s5.8.9,7.6,2.6c1.9,1.7,2.8,4.1,2.8,7s-.3,3.2-.8,4.6c-.5,1.4-1.4,2.6-2.4,3.8-1,1.2-2.8,2.7-5.4,4.7-2.2,1.6-3.6,2.7-4.4,3.5-.7.7-1.4,1.4-1.8,2.2-.5.7-.7,1.4-.7,2.2h15.6Z"/>
  <path class="st3" d="M508.8,301.8c0-6.1,1-10.8,3.1-13.9,2.1-3.2,5.1-4.8,9.1-4.8,7.6,0,11.4,6,11.4,17.9s-1,10.3-3.1,13.4c-2.1,3.1-5.1,4.7-9,4.7s-6.7-1.5-8.6-4.5c-1.9-3-2.9-7.3-2.9-12.9h0ZM514.1,301.6c0,8.9,2.2,13.3,6.5,13.3s6.4-4.5,6.4-13.6-2.1-13.9-6.2-13.9-6.6,4.8-6.6,14.2Z"/>
  <path class="st3" d="M540.8,301.8c0-6.1,1-10.8,3.1-13.9s5.1-4.8,9.1-4.8c7.6,0,11.4,6,11.4,17.9s-1,10.3-3.1,13.4c-2.1,3.1-5.1,4.7-9,4.7s-6.7-1.5-8.6-4.5c-1.9-3-2.9-7.3-2.9-12.9h0ZM546.2,301.6c0,8.9,2.2,13.3,6.5,13.3s6.4-4.5,6.4-13.6-2.1-13.9-6.2-13.9-6.6,4.8-6.6,14.2Z"/>
  <path class="st3" d="M614.5,317.8l-2.6,3.4c-9-6.8-14.9-13.9-17.7-21.4-2.2,8.4-8.1,15.4-17.6,21.1l-2.8-3.3c12.1-7.5,18.1-17.4,18.1-29.5v-7.3h4.4v9.5c0,5,1.7,9.9,5,14.7,3.3,4.8,7.7,9.1,13.2,12.9h0Z"/>
  <path class="st2" d="M764.3,723.3H34.7c-13.6,0-24.7-11.1-24.7-24.7V24.7C10,11.1,21.1,0,34.7,0h729.6c13.6,0,24.7,11.1,24.7,24.7v673.9c0,13.6-11.1,24.7-24.7,24.7h0ZM34.7,4c-11.4,0-20.6,9.3-20.6,20.6v673.9c0,11.4,9.3,20.7,20.6,20.7h729.6c11.4,0,20.6-9.3,20.6-20.7V24.7c0-11.4-9.3-20.6-20.6-20.6H34.7Z"/>
  <g class="st1">
    <rect class="st0" x="104.5" y="45.9" width="530.3" height="522.2"/>
  </g>
</svg>