<?xml version="1.0" encoding="UTF-8"?>
<svg id="_圖層_1" data-name="圖層_1" xmlns="http://www.w3.org/2000/svg" version="1.1" viewBox="0 0 995 105">
  <!-- Generator: Adobe Illustrator 29.4.0, SVG Export Plug-In . SVG Version: 2.1.0 Build 152)  -->
  <defs>
    <style>
      .st0 {
        fill: #33353a;
      }
    </style>
  </defs>
  <path class="st0" d="M294.4,10.9c0-1.8-.5-3.1-1.6-4.1-1.1-1-2.6-1.5-4.4-1.5s-2.6.3-3.8,1c-1.2.6-2.4,1.4-3.4,2.4v-3.1c1-1,2.1-1.8,3.3-2.3,1.2-.5,2.6-.8,4.3-.8,2.7,0,4.9.7,6.5,2.2,1.6,1.5,2.4,3.4,2.4,5.9s-.5,4.1-1.6,5.8-2.8,3.4-5.1,5.1c-2.6,1.8-4.3,3.1-5.2,3.9-.9.8-1.5,1.6-1.8,2.4-.4.8-.5,1.7-.5,2.8h15.2v3h-18.7v-1.3c0-1.8.2-3.3.7-4.6s1.3-2.4,2.4-3.6c1.1-1.2,2.8-2.5,5-4.1,2.4-1.7,4-3.2,5-4.5.9-1.3,1.4-2.8,1.4-4.5h0Z"/>
  <path class="st0" d="M329.1,24.1c0,3-1,5.4-3,7.2-2,1.8-4.6,2.7-7.7,2.7s-4.7-.4-6.2-1.2v-3.5c2,1.2,4,1.8,6.1,1.8s4-.6,5.4-1.8c1.4-1.2,2-2.9,2-4.9s-.7-3.6-2.1-4.8c-1.4-1.2-3.4-1.7-6-1.7s-3.6,0-4.9.2l1.1-15.2h13.8v3h-11l-.7,9.2c1.6,0,2.7-.1,3.1-.1,3.2,0,5.7.8,7.5,2.4,1.8,1.6,2.7,3.8,2.7,6.7h0Z"/>
  <path class="st0" d="M376.5,32.6c0,.8-.2,1.5-.5,2-.4.5-.9.7-1.5.8-.6,0-1.8.1-3.3.1l-.8-2h3.1c.8,0,1.2-.5,1.2-1.2v-7.8h-13v4.3c1.8-.1,3.6-.3,5.4-.5-.2-.3-.7-.8-1.3-1.5l1.7-1.1c2,2.3,3.3,4.1,3.9,5.3l-1.8,1c-.3-.6-.7-1.3-1.3-2.1-5.4.8-11.3,1.3-17.6,1.5l-.7-1.9c3.6,0,6.8-.2,9.6-.4v-4.5h-12.2v10.9h-2v-10.9h-2.3v-1.9h2.3v-1.2h2v1.2h12.2v-2.8h-11.9v-11.3h25.7v11.3h-11.8v2.8h15v10.1h0ZM359.6,5h-4.5v2h-2.1v-2h-9.9v-1.9h9.9V.3h2.1v2.8h4.5v1.9ZM359.5,13v-2.7h-9.8v2.7h9.8ZM359.5,17.7v-2.8h-9.8v2.8h9.8ZM377.9,5h-9v2h-2v-2h-5.6v-1.9h5.6V.3h2v2.8h9v1.9ZM371.3,13v-2.7h-9.8v2.7h9.8ZM371.3,17.7v-2.8h-9.8v2.8h9.8Z"/>
  <path class="st0" d="M407.9,4.8h-5.5v2.3h-2.1v-2.3h-9v-1.8h9V.3h2.1v2.7h5.5v1.8ZM426.4,18.1h-35v-1.7h16.5v-2.2h-13.6v-1.7h13.6v-1.9h-15v-1.7h15v-2.5h2v2.5h15.1v1.7h-15.1v1.9h13.7v1.7h-13.7v2.2h16.5v1.7ZM422,32.4c0,.8-.3,1.5-.7,2.1-.5.6-1.2.9-2.2.9h-5.8l-.7-1.9c.8,0,3,0,6.4,0s.5-.1.7-.4c.2-.3.3-.5.3-.9v-1.9h-22.8c-.7,1.8-1.8,3.5-3.3,5.1l-1.7-1.3c1.2-1,2.2-2.4,3-4.3.7-1.9,1.1-5,.9-9.4h26v11.9h0ZM420,28.7v-2.4h-22c0,.7,0,1.5-.3,2.4h22.3ZM420,24.6v-2.2h-21.9c0,1.1,0,1.8,0,2.2h21.9ZM426.4,4.8h-8.8v2.3h-2.1v-2.3h-5.7v-1.8h5.7V.3h2.1v2.7h8.8v1.8Z"/>
  <path class="st0" d="M474.3,23.6h-17.1c-2,6.2-7.6,10.1-16.7,11.9l-1.1-1.9c8.4-1.5,13.7-4.8,15.6-10h-15v-2h3.8v-8.8h12.5v-3.8h2.1v3.8h12v8.8h3.9v2h0ZM456.3,6.6h-5.1v4.1h-2.1v-4.1h-9.4v-2h9.4V.3h2.1v4.4h5.1v2ZM456.2,14.8h-10.2v6.8h9.6c.4-1.9.6-4.1.7-6.8h0ZM468.3,21.6v-6.8h-9.9c0,2.3-.3,4.6-.6,6.8h10.5ZM474.8,6.6h-9.4v4.1h-2.1v-4.1h-5.1v-2h5.1V.3h2.1v4.4h9.4v2ZM474.9,33.9l-1.2,1.9c-4.3-3.1-9.4-5.8-15.1-8.1l1.1-1.9c5.2,2.1,10.2,4.8,15.1,8.1h0Z"/>
  <path class="st0" d="M505.2,18.7c.7,0,1.2.2,1.6.7.4.4.7,1,.7,1.6s-.2,1.2-.7,1.6c-.4.4-1,.7-1.6.7s-1.2-.2-1.6-.7c-.5-.4-.7-1-.7-1.6s.2-1.2.7-1.6c.5-.4,1-.7,1.6-.7Z"/>
  <path class="st0" d="M551.1,15.2c0,6.5-1.1,11.2-3.4,14-2.2,2.9-5.4,5-9.4,6.3l-1.4-1.9c8-2.5,12-7.7,11.9-15.6-4.3,3.4-8.1,6-11.3,7.7l-1.2-1.9c4.2-2.1,8.5-5,12.7-8.4V0h2v15h0ZM546.5,11.7l-1.6,1.6c-1.8-2.8-4.1-5.3-6.9-7.7l1.5-1.5c2.8,2.4,5.2,5,7.1,7.6h0ZM571.4,22.7l-1.3,1.9c-2.9-2.4-6.7-4.7-11.2-6.9v13.8c0,.9.4,1.3,1.2,1.3h6.7c.9,0,1.4-.5,1.7-1.6s.4-2.9.4-5.3l2.1.8c-.1,3.7-.6,6-1.4,7-.8.9-1.7,1.4-2.8,1.4h-6.8c-.9,0-1.7-.3-2.3-1s-.9-1.5-.9-2.5V.1h2v10.4c3.9-2.2,7.3-4.6,10.1-7.1l1.4,1.7c-3.3,2.8-7.1,5.4-11.5,7.8v2.6c5.5,2.7,9.6,5.1,12.5,7.3h0Z"/>
  <path class="st0" d="M619.9,25c0,1.8-.3,3.7-.7,5.6-.4,1.9-1,3.2-1.9,3.7-.9.5-2.6.8-5.2.8s-3.1,0-3.9-.1c-.8,0-1.5-.4-2-.9-.5-.5-.7-1.2-.7-2.1V15.1h-7.4c-.2,5.2-1.2,9.4-2.8,12.6-1.6,3.2-4.6,5.8-8.9,8.1l-1.5-1.8c3-1.3,5.6-3.3,7.6-6,2.1-2.6,3.2-6.9,3.3-12.8h-10.2v-2.2h33.9v2.2h-11.8v16.6c0,.5.3.8.7,1,.5.2,1.4.3,2.8.3,2.6,0,4.1,0,4.4-.2.3-.1.6-.3.9-.7.3-.3.6-1.3.8-3,.3-1.7.4-3.3.4-5l2.2.8h0ZM616.3,3.3h-27.7V1.2h27.7v2.1Z"/>
  <path class="st0" d="M668.4,16.8h-29.6v4c0,6.9-1.4,11.8-4.1,14.9l-1.5-1.5c1.1-1.4,2-3.1,2.6-5.1.6-2,.9-4,.9-5.9v-8.5h31.7v2ZM667.4,5.7h-6.2c-1.4,1.6-2.8,2.9-4.3,3.9,3.5.9,6.3,1.8,8.6,2.7l-1.2,1.6c-3.1-1.2-6.4-2.2-10-3.1-4,1.7-8.8,2.6-14.3,2.8l-.7-1.8c5.2-.4,9.1-1,11.8-1.8-3.1-.7-6.3-1.3-9.4-1.8l.9-1.6c4.2.7,8,1.4,11.5,2.3,1.7-.9,3.1-1.9,4.3-3.2h-23v-2h15.1c-.4-.9-1-1.8-1.7-2.8l1.9-.8c1,1.3,1.6,2.5,2.1,3.6h14.6v2h0ZM668,34.6h-29v-1.9h13.9v-3.8h-9.9v-2h9.9v-3.5h-8.6c-.9,1.2-2,2.4-3.1,3.3l-1.3-1.7c2.1-1.8,3.8-4.1,5.3-6.9l2,.6c-.5,1.1-1,2-1.5,2.7h7.3v-3.3h2v3.3h11.1v1.9h-11.1v3.5h10.2v2h-10.2v3.8h13.1v1.9h0Z"/>
  <path class="st0" d="M691.7.8l-2.6,6.1v28.6h-2.1V11c-1.7,3-3.3,5.4-4.7,7.1l-1.1-2.1c3.2-4,6.1-9.3,8.6-16l2,.8ZM716.8,34.5h-25.9v-2h3.5V9.6h6.8c.5-1.3.9-2.5,1.2-3.6h-10.1v-2h10.7c.3-1.1.5-2.4.8-3.8l2.1.2c-.2,1.4-.5,2.6-.8,3.6h10.7v2h-11.2c-.3,1-.7,2.3-1.2,3.6h9.8v22.9h3.5v2h0ZM711.1,15.1v-3.6h-14.5v3.6h14.5ZM711.1,20.7v-3.6h-14.5v3.6h14.5ZM711.1,26.4v-3.7h-14.5v3.7h14.5ZM711.1,32.5v-4.1h-14.5v4.1h14.5Z"/>
  <path class="st0" d="M274.1,103.8h-35.1v-2.1h16.6v-6.2h-14v-2.1h14v-24h2v24h13.7v2.1h-13.7v6.2h16.5v2.1ZM254.1,89.2l-1.7,1.5c-1.8-4.1-3.5-7.3-5.1-9.5-1.7,3.9-3.7,7.3-5.9,10l-1.7-1.4c3.9-4.7,6.6-10.5,7.9-17.3l2.1.4c-.3,1.6-.8,3.5-1.5,5.9,2,2.6,4,6,6.1,10.4h0ZM273.4,89.8l-1.6,1.4c-2.4-4.7-4.3-7.8-5.6-9.4-1.4,3.5-3.1,6.5-5.2,8.9l-1.7-1.5c3.6-3.9,6-9.5,7.1-16.7l2,.4c-.4,2.3-.9,4.6-1.6,6.7,1.6,1.7,3.7,5.2,6.6,10.2h0Z"/>
  <path class="st0" d="M297.1,78.4h-3.3v8.1c.7-.3,1.4-.7,2.2-1.2l.4,2.1c-1,.6-1.9,1.1-2.6,1.5v13c0,.8-.2,1.5-.7,1.9-.5.5-1.4.7-2.8.7h-1.8l-.6-2.1c.9,0,1.5,0,2,0,.9,0,1.4,0,1.6-.2.2-.1.3-.4.3-.8v-11.4c-1.5.8-2.9,1.5-4.2,2.1l-.7-2.1c1.5-.7,3.1-1.5,4.9-2.4v-9.2h-4.5v-1.9h4.5v-7.1h2v7.1h3.3v1.9h0ZM307.1,80.5c-2.3,5-4.8,9.2-7.4,12.8,1.4-.3,2.9-.7,4.4-1.1.2-.6.3-1.4.4-2.4h1.8c-.3,3.6-1.1,6.6-2.5,8.8-1.4,2.2-3.7,4.1-7,5.8l-1.2-1.7c4.5-2.1,7.3-5,8.2-8.6-2.1.6-4.3,1.2-6.7,1.7l-.5-2c.8-.1,2.5-2.5,5.1-7.1-1.4.3-2.6.5-3.9.7l-.5-1.8c1.1-.7,2.5-4,4.2-9.9l1.9.8c-1.1,3.4-2.2,6.2-3.4,8.6.7,0,1.6-.2,2.8-.4.6-1.1,1.5-2.8,2.5-5.1l1.8.8h0ZM322.3,74.5h-25.3v-2h11.7c-.3-.9-.7-1.8-1.2-2.7l1.7-.8c.6,1.1,1.1,2.3,1.5,3.5h11.6v2ZM322.3,102.7h-12v1.8h-2v-18.1c-.4.7-.9,1.4-1.5,2.1l-1.2-1.7c2.1-2.9,3.8-6.5,5.2-11l1.9.5c-.3,1.2-.8,2.6-1.4,4.1h4.8c-.2-1.2-.7-2.5-1.2-3.8l1.7-.8c.5.8,1,2.4,1.6,4.7h3.8v2h-4.5v4.6h3.6v2h-3.6v4.8h3.6v2h-3.6v5h4.9v2h0ZM315.4,87v-4.6h-5l-.2.3v4.3h5.2ZM315.4,93.7v-4.8h-5.2v4.8h5.2ZM315.4,100.7v-5h-5.2v5h5.2Z"/>
  <path class="st0" d="M352.5,77.8l-1.5,1.5c-1.8-2.4-3.9-4.4-6.2-6.2-2.5,4.2-5.2,7.4-7.9,9.6l-1.2-1.8c3.2-2.6,6.2-6.5,8.8-11.7l2,.6c-.3.7-.6,1.2-.7,1.5,3,2.4,5.3,4.5,6.7,6.5ZM351.6,88.5c0,.4-.5,1.7-1.6,3.9-1,2.2-2.4,4.4-4,6.7,1.5,1.5,2.7,2.9,3.7,4.2l-1.6,1.3c-2.5-3.3-5.8-6.4-9.8-9.5l1.5-1.4c1.4,1.1,3,2.4,4.8,4,2.7-3.7,4.3-6.8,4.9-9.2h-13v-2h15.1v2h0ZM350.3,82.5h-9.9v-2h9.9v2ZM370.8,72.5h-7.9c-.6,2.4-1,4-1.3,4.7h7.3v19.7h-9.4l1.3,1.2c-2.6,2.9-5.2,5.1-7.7,6.7l-1.5-1.6c2.4-1.3,4.8-3.4,7.4-6.2h-4.8v-19.7h5.2c.6-1.8,1-3.4,1.2-4.7h-8.3v-1.9h18.4v1.9h0ZM366.9,82.7v-3.6h-10.6v3.6h10.6ZM366.9,88.5v-3.9h-10.6v3.9h10.6ZM366.9,94.8v-4.4h-10.6v4.4h10.6ZM371,103.1l-1.3,1.5c-2-1.9-4.3-3.7-6.9-5.4l1.3-1.5c2.8,1.8,5.1,3.6,6.9,5.4h0Z"/>
  <path class="st0" d="M401.5,87.3c-.7.1-1.6.3-2.6.4v14.5c0,.8-.3,1.4-1,2-.6.5-2.4.7-5.2.6l-.7-2.2c.9.1,1.7.1,2.6.1s1.6,0,1.8-.2c.2-.1.4-.3.4-.6v-13.8c-2.2.4-4.8.7-7.8,1-.3,6.9-1.5,12.2-3.5,15.7l-1.7-1.2c1.8-3.5,2.9-8.2,3.1-14.2-1,0-2,.1-2.9.2v-2c.7,0,1.7-.2,3-.3v-13.1h3.5c.9-1.8,1.5-3.3,1.9-4.6l2.1.4c-.3,1.2-.9,2.6-1.6,4.2h6v11.6c1.1-.1,2-.3,2.6-.5v2h0ZM396.9,86.1v-9.8h-7.7v10.8c4-.5,6.6-.8,7.7-.9h0ZM394.7,97.2l-1.9.8c-.3-1.9-1-4-2-6.4l2-.8c.8,1.8,1.4,4,1.9,6.4h0ZM394.8,83.7l-1.9.6c-.1-1.2-.7-3.2-1.6-5.8l1.8-.8c.7,1.9,1.3,3.9,1.7,6ZM419,95.9c0,2.4-.1,4.3-.4,5.6-.3,1.3-.6,2.2-1,2.5-.4.3-1.2.5-2.4.5s-2.4-.2-2.9-.6c-.5-.4-.7-1-.7-1.9v-17.1h-5.7v4.3c0,6.1-1.4,11.3-4.1,15.6l-1.8-1.2c2.6-3.7,3.9-8.6,3.9-14.5v-6.2h9.7v18.7c0,.3.1.5.3.6.2.1.8.2,1.6.2s.5-.1.7-.3c.2-.2.4-1,.5-2.4.1-1.4.2-2.9.1-4.5l2.1.7h0ZM418.7,78.1h-18.1v-2h7.7c-.3-1.5-1-3.5-2.2-6l2-.5c1.1,2.4,1.9,4.6,2.4,6.6h8.2v2Z"/>
  <path class="st0" d="M467.4,81.6l-1.2,1.9c-7.7-3.4-13.2-7.1-16.4-11.1-3.2,4.3-8.7,8.1-16.6,11.1l-1.1-2c6.9-2.4,11.9-5.5,15-9.2h-3.9v-2.1h7.7c3,4.3,8.4,8.2,16.4,11.4h0ZM466.4,103.8h-33.3v-2h15.6v-7.7h-11.1v-2h11.1v-7.5h-11v-2h24.1v2h-11v7.5h11v2h-11v7.7h15.6v2h0Z"/>
  <path class="st0" d="M493.3,94.5c-3.3,1.9-7.2,4-11.9,6.3l-.9-1.8c2.4-1.2,4.4-2.2,5.8-3v-11h-4.8v-1.9h4.8v-9.3h-5.2v-1.9h12.1v1.9h-5v9.3h4.2v1.9h-4.2v9.8c1.5-.7,3.1-1.6,4.9-2.7v2.2c.1,0,.1,0,.1,0ZM500.9,93.3c-3.4,3.8-6.2,6.4-8.4,7.9l-1.3-1.6c2.6-1.9,5.5-4.5,8.6-8l1.1,1.8h0ZM516.1,99.9l-1.2,1.7c-4.3-3.9-7.5-8.6-9.6-14.2v13.9c0,.9-.3,1.7-.8,2.4-.6.7-1.8,1-3.9,1s-1.7,0-2.5-.1l-.6-2c1.2.1,2.2.1,3.2.1s1.8-.1,2.1-.3c.3-.2.5-.6.5-1.2v-22.7h-10.3v-1.9h10.3v-7.2h2v7.2h10.7v1.9h-10.7v2c.2,2.3.9,4.6,2.1,7.1,2.4-1.8,4.4-3.8,6.1-6l1.6,1.3c-1.7,2.2-4,4.3-6.9,6.6,1.4,3.1,4.1,6.6,7.9,10.5h0ZM501.1,87.5l-1.7,1.2c-1.2-2.2-2.9-4.4-5.1-6.6l1.7-1.3c2.4,2.5,4.1,4.7,5.1,6.6h0ZM514.1,73.8l-1.6,1.4c-1-1.3-2.3-2.6-3.9-3.8l1.5-1.5c1.6,1.1,2.9,2.4,4.1,3.9h0Z"/>
  <path class="st0" d="M543.2,103.8h-2v-3.5h-8.7v4.3h-2v-28.6h3.7c1-1.8,2-4.1,2.9-6.9l2,.4c-.5,1.4-1.4,3.6-2.7,6.5h6.9v27.8h0ZM541.2,86.7v-8.7h-8.7v8.7h8.7ZM541.2,98.3v-9.6h-8.7v9.6h8.7ZM563.4,76.1c-.1,6-.5,11.6-.9,16.8-.4,5.2-.9,8.2-1.3,9.2-.4.9-1,1.6-1.7,2-.7.4-2,.6-3.9.6s-1.9,0-3.3,0l-.7-2c1.1,0,2.3,0,3.6,0s2,0,2.3,0c.3,0,.7-.2,1.1-.5.4-.3.6-.7.8-1.1.1-.4.4-2,.6-4.6.3-2.7.5-5.6.7-8.8s.3-6.3.4-9.4h-10.5c-1.4,2.8-3,5.4-4.9,8l-1.6-1.2c3.5-4.6,6-9.8,7.5-15.5l2,.5c-.7,2.2-1.4,4.2-2.2,6.2h12ZM556,94.2l-1.7,1.2c-1.3-3-3.3-6.1-5.8-9.4l1.7-1.1c2.4,2.9,4.3,6,5.8,9.3Z"/>
  <path class="st0" d="M596.8,79.9h-8.2c0,.4-.2.7-.4,1.1,3.2,1.6,6,3.3,8.5,5l-1.3,1.6c-2.5-1.9-5.2-3.5-8-5-2,3-4.8,5.1-8.3,6.3l-1.5-1.6c4.6-1.5,7.5-4,8.8-7.5h-7.8v-1.9h8.4c.3-.9.4-2.2.5-3.9h-4.2c-1,1.1-2,2.1-3.1,3l-1.7-1.3c2.6-2,4.6-4.2,6-6.5l2,.7c-.7,1.2-1.2,1.9-1.5,2.2h11v2h-6.3c-.1,1.4-.3,2.7-.5,3.9h7.7v1.9h0ZM608.4,104.6h-2.1v-2.5h-22.2v2.5h-2.1v-15.9h26.4v15.8ZM606.3,94.5v-3.7h-22.2v3.7h22.2ZM606.3,100.1v-3.6h-22.2v3.6h22.2ZM611.8,85.2h-13.3v-13h13.3v13ZM609.7,83.2v-9.1h-9.1v9.1h9.1Z"/>
  <path class="st0" d="M661,90.9h-3.8v4.1h-28.4v-1.8h26.3v-2.3h-29.1v-1.8h29.1v-2.2h-26.3v-1.8h28.4v4.1h3.8v1.8h0ZM632.2,97.5c-1.1,2.3-2.6,4.5-4.6,6.4l-1.6-1.3c1.9-2,3.4-4,4.5-6.1l1.7,1ZM642.7,73.3h-6.4v2.6h5.5v1.8h-5.5v2.8h6.4v1.8h-6.4v1.4h-1.9v-1.4h-7.8v-1.8h7.8v-2.8h-6.6v-1.8h6.6v-2.6h-7.5v-1.8h7.5v-2.2h1.9v2.2h6.4v1.8ZM653.4,99.2c-.3,2.1-.7,3.5-1.4,4.1-.6.6-1.2.9-1.6,1-.4,0-3,.1-7.7.1s-4.7,0-5.3,0c-.6,0-1.1-.3-1.5-.8-.4-.5-.6-1.2-.6-2v-4.7h2.1v4.7c0,.5.3.9.9,1,.6,0,2.5.1,5.8.1s5,0,5.4-.1c.4,0,.8-.3,1.2-.7.3-.4.5-1.4.7-3.1l2,.7h0ZM647.6,98.6l-1.3,1.5c-1.6-1.1-3.3-2-5-2.7l1.3-1.6c1.6.6,3.3,1.5,5.1,2.7h0ZM660.6,82.3h-7.9v1.4h-2v-1.4h-6.5v-1.8h6.5v-2.8h-5.4v-1.8h5.4v-2.6h-6.3v-1.8h6.3v-2.2h2v2.2h7.5v1.8h-7.5v2.6h6.5v1.8h-6.5v2.8h7.9v1.8ZM661,102.3l-1.5,1.4c-1.4-2.2-2.9-4.2-4.5-5.9l1.6-1.2c1.6,1.6,3.1,3.5,4.5,5.8h0Z"/>
  <path class="st0" d="M709.5,81h-6.4l-.3,4.1h-22.5l.4-4.1h-6.2v-1.5h6.4l.4-3.9h22.4l-.4,3.9h6.2v1.5ZM704.4,99.2h-16.3l.9,1.3c-4.4,2.3-8.8,3.8-13,4.3l-1.2-1.9c4.4-.5,8.7-1.7,12.7-3.7h-7.8v-12.1h24.8v12.1ZM708,77.2h-2v-3.8h-28v3.6h-2.1v-5.4h14.9c-.3-.7-.7-1.3-1-1.7l1.9-.7c.3.5.8,1.3,1.4,2.4h14.9v5.5h0ZM702.4,90.6v-1.8h-20.8v1.8h20.8ZM702.4,94.1v-1.9h-20.8v1.9h20.8ZM702.4,97.6v-1.9h-20.8v1.9h20.8ZM690.8,81h-8.1l-.2,2.4h8.1l.2-2.4h0ZM691.2,77.2h-8.1l-.3,2.3h8.2l.2-2.3ZM701,81h-8.1l-.2,2.4h8.1l.2-2.4ZM701.5,77.2h-8.2l-.2,2.3h8.2l.2-2.3h0ZM709,103l-.8,1.8c-3.5-1.3-7.9-2.3-13.4-3l.8-1.6c5.5.7,9.9,1.6,13.3,2.9Z"/>
  <path class="st0" d="M755.6,76.9c0,6.5-.1,12-.4,16.4-.3,4.5-.6,7.3-1,8.5-.4,1.2-1,1.9-1.8,2.4-.8.4-2.4.6-5,.6s-2.4,0-4,0l-.8-2.2c1.8,0,3.4.1,4.8.1,2.1,0,3.4-.1,3.8-.5.4-.3.7-.8,1-1.5.2-.7.5-3.3.8-7.9.3-4.6.5-9.1.5-13.7h-12.4c-.5,7.2-2,12.6-4.4,16.2-2.5,3.7-6.3,6.8-11.4,9.5l-1.5-2c2.8-1.1,5.3-2.7,7.4-4.6,2.2-1.9,3.9-4.2,5.2-6.9s2.1-6.9,2.5-12.3h-14.1v-2.2h14.2c.1-2.4.2-4.9.2-7.5h2.2c0,2.1,0,4.6-.2,7.5h14.4Z"/>
</svg>