<?xml version="1.0" encoding="UTF-8"?>
<svg id="_圖層_1" data-name="圖層_1" xmlns="http://www.w3.org/2000/svg" version="1.1" viewBox="0 0 995 180">
  <!-- Generator: Adobe Illustrator 29.4.0, SVG Export Plug-In . SVG Version: 2.1.0 Build 152)  -->
  <defs>
    <style>
      .st0 {
        fill: #fff;
      }
    </style>
  </defs>
  <path class="st0" d="M141.4.6c-.6,1.4-1.4,2.8-2.4,4.3v9.9h-1.4v-7.9c-.8,1-1.7,1.9-2.6,2.7l-.9-1.1c2.6-2.4,4.6-5.2,6-8.4l1.2.5h0ZM139.2,16.1c-1,2.6-2.1,4.6-3.3,6.1l-1.2-.7c1.4-1.7,2.5-3.6,3.3-5.8l1.2.5ZM156.3,2.2c-.4,1.7-.9,3.2-1.4,4.5l-1.3-.3c.4-1,.7-2,1-2.9h-9.5c-1.1,1.4-2.2,2.8-3.5,4.1l-1.1-1c2.3-2.2,3.9-4.4,4.9-6.6l1.3.5c-.2.5-.5,1-.8,1.6h10.4ZM146.6,7.8c-1.5,2.5-3,4.4-4.4,5.6l-1-1c1.5-1.4,3-3.1,4.3-5.4l1.1.7ZM152.1,19.5c0,1.1-.3,1.8-.6,2.4-.3.5-.7.9-1.2,1-.5.1-1.5.2-2.9.2s-2.4,0-3.4,0c-1,0-1.6-.1-1.9-.3-.3-.1-.5-.3-.7-.6-.2-.3-.3-.8-.3-1.5v-5.3h1.4v5.4c0,.4.1.7.4.8s2.3.2,6,.2,1.1-.2,1.4-.6c.3-.4.4-1.2.5-2.3l1.3.6h0ZM149.1,18.1l-1.1.8c-.7-1.4-1.7-2.7-2.9-3.9l1-.9c1.3,1.4,2.3,2.7,2.9,4h0ZM149.9,14.6h-1.4V5.1h1.4v9.4ZM156.8,12.2l-1.1.9c-.9-1.7-2.2-3.5-3.9-5.3l1-.8c1.8,1.8,3.1,3.6,4,5.2ZM157.1,21.6l-1.2.7c-.8-1.8-2-3.7-3.5-5.7l1.1-.7c1.7,2.2,2.9,4.1,3.6,5.8Z"/>
  <path class="st0" d="M173.5,1.5c-2.5,1-5.1,1.7-7.8,2v3.1h6.9v7.6h-6.9c-.2,3.8-.9,6.7-2.1,8.8l-1.2-.8c1.3-2.5,1.9-5.4,1.9-8.9V2.4c3.5-.4,6.4-1.1,8.5-2.1l.6,1.2h0ZM171.2,12.9v-5h-5.5v5h5.5ZM185.6,9.8h-3v13.4h-1.3v-13.4h-4.7c0,3.6-.3,6.3-.9,8-.6,1.7-1.5,3.5-2.8,5.4l-1.1-.9c1.5-2.1,2.4-4,2.8-5.6.4-1.7.6-3.9.6-6.6V2.2c3.6-.2,6.7-.8,9.3-1.9l.7,1.2c-2.3,1-5.2,1.6-8.7,1.9v5.2h9v1.3h0Z"/>
  <path class="st0" d="M201.7,2.1c-2.3,3.8-5.6,6.8-9.8,8.8l-.9-1.1c1.7-.7,3.4-1.7,5-2.9-.7-.8-1.7-1.6-2.9-2.4l.9-1c1.2.8,2.2,1.7,3.1,2.5,1.2-1,2.2-2.3,3.2-3.9h-6.8V.9h8.3v1.3h0ZM213.1,22.6h-21.7v-1.3h7.4c-.4-1.2-1-2.3-1.7-3.3l1-.8h-2.2v-5.8h12.8v5.8h-2.3l.9.7c-.2.7-.7,1.8-1.5,3.4h7.3v1.3h0ZM207.3,15.9v-3.2h-10v3.2h10ZM207.2,8.9h-9.7v-1.3h9.7v1.3ZM206.1,17.3h-7.6c.7,1.2,1.3,2.6,1.9,4.1h3.9c.6-1,1.2-2.4,1.8-4.1ZM213.9,9.8l-.8,1.1c-4.8-2.4-8.2-5.8-10.1-10.2l1.2-.6c.4,1.1,1,2.1,1.7,3.1,1.2-1,2.1-2,2.8-3l1.2.7c-1.1,1.3-2.2,2.4-3.3,3.3.5.7,1.1,1.4,1.7,1.9,1-.7,2.1-1.8,3.2-3.3l1.1.7c-1.1,1.3-2.2,2.4-3.4,3.4,1,.9,2.5,1.8,4.6,2.9h0Z"/>
  <path class="st0" d="M228.7,5.1l-1,.9c-1.2-1.5-2.3-2.7-3.4-3.7-.8,1.3-1.8,2.7-3.1,4.3h6v1.3h-2.6v2.9h3.3v1.3h-3.3v8.3c.6-.1,1.5-.3,2.9-.7v1.3c-2.4.6-5,1.3-8.1,1.9l-.2-1.2c1.6-.3,2.9-.6,4.1-.9v-8.6h-3.8v-1.3h3.8v-2.9h-2.3v-1c-.3.3-.7.7-1.2,1.1l-.7-1.1c1.9-1.9,3.6-4.2,5.1-6.9l1.2.6s0,.2-.1.3c0,.1-.1.2-.1.3,1.5,1.4,2.7,2.6,3.7,3.8h0ZM222.2,19.2l-1.2.3c-.3-1.7-.7-3.4-1.3-5.3l1.2-.5c.6,1.8,1,3.6,1.2,5.4ZM227.8,14.1c-.1,1.4-.5,3-1,4.6l-1.2-.4c.5-1.5.8-3,1-4.6l1.2.4ZM233.6,17.3c-1.3,1.4-2.8,2.7-4.6,4l-.8-1.1c1.3-.9,2.9-2.2,4.6-3.9l.8,1h0ZM241.9,10.9h-6.1v10.8c0,.4-.2.8-.5,1.1-.3.3-1.1.5-2.3.5s-.7,0-1,0l-.5-1.3h2.5s.3,0,.3-.2c.1-.1.2-.3.2-.4v-10.3h-5.9v-1.3h7.8l.8-2.4h-7.5c.7-1.6,1.6-3.9,2.6-6.9h1.4l-.7,1.9h7.1c-.9,3.1-1.6,5.5-2.3,7.4h4.1v1.3h0ZM233.1,14.3l-1,1.1c-.8-.9-1.9-1.6-3.2-2.3l.9-1.1c1.1.6,2.2,1.4,3.3,2.4h0ZM238.4,3.3h-5.8c-.2.7-.5,1.6-.9,2.6h5.9c.3-1.1.6-2,.8-2.6ZM242.1,20.4l-1,1c-1-1.3-2.4-2.6-4.2-3.9l.9-1c1.8,1.4,3.2,2.7,4.2,4ZM241.5,13c-.8.7-2,1.4-3.5,2.2l-.8-1.1c1.3-.6,2.5-1.3,3.4-2.1l.9,1h0Z"/>
  <path class="st0" d="M256.4,22.7h-1.3v-2.2h-5.7v2.8h-1.3V4.6h2.4c.7-1.2,1.3-2.7,1.9-4.5l1.3.3c-.3.9-.9,2.3-1.8,4.2h4.5v18.1ZM255.1,11.5v-5.6h-5.7v5.6h5.7ZM255.1,19.1v-6.2h-5.7v6.2h5.7ZM269.6,4.6c-.1,3.9-.3,7.6-.6,11-.3,3.4-.5,5.4-.8,6-.3.6-.6,1-1.1,1.3-.4.3-1.3.4-2.5.4s-1.2,0-2.1,0l-.4-1.3c.7,0,1.5,0,2.3,0h1.5c.2,0,.5-.1.7-.3.2-.2.4-.4.5-.7.1-.3.2-1.3.4-3,.2-1.8.3-3.7.4-5.8.1-2.1.2-4.1.2-6.1h-6.9c-.9,1.8-2,3.5-3.2,5.2l-1.1-.7c2.3-3,3.9-6.4,4.9-10.1l1.3.3c-.4,1.4-.9,2.7-1.4,4h7.8,0ZM264.7,16.4l-1.1.8c-.8-2-2.1-4-3.8-6.1l1.1-.7c1.6,1.9,2.8,3.9,3.8,6.1h0Z"/>
  <path class="st0" d="M280.9.5c-.1.5-.3,1.5-.8,2.9l-.6,2v17.9h-1.4v-14.5c-.9,1.8-1.6,3.1-2,3.7l-.8-1.3c1.7-2.7,3.1-6.4,4.3-11l1.3.3h0ZM297.6,23.3h-1.4v-1.8h-12.6v1.8h-1.4V1.1h15.4v22.1ZM296.2,20.2V2.5h-12.6v17.7h12.6ZM295,7.8h-4.6v3h3.2v7.1h-7.5v-7.1h3v-3h-4.4v-1.3h4.3v-2.6h1.3v2.6h4.6v1.3ZM292.3,16.6v-4.5h-4.8v4.5h4.8Z"/>
  <path class="st0" d="M326.7,22.2l-1,1c-5.5-3.9-9-9.1-10.5-15.9-1.1,6.1-4.6,11.4-10.5,15.8l-.9-1.1c2-1.4,3.8-3.1,5.5-5.1,1.6-2,2.9-4.3,3.8-6.7.9-2.4,1.3-5.8,1.4-10h1.5c0,4.8.9,9.1,2.9,12.9,2,3.7,4.6,6.8,8,9.1h0Z"/>
  <path class="st0" d="M351,19.5h-10.4l.7.9c-2.7,1.4-5.6,2.4-8.6,3l-.7-1.2c2.8-.5,5.5-1.4,8-2.6h-4.1v-9.6h15.1v9.6h0ZM339.5,7.4h-7.3v-1.3h7.3v1.3ZM339.3,2.7h-6.6v-1.3h6.6v1.3ZM349.7,12.6v-1.5h-12.4v1.5h12.4ZM349.7,15.4v-1.6h-12.4v1.6h12.4ZM349.7,18.3v-1.6h-12.4v1.6h12.4ZM355,8.2l-.6,1.3c-3.4-.5-6-1.5-7.8-3.1-1.5,1.4-3.5,2.4-6,3l-.7-1.3c3.2-.5,5.4-1.8,6.7-3.9l1.4.3c0,.2-.3.5-.6,1,1.8,1.4,4.3,2.4,7.6,2.7h0ZM354.4,3.5c-.9,1.3-1.7,2.2-2.4,3l-1-1c.7-.7,1.3-1.4,1.9-2.2h-9.6c-.7.9-1.5,1.7-2.4,2.4l-.9-.9c1.5-1.1,2.8-2.7,3.8-4.6l1.3.5-.8,1.4h10.2v1.5ZM354.8,22.2l-.6,1.2c-2.6-1-5.1-1.7-7.6-2.2l.7-1.2c2.7.5,5.2,1.3,7.6,2.2Z"/>
  <path class="st0" d="M364.1,12c-.6,3-1.4,5.4-2.4,7.4l-1.3-.6c1-1.9,1.9-4.3,2.5-7.2l1.2.4ZM370.9,10.1h-4.1v13.1h-1.4v-13.1h-4.9v-1.3h4.9V.1h1.4v8.7h4.1v1.3ZM363.9,6.7l-1.3.5c-.3-1.3-.9-2.9-1.9-4.7l1.2-.5c1,1.8,1.7,3.3,2,4.7ZM371,16l-1.4.5c-.2-1.2-.7-2.7-1.6-4.5l1.2-.4c.9,1.8,1.5,3.3,1.8,4.5h0ZM371.2,2.5c-.6,1.9-1.2,3.6-1.9,4.9l-1.3-.6c.8-1.3,1.4-2.9,2-4.8l1.2.5ZM383.2,16l-2.7.5v6.7h-1.3v-6.4l-8.1,1.5-.2-1.3,8.3-1.6V.2h1.3v15l2.5-.5.2,1.3h0ZM377.2,12.8l-1,1.1c-.9-1.3-2.3-2.8-4.3-4.4l1-1c1.7,1.4,3.1,2.8,4.3,4.3h0ZM377.7,5.8l-1,1c-1.1-1.2-2.5-2.4-4.2-3.6l.9-1c1.4.9,2.9,2.1,4.3,3.5h0Z"/>
  <path class="st0" d="M395.7,23.1h-1.4v-10.4h-2.5c-.2,4.8-.9,8.2-2.2,10.1l-1.2-.8c1.4-2.2,2-5.2,2-9.3h-2v-1.3h5.8v-3.4h-4.6V1.6h1.4v5.2h3.2V.3h1.4v22.9h0ZM410.1,3.8c-2.6,4-6.7,6.8-12.5,8.2l-.9-1.3c3.1-.6,5.7-1.6,7.9-3.1-1.1-.9-2.6-1.9-4.8-3-.7.5-1.4.9-2.1,1.3l-1-1c3-1.5,5.1-3.1,6.4-4.9l1.3.6c-.5.6-1,1.2-1.6,1.8h7.3v1.3h0ZM411.4,14.2h-3.1v7c0,.7-.2,1.2-.7,1.5-.5.3-1.5.4-2.9.4s-1,0-1.4,0l-.5-1.4c1.1,0,2,0,2.6,0s1.2,0,1.3-.2.3-.3.3-.5v-6.9h-9.9v-1.4h9.9v-3.2h1.4v3.2h3.1v1.4ZM397.6,8.6v-1.3c1.2,0,2.6-.1,4.1-.3v1.3c-1.9.3-3.3.4-4.1.4h0ZM402.9,19.6l-1.1.8c-.9-1.5-2-3-3.4-4.5l1.1-.8c1.4,1.4,2.5,2.9,3.4,4.5ZM408.5,3.8h-7.3c1.7,1,3.2,2,4.6,3,1-.8,1.9-1.8,2.7-3Z"/>
  <path class="st0" d="M423.2.5c-.3,1-.8,2.1-1.4,3.5l-.9,2v17.2h-1.3v-14.6c-.8,1.4-1.5,2.6-2.2,3.5l-.8-1.3c1.8-2.4,3.6-6,5.4-10.7l1.3.4h0ZM430.7,5.4v1.3h-3.4v5.3h2.6v8.4h-6.6v-8.4h2.6v-5.3h-3.7v-1.3h3.7V.2h1.3v5.2h3.4ZM428.6,19.1v-5.8h-3.9v5.8h3.9ZM439.7,22.1l-.9,1.1c-1.6-1.5-2.9-3-3.7-4.3-1.3,1.7-2.8,3.1-4.6,4.4l-1-1c2-1.3,3.6-2.8,4.9-4.7-.9-1.9-1.5-4.2-2-7.1l1.3-.5c.3,2.7.8,4.7,1.5,6.1,1-1.9,1.5-4.6,1.5-8.2s0-1.3,0-2h-3.1c-1,2.5-1.9,4.3-2.7,5.4l-1-.8c1.6-2.4,2.9-5.8,4-10.4l1.3.3c-.3,1.7-.7,3-1.1,4.1h5.7v1.3h-1.7c.1,5.2-.5,9.1-2,11.7.7,1.4,2,2.9,3.8,4.5h0Z"/>
  <path class="st0" d="M467.2,13.1c0,1.7,0,3.3-.3,5-.2,1.6-.4,2.6-.5,3.1-.2.5-.4.9-.8,1.2-.3.3-.8.5-1.4.7-.6.1-1.5.2-2.8.2l-.5-1.5c.4,0,1.2,0,2.4,0s.8,0,1.1-.3c.3-.2.5-.5.7-.8.1-.3.3-1.1.4-2.2.2-1.1.3-2.5.3-4.1h-16.1c-1.2,1.5-2.6,2.8-4.1,4.1l-.8-1.3c4.1-3.2,6.7-7.2,8-11.8h-7v-1.4h7.3c.4-1.7.7-3.1.8-3.9l1.3.3c-.1,1-.3,2.2-.7,3.6h9.7c-.3,1.5-.6,3-.9,4.6h2.6c-.2,1.4-.4,2.9-.8,4.5h2.2ZM451.2,2.9l-1.2.7c-.6-.9-1.3-1.8-2.2-2.7l1.2-.7c.9.9,1.6,1.8,2.2,2.7h0ZM451.9,16.5c-.7,2.4-1.7,4.6-2.8,6.3l-1.3-.7c1.1-1.6,2-3.6,2.8-6l1.2.3ZM464.3,10h-11.7c-.4,1-1.1,2-1.9,3.2h13c.2-1.2.4-2.2.6-3.2h0ZM462.6,5.4h-8.4c-.3,1-.6,2.1-1.1,3.2h8.7c.2-.9.5-2,.7-3.2h0ZM455.7,22.5l-1.4.3c0-1.8-.2-3.8-.7-6.3l1.3-.3c.4,1.8.7,3.9.8,6.3ZM459.9,21.1l-1.4.5c-.3-1.8-.8-3.5-1.4-5.2l1.3-.4c.6,1.5,1.1,3.2,1.5,5.1ZM463.7,19.6l-1.2.6c-.4-1.2-1-2.6-1.7-4l1.2-.6c.7,1.2,1.3,2.5,1.8,4Z"/>
  <path class="st0" d="M484.5,15.2c-4.7,3.3-8.4,5.6-11,6.9l-.5-1.3,2.4-1.3V.5h1.4v18.2c1.8-1,4.3-2.6,7.6-4.9v1.5c.1,0,.1,0,.1,0ZM486.8,9.1l-1.3.7c-1.1-2.3-2.8-4.7-5-7.2l1.3-.6c2.4,2.9,4.1,5.4,4.9,7.2ZM495.8,22.3l-1,1c-1.2-1.8-2.9-3.9-5.2-6.3-1.6,2.1-4,4.3-7.4,6.4l-1-1.1c2.4-1.3,4.5-2.9,6.2-4.8,1.7-1.9,2.9-4.1,3.5-6.7.6-2.6,1-6.2,1.1-10.7h1.5c-.2,7.6-1.2,12.9-3.1,15.7,2.5,2.7,4.3,4.9,5.5,6.5h0Z"/>
  <path class="st0" d="M524.2,2.3h-11.9v5.6c4.6,2.4,7.7,4.3,9.3,5.8l-.8,1.3c-2.2-1.9-5-3.7-8.4-5.5v13.7h-1.4V2.3h-9.5V.9h22.8v1.4h0Z"/>
  <path class="st0" d="M551.2,21.3c0,.7-.3,1.2-.8,1.5-.5.3-1.6.4-3.4.4h-1.2l-.4-1.4c.6,0,1.3,0,1.9,0,1.2,0,2,0,2.2-.1.2,0,.3-.3.3-.5v-6.3h-7.4v7.7h-1.4v-7.7h-7.5c-.4,3.6-1.3,6.4-2.7,8.3l-1.2-.9c1.8-2.6,2.6-5.8,2.6-9.5V.8h19v20.6h0ZM541,7V2.2h-7.3v4.8h7.3ZM541,13.5v-5.1h-7.3v5.1h7.3ZM549.8,7V2.2h-7.4v4.8h7.4ZM549.8,13.5v-5.1h-7.4v5.1h7.4Z"/>
  <path class="st0" d="M581,21.3l-.5,1.4h-8.7c-2.9,0-5.2-.3-6.6-.8-1.5-.5-2.6-1.3-3.5-2.2-.8,1.1-1.8,2.3-3.1,3.6l-1-1c2.8-2.7,4.5-5.5,5.2-8.4h-4.3v-1.3c1.5-1.8,2.8-3.5,4-5.3h-4.6v-1.4h6.1v1.3c-1.3,1.9-2.6,3.7-3.9,5.4h4v1.3c-.5,2-1.2,3.6-1.8,4.7,1.8,1.8,4.8,2.7,9,2.7h9.7ZM563.4,4.1l-1,.8c-1.2-1.5-2.5-2.8-3.8-3.8l.9-.9c1.9,1.5,3.2,2.8,3.9,3.9ZM570.1,14.1c-1.1,1.8-2.5,3.4-4.1,4.6l-1-1c1.4-1,2.7-2.4,4.1-4.2l1.1.6ZM580.5,6.3l-.7,1.1c-2.4-2-4.9-3.7-7.6-4.9-1.2,1.4-2.6,2.6-4.2,3.6h9.6v1.4h-4.2v2.9h6.6v1.4h-6.6v7.9h-1.4v-7.9h-6.7v-1.4h6.7v-2.9h-4.1v-1.3l-2,1.2-.9-1.1c3.5-1.9,6-3.9,7.3-6.2l1.3.5c0,.2-.3.5-.7,1,2.8,1.4,5.3,3,7.5,4.8h0ZM580.5,17.7l-1,.9c-.9-1.4-2.4-2.8-4.3-4.4l1-.8c1.9,1.6,3.3,3,4.3,4.3Z"/>
  <path class="st0" d="M147.9,44.7h1.9c-3,3.5-4.5,7.5-4.5,12.3s1.5,8.6,4.5,12.1h-1.9c-3-3.3-4.5-7.3-4.5-12.1s1.5-9,4.5-12.3h0Z"/>
  <path class="st0" d="M185.5,54.6h-22.8v-1.5h22.8v1.5Z"/>
  <path class="st0" d="M200.2,69.1h-1.9c3-3.5,4.5-7.5,4.5-12.2s-1.5-8.7-4.5-12.1h1.9c3,3.3,4.5,7.4,4.5,12.1s-1.5,8.9-4.5,12.3Z"/>
  <path class="st0" d="M242.2,60.9l-1,1.1c-4.5-3.4-7.8-7.8-9.8-13.3v11.2h5.7v1.4h-5.7v4.7h-1.4v-4.7h-5.8v-1.4h5.8v-11.2c-1.1,2.9-2.4,5.4-4,7.4-1.5,2-3.6,3.9-6.1,5.8l-.9-1.2c4.8-3.5,7.9-7.5,9.5-12h-8.8v-1.4h10.4v-4.5h1.4v4.5h10.1v1.4h-8.6c1.7,5,4.8,9,9.2,12.2h0Z"/>
  <path class="st0" d="M250,59.7c-.3,2.2-.8,4.3-1.5,6.2l-1.3-.6c.6-1.6,1.2-3.5,1.6-5.9l1.2.3h0ZM256.4,58.1l-1.3.4c0-.5-.2-1-.4-1.5-2.7.7-5,1.3-7,1.6l-.4-1.5c1.9-1.7,3.6-3.7,5-6-2.3.4-3.8.6-4.4.7l-.3-1.3c1.7-2,3.1-4.6,4.2-7.6l1.3.4c-.9,2.4-2.1,4.8-3.7,7,1.2,0,2.4-.3,3.8-.5.7-1.1,1.3-2.2,1.8-3.4l1.2.5c-2.2,4.4-4.5,7.7-6.8,10,1.4-.2,3.1-.6,4.9-1.2-.2-.7-.5-1.2-.7-1.8l1.2-.4c.7,1.4,1.2,2.9,1.6,4.5h0ZM253.3,64.9l-1.4.3c0-1.7-.3-3.5-.7-5.5l1.3-.2c.4,1.7.7,3.5.8,5.4ZM256.4,63.7l-1.3.5c-.1-1.2-.5-2.8-1.2-4.7l1.2-.4c.6,1.7,1,3.2,1.2,4.6h0ZM269.7,64c0,.4-.1.8-.5,1.2-.3.3-.7.6-1.1.7-.4,0-1.2,0-2.4,0l-.6-1.4h1.4c.8,0,1.3,0,1.4-.1.2-.1.3-.3.3-.5v-18.8h-10v20.9h-1.3v-22.2h12.6v20.3h0ZM267.6,51.5h-8.4v-1.3h2.1c-.3-1-.7-2.1-1.3-3.3l1.2-.5c.5,1.2,1,2.4,1.5,3.8h1.5c.6-1.1,1.2-2.4,1.8-3.9l1.2.5c-.2.7-.7,1.9-1.5,3.4h1.9v1.3ZM267.6,56.3h-5.6v3.9c0,.5.2.7.6.7h4.6v1.2h-4.8c-1.2,0-1.8-.6-1.8-1.9v-3.9h-1.5v-1.3h4.1c-.2-.7-.5-1.4-1-2.4l1.3-.5c.3.7.7,1.6,1.1,2.9h2.9v1.3Z"/>
  <path class="st0" d="M285.8,48.6h-2l1.1.8c-.3,3.3-1.1,7.4-2.2,12.2.6-.2,1.5-.4,2.6-.8v1.4c-3.9,1.2-7.1,2.1-9.6,2.7v-1.4c.3,0,1.2-.3,2.5-.7,0-3.7-.4-8.2-1.3-13.6l1.1-.7h-2.2v-1.4h4.6c-.2-1.1-.6-2.4-1.4-4l1.4-.5c.7,1.6,1.2,3.1,1.5,4.5h3.9v1.4h0ZM283.4,48.6h-5.2c.7,4.4,1.1,9.1,1.4,13.9.7-.2,1.2-.3,1.5-.4,1.3-5.1,2.1-9.6,2.4-13.5ZM298.3,49h-6.8v6h5.7v10.9h-1.4v-1.9h-8.2v1.9h-1.4v-10.9h3.9v-12h1.4v4.6h6.8v1.3ZM295.8,62.7v-6.3h-8.2v6.3h8.2Z"/>
  <path class="st0" d="M314.6,44.1c-2.5,1.1-5.1,1.7-7.8,2v3.1h6.9v7.6h-6.9c-.2,3.8-.9,6.7-2.1,8.8l-1.2-.8c1.3-2.5,1.9-5.4,1.9-8.9v-11c3.5-.4,6.4-1.1,8.5-2.1l.6,1.2h0ZM312.4,55.6v-5h-5.5v5h5.5ZM326.7,52.5h-3v13.4h-1.3v-13.4h-4.7c0,3.6-.3,6.2-.9,8-.6,1.8-1.5,3.5-2.8,5.4l-1.1-.9c1.5-2.1,2.4-4,2.8-5.6.4-1.7.6-3.9.6-6.6v-8c3.6-.2,6.7-.8,9.3-1.9l.7,1.2c-2.3,1-5.2,1.6-8.7,1.9v5.2h9v1.3h0Z"/>
  <path class="st0" d="M354.8,48.9h-5.8c0,3.9.3,7.3.8,10.2,1.2-2.3,2.1-5,2.7-8.2l1.2.5c-.8,4-2,7.2-3.4,9.5.3,1.1.6,2,1,2.6.4.6.7.9.9.9.3,0,.6-.4.8-1.2.3-.8.4-1.8.5-3.1l1.3.7c-.3,3.3-1.2,5-2.4,5s-2.1-1.2-3-3.6c-.9,1.1-1.9,2.2-3.2,3.3l-1-.9c1.8-1.5,3-2.9,3.7-4-.7-3.3-1.1-7.3-1.1-11.8h-15.6v-1.2h6.7v-1.9h-5.7v-1.2h5.7v-1.7h1.3v1.7h6v1.2h-6v1.9h7.6c0-1.5,0-3.1,0-4.8h1.4c0,2.1,0,3.7,0,4.8h5.9v1.2h0ZM346.1,52.3h-6.1v1.6h5.3v6.9h-5.3v1.5h5.2v1.2h-5.2v2.2h-1.3v-2.2h-6.5v-1.2h6.5v-1.5h-5.4v-6.9h5.4v-1.6h-6.3v-1.2h6.3v-1.4h1.3v1.4h6.1v1.2ZM338.7,56.8v-1.8h-4.1v1.8h4.1ZM338.7,59.7v-1.7h-4.1v1.7h4.1ZM344,56.8v-1.8h-4v1.8h4ZM344,59.7v-1.7h-4v1.7h4ZM353.8,46.3l-1.1.7c-.6-1.1-1.3-2.2-2-3.1l1.1-.7c.8.9,1.5,2,2,3.1h0Z"/>
  <path class="st0" d="M383.2,64.1l-.5,1.4h-9.6c-2.9,0-5-.8-6.2-2.4-1.6,1-3.5,1.9-5.5,2.9l-.9-1.2c5-2.3,8.9-4.6,11.7-7,2.9-2.4,5.5-5.4,7.8-9.1h-18.2v-1.4h10c-.5-1.2-1.1-2.4-2-3.7l1.5-.5c1,1.6,1.7,3,2.1,4.3h8.4v1.4c-3.6,5.9-8.2,10.5-13.6,13.8,1,1.2,2.7,1.8,5.1,1.8h10.2,0Z"/>
  <path class="st0" d="M398.9,55.4l-1.1.9c-.7-1.4-1.6-2.8-2.8-4.3v13.9h-1.4v-13.3c-1.4,2.5-2.9,4.6-4.5,6.3l-.9-1.2c2-1.9,3.8-4.5,5.4-7.9h-4.7v-1.3h4.7v-5.5h1.4v5.5h3.9v1.3h-3.9v.2c1.7,2,3,3.8,3.9,5.4h0ZM410.3,65.9h-1.4v-2.2h-7.7v2.2h-1.4v-22.1h10.5v22.1h0ZM409,50v-4.8h-7.7v4.8h7.7ZM409,56v-4.8h-7.7v4.8h7.7ZM409,62.3v-4.9h-7.7v4.9h7.7Z"/>
  <path class="st0" d="M426.9,50.5h-7.7v15.4h-1.4v-22.3h9.1v6.9ZM425.6,46.4v-1.6h-6.5v1.6h6.5ZM425.6,49.2v-1.6h-6.5v1.6h6.5ZM427.7,57.5l-1.1.5-.4-.7-5.4.7-.3-1.1c.8-.5,1.9-1.3,3.3-2.4l-3,.4-.3-1c1.4-.9,2.5-2,3.5-3.1l1.3.6c-.8.9-1.6,1.6-2.4,2.3l2.3-.3c.4-.3.8-.7,1.3-1.3l1.2.5c-2,2-3.6,3.3-4.7,4.2l2.9-.4c-.2-.3-.4-.6-.5-.8l1.1-.5c.5.8,1,1.6,1.4,2.5h0ZM426.9,60c0,1.7-.3,3-1,3.8-.7.8-1.8,1.4-3.5,1.8l-.8-1.1c2.3-.5,3.6-1.4,3.9-2.6h-4.1v-3.1h1.3v1.9h2.9c0-.2,0-.5,0-.9v-1.2h1.3v1.5ZM436.1,57.5l-1,.7c-.3-.4-.5-.7-.5-.8l-6.2.5-.3-1c.8-.4,1.8-1.2,3.1-2.2l-3,.3-.3-1c1.4-.8,2.5-1.8,3.3-3.1l1.2.5c-.6.7-1.4,1.5-2.2,2.2l2.3-.2c.2-.2.6-.5,1.1-1.1l1.1.5c-1.1,1.2-2.5,2.4-4.2,3.7l3.2-.3c-.1-.3-.4-.6-.7-.9l1.1-.6c.7.7,1.4,1.6,2,2.7h0ZM434.4,61.7h-4.3v3.6h-1.3v-6.9h1.3v2.1h3v-1.9h1.2v3.1h0ZM438.4,64.3c0,.5-.1.9-.5,1.2-.3.3-.7.4-1,.4-1.4,0-2.2,0-2.5,0l-.6-1.4c.6,0,1.1,0,1.7,0s1.2,0,1.4-.1c.1,0,.2-.2.2-.5v-13.5h-7.8v-6.9h9.1v20.7h0ZM437.1,46.4v-1.6h-6.4v1.6h6.4ZM437.1,49.2v-1.6h-6.4v1.6h6.4Z"/>
  <path class="st0" d="M467.7,58.5h-2.2v3.4h-8.7v2.2c0,.7-.2,1.2-.6,1.4-.4.3-1.4.4-2.8.4s-1,0-1.4,0l-.4-1.3h3.3c.5,0,.7-.3.7-.7v-1.9h-9.3v-1.2h9.3v-2.2h-10.7v-1.3h10.7v-2h-9.3v-1.3h9.3v-2h-8.5v-4.4h8.5v-1.8h-10.5v-1.2h10.5v-1.8h1.3v1.8h10.5v1.2h-10.5v1.8h8.5v4.4h-8.5v2h8.7v3.2h2.2v1.3h0ZM455.6,50.8v-2h-7.1v2h7.1ZM464,50.8v-2h-7.1v2h7.1ZM464.2,57.2v-2h-7.3v2h7.3ZM464.2,60.7v-2.2h-7.3v2.2h7.3Z"/>
  <path class="st0" d="M481.4,59.2c-2.6,1.4-5.2,2.5-7.9,3.4l-.4-1.3c1.4-.5,2.6-1,3.5-1.4v-14.1h-3.2v-1.3h7.8v1.3h-3.2v13.4c.8-.3,1.9-.8,3.3-1.5v1.4c0,0,0,0,0,0ZM495.9,44.9h-6.7c-.2,1.2-.5,2.2-.7,3h5.8v12.8h-8.2l.9.9c-2.2,1.9-4.5,3.4-7,4.4l-.7-1.1c2.5-1.1,4.7-2.5,6.7-4.2h-3.4v-12.8h4.5c.3-.8.5-1.8.7-3h-6v-1.3h14v1.3h0ZM493.1,51.7v-2.5h-9.1v2.5h9.1ZM493.1,55.5v-2.5h-9.1v2.5h9.1ZM493.1,59.4v-2.7h-9.1v2.7h9.1ZM496.2,64.7l-.9,1.1c-1.8-1.2-3.8-2.2-6.1-3.2l.9-1.1c2.3.9,4.3,2,6.1,3.2Z"/>
  <path class="st0" d="M524.6,64.1l-.4,1.3h-10.5c-3.5,0-6.2-.9-8.3-2.9-.9,1.4-1.9,2.5-3,3.5l-1.1-.9c2.3-1.9,4-4.8,5.2-8.4h-4.4v-1.2c1.3-1.6,2.6-3.4,4-5.5h-4.6v-1.3h6.4v1.3l-4,5.4h4.1v1.3c-.4,1.6-1,3.1-1.9,4.7.8.8,1.7,1.4,2.6,1.8,1,.4,2,.6,3,.8,1,.1,4.1.2,9.4.2h3.5ZM506.9,46.9l-1,1c-.7-1.1-2-2.4-3.9-3.9l1-1c1.9,1.6,3.2,2.9,3.9,4h0ZM523.3,60.8c0,1.1-.8,1.6-2.4,1.6h-1.1l-.4-1.3h2c.1,0,.3,0,.4-.2.1-.1.2-.3.2-.4v-2.6h-4.7v4.4h-1.4v-4.4h-4.7v4.7h-1.4v-13.6h5.8c-1.1-.8-2.5-1.6-4.2-2.4l.9-1c.8.4,2,1,3.5,2,2.2-1.2,3.8-2,4.6-2.7h-11.4v-1.3h13.7v1.3c-1.7,1.3-3.6,2.4-5.7,3.5.3.3.5.5.7.7h5.4v11.8h0ZM515.9,52.7v-2.5h-4.7v2.5h4.7ZM515.9,56.6v-2.7h-4.7v2.7h4.7ZM521.9,52.7v-2.5h-4.7v2.5h4.7ZM521.9,56.6v-2.7h-4.7v2.7h4.7Z"/>
  <path class="st0" d="M541.8,55.2h-5c0,.7-.1,1.4-.3,2.1,2.2,2,3.9,3.7,4.9,5.1l-.9,1.1c-1.3-1.7-2.7-3.3-4.4-4.7-.9,2.7-2.7,5.2-5.4,7.2l-1-1c3.6-2.5,5.5-5.7,5.8-9.7h-5.8v-1.3h6c.1-1.7.2-3.7.2-5.9h-2.6c-.5,1-1.3,2.1-2.3,3.5l-1.2-.8c2.1-2.8,3.5-5.4,4.3-7.8l1.3.5c-.3,1-.7,2.1-1.4,3.3h7.2v1.4h-4l-.2,5.9h4.9v1.3ZM551.5,65.4h-1.4v-2.4h-5.6v2.4h-1.4v-20h8.3v20h0ZM550.1,61.7v-14.9h-5.6v14.9h5.6Z"/>
  <path class="st0" d="M571.2,44.7h1.9c-3,3.5-4.5,7.5-4.5,12.3s1.5,8.6,4.5,12.1h-1.9c-3-3.3-4.5-7.3-4.5-12.1s1.5-9,4.5-12.3h0Z"/>
  <path class="st0" d="M608.9,64.7h-22.9v-1.4h22.9v1.4ZM607,45.4h-19.2v-1.4h19.2v1.4Z"/>
  <path class="st0" d="M623.5,69.1h-1.9c3-3.5,4.5-7.5,4.5-12.2s-1.5-8.7-4.5-12.1h1.9c3,3.3,4.5,7.4,4.5,12.1s-1.5,8.9-4.5,12.3Z"/>
  <path class="st0" d="M665.5,56.9l-.6,1.4c-4.4-.6-8.1-1.5-10.9-2.9-3,1.3-6.6,2.2-10.7,2.8l-.8-1.3c4-.5,7.3-1.3,10-2.4-1.5-.9-2.8-1.9-3.9-3-1.3,1-2.5,1.8-3.7,2.5l-.9-1c3.2-1.7,5.4-3.7,6.9-6l1.4.5c-.4.7-.8,1.3-1.2,1.7h10.2v1.3c-1.3,1.4-3.1,2.8-5.6,4.1,2.6,1.1,6,1.9,10,2.2h0ZM664.4,50.5h-1.3v-4.2h-18.3v4.1h-1.4v-5.4h10.1c-.2-.5-.6-1.1-1.2-1.9l1.5-.5c.5.8.9,1.6,1.3,2.3h9.3v5.5h0ZM661.7,65.8h-1.4v-1.2h-12.9v1.2h-1.4v-7.3h15.6v7.3ZM660.4,63.3v-3.4h-12.9v3.4h12.9ZM659.1,50.5h-9.5c1.2,1.4,2.7,2.5,4.4,3.4,2.2-1,3.9-2.1,5.1-3.4Z"/>
  <path class="st0" d="M692.4,44.3c-6.1,1.2-11.8,1.8-16.9,1.8v3.5h16.8v8.4h-17.1c-.5,3.3-1.7,6-3.7,8l-1-1.2c1.4-1.4,2.4-2.9,2.9-4.7.5-1.8.7-4.9.7-9.3v-6.1c5.8,0,11.6-.6,17.5-1.8l.8,1.3h0ZM691,56.7v-5.6h-15.4c0,1,0,2.9-.1,5.6h15.5,0Z"/>
  <path class="st0" d="M710.2,46h-7.3c-.9,1.1-1.8,2.1-2.9,3l-1.1-.8c1.9-1.5,3.3-3.3,4.3-5.4l1.3.5c-.2.4-.5.9-.9,1.5h6.5v1.2ZM721.1,54.7h-1.3v-3.7h-18.8v3.6h-1.3v-4.9h9.9c0-.3-.3-.8-.6-1.4l1.2-.4c.3.6.6,1.2.8,1.9h10.2v4.9h0ZM718.7,64.7h-14.7v1.1h-1.4v-12.7h15.3v4.5h-14v2.1h14.7v5.1h0ZM716.6,56.3v-2h-12.6v2h12.6ZM717.4,63.5v-2.6h-13.4v2.6h13.4ZM707.4,48.6l-1.2.5c-.3-.6-.8-1.4-1.5-2.2l1.2-.5c.6.7,1.1,1.4,1.5,2.1ZM721.8,46h-8.4c-.6.7-1.2,1.4-2,2l-1.1-.8c1.9-1.8,3.1-3.3,3.6-4.5l1.3.5c-.2.4-.5,1-.9,1.5h7.5v1.2h0ZM717.9,48.7l-1.2.5c-.6-1.2-1-1.9-1.4-2.3l1.2-.5c.5.8,1,1.5,1.3,2.3Z"/>
  <path class="st0" d="M734.9,59.6c-1.9,1.1-4.4,2.4-7.4,3.9l-.6-1.2c1.6-.8,2.8-1.4,3.7-1.9v-7.3h-3.1v-1.3h3.1v-6h-3.5v-1.2h7.8v1.2h-3.1v6h2.7v1.3h-2.7v6.5c.9-.4,1.8-1,2.9-1.6l.2,1.4ZM750,65.3h-15.1v-1.3h6.9v-3.7h-5.8v-1.3h5.8v-3.2h-5.6v-12.2h12.7v12.2h-5.7v3.2h6v1.3h-6v3.7h6.9v1.3ZM741.7,49v-4.1h-4.3v4.1h4.3ZM741.7,54.4v-4.2h-4.3v4.2h4.3ZM747.5,49v-4.1h-4.4v4.1h4.4ZM747.5,54.4v-4.2h-4.4v4.2h4.4Z"/>
  <path class="st0" d="M778.1,59.9h-22.8v-1.3h2v-13.7c1.3-.3,3-.9,5.1-1.9l.7,1.2c-1.4.7-2.9,1.3-4.6,1.8,0,1.2,0,2.2,0,3h4v1.3h-4c0,1.2,0,2.3,0,3.4h3.8v1.4h-3.7v3.5h16.2c0-2,0-3.2,0-3.6h-3.6v-1.3h3.6v-3.4h-3.6v-1.3h3.6c0-.7,0-1.5,0-2.2v-1.2h-3.6v-1.3h5c-.1,6.9-.2,11.7-.3,14.4h2v1.3h0ZM764.1,61.9c-2.2,1.7-4.8,3-7.5,4l-1-1.2c2.9-.9,5.4-2.1,7.3-3.6l1.1.8h0ZM765.5,51.6c-.4,2.6-1.2,4.8-2.2,6.3l-1.1-.9c1.1-1.4,1.8-3.3,2.1-5.7l1.3.3h0ZM770.2,46h-4.5c-.1,1-.3,2-.4,2.8h4.8c-.1,4.7-.4,7.4-.8,8.1-.4.7-1.1,1.1-2.2,1.1h-1.1l-.5-1.4c.6,0,1.1,0,1.4,0,.7,0,1.1-.3,1.3-.8.2-.5.3-2.4.4-5.7h-5.1c.3-1.5.7-3.9,1.1-7.2h1.3c0,.7-.1,1.3-.2,1.9h4.3v1.3h0ZM777.8,64.7l-1,1c-2.2-1.4-4.5-2.6-7.2-3.7l1-1c3.1,1.3,5.5,2.6,7.3,3.7h0Z"/>
  <path class="st0" d="M792.4,64c0,.5-.1,1-.4,1.3-.3.4-1,.5-2,.5s-1.1,0-1.8-.1l-.5-1.4c.7,0,1.4.1,2.1.1s.9,0,1.1-.2c.1-.1.2-.3.2-.7v-6.8h-4.5c-.3,3.8-1,6.8-1.9,9l-1.2-.9c1.3-3,2-6.9,2-11.7v-9.8h6.9v20.4h0ZM791.1,55.6v-4.8h-4.3v4.8c0,0,4.3,0,4.3,0h0ZM791.1,49.4v-4.6h-4.3v4.6h4.3ZM806.6,64.9l-.8,1.2c-1.8-1-3.3-2.1-4.5-3.2-1,1-2.2,2-3.9,3.1l-1-1c1.7-1.1,3.1-2.1,4-3.1-1.6-2-2.9-4.8-3.7-8.2h-.7v12.2h-1.3v-22.3h11.3c-.2,2.7-.4,4.5-.7,5.4-.3.8-.7,1.3-1.4,1.6-.7.2-1.9.3-3.7.2l-.4-1.4c.5,0,1,0,1.5,0,1.1,0,1.8,0,2.1-.2.3-.1.6-.4.7-.9.1-.5.3-1.6.4-3.5h-8.5v7.5h9.5c-.4,4-1.5,7.2-3.3,9.5,1.1,1.1,2.6,2.1,4.4,3.1h0ZM804,53.7h-5.9c.7,3,1.8,5.4,3.2,7.1,1.4-1.9,2.3-4.2,2.7-7.1Z"/>
  <path class="st0" d="M821.8,51.4c-.1,2.2-.8,4.3-2,6l-1-1c.7-1.1,1.3-2.4,1.6-3.8h-2.4v11.5c0,.3-.1.7-.4,1.1-.3.4-1,.5-2.1.5s-.8,0-1.2,0l-.8-1.4c1.1,0,2,.1,2.6.1s.3,0,.4-.2c.1-.1.2-.3.2-.4v-9.5c-1.3,3.2-2.6,5.7-4,7.5l-.9-1.1c1.6-2,2.9-4.8,4.2-8.2h-4.1v-1.3h5.8c-1.1-1.3-2.4-2.4-4-3.5l1-.9c.6.4,1.4,1,2.4,1.8,1.2-1.4,2.2-2.7,2.9-4h-7.1v-1.3h8.6v1.3c-.9,1.6-2,3.2-3.4,4.8l.9,1-.8.7h3.8ZM833.1,57.4c0,1.8-.2,3.4-.4,4.8-.2,1.4-.5,2.3-.7,2.6-.2.3-.5.5-.9.8-.3.2-1.5.3-3.4.2l-.6-1.4c.5,0,1.1,0,1.8,0,1,0,1.5,0,1.7-.1.2,0,.3-.2.4-.4.1-.2.2-.7.3-1.7.1-1,.3-2.1.4-3.5h-4.4c-.7,3.4-2.9,5.8-6.5,7.2l-1-1.1c1.4-.4,2.8-1.2,3.9-2.4,1.2-1.2,1.9-2.4,2.2-3.8h-4.2v-1.3h4.5c.1-.7.2-1.6.2-2.6h1.3c0,.7,0,1.6-.2,2.6h5.5ZM834.7,54.3l-.7,1.2c-2-.6-3.9-1.5-5.6-2.8-1.6,1.2-3.3,2.1-5,2.8l-.9-1.1c1.6-.5,3.3-1.3,4.9-2.5-1.1-1.1-1.9-2-2.4-2.9l1.2-.7c.6,1,1.4,1.9,2.2,2.7,1.2-1,2.1-2.4,2.8-4.2h-5.6c-1.1,1.4-2.1,2.5-3.1,3.2l-1-.9c2-1.5,3.6-3.6,4.9-6.2l1.3.5c-.3.7-.7,1.4-1.2,2.1h8v1.3h-1.9c-.7,2-1.7,3.7-3.1,5,1.6,1.1,3.4,2,5.4,2.5Z"/>
  <path class="st0" d="M147.9,87.4h1.9c-3,3.5-4.5,7.5-4.5,12.3s1.5,8.6,4.5,12.1h-1.9c-3-3.3-4.5-7.3-4.5-12.1s1.5-9,4.5-12.3h0Z"/>
  <path class="st0" d="M185.5,108h-22.8v-1.4h22.8v1.4ZM184.2,87.6h-20.1v-1.4h20.1v1.4ZM183.1,97.4h-18v-1.5h18v1.5Z"/>
  <path class="st0" d="M200.2,111.7h-1.9c3-3.5,4.5-7.5,4.5-12.2s-1.5-8.7-4.5-12.1h1.9c3,3.3,4.5,7.4,4.5,12.1s-1.5,8.9-4.5,12.3Z"/>
  <path class="st0" d="M242.2,103.6l-1,1.1c-4.5-3.4-7.8-7.8-9.8-13.3v11.2h5.7v1.4h-5.7v4.7h-1.4v-4.7h-5.8v-1.4h5.8v-11.2c-1.1,2.9-2.4,5.4-4,7.4-1.5,2-3.6,3.9-6.1,5.8l-.9-1.2c4.8-3.5,7.9-7.5,9.5-12h-8.8v-1.4h10.4v-4.5h1.4v4.5h10.1v1.4h-8.6c1.7,5,4.8,9,9.2,12.2h0Z"/>
  <path class="st0" d="M256.5,86.1c-1.6,4.8-4.3,8.6-8.4,11.5l-1.1-1.1c3.9-2.6,6.5-6.2,8-10.9l1.4.5ZM268.4,108.1l-1.2.7c-.5-1.4-1.1-2.4-1.6-3.3-5,1.3-9.9,2.1-14.8,2.6l-.4-1.3c2.7-3.1,5.2-7.6,7.7-13.5l1.3.6c-2.2,5.3-4.5,9.5-6.9,12.7,3.4-.2,7.5-1,12.4-2.2-.8-1.4-1.8-3-3.2-4.9l1.2-.7c2.4,3.3,4.3,6.5,5.5,9.4h0ZM270.3,96.3l-.9,1.2c-3.1-2-5.6-5.4-7.5-10.1h-1.8v-1.4h2.8c1.5,4.8,4,8.2,7.3,10.4h0Z"/>
  <path class="st0" d="M297.2,106.6c0,.7-.2,1.2-.6,1.5-.4.3-1.4.5-3.1.5s-1.7,0-2.8-.1l-.5-1.5c1.5.1,2.7.1,3.5.1s1.5,0,1.7-.2c.2-.1.3-.3.3-.7v-18.8h-20.2v-1.4h21.6v20.5h0ZM293,92.2h-16.6v-1.3h16.6v1.3ZM291.2,103.6h-13.2v-8h13.2v8ZM289.8,102.3v-5.2h-10.3v5.2h10.3Z"/>
  <path class="st0" d="M311.8,91.6c-.7,1.2-1.6,2.4-2.6,3.6v13.4h-1.4v-11.8c-.9,1-2.1,2-3.4,3.1l-.7-1.1c3.3-2.9,5.6-5.6,6.9-8l1.2.7ZM311.2,86.4c-1.6,2-3.8,3.8-6.6,5.5l-.8-1.1c2.9-1.8,5-3.5,6.2-5.2l1.1.8h0ZM326.7,94.8h-4.1v11.7c0,.6-.1,1-.4,1.4-.3.3-.6.5-1,.6-.4,0-1.1.1-2.3.1s-1.8,0-2.4,0l-.5-1.4c.7,0,1.5,0,2.3,0,1.5,0,2.4,0,2.6,0,.2,0,.3-.2.3-.5v-11.8h-9.2v-1.4h14.9v1.4ZM325.4,88.1h-12.5v-1.4h12.5v1.4Z"/>
  <path class="st0" d="M341.4,90.4l-1.1.9c-.8-1.2-2-2.3-3.4-3.5-.9,1.5-1.9,2.9-3,4.2h6.2v1.2h-2.7v2.9h3.4v1.2h-3.4v8.2c.3,0,1.3-.3,3-.9v1.3c-3.2,1-5.9,1.8-8,2.2l-.5-1.3c1.1-.2,2.5-.5,4.2-1v-8.5h-3.6v-1.2h3.6v-2.9h-2.5v-1c-.2.3-.5.5-.9.8l-.9-1c1.9-1.8,3.5-4.1,4.8-6.7l1.1.7s-.1.3-.3.6c1.5,1.2,2.8,2.4,3.9,3.7h0ZM334.9,104.3l-1.3.3c-.2-1.8-.5-3.6-1-5.2l1.2-.5c.5,1.5.9,3.3,1.2,5.3h0ZM340.7,99.4c-.3,1.8-.7,3.3-1.1,4.5l-1.3-.4c.5-1.3.9-2.8,1.1-4.5l1.2.3ZM353.6,106.8c0,.6-.2,1.1-.6,1.3-.4.3-1.2.4-2.4.4s-1,0-1.6,0l-.4-1.4c.7,0,1.5,0,2.3,0s1,0,1.1-.1c.1,0,.2-.2.2-.3v-5.7c-2.4,1.2-5.2,2.5-8.3,3.9l-.7-.9c-.3,1.6-1,3.1-2,4.6l-1.1-.8c1.4-2.2,2.2-5.1,2.2-8.8v-5.4h4.9v-7.9h1.4v7.9h5v13.4h0ZM345.1,91.4l-1.2.6c-.4-1.3-1.2-3.1-2.4-5.2l1.2-.7c1.2,2,2,3.7,2.4,5.2ZM352.3,99.6v-4.9h-8.5v2.2c2.7,0,5.1.4,7.1.9l-.5,1.3c-2-.5-4.2-.8-6.7-1,0,1.8-.1,3.5-.4,5.4,3.5-1.4,6.5-2.7,8.9-4h0ZM354.7,86.8c-1,2.2-2,3.9-3,5.2l-1.2-.7c1.1-1.4,2.1-3.1,3-5.2l1.2.7Z"/>
  <path class="st0" d="M383.1,102h-10.7v6.7h-1.4v-6.7h-10.8v-1.3h10.8v-2.2h-9.6v-1.2h9.6v-2h-10.2v-1.3h6.9c-.4-.7-.9-1.4-1.5-2l1-.6h-7v-1.3h8.7v-4.2h1.4v4.2h3v-4.2h1.3v4.2h8.5v1.3h-6.8l.9.7c-.3.7-.7,1.3-1.3,2h6.7v1.3h-10.1v2h9.4v1.2h-9.4v2.2h10.7v1.3h0ZM368.7,103.9c-1.9,1.5-4.4,2.9-7.5,4l-.9-1.2c3.3-1.2,5.8-2.4,7.4-3.7l1,.9ZM366.2,88.7l-1.2.7c-.6-.8-1.5-1.7-2.6-2.6l1.2-.8c1,1,1.9,1.9,2.5,2.8ZM375.9,91.2h-8.3c.8,1.1,1.4,2,1.7,2.7h4.9c.8-1.1,1.4-2,1.6-2.7h0ZM383.1,107.1l-.8,1.1c-2.7-1.8-5.2-3.1-7.7-4.1l.8-1.1c3,1.3,5.5,2.7,7.7,4.1h0ZM381,86.5c-.7,1-1.6,1.9-2.6,2.7l-1.2-.7c1.2-1,2-1.9,2.6-2.6l1.2.6Z"/>
  <path class="st0" d="M398.4,94.1c-.1,2.2-.8,4.3-2,6l-1-1c.7-1.1,1.3-2.4,1.6-3.8h-2.4v11.5c0,.3-.1.7-.4,1.1-.3.4-1,.5-2.1.5s-.8,0-1.2,0l-.8-1.4c1.1,0,2,.1,2.6.1s.3,0,.4-.2c.1-.1.2-.3.2-.4v-9.5c-1.3,3.2-2.6,5.7-4,7.5l-.9-1.1c1.5-2,2.9-4.8,4.2-8.2h-4.1v-1.3h5.8c-1.1-1.3-2.4-2.4-4-3.5l1-.9c.6.4,1.4,1,2.4,1.8,1.2-1.4,2.2-2.7,2.9-4h-7.1v-1.3h8.6v1.3c-.9,1.6-2,3.2-3.4,4.8l.9,1-.8.7h3.8ZM409.7,100.1c0,1.8-.2,3.4-.4,4.8-.2,1.4-.5,2.3-.7,2.6-.2.3-.5.5-.9.8-.3.2-1.5.3-3.4.2l-.6-1.4c.5,0,1.1,0,1.8,0,1,0,1.5,0,1.7-.1.2,0,.3-.2.4-.4.1-.2.2-.7.3-1.7.1-1,.3-2.1.4-3.5h-4.4c-.7,3.4-2.9,5.8-6.5,7.2l-1-1.1c1.4-.4,2.8-1.2,3.9-2.4,1.2-1.2,1.9-2.4,2.2-3.8h-4.2v-1.3h4.5c.1-.7.2-1.6.2-2.6h1.3c0,.7,0,1.6-.2,2.7h5.5ZM411.3,96.9l-.7,1.2c-2-.6-3.9-1.5-5.6-2.8-1.6,1.2-3.3,2.1-5,2.8l-.9-1.1c1.6-.5,3.3-1.3,4.9-2.5-1.1-1.1-1.9-2-2.4-2.9l1.2-.7c.6,1,1.4,1.9,2.2,2.7,1.2-1,2.1-2.4,2.8-4.2h-5.6c-1.1,1.4-2.1,2.5-3.1,3.2l-1-.9c2-1.5,3.6-3.6,4.9-6.2l1.3.5c-.3.7-.7,1.4-1.2,2.1h8v1.3h-1.9c-.7,2-1.7,3.7-3.1,5,1.6,1.1,3.4,2,5.4,2.5h0Z"/>
  <path class="st0" d="M439.7,106.8l-.5,1.4h-9.6c-2.9,0-5-.8-6.2-2.4-1.6,1-3.5,1.9-5.5,2.9l-.9-1.2c5-2.3,8.9-4.6,11.7-7,2.9-2.4,5.5-5.4,7.8-9.1h-18.2v-1.4h10c-.5-1.2-1.1-2.4-2-3.7l1.5-.5c1,1.6,1.7,3,2.1,4.3h8.4v1.4c-3.6,5.9-8.1,10.5-13.6,13.8,1,1.2,2.7,1.8,5.1,1.8h10.2,0Z"/>
  <path class="st0" d="M453.1,91.6h-3.1v5.5c1.2-.5,2-.9,2.4-1.1l.3,1.3c-.9.5-1.8,1-2.7,1.3v7.9c0,.6-.1,1.1-.5,1.4-.3.3-.7.5-1.1.6-.4,0-1.3,0-2.5,0l-.5-1.4h1.3c.8,0,1.4,0,1.6-.2.2-.1.3-.3.3-.6v-7.2c-1.2.5-2.3.9-3.3,1.2l-.5-1.4c1.1-.3,2.4-.8,3.8-1.3v-6.1h-3.7v-1.4h3.7v-4.6h1.4v4.6h3.1v1.4h0ZM467.8,106.8h-11.6v1.7h-1.4v-14.7c-.4.7-.8,1.3-1.3,1.9l-1.1-1c1.9-2.4,3.4-5.5,4.6-9.2l1.4.5c-.4,1.3-1,2.7-1.7,4.3h4.6c-.2-1-.6-2.3-1.2-4l1.3-.7c.6,1.5,1.1,3,1.4,4.7h4.3v1.4h-4.7v3.7h4.4v1.4h-4.4v3.6h4.4v1.4h-4.4v3.8h5.3v1.4h0ZM461.1,95.3v-3.7h-4.9v3.7h4.9ZM461.1,100.3v-3.6h-4.9v3.6h4.9ZM461.1,105.4v-3.8h-4.9v3.8h4.9Z"/>
  <path class="st0" d="M495.9,96.7h-19.5c0,5.4-.7,9.3-2.1,11.8l-1.1-.9c1.2-2.6,1.9-6.2,1.9-10.8v-9.4h9.4c-.1-.3-.4-.8-.7-1.6l1.2-.5c.3.7.6,1.4.8,2h9.9v1.3h-19.3v6.8c0,0,19.5,0,19.5,0v1.2h0ZM484.9,106.4c-2,.9-4.4,1.7-7.4,2.1l-.5-1.3c2.6-.3,5-.9,7.3-1.8l.7,1h0ZM495.3,91.7h-3.5v2.4h-10.3v-2.4h-3.9v-1.2h3.9v-1.2h1.3v1.2h7.6v-1.2h1.4v1.2h3.5v1.2h0ZM494.2,104.8h-15.1v-6.8h15.1v6.8ZM486,100.7v-1.6h-5.5v1.6h5.5ZM486,103.6v-1.8h-5.5v1.8h5.5ZM490.4,92.9v-1.2h-7.6v1.2h7.6ZM492.9,100.7v-1.6h-5.5v1.6h5.5ZM492.9,103.6v-1.8h-5.5v1.8h5.5ZM495.7,107.3l-.7,1.2c-2.4-.9-4.8-1.6-7.1-1.9l.5-1.2c3,.6,5.4,1.2,7.3,2Z"/>
  <path class="st0" d="M524.4,103.6l-1,1.1c-4.5-3.4-7.8-7.8-9.8-13.3v11.2h5.7v1.4h-5.7v4.7h-1.4v-4.7h-5.8v-1.4h5.8v-11.2c-1.1,2.9-2.4,5.4-4,7.4-1.5,2-3.6,3.9-6.1,5.8l-.9-1.2c4.8-3.5,7.9-7.5,9.5-12h-8.8v-1.4h10.4v-4.5h1.4v4.5h10.1v1.4h-8.6c1.7,5,4.8,9,9.2,12.2h0Z"/>
  <path class="st0" d="M552.4,101.7h-10.7v6.9h-1.3v-6.9h-10.7v-1.3h10.7v-1.9h1.3v1.9h10.7v1.3ZM538.1,103.6c-2.2,1.8-4.6,3.3-7.2,4.4l-.9-1.1c2.8-1.1,5.1-2.5,7-4.2l1.2.8ZM551.6,92.9h-6.1c-.7,1.1-1.6,2.1-2.6,3,2.7.7,5.4,1.5,8.2,2.5l-.8,1.2c-2.2-.8-5-1.7-8.6-2.6-2.3,1.5-6,2.2-11,2.3l-.7-1.3c4.6,0,7.8-.5,9.8-1.4-2.2-.5-4.2-1-6.2-1.4.7-.7,1.4-1.4,2.1-2.2h-5.3v-1.3h6.4c.7-.8,1.4-1.7,2-2.6l1.2.5c-.5.7-1,1.4-1.6,2h6.3c.3-.4.5-.9.7-1.4l1.3.3c0,.3-.2.6-.5,1.1h5.3v1.3h0ZM551.4,90.4h-1.4v-1.6h-17.9v1.6h-1.4v-3h9.8c-.2-.4-.5-1-.8-1.6l1.3-.4c.3.4.6,1.1,1.2,2h9.2v3h0ZM543.8,92.9h-6.4c-.3.4-.7.9-1.2,1.4,1.1.2,2.8.6,5.2,1.2.8-.5,1.6-1.4,2.4-2.5h0ZM552.2,107l-1,1c-2-1.4-4.5-2.8-7.3-4l1-1.1c3.1,1.4,5.6,2.8,7.4,4.1h0Z"/>
  <path class="st0" d="M580.7,93.1h-4.2l-.2,2.6h-14.7l.3-2.6h-4v-1h4.1l.3-2.5h14.6l-.3,2.5h4.1v1ZM577.4,105h-10.6l.6.8c-2.9,1.5-5.7,2.4-8.5,2.8l-.8-1.2c2.9-.3,5.6-1.1,8.2-2.4h-5.1v-7.9h16.1v7.9h0ZM579.7,90.7h-1.3v-2.5h-18.2v2.4h-1.4v-3.5h9.7c-.2-.4-.4-.8-.7-1.1l1.3-.5c.2.3.5.8.9,1.6h9.7v3.6h0ZM576,99.4v-1.2h-13.6v1.2h13.6ZM576,101.7v-1.2h-13.6v1.2h13.6ZM576,104v-1.2h-13.6v1.2h13.6ZM568.5,93.1h-5.3v1.6c-.1,0,5.1,0,5.1,0v-1.6h.1ZM568.7,90.6h-5.3l-.2,1.5h5.3v-1.5h.1ZM575.1,93.1h-5.3v1.6c-.1,0,5.2,0,5.2,0v-1.6ZM575.5,90.6h-5.3v1.5c-.1,0,5.2,0,5.2,0v-1.5c.1,0,.1,0,.1,0ZM580.3,107.5l-.5,1.2c-2.3-.8-5.2-1.5-8.7-2l.5-1.1c3.5.5,6.5,1.1,8.7,1.9h0Z"/>
  <path class="st0" d="M591.1,93.8c1.5,1.9,2.2,3.7,2.2,5.5s-.3,1.7-.9,2.3c-.6.5-1.4.8-2.3.8h-.5l-.5-1.3c1.2,0,2,0,2.3-.3.4-.3.6-.7.6-1.4,0-1.8-.8-3.6-2.3-5.4.6-1.9,1.3-4.1,1.9-6.6h-3.2v21.1h-1.3v-22.3h6v1.3c-.7,2.4-1.3,4.6-1.9,6.4h0ZM599,102.6c-1.5,1.8-3.2,3.3-5.2,4.8l-1-1.1c1.6-1.1,3.3-2.6,5.1-4.6l1,.9ZM593.6,94l-.4-1.1c1.2-.3,2.3-.7,3.1-1.1l.4,1.2c-.4.2-1.4.5-3.2,1.1ZM601.6,87.8c-.9,4.2-3.4,7.3-7.6,9.4l-.7-1.1c2.2-1.1,3.9-2.4,5-3.9-.6-.7-1.5-1.4-2.6-2.1-.4.5-.8.9-1.3,1.3l-1-.9c1.8-1.7,3.1-3.4,3.6-5l1.1.5-.4,1.1,3.9.7h0ZM608.1,100.1h-6.1v8.4h-1.3v-8.4h-6.5v-1.3h13.9v1.3ZM600,88.8l-3-.6c-.3.4-.4.7-.6.9,1,.7,1.8,1.3,2.5,2,.5-.9.8-1.6,1.1-2.3h0ZM604.5,96.5h-6.4v-1.3h6.4v1.3ZM609,96.2l-.8,1.1c-3.3-2.3-5.4-4.8-6.2-7.6l1.1-.3c.3,1,.8,1.8,1.4,2.6,1-1.1,1.9-2.4,2.5-4h-4.6v-1.2h5.9v1.3c-.6,1.7-1.6,3.4-3.1,5,1,1.1,2.2,2.2,3.7,3.3h0ZM608.9,106.7l-1.1.8c-.9-1.7-2.2-3.3-3.7-4.9l1.1-.8c1.3,1.3,2.6,3,3.7,4.9h0Z"/>
  <path class="st0" d="M635.7,106.2c0,.6-.2,1.1-.5,1.4-.3.3-.8.5-1.3.6-.5,0-1.2,0-2.1,0s-1.2,0-1.7,0l-.6-1.4c1.4.1,2.7.2,3.9.2s.5,0,.7-.3c.2-.2.3-.4.3-.7v-14.3h-7.5c.4,3.7,2.7,7.3,6.7,10.9l-1,.9c-3.7-3.3-5.9-6.5-6.7-9.7-1.3,3.4-3.5,6.6-6.8,9.6l-1-1c3.3-2.7,5.6-6.2,7-10.8h-8.2v16.8h-1.4v-18.2h9.7c0-.8-.1-2-.2-3.4h-2.5v-1.4h3.8c0,.4,0,.8,0,1.3,0,1,0,2.2.2,3.5h9.2v15.9h0Z"/>
  <path class="st0" d="M665.3,100.5l-.7,1.2c-.8-.3-1.8-.7-3-1.3v8.3h-1.4v-1.6h-12.9v1.4h-1.3v-8.3c-.8.4-1.8.8-2.9,1.3l-.8-1.1c4.9-1.8,8.8-4.2,11.8-7.2l1.2.7-.6.7c2.5,2.2,6.1,4.2,10.7,5.8h0ZM652.3,91.4c-1.8,1.7-4.5,3.5-8.1,5.5l-.8-1.1c3.3-1.8,6-3.5,7.8-5.3l1,1h0ZM664.2,92.8h-1.4v-3.7h-17.9v3.5h-1.4v-4.8h10.1c-.2-.8-.5-1.5-.9-2.1l1.3-.3c.5.8.8,1.6,1,2.4h9.1v4.9h0ZM660.6,100c-2.7-1.4-5-2.8-6.9-4.5-1.9,1.6-4.1,3.1-6.8,4.5h13.7,0ZM660.3,105.8v-4.5h-12.9v4.5h12.9ZM664.4,95.8l-.8,1.1c-2.5-1.9-5.2-3.6-8-5.2l.8-1.1c2.8,1.5,5.5,3.3,8,5.2Z"/>
  <path class="st0" d="M682,100.6c-4.7,3.3-8.4,5.6-11,6.9l-.5-1.3,2.4-1.3v-19h1.4v18.2c1.8-1,4.3-2.7,7.5-4.9v1.5c.1,0,.2,0,.2,0ZM684.4,94.4l-1.3.7c-1.1-2.3-2.8-4.7-5-7.2l1.3-.6c2.4,2.9,4.1,5.4,4.9,7.2ZM693.4,107.7l-1.1,1c-1.2-1.8-2.9-3.9-5.2-6.3-1.6,2.1-4,4.2-7.4,6.4l-1-1.1c2.4-1.3,4.5-2.9,6.2-4.8,1.7-1.9,2.9-4.1,3.5-6.7.6-2.6,1-6.2,1.1-10.7h1.5c-.2,7.6-1.2,12.9-3.1,15.7,2.5,2.7,4.3,4.9,5.5,6.5Z"/>
  <path class="st0" d="M707,102c-2.8,1.6-5.4,3-7.7,4.1l-.6-1.2,3.6-1.8v-7.3h-3.1v-1.2h3.1v-6h-3.4v-1.3h7.9v1.3h-3.2v6h2.8v1.2h-2.8v6.5c1-.5,2-1.1,3-1.6l.3,1.3h0ZM721.8,103.9c0,1.2-.3,2.1-.5,2.7-.3.6-.6,1-1,1.2-.4.2-1.2.3-2.2.3s-1.1,0-1.5,0c-.4,0-.8-.2-1-.5-.3-.3-.4-.7-.4-1.4v-6.1h-2.4c-.4,4.3-2.8,7.1-7.1,8.4l-.8-1.1c4.1-1.1,6.3-3.5,6.6-7.3h-2.7v-13.9h11.4v13.9h-3.6v6.1c0,.2,0,.3.3.5.1.1.7.1,1.6.1s1.3,0,1.5-.3c.2-.2.4-.6.6-1.3.2-.7.3-1.4.3-2.1l1.3.6h0ZM718.7,90.4v-2.8h-8.7v2.8h8.7ZM718.7,94.6v-3h-8.7v3h8.7ZM718.7,98.9v-3.1h-8.7v3.1h8.7Z"/>
  <path class="st0" d="M734.3,100.1c-2.7,1.5-5,2.6-6.8,3.3l-.5-1.4c1.2-.4,2.3-.8,3.4-1.4v-7.4h-3v-1.3h3v-6.2h1.4v6.2h2.6v1.3h-2.6v6.8c.9-.4,1.7-.9,2.4-1.3l.2,1.4h0ZM749.9,97.1h-9.6c-.3.5-.7,1.1-1.2,1.8h9.9c0,1.6-.2,3.2-.3,4.9-.2,1.7-.3,2.7-.5,3-.1.3-.3.6-.6.9-.3.3-.6.5-1,.7-.4.1-1.1.2-2.2.2h-.9l-.5-1.3c.7,0,1.4.1,2,.1s1.2,0,1.4-.3c.2-.2.4-.4.5-.7s.2-1.1.4-2.4c.1-1.3.2-2.6.3-3.9h-1.6c-1.6,3.7-4.4,6.5-8.5,8.4l-1-1c3.9-1.9,6.7-4.3,8-7.4h-2.4c-1.7,2.7-4.5,4.8-8.4,6.6l-.9-1.1c3.7-1.6,6.3-3.4,7.8-5.5h-2.6c-1.2,1.1-2.5,2.1-4,2.9l-1-1c2.6-1.4,4.6-3,5.7-4.9h-5v-1.3h16.2v1.3h0ZM748.1,93.9h-12.6v-7.7h12.6v7.7ZM746.8,89.4v-1.9h-9.8v1.9h9.8ZM746.8,92.7v-2h-9.8v2h9.8Z"/>
  <path class="st0" d="M764.5,86.1c-1.6,4.8-4.3,8.6-8.4,11.5l-1.1-1.1c3.9-2.6,6.5-6.2,8-10.9l1.4.5ZM776.4,108.1l-1.2.7c-.5-1.4-1.1-2.4-1.6-3.3-5,1.3-9.9,2.1-14.8,2.6l-.4-1.3c2.7-3.1,5.2-7.6,7.7-13.5l1.3.6c-2.2,5.3-4.5,9.5-6.9,12.7,3.4-.2,7.5-1,12.4-2.2-.8-1.4-1.8-3-3.2-4.9l1.2-.7c2.4,3.3,4.3,6.5,5.5,9.4h0ZM778.4,96.3l-.9,1.2c-3.1-2-5.6-5.4-7.5-10.1h-1.8v-1.4h2.8c1.5,4.8,4,8.2,7.3,10.4h0Z"/>
  <path class="st0" d="M790.3,86c-.2.6-.6,1.5-1.1,2.6l-.8,1.6v18.3h-1.4v-15.7c-1.2,1.8-2.1,3.2-3,4.2l-.7-1.4c2.1-2.7,4-6.1,5.6-10.1l1.4.5h0ZM806.4,90.5h-10.5c-.6,1.7-1.3,3.3-2,4.7h4.3v-3.1h1.4v3.1h5.2v9.3c0,1.2-.7,1.8-2.1,1.8s-.8,0-1.4,0l-.5-1.4c.3,0,.6,0,1.1,0,.7,0,1.2,0,1.4-.1.2,0,.3-.2.3-.3v-7.9h-3.8v12h-1.4v-12h-3.9v9.9h-1.4v-9.5c-.6,1.1-1.4,2.2-2.5,3.4l-1-.9c2-2.1,3.7-5.1,4.9-8.9h-3.8v-1.4h4.2c.3-.7.6-1.8,1-3.5l1.3.4c-.2.9-.5,2-.8,3.2h10.1v1.4h0Z"/>
  <path class="st0" d="M834.1,98.5c0,1.7,0,3.3-.3,5-.2,1.6-.4,2.7-.5,3.1-.2.5-.4.9-.8,1.2-.3.3-.8.5-1.4.7-.6.1-1.5.2-2.8.2l-.5-1.5c.4,0,1.2,0,2.4,0s.8,0,1.1-.3c.3-.2.5-.5.7-.8.1-.3.3-1.1.4-2.2.1-1.1.3-2.5.3-4.1h-16.1c-1.2,1.5-2.6,2.8-4.1,4.1l-.8-1.3c4.1-3.2,6.7-7.2,8-11.8h-7v-1.4h7.3c.4-1.7.6-3.1.8-3.9l1.3.3c-.1,1-.3,2.2-.7,3.6h9.7c-.3,1.5-.6,3-.9,4.6h2.6c-.2,1.4-.4,2.9-.8,4.5h2.2ZM818.2,88.2l-1.2.7c-.6-.9-1.3-1.8-2.2-2.7l1.2-.7c.9.9,1.6,1.8,2.2,2.7h0ZM818.8,101.8c-.7,2.4-1.7,4.6-2.8,6.3l-1.3-.7c1.1-1.6,2-3.6,2.8-6l1.2.3ZM831.2,95.3h-11.7c-.4,1-1.1,2-1.9,3.2h13c.2-1.2.4-2.2.6-3.2ZM829.5,90.7h-8.4c-.3,1-.6,2.1-1.1,3.2h8.7c.2-.9.5-2,.7-3.2ZM822.6,107.8l-1.4.3c0-1.8-.2-3.8-.7-6.3l1.3-.3c.4,1.8.7,3.9.8,6.3ZM826.8,106.4l-1.4.5c-.3-1.8-.8-3.5-1.4-5.2l1.3-.4c.6,1.5,1.1,3.2,1.5,5.1ZM830.6,105l-1.2.6c-.4-1.2-1-2.6-1.7-4l1.2-.6c.7,1.2,1.3,2.5,1.8,4Z"/>
  <path class="st0" d="M862.9,104.2h-10.8v4.5h-1.4v-4.5h-10.7v-1.3h10.7v-2.4h-2.6v-8.5c-.5.7-1.2,1.4-2,2.1l-.8-1.1c2-1.9,3.7-4.3,4.9-7.3l1.3.4c-.3.7-.7,1.6-1.3,2.7h5.1c-.1-.7-.5-1.6-1.2-2.6l1.3-.4c.5,1,1,2,1.3,3h5.4v1.3h-6.1v2.2h5.1v1.3h-5.1v2.2h5.1v1.3h-5.1v2.2h6.4v1.3h-10.5v2.4h10.8v1.3h0ZM845,93.5l-.8,1.1c-1-.8-2.4-1.5-4.1-2.2l.8-1.1c1.3.5,2.7,1.2,4.1,2.2h0ZM846.5,96.6c-1.9,2.4-3.7,4.1-5.5,5l-.8-1.1c1.6-.9,3.4-2.6,5.3-4.9l.9,1h0ZM846.6,88.6l-.8,1.1c-1.3-1.1-2.7-2.1-4.3-2.9l.8-1.1c1.8,1,3.2,1.9,4.2,2.8ZM854.8,92.1v-2.2h-5.2v2.2h5.2ZM854.8,95.6v-2.2h-5.2v2.2h5.2ZM854.8,99.1v-2.2h-5.2v2.2h5.2Z"/>
  <path class="st0" d="M211.5,169.7l-1,1.1c-4.6-3.4-7.8-7.8-9.8-13.3v11.2h5.7v1.4h-5.7v4.7h-1.4v-4.7h-5.8v-1.4h5.8v-11.2c-1.1,2.9-2.4,5.4-4,7.4-1.5,2-3.6,3.9-6.1,5.8l-.9-1.2c4.8-3.5,7.9-7.5,9.5-12h-8.8v-1.4h10.4v-4.5h1.4v4.5h10.1v1.4h-8.6c1.7,4.9,4.8,9,9.2,12.2h0Z"/>
  <path class="st0" d="M239.6,173.7l-1,1c-5.5-3.9-9-9.1-10.5-15.9-1.1,6.1-4.6,11.4-10.5,15.8l-1-1.1c2-1.4,3.8-3.1,5.5-5.1,1.6-2,2.9-4.3,3.8-6.7.9-2.4,1.3-5.8,1.4-10h1.5c0,4.8.9,9.1,2.9,12.9s4.6,6.8,8,9.1h0Z"/>
  <path class="st0" d="M267.5,167.4c-.2,3-.5,4.9-1,5.5-.5.7-1.3,1-2.4,1.1-1.1,0-4.1.1-9.1.1s-3.9,0-4.9,0c-1,0-1.7-.3-2.1-.7s-.6-1.2-.6-2.1v-13h1.4v3.3h15.3v-7.9h-18.3v-1.4h19.8v10.6h-16.7v8.7c0,.3,0,.5.3.7.2.2.4.3.6.3.2,0,1.7,0,4.3,0,6.5,0,10.2-.1,10.9-.3.7-.2,1.1-2.1,1.2-5.6l1.4.5h0Z"/>
  <path class="st0" d="M285.4,164.1h-5c0,.7-.1,1.4-.3,2.1,2.2,2,3.9,3.7,4.9,5.1l-1,1.1c-1.3-1.7-2.7-3.3-4.4-4.7-.9,2.7-2.7,5.2-5.4,7.2l-1-1c3.6-2.5,5.5-5.7,5.8-9.7h-5.8v-1.3h6c.1-1.7.2-3.7.2-5.9h-2.6c-.5.9-1.3,2.1-2.3,3.5l-1.2-.8c2.1-2.8,3.5-5.4,4.3-7.8l1.3.5c-.3,1-.7,2.1-1.4,3.3h7.2v1.4h-4l-.2,5.9h4.9v1.3ZM295.1,174.3h-1.4v-2.4h-5.6v2.4h-1.4v-20h8.3v20ZM293.7,170.6v-14.9h-5.6v14.9h5.6Z"/>
  <path class="st0" d="M324,164.6l-.6,1.2c-2.6-1.4-5.9-2.7-10.1-4v3h-1.3v-4.5c-3,2.6-6.4,4.5-10.1,5.6l-.9-1.1c3.6-1.1,6.7-2.7,9.4-4.8h-8.8v-1.3h10.4v-4.3c-3.6.3-6.4.4-8.4.4l-.5-1.3c7.8,0,13.7-.7,17.7-2l.7,1.1c-2,.6-4.8,1.2-8.3,1.5v4.6h10.6v1.3h-10.6v.5c4.6,1.3,8.2,2.6,10.7,4h0ZM306.2,167.4c-.9,2.2-2,4.3-3.5,6.2l-1.2-.8c1.5-1.9,2.6-3.8,3.5-5.9l1.2.5ZM308.8,157.7l-1.2.7c-.5-.8-1.2-1.6-2.1-2.4l1.2-.7c1,.9,1.7,1.7,2.1,2.4ZM319,170.8c0,.4-.1,1-.4,1.8-.2.8-.6,1.4-1,1.6-.5.2-1,.3-1.6.3h-5.8c-1.5,0-2.2-.7-2.2-2v-6.8h1.4v6.9c0,.3.1.5.4.5.3,0,1.4.1,3.3.1s3,0,3.5-.2c.5-.1.9-1.1,1-2.9l1.4.6h0ZM316,169.6l-1.2.7c-.7-1.4-1.7-2.7-2.9-3.9l1.1-.8c1.4,1.4,2.4,2.7,2.9,3.9ZM320.3,155.4c-.9,1.3-1.8,2.3-2.5,2.9l-1.2-.8c1.1-.9,1.9-1.8,2.5-2.7l1.3.5h0ZM323.9,172.8l-1.2,1c-.8-2.1-2-4.2-3.5-6.3l1.1-.7c1.4,1.8,2.6,3.9,3.7,6.1h0Z"/>
  <path class="st0" d="M341,166.8c-4.7,3.3-8.4,5.6-11,6.9l-.5-1.3,2.4-1.3v-19h1.4v18.2c1.8-1,4.3-2.6,7.6-4.9v1.5c.1,0,.1,0,.1,0ZM343.3,160.6l-1.3.7c-1.1-2.3-2.8-4.7-5-7.2l1.3-.6c2.4,2.9,4.1,5.4,4.9,7.2ZM352.3,173.9l-1,.9c-1.2-1.8-2.9-3.9-5.2-6.3-1.6,2.1-4,4.3-7.4,6.4l-1-1.1c2.4-1.3,4.5-2.9,6.2-4.8,1.7-1.9,2.9-4.1,3.5-6.7.6-2.6,1-6.2,1.1-10.7h1.5c-.2,7.6-1.2,12.9-3.1,15.7,2.5,2.7,4.3,4.9,5.5,6.5h0Z"/>
  <path class="st0" d="M380.6,174.1h-22.8v-1.4h9.8v-20.9h1.4v8.2h10.5v1.4h-10.5v11.3h11.6v1.4h0Z"/>
  <path class="st0" d="M391.4,152c-.1.5-.3,1.5-.8,2.9l-.6,2v17.9h-1.4v-14.5c-.9,1.8-1.6,3.1-2,3.7l-.8-1.3c1.7-2.7,3.1-6.4,4.3-11l1.3.3h0ZM408.1,174.8h-1.4v-1.8h-12.6v1.8h-1.4v-22.1h15.4v22.1ZM406.7,171.7v-17.7h-12.6v17.7h12.6ZM405.5,159.3h-4.6v3h3.2v7.1h-7.5v-7.1h3v-3h-4.4v-1.3h4.3v-2.6h1.3v2.6h4.6v1.3ZM402.7,168.1v-4.5h-4.8v4.5h4.8Z"/>
  <path class="st0" d="M437.2,173.7l-1,1c-5.5-3.9-9-9.1-10.5-15.9-1.1,6.1-4.6,11.4-10.5,15.8l-1-1.1c2-1.4,3.8-3.1,5.5-5.1,1.6-2,2.9-4.3,3.8-6.7.9-2.4,1.3-5.8,1.4-10h1.5c0,4.8.9,9.1,2.9,12.9,2,3.7,4.6,6.8,8,9.1h0Z"/>
  <path class="st0" d="M461.5,171h-10.4l.7.9c-2.7,1.4-5.6,2.4-8.6,3l-.7-1.2c2.8-.5,5.5-1.4,8-2.6h-4.1v-9.6h15.1v9.6h0ZM450,158.9h-7.3v-1.3h7.3v1.3ZM449.8,154.2h-6.6v-1.3h6.6v1.3ZM460.2,164.1v-1.5h-12.4v1.5h12.4ZM460.2,167v-1.6h-12.4v1.6h12.4ZM460.2,169.8v-1.6h-12.4v1.6h12.4ZM465.5,159.8l-.6,1.3c-3.4-.5-6-1.5-7.8-3.1-1.5,1.4-3.5,2.4-6,3l-.7-1.3c3.2-.5,5.4-1.8,6.7-3.9l1.4.3c0,.2-.3.5-.6,1,1.8,1.4,4.3,2.4,7.6,2.7h0ZM464.9,154.9c-.9,1.3-1.7,2.2-2.4,3l-1-1c.7-.7,1.3-1.4,1.9-2.2h-9.6c-.7.9-1.5,1.7-2.4,2.4l-.9-.9c1.5-1.1,2.8-2.7,3.8-4.6l1.3.5-.8,1.4h10.2v1.5ZM465.3,173.7l-.6,1.2c-2.6-1-5.1-1.7-7.6-2.2l.7-1.2c2.7.5,5.2,1.3,7.6,2.2Z"/>
  <path class="st0" d="M474.5,163.5c-.6,3-1.4,5.4-2.4,7.4l-1.3-.6c1-1.9,1.9-4.3,2.5-7.2l1.2.4ZM481.4,161.6h-4.1v13.1h-1.4v-13.1h-4.9v-1.3h4.9v-8.7h1.4v8.7h4.1v1.3ZM474.4,158.2l-1.3.5c-.3-1.3-.9-2.9-1.9-4.7l1.2-.5c1,1.8,1.7,3.3,2,4.7ZM481.5,167.6l-1.4.5c-.2-1.2-.7-2.7-1.6-4.5l1.2-.4c.9,1.8,1.5,3.3,1.8,4.5h0ZM481.7,154c-.6,1.9-1.2,3.6-1.9,4.9l-1.3-.6c.8-1.3,1.4-2.9,2-4.8l1.2.5ZM493.7,167.6l-2.7.5v6.7h-1.3v-6.4l-8.2,1.5-.2-1.3,8.3-1.6v-15.2h1.3v15l2.5-.5.2,1.3h0ZM487.7,164.3l-1,1.1c-.9-1.3-2.3-2.8-4.3-4.4l1-.9c1.7,1.4,3.1,2.8,4.3,4.3h0ZM488.2,157.3l-1,1c-1.1-1.2-2.5-2.4-4.2-3.6l.9-1c1.4.9,2.9,2.1,4.3,3.5h0Z"/>
  <path class="st0" d="M521.8,171.5c-.2,1.2-.5,2-.8,2.4-.4.4-.9.6-1.7.7-.7,0-1.8,0-3.1,0-2.2,0-3.6,0-4.2-.1-.6,0-1.1-.3-1.4-.7-.3-.3-.4-.8-.4-1.3v-5.6h-2.4c-.3,3.6-2.9,6.2-7.9,8l-1-1.2c4.8-1.4,7.3-3.7,7.5-6.9h-4.8v-9h6.3c.5-.7.8-1.4,1.1-2l1.4.3c-.2.6-.5,1.2-.8,1.7h9.6v9h-3.7l.9.7c-.6,1-1.4,2-2.2,3,1.1,0,2.1-.2,3.1-.5-.2-.4-.4-.8-.6-1.1l1.1-.5c.7,1,1.2,2,1.5,3l-1.2.5c0-.3-.2-.5-.3-.9-1.7.3-3.3.6-4.9.8l-.5-1c1.2-1.4,2.1-2.8,2.8-4.1h-3.7v5.5c0,.4.2.7.5.7.3.1,2.7.2,7.1.2s1.4-.8,1.6-2.4l1.3.6h0ZM509.8,155.1h-3.2v1.9h-1.3v-1.9h-6.3v-1.3h6.3v-2h1.3v2h3.2v1.3ZM509.7,161.7v-2.4h-6.7v2.4h6.7ZM509.7,165.5v-2.6h-6.7v2.6h6.7ZM521.7,155.1h-6.3v1.9h-1.4v-1.9h-3.1v-1.3h3.1v-2h1.4v2h6.3v1.3ZM517.8,161.7v-2.4h-6.7v2.4h6.7ZM517.8,165.5v-2.6h-6.7v2.6h6.7Z"/>
  <path class="st0" d="M536.1,170.7c-2.6,1.5-5.3,2.6-8.1,3.4l-1-1.2c3.1-.8,5.8-1.9,7.9-3.2l1.1,1ZM549.9,168.5h-10.7v6.1h-1.3v-6.1h-10.7v-1.3h10.7v-1.2h1.3v1.2h10.7v1.3ZM549.1,165.1h-18.7v-7.2c-.7.8-1.5,1.6-2.3,2.4l-.8-1.1c2.2-2,4-4.5,5.4-7.6l1.3.5c-.2.5-.6,1.2-1.1,2.2h6.4c-.2-.7-.5-1.4-.8-2.1l1.2-.5c.4.7.7,1.6,1,2.6h8.1v1.2h-8.5v1.9h7.7v1.2h-7.7v2h7.7v1.2h-7.7v2h8.9v1.3h0ZM538.8,157.3v-1.9h-6.8c0,.2-.2.3-.3.5v1.5h7.1ZM538.8,160.6v-2h-7.1v2h7.1ZM538.8,163.8v-2h-7.1v2h7.1ZM549.9,173.1l-.8,1.1c-2.1-1.3-4.7-2.5-7.9-3.6l.8-1.1c3.1,1.1,5.7,2.3,7.9,3.5h0Z"/>
  <path class="st0" d="M567.2,154.1h-5.1v1.3h4.6v1.2h-10.4v-1.2h4.6v-1.3h-5.4v-1.2h5.4v-1.2h1.3v1.2h5.1v1.2h0ZM578.2,173h-4.2v1.6h-1.4v-1.6h-17.2v-1.2h4.3v-6.6h-1.4v-1.2h17.4v1.2h-1.8v6.6h4.2v1.2ZM566.2,161.9h-8.2c-.2,1.5-.7,2.9-1.5,4.3l-1-.8c.4-.6.7-1.4,1-2.4.3-1,.4-2.8.4-5.3h9.3v4.2h0ZM561,160.8v-1.8h-2.8c0,.4,0,1,0,1.8h2.9ZM572.7,166.6v-1.4h-11.5v1.4h11.5ZM572.7,169.2v-1.4h-11.5v1.4h11.5ZM572.7,171.8v-1.5h-11.5v1.5h11.5ZM564.9,160.8v-1.8h-2.6v1.8h2.6ZM578.4,162.6l-.6,1.1c-2-.4-3.8-.9-5.4-1.7-1.2.6-2.8,1.1-4.9,1.6l-.8-1.1c1.9-.4,3.4-.8,4.4-1.2-1-.7-2-1.5-3-2.5h-.7v-1.2h9.1v1.2c-.7,1-1.7,1.8-2.8,2.6,1.3.5,2.9.9,4.7,1.3h0ZM578.2,156.5h-2.9c-1,0-1.4-.4-1.4-1.3v-1.6h-3.9c-.2,1.6-.8,2.7-1.9,3.5l-.8-.9c1.1-.6,1.6-1.9,1.6-3.7h6.4v2.5c0,.3.1.4.5.4h2.6v1.1h0ZM574.9,158.7h-5.2c.6.6,1.5,1.3,2.6,1.9,1.1-.6,2-1.3,2.6-1.9Z"/>
  <path class="st0" d="M592.2,171h-1.4v-1.8h-5.1v2.4h-1.4v-18.9h7.8v18.2ZM590.9,160.2v-6h-5.1v6h5.1ZM590.9,167.9v-6.4h-5.1v6.4h5.1ZM605.6,172.6c0,.5-.1.9-.4,1.3-.3.4-.6.6-1,.7-.4.1-1.7.1-3.9,0l-.6-1.3c.6,0,1.2,0,1.9,0,1.4,0,2.2,0,2.3-.2.2-.1.3-.3.3-.5v-6.4h-7.8c-.5,3.7-1.5,6.5-2.9,8.5l-1.2-.8c2-2.8,3-6.9,3-12.3v-9.4h10.2v20.2h0ZM604.3,165v-5.2h-7.5c0,1.8,0,3.5-.1,5.2h7.6ZM604.3,158.5v-4.8h-7.5v4.8h7.5Z"/>
  <path class="st0" d="M634.7,167.3h-2.2v3.4h-8.7v2.2c0,.7-.2,1.2-.6,1.4-.4.3-1.4.4-2.8.4s-.9,0-1.4,0l-.4-1.3h3.3c.5,0,.7-.3.7-.7v-1.9h-9.3v-1.2h9.3v-2.2h-10.7v-1.3h10.7v-2h-9.3v-1.3h9.3v-2h-8.5v-4.4h8.5v-1.8h-10.5v-1.2h10.5v-1.8h1.3v1.8h10.5v1.2h-10.5v1.8h8.5v4.4h-8.5v2h8.7v3.2h2.2v1.3h0ZM622.5,159.6v-2h-7.1v2h7.1ZM631,159.6v-2h-7.1v2h7.1ZM631.1,166.1v-2h-7.3v2h7.3ZM631.1,169.5v-2.2h-7.3v2.2h7.3Z"/>
  <path class="st0" d="M648.3,168c-2.6,1.4-5.2,2.5-7.9,3.4l-.4-1.3c1.4-.5,2.6-.9,3.5-1.4v-14.1h-3.2v-1.3h7.8v1.3h-3.2v13.4c.8-.3,1.9-.8,3.3-1.5v1.4c0,0,0,0,0,0ZM662.9,153.7h-6.6c-.2,1.2-.5,2.2-.7,3h5.8v12.8h-8.2l.9.9c-2.2,1.9-4.6,3.4-7,4.4l-.7-1.1c2.5-1.1,4.7-2.5,6.7-4.2h-3.4v-12.8h4.5c.3-.8.5-1.8.7-3h-6v-1.3h14v1.3h0ZM660.1,160.6v-2.5h-9.1v2.5h9.1ZM660.1,164.3v-2.4h-9.1v2.4h9.1ZM660.1,168.2v-2.7h-9.1v2.7h9.1ZM663.1,173.5l-.9,1.1c-1.8-1.2-3.8-2.2-6.1-3.2l.9-1.1c2.3.9,4.3,2,6.1,3.2Z"/>
  <path class="st0" d="M684,153.7c0,.3-.7,2.3-2.1,6.3,1.3,2,1.9,3.9,1.9,5.8s-.2,1.6-.6,2.2c-.4.5-1.4.7-3.1.7l-.4-1.5c.4,0,.9,0,1.4,0s1.1-.1,1.2-.4c.2-.3.2-.7.2-1.3,0-1.8-.7-3.6-2-5.4,1-2.8,1.8-5,2.1-6.4h-3.6v21h-1.3v-22.3h6.3v1.3h0ZM687,170c-.9,1.6-2,2.8-3.1,3.9l-1.1-.9c1.1-.9,2.1-2.2,3.1-3.7l1.1.8h0ZM699.2,161h-14.5v-1.2h6.7v-1.2h-5.4v-1.2h12.1v1.2h-5.3v1.2h6.6v1.2ZM699.7,165.8h-2.2v2.6h-11.7v-1.2h10.3v-1.4h-11.6v-1.2h11.6v-1.3h-10.3v-1.2h11.7v2.5h2.2v1.2h0ZM698.3,152.9c-3.4.9-7.5,1.4-12.3,1.5l-.5-1.3c4.7,0,8.7-.5,12-1.4l.7,1.2h0ZM689,156.3l-1.1.7c-.4-.5-.9-1-1.6-1.6l1.2-.7c.5.4,1.1.9,1.6,1.5h0ZM695.6,171.5c-.2,1.3-.5,2.1-.9,2.4-.4.3-.9.5-1.3.5h-3.9c-.4,0-.8-.2-1.1-.5-.3-.3-.5-.7-.5-1.2v-3.4h1.4v3.1c0,.3.1.5.3.6.2.1.8.1,1.9.1s2,0,2.2-.1c.2,0,.4-.3.4-.6l.2-1.4,1.3.5h0ZM693.2,171.1l-1.1.8c-.6-.9-1.2-1.6-1.8-2.1l1-.8c.7.6,1.3,1.3,1.8,2.1h0ZM692.8,156.5l-1.2.4c-.2-.7-.5-1.3-.9-2l1.2-.4c.5.7.8,1.3,1,1.9h0ZM697.6,155c-.6.7-1.2,1.3-2,1.8l-1-.8c.7-.4,1.3-1,2-1.7l1,.7h0ZM699.6,173l-1.2.8c-.7-1.4-1.7-2.8-2.9-4l1.1-.7c1.3,1.3,2.3,2.6,3.1,4h0Z"/>
  <path class="st0" d="M716.7,165.6l-.9,1.1c-1.5-1.9-2.8-3.3-4-4.3v12.2h-1.4v-11.4c-1.4,2.7-3,4.9-4.7,6.6l-.9-1.1c.9-.9,1.7-1.9,2.4-2.9.7-1,1.4-2.2,2.1-3.6.7-1.4,1-2.2,1-2.4h0c0-.1-5.4-.1-5.4-.1v-1.3h5.4v-4c-1.7.3-3.1.5-4.2.6l-.5-1.3c4.1-.4,7.4-1.1,9.9-2.1l.8,1.2c-1,.4-2.6.8-4.6,1.4v4.3h4.9v1.3h-4.9v1.1c1.7,1.3,3.3,2.9,4.9,4.8h0ZM727.9,174.2l-1.3.7c-.4-1.6-.7-2.6-.8-3-3.8,1.1-7.1,2-10,2.6l-.4-1.3c1-1.6,1.8-3.8,2.6-6.6.8-2.8,1.4-7.7,1.9-14.8h1.4c-.5,6.7-1.1,11.3-1.8,14.2-.7,2.9-1.4,5.1-2.2,6.8,3.6-.9,6.3-1.6,8.1-2.3-.5-1.7-1.5-4.1-3-7.5l1.3-.6c1.9,4.3,3.3,8.3,4.2,11.8h0Z"/>
  <path class="st0" d="M741.3,163.1l-1,1.1c-.5-.8-1.2-1.7-2-2.8v13.3h-1.3v-13.3c-.9,2.4-1.9,4.5-3,6.1l-1-1.1c1.6-2.4,2.9-5.2,3.8-8.4h-3.5v-1.2h3.6v-5.1h1.3v5.1h2.4v1.2h-2.4v1.4c1.3,1.3,2.2,2.5,3,3.6h0ZM756.1,173.6h-12.2v1.1h-1.4v-8.7c-.7.7-1.3,1.4-2,1.9l-.8-1.1c1.8-1.4,3.3-3.2,4.4-5.4l1.3.5c-.3.5-.6,1-.9,1.4h4.6c-.1-.3-.4-.6-.7-1l1.2-.6c.4.5.7,1.1,1,1.6h4.9v1.1h-5.5v1.8h4.9v1.2h-4.9v1.8h4.9v1.2h-4.9v2h6.1v1.2ZM747.1,156h-1.3v-1.2h-4.8v-1.2h4.8v-1.8h1.3v4.2ZM747.6,161h-5.6v-4.3h5.6v4.3ZM746.5,159.9v-2h-3.3v2h3.3ZM748.7,166.2v-1.8h-4.8v1.8h4.8ZM748.7,169.2v-1.8h-4.8v1.8h4.8ZM748.7,172.4v-2h-4.8v2h4.8ZM755.1,161h-5.7v-4.3h5.7v4.3ZM756.1,154.9h-4.7v1.2h-1.3v-4.2h1.3v1.8h4.7v1.2ZM753.9,159.9v-2h-3.3v2h3.3Z"/>
  <path class="st0" d="M773.3,154.1h-5.1v1.3h4.6v1.2h-10.4v-1.2h4.6v-1.3h-5.4v-1.2h5.4v-1.2h1.3v1.2h5.1v1.2h0ZM784.3,173h-4.2v1.6h-1.4v-1.6h-17.2v-1.2h4.3v-6.6h-1.4v-1.2h17.4v1.2h-1.8v6.6h4.2v1.2ZM772.4,161.9h-8.2c-.2,1.5-.7,2.9-1.5,4.3l-1-.8c.4-.6.7-1.4,1-2.4.3-1,.4-2.8.4-5.3h9.3v4.2h0ZM767.1,160.8v-1.8h-2.8c0,.4,0,1,0,1.8h2.9ZM778.8,166.6v-1.4h-11.5v1.4h11.5ZM778.8,169.2v-1.4h-11.5v1.4h11.5ZM778.8,171.8v-1.5h-11.5v1.5h11.5ZM771,160.8v-1.8h-2.6v1.8h2.6ZM784.5,162.6l-.6,1.1c-2-.4-3.8-.9-5.4-1.7-1.2.6-2.8,1.1-4.9,1.6l-.8-1.1c1.9-.4,3.4-.8,4.4-1.2-1-.7-2-1.5-3-2.5h-.7v-1.2h9.1v1.2c-.7,1-1.7,1.8-2.8,2.6,1.3.5,2.9.9,4.7,1.3h0ZM784.3,156.5h-2.9c-1,0-1.4-.4-1.4-1.3v-1.6h-3.9c-.2,1.6-.8,2.7-1.9,3.5l-.8-.9c1.1-.6,1.6-1.9,1.6-3.7h6.4v2.5c0,.3.1.4.5.4h2.6v1.1h0ZM781,158.7h-5.2c.6.6,1.5,1.3,2.6,1.9,1.1-.6,2-1.3,2.6-1.9Z"/>
  <path class="st0" d="M798.3,171h-1.4v-1.8h-5.1v2.4h-1.4v-18.9h7.8v18.2ZM797,160.2v-6h-5.1v6h5.1ZM797,167.9v-6.4h-5.1v6.4h5.1ZM811.7,172.6c0,.5-.1.9-.4,1.3-.3.4-.6.6-1,.7-.4.1-1.7.1-3.9,0l-.6-1.3c.6,0,1.2,0,1.9,0,1.4,0,2.1,0,2.3-.2.2-.1.3-.3.3-.5v-6.4h-7.8c-.5,3.7-1.5,6.5-2.9,8.5l-1.2-.8c2-2.8,3-6.9,3-12.3v-9.4h10.2v20.2h0ZM810.4,165v-5.2h-7.5c0,1.8,0,3.5-.1,5.2h7.6ZM810.4,158.5v-4.8h-7.5v4.8h7.5Z"/>
  <path class="st0" d="M161.3,150.1h-29.8v29.8h29.8v-29.8Z"/>
</svg>