<svg width="507" height="24" viewBox="0 0 507 24" fill="none" xmlns="http://www.w3.org/2000/svg">
<g clip-path="url(#clip0_2028_910)">
<path d="M5.62062 0.275391L7.08082 0.771309C6.5849 1.68049 6.00633 2.58968 5.31755 3.47131C4.62878 4.35294 3.91245 5.17947 3.14102 5.9509C2.36959 6.72233 1.59817 7.38355 0.826738 7.96213C0.771636 7.85192 0.688983 7.68661 0.60633 7.49376C0.496126 7.3009 0.413473 7.10804 0.275717 6.88764C0.165513 6.66723 0.0553093 6.52947 -0.0273438 6.39172C1.04715 5.64784 2.09408 4.73866 3.11347 3.66417C4.13286 2.58968 4.95939 1.46008 5.59306 0.275391H5.62062ZM0.413473 21.2693C1.21245 21.104 2.12164 20.9387 3.16857 20.7182C4.21551 20.4978 5.31755 20.2774 6.50225 20.0295C7.68694 19.7815 8.87164 19.5336 10.0288 19.258L10.1941 20.7458C8.54102 21.1315 6.91551 21.5172 5.26245 21.9029C3.63694 22.2887 2.17674 22.6193 0.88184 22.9223L0.413473 21.2693ZM0.661432 11.2682H9.89102V12.8111H0.661432V11.2682ZM1.37776 14.5193L2.64511 14.2162C2.89306 14.9876 3.14102 15.8142 3.36143 16.7234C3.58184 17.6325 3.71959 18.404 3.80225 19.0927L2.4798 19.4233C2.4247 18.7621 2.28694 17.9631 2.06653 17.054C1.87368 16.1448 1.62572 15.2907 1.37776 14.5193ZM2.03898 6.77743H9.00939V8.29274H2.03898V6.77743ZM4.68388 7.356H6.22674V21.2142L4.68388 21.4621V7.356ZM5.04204 2.45192L6.06143 1.40498C6.61245 1.7907 7.19102 2.23151 7.76959 2.72743C8.34817 3.1958 8.89919 3.66417 9.39511 4.13253C9.89102 4.6009 10.3318 5.01417 10.69 5.39988L9.61551 6.63968C9.25735 6.22641 8.81653 5.78559 8.29306 5.28968C7.76959 4.82131 7.24613 4.32539 6.66755 3.82947C6.08898 3.33355 5.53796 2.89274 5.01449 2.45192H5.04204ZM8.29306 13.858L9.67062 14.2989C9.42266 15.0978 9.1747 15.9244 8.89919 16.806C8.62368 17.6876 8.34817 18.4315 8.10021 19.0376L6.99817 18.6519C7.16347 18.2111 7.32878 17.7152 7.49408 17.1642C7.65939 16.5856 7.8247 16.0346 7.96245 15.456C8.10021 14.8774 8.23796 14.354 8.32061 13.858H8.29306ZM11.241 23.8866C11.241 23.7213 11.1859 23.556 11.1033 23.3631C11.0206 23.1703 10.938 22.9774 10.8553 22.8121C10.7727 22.6468 10.6625 22.4815 10.5798 22.3713C10.8002 22.2611 11.0482 22.0958 11.2961 21.8754C11.5441 21.655 11.6818 21.2968 11.6818 20.8009V1.37743H13.3625V22.3713C13.0869 22.4815 12.839 22.5917 12.6461 22.7295C12.4533 22.8672 12.2329 22.9774 12.0125 23.1152C11.792 23.2529 11.6267 23.3907 11.489 23.5285C11.3512 23.6662 11.2686 23.7764 11.2686 23.9142L11.241 23.8866ZM11.241 23.8866L11.0757 22.3438L11.9022 21.6825L17.7706 20.0019C17.7706 20.2499 17.7706 20.5254 17.8257 20.8009C17.8533 21.104 17.8808 21.3244 17.9359 21.5172C16.5584 21.958 15.4563 22.2887 14.6298 22.5642C13.8033 22.8397 13.1696 23.0325 12.7012 23.1978C12.2604 23.3631 11.9022 23.5009 11.7094 23.5836C11.489 23.6938 11.3237 23.7764 11.241 23.8591V23.8866ZM12.3982 6.19886H21.5727V7.65906H12.3982V6.19886ZM12.5084 1.37743H22.4543V12.6182H12.5084V11.0754H20.8012V2.92029H12.5084V1.37743ZM16.8614 11.6815C17.2471 13.1968 17.7706 14.657 18.4318 16.0346C19.0931 17.4121 19.8645 18.5968 20.8012 19.6162C21.7104 20.6356 22.7573 21.4621 23.9696 22.0407C23.8318 22.1509 23.6941 22.3162 23.5288 22.4815C23.3635 22.6468 23.2257 22.8397 23.088 23.005C22.9502 23.1978 22.84 23.3631 22.7574 23.5285C21.5451 22.8121 20.4706 21.9029 19.5063 20.7458C18.542 19.5887 17.7431 18.2662 17.0818 16.7785C16.3931 15.2907 15.8696 13.6927 15.4839 11.9846L16.889 11.6815H16.8614ZM22.4267 13.5274L23.5839 14.7121C22.8676 15.3182 22.0961 15.8968 21.2145 16.5029C20.3329 17.1091 19.5614 17.605 18.8451 18.0182L17.8808 16.9162C18.3492 16.6131 18.8451 16.2825 19.4237 15.9244C19.9747 15.5387 20.5257 15.1529 21.0492 14.7121C21.5727 14.2713 22.041 13.9131 22.4267 13.5274Z" fill="#416EB5"/>
<path d="M40.5823 5.70202L42.2078 6.30815C41.5466 7.38264 40.8027 8.45713 39.9486 9.53162C39.0945 10.6061 38.1853 11.5979 37.2761 12.5071C36.367 13.4163 35.4302 14.2704 34.521 14.9867C34.4384 14.8765 34.3282 14.7112 34.1629 14.5459C34.0251 14.353 33.8598 14.1877 33.7221 13.9949C33.5568 13.802 33.419 13.6643 33.2812 13.5541C34.1904 12.9204 35.0996 12.1765 35.9813 11.3224C36.8629 10.4684 37.717 9.55917 38.5159 8.59488C39.3149 7.6306 40.0037 6.66631 40.6098 5.67447L40.5823 5.70202ZM39.5353 0.191821L41.1884 0.853045C40.6374 1.59692 40.0037 2.3408 39.2598 3.11223C38.5159 3.88366 37.7445 4.62754 36.9455 5.31631C36.1466 6.00509 35.3476 6.63876 34.6037 7.16223C34.521 7.05202 34.4108 6.88672 34.3006 6.72141C34.1904 6.55611 34.0527 6.36325 33.9149 6.19794C33.7772 6.03264 33.667 5.89488 33.5568 5.78468C34.2731 5.28876 35.017 4.71019 35.7608 4.07651C36.5047 3.44284 37.221 2.78162 37.8823 2.09284C38.5435 1.40407 39.0945 0.742841 39.5353 0.136719V0.191821ZM37.6068 10.6888L39.1221 9.17345L39.3149 9.28366V23.8857H37.6068V10.6888ZM42.621 8.87039H57.168V10.5235H42.621V8.87039ZM43.7506 1.76223H56.4241V3.44284H43.7506V1.76223ZM51.4925 9.36631H53.2282V21.5163C53.2282 22.0673 53.1455 22.4806 52.9802 22.7837C52.8149 23.0867 52.5394 23.3071 52.1261 23.4449C51.7129 23.5551 51.1343 23.6377 50.3629 23.6653C49.5915 23.6928 48.5721 23.7204 47.3047 23.7204C47.2772 23.4724 47.1945 23.1969 47.0843 22.8939C46.9741 22.5633 46.8364 22.2877 46.6986 22.0398C47.3323 22.0398 47.9384 22.0673 48.4894 22.0949C49.068 22.0949 49.5363 22.0949 49.9496 22.0949C50.3629 22.0949 50.6384 22.0949 50.8037 22.0673C51.0517 22.0673 51.217 22.0122 51.3272 21.9296C51.4374 21.8469 51.4925 21.7092 51.4925 21.4888V9.36631Z" fill="#416EB5"/>
<path d="M72.816 8.70538L74.0834 9.22885C73.7528 10.1931 73.3671 11.2125 72.8987 12.2319C72.4303 13.2513 71.9069 14.2707 71.3558 15.2625C70.8048 16.2544 70.2263 17.1635 69.6201 18.0176C69.014 18.8717 68.4079 19.588 67.8293 20.1942C67.7742 20.0289 67.664 19.836 67.5538 19.6431C67.4436 19.4503 67.3058 19.2574 67.1956 19.0646C67.0854 18.8717 66.9752 18.7064 66.8926 18.5411C67.4711 18.0176 68.0222 17.3564 68.6283 16.6125C69.2069 15.8686 69.7854 15.0421 70.3089 14.1605C70.8599 13.2789 71.3283 12.3697 71.7691 11.4329C72.2099 10.4962 72.5681 9.58701 72.8711 8.70538H72.816ZM77.9956 0.357422L79.3181 1.67987C78.3538 2.06559 77.1967 2.3962 75.9018 2.72681C74.6069 3.05742 73.2569 3.33293 71.8518 3.58089C70.4467 3.82885 69.0967 4.02171 67.7742 4.18701C67.7467 3.99416 67.664 3.7462 67.5814 3.47069C67.4711 3.19518 67.3609 2.97477 67.2507 2.80946C68.215 2.67171 69.2069 2.5064 70.1987 2.3411C71.1905 2.17579 72.2099 1.95538 73.1467 1.76252C74.1109 1.56967 74.9926 1.32171 75.8467 1.1013C76.7007 0.880891 77.3895 0.605381 77.9956 0.357422ZM67.416 7.98905H79.6487V9.58701H67.416V7.98905ZM72.8987 2.28599H74.6069V23.7482H72.8987V2.28599ZM74.3589 11.3778C74.6069 11.5431 74.9926 11.8462 75.4609 12.2319C75.9293 12.6452 76.4528 13.0584 77.0038 13.5268C77.5548 13.9952 78.0507 14.436 78.5191 14.8493C78.9875 15.2625 79.3181 15.5656 79.5385 15.7309L78.5191 17.1635C78.2711 16.8605 77.913 16.5023 77.4722 16.0615C77.0314 15.6207 76.5354 15.1523 76.0395 14.6564C75.5436 14.1605 75.0477 13.7197 74.5793 13.2789C74.1109 12.8656 73.7252 12.535 73.4222 12.287L74.3865 11.3503L74.3589 11.3778ZM81.4671 3.25028H83.1477V17.4391H81.4671V3.25028ZM87.8313 0.660483H89.5395V21.4615C89.5395 22.0676 89.4569 22.536 89.2916 22.8391C89.1262 23.1421 88.8507 23.3625 88.4375 23.5278C88.0242 23.6656 87.4456 23.7482 86.7293 23.8033C86.013 23.8309 85.0487 23.8584 83.864 23.8309C83.864 23.6656 83.8089 23.5003 83.7262 23.2799C83.6436 23.0595 83.5609 22.8666 83.4783 22.6462C83.3956 22.4258 83.313 22.2605 83.2303 22.0952C84.1671 22.0952 84.9936 22.0952 85.7099 22.0952H87.1701C87.4181 22.0952 87.5834 22.0125 87.6936 21.9299C87.8038 21.8197 87.8589 21.6544 87.8589 21.434V0.660483H87.8313Z" fill="#416EB5"/>
<path d="M100.949 16.6133H124.009V18.2112H100.949V16.6133ZM101.115 13.1969C101.914 12.8388 102.905 12.398 104.035 11.8745C105.165 11.3235 106.322 10.7724 107.479 10.2214L107.837 11.5439C106.845 12.0949 105.826 12.6459 104.806 13.1694C103.787 13.6929 102.85 14.1888 101.996 14.602L101.115 13.2245V13.1969ZM101.418 2.5898H123.817V4.1602H101.418V2.5898ZM101.858 6.25408L103.043 5.2898C103.511 5.56531 103.98 5.86837 104.503 6.22653C104.999 6.55714 105.468 6.91531 105.908 7.24592C106.349 7.60408 106.707 7.90714 107.01 8.23776L105.771 9.28469C105.495 8.98163 105.137 8.65102 104.724 8.29286C104.283 7.93469 103.842 7.57653 103.346 7.19082C102.85 6.83265 102.354 6.50204 101.886 6.22653L101.858 6.25408ZM107.754 14.4092C107.754 14.4092 107.672 14.1337 107.617 13.9684C107.561 13.7755 107.506 13.6102 107.424 13.4173C107.369 13.2245 107.286 13.0316 107.231 12.8939C107.534 12.8388 107.837 12.701 108.195 12.4531C108.553 12.2327 108.911 11.9296 109.352 11.5714C109.6 11.3786 109.958 11.0755 110.399 10.6347C110.868 10.1939 111.391 9.69796 111.97 9.11939C112.548 8.54082 113.154 7.90714 113.76 7.21837C114.367 6.52959 114.973 5.84082 115.524 5.09694L116.929 5.92347C115.661 7.41123 114.339 8.78878 112.961 10.1112C111.584 11.4337 110.206 12.5908 108.829 13.5551V13.6102C108.608 13.6929 108.416 13.7755 108.278 13.8582C108.14 13.9408 108.002 14.0235 107.892 14.1061C107.782 14.1888 107.727 14.299 107.727 14.3816L107.754 14.4092ZM107.754 14.4092V13.1694L108.664 12.6184L116.571 11.9571C116.571 12.1776 116.571 12.4255 116.571 12.6735C116.571 12.9214 116.571 13.1418 116.626 13.3071C114.78 13.4724 113.292 13.6102 112.19 13.7204C111.088 13.8306 110.234 13.9133 109.628 13.9959C109.022 14.0786 108.608 14.1337 108.36 14.1888C108.112 14.2439 107.92 14.299 107.782 14.3816L107.754 14.4092ZM108.278 9.25714C108.278 9.25714 108.195 8.98163 108.14 8.78878C108.085 8.59592 108.03 8.40306 107.947 8.23776C107.865 8.07245 107.809 7.90714 107.754 7.76939C107.947 7.74184 108.14 7.65918 108.305 7.49388C108.498 7.35612 108.691 7.16327 108.911 6.94286C109.049 6.77755 109.27 6.50204 109.6 6.11633C109.931 5.70306 110.289 5.23469 110.675 4.68367C111.06 4.13265 111.391 3.58163 111.667 3.00306L113.182 3.60918C112.631 4.54592 112.025 5.42755 111.336 6.25408C110.647 7.08061 109.958 7.79694 109.297 8.40306V8.45816C109.077 8.56837 108.911 8.65102 108.774 8.73367C108.636 8.81633 108.526 8.89898 108.416 9.00918C108.305 9.11939 108.25 9.20204 108.25 9.28469L108.278 9.25714ZM108.278 9.25714V8.0449L109.159 7.52143L114.229 7.19082C114.174 7.38367 114.091 7.63163 114.036 7.93469C113.981 8.23776 113.926 8.45816 113.898 8.62347C112.769 8.70612 111.859 8.78878 111.171 8.84388C110.482 8.89898 109.958 8.95408 109.573 9.00918C109.187 9.06429 108.911 9.09184 108.719 9.14694C108.526 9.20204 108.388 9.25714 108.305 9.28469L108.278 9.25714ZM110.923 0.468367L112.576 0C112.906 0.440816 113.209 0.909184 113.54 1.43265C113.843 1.95612 114.091 2.42449 114.284 2.8102L112.548 3.38878C112.383 3.00306 112.162 2.53469 111.832 1.98367C111.501 1.43265 111.198 0.936735 110.923 0.495918V0.468367ZM111.556 14.4367H113.347V23.8041H111.556V14.4367ZM113.788 10.3592L115.083 9.80816C115.496 10.249 115.909 10.7449 116.295 11.2684C116.681 11.7918 117.067 12.2878 117.397 12.7837C117.728 13.2796 117.976 13.7204 118.169 14.1337L116.791 14.7673C116.626 14.3816 116.378 13.9133 116.047 13.3898C115.744 12.8663 115.386 12.3429 115 11.8194C114.615 11.2959 114.229 10.8 113.816 10.3592H113.788ZM117.039 11.2133L118.306 10.2765C118.885 10.6071 119.519 10.9929 120.152 11.4061C120.786 11.8469 121.42 12.2602 121.998 12.701C122.577 13.1418 123.073 13.5276 123.458 13.8582L122.136 14.8776C121.778 14.5194 121.309 14.1612 120.758 13.7204C120.207 13.2796 119.574 12.8663 118.94 12.398C118.279 11.9571 117.673 11.5439 117.067 11.1857L117.039 11.2133ZM120.979 5.23469L122.411 6.11633C121.833 6.72245 121.199 7.30102 120.483 7.87959C119.767 8.45816 119.133 8.98163 118.527 9.3949L117.259 8.54082C117.645 8.23775 118.086 7.90714 118.527 7.52143C118.995 7.13571 119.436 6.75 119.849 6.33673C120.29 5.92347 120.648 5.56531 120.951 5.20714L120.979 5.23469Z" fill="#416EB5"/>
<path d="M139.52 7.65863C139.024 7.65863 138.583 7.49333 138.225 7.16271C137.867 6.8321 137.674 6.39129 137.674 5.84027C137.674 5.26169 137.867 4.79333 138.225 4.46272C138.583 4.1321 139.024 3.9668 139.52 3.9668C140.016 3.9668 140.456 4.1321 140.815 4.46272C141.173 4.79333 141.366 5.23414 141.366 5.84027C141.366 6.39129 141.173 6.8321 140.815 7.16271C140.456 7.49333 140.016 7.65863 139.52 7.65863ZM139.52 20.3321C139.024 20.3321 138.583 20.1668 138.225 19.8362C137.867 19.5056 137.674 19.0372 137.674 18.4862C137.674 17.9352 137.867 17.4668 138.225 17.1362C138.583 16.8056 139.024 16.6403 139.52 16.6403C140.016 16.6403 140.456 16.8056 140.815 17.1362C141.173 17.4668 141.366 17.9352 141.366 18.4862C141.366 19.0372 141.173 19.5056 140.815 19.8362C140.456 20.1668 140.016 20.3321 139.52 20.3321Z" fill="#416EB5"/>
<path d="M154.837 21.7925V20.5527C156.71 18.6516 158.281 16.9986 159.576 15.5935C160.87 14.1608 161.862 12.8935 162.524 11.7639C163.185 10.6343 163.543 9.5598 163.543 8.54042C163.543 7.82409 163.405 7.19042 163.157 6.6394C162.909 6.08838 162.496 5.64756 161.972 5.3445C161.449 5.04144 160.76 4.87613 159.961 4.87613C159.162 4.87613 158.446 5.09654 157.785 5.50981C157.124 5.95062 156.517 6.47409 155.994 7.10776L154.727 5.89552C155.47 5.06899 156.297 4.40776 157.151 3.91185C158.033 3.41593 159.025 3.16797 160.209 3.16797C161.394 3.16797 162.303 3.38838 163.102 3.82919C163.901 4.27001 164.507 4.87613 164.948 5.67511C165.389 6.47409 165.609 7.41083 165.609 8.45776C165.609 9.61491 165.279 10.7996 164.645 11.9843C163.984 13.1965 163.075 14.4363 161.917 15.7588C160.76 17.0812 159.41 18.5414 157.922 20.1394C158.391 20.1118 158.914 20.0843 159.465 20.0292C160.016 20.0016 160.54 19.9741 161.008 19.9741H166.546V21.7649H154.864L154.837 21.7925Z" fill="#416EB5"/>
<path d="M179.028 22.1239C178.587 22.1239 178.229 21.9586 177.898 21.6556C177.567 21.3525 177.43 20.9392 177.43 20.4709C177.43 19.9474 177.595 19.5341 177.898 19.2311C178.201 18.928 178.587 18.7627 179.028 18.7627C179.468 18.7627 179.827 18.928 180.13 19.2311C180.433 19.5341 180.598 19.9474 180.598 20.4709C180.598 20.9392 180.433 21.3525 180.13 21.6556C179.827 21.9586 179.441 22.1239 179.028 22.1239Z" fill="#416EB5"/>
<path d="M197.842 22.1235C196.933 22.1235 196.106 21.9306 195.335 21.5725C194.563 21.2143 193.93 20.6633 193.351 19.9194C192.8 19.2031 192.359 18.2663 192.056 17.1643C191.753 16.0623 191.588 14.7949 191.588 13.3347C191.588 11.4888 191.781 9.89083 192.139 8.59593C192.497 7.30104 193.021 6.2541 193.682 5.42757C194.343 4.62859 195.059 4.02246 195.886 3.6643C196.712 3.30614 197.566 3.11328 198.476 3.11328C199.44 3.11328 200.266 3.27859 200.983 3.63675C201.699 3.99491 202.278 4.43573 202.774 4.98675L201.589 6.3092C201.231 5.86838 200.79 5.51022 200.239 5.26226C199.688 5.0143 199.137 4.87655 198.558 4.87655C197.677 4.87655 196.85 5.15206 196.079 5.67553C195.307 6.199 194.729 7.08063 194.26 8.32042C193.792 9.53267 193.572 11.2133 193.572 13.3347C193.572 14.85 193.737 16.1174 194.04 17.1919C194.371 18.2388 194.839 19.0653 195.473 19.6163C196.106 20.1674 196.878 20.4429 197.787 20.4429C198.421 20.4429 198.999 20.2776 199.495 19.9194C199.991 19.5612 200.404 19.0653 200.68 18.4592C200.983 17.8255 201.121 17.1092 201.121 16.3102C201.121 15.5112 200.983 14.7398 200.735 14.1337C200.487 13.5276 200.074 13.0592 199.55 12.7286C199.027 12.398 198.365 12.2327 197.566 12.2327C196.96 12.2327 196.272 12.4255 195.555 12.8388C194.839 13.2521 194.123 13.9408 193.434 14.9051L193.379 13.1419C193.792 12.6184 194.233 12.1776 194.729 11.7919C195.225 11.4061 195.721 11.1306 196.272 10.9102C196.823 10.7174 197.346 10.6072 197.87 10.6072C198.944 10.6072 199.853 10.8276 200.625 11.2408C201.396 11.6541 202.002 12.2878 202.443 13.1419C202.884 13.9959 203.077 15.0153 203.077 16.2827C203.077 17.4398 202.829 18.4592 202.333 19.3133C201.837 20.1949 201.203 20.8837 200.404 21.3521C199.605 21.8204 198.724 22.0959 197.732 22.0959L197.842 22.1235Z" fill="#416EB5"/>
<path d="M217.323 14.4643C216.469 14.4643 215.725 14.2439 215.091 13.748C214.458 13.2796 213.962 12.5909 213.604 11.7092C213.273 10.8276 213.08 9.75311 213.08 8.48576C213.08 7.21841 213.245 6.14393 213.604 5.28984C213.962 4.43576 214.43 3.74699 215.091 3.27862C215.725 2.81025 216.469 2.58984 217.323 2.58984C218.177 2.58984 218.921 2.81025 219.555 3.27862C220.188 3.74699 220.684 4.40821 221.015 5.28984C221.345 6.14393 221.538 7.21841 221.538 8.48576C221.538 9.75311 221.373 10.8276 221.015 11.7092C220.657 12.5909 220.188 13.2796 219.555 13.748C218.921 14.2164 218.177 14.4643 217.323 14.4643ZM217.323 13.1694C218.094 13.1694 218.728 12.7837 219.196 11.9847C219.665 11.1858 219.913 10.0286 219.913 8.51331C219.913 6.99801 219.665 5.84086 219.196 5.06944C218.728 4.29801 218.094 3.91229 217.323 3.91229C216.552 3.91229 215.918 4.29801 215.449 5.06944C214.981 5.84086 214.733 6.97046 214.733 8.51331C214.733 10.0562 214.981 11.2133 215.449 11.9847C215.918 12.7562 216.552 13.1694 217.323 13.1694ZM217.846 22.1235L228.288 2.58984H229.776L219.334 22.1235H217.846ZM230.355 22.1235C229.5 22.1235 228.757 21.9031 228.123 21.4347C227.489 20.9664 227.021 20.3051 226.663 19.396C226.305 18.5143 226.139 17.4123 226.139 16.1449C226.139 14.8776 226.305 13.8307 226.663 12.949C227.021 12.0674 227.517 11.4062 228.123 10.9378C228.757 10.4694 229.5 10.249 230.355 10.249C231.209 10.249 231.925 10.4694 232.559 10.9378C233.192 11.4062 233.688 12.0674 234.046 12.949C234.405 13.8307 234.57 14.8776 234.57 16.1449C234.57 17.4123 234.405 18.4868 234.046 19.396C233.688 20.2776 233.192 20.9664 232.559 21.4347C231.925 21.9031 231.181 22.1235 230.355 22.1235ZM230.355 20.8011C231.126 20.8011 231.76 20.4154 232.228 19.6164C232.696 18.8174 232.944 17.6603 232.944 16.1449C232.944 14.6296 232.696 13.4725 232.228 12.7286C231.76 11.9847 231.126 11.599 230.355 11.599C229.583 11.599 228.922 11.9847 228.454 12.7286C227.985 13.4725 227.737 14.6296 227.737 16.1449C227.737 17.6603 227.985 18.8449 228.454 19.6164C228.922 20.3878 229.583 20.8011 230.355 20.8011Z" fill="#416EB5"/>
<path d="M292.345 0.110352L293.888 0.688923C293.227 1.4879 292.455 2.23178 291.546 2.97566C290.637 3.71954 289.728 4.38076 288.764 5.01443C287.799 5.64811 286.862 6.19913 285.926 6.63994C285.871 6.52974 285.733 6.41954 285.568 6.25423C285.402 6.08892 285.237 5.95117 285.072 5.78586C284.906 5.62056 284.769 5.51035 284.631 5.4277C285.595 5.01443 286.559 4.54607 287.496 3.96749C288.433 3.41647 289.315 2.81035 290.141 2.14913C290.968 1.4879 291.684 0.799127 292.318 0.110352H292.345ZM292.786 20.0573L294.356 20.7736C293.64 21.1869 292.841 21.5726 291.959 21.9859C291.05 22.3716 290.141 22.7297 289.177 23.0604C288.212 23.391 287.331 23.6665 286.449 23.8869C286.367 23.7767 286.256 23.6114 286.091 23.4461C285.926 23.2808 285.788 23.1155 285.623 22.9501C285.457 22.7848 285.32 22.6471 285.182 22.5644C286.064 22.3716 287 22.1512 287.937 21.9032C288.874 21.6553 289.755 21.3522 290.609 21.0491C291.464 20.7461 292.18 20.4155 292.814 20.0848L292.786 20.0573ZM288.488 9.31239H305.184V19.6991H288.488V9.31239ZM289.673 3.55423L290.94 2.31443L291.353 2.45219V8.59607H289.673V3.58178V3.55423ZM290.169 10.4971V12.3706H303.448V10.4971H290.169ZM290.169 13.5553V15.4287H303.448V13.5553H290.169ZM290.169 16.5859V18.5144H303.448V16.5859H290.169ZM292.538 3.71954L307.664 2.81035L307.829 4.1879L292.676 5.12464L292.538 3.74709V3.71954ZM296.175 0.193005H297.8C297.966 1.26749 298.324 2.23178 298.875 3.14096C299.426 4.0226 300.115 4.79403 300.886 5.45525C301.657 6.08892 302.484 6.58484 303.338 6.94301C304.192 7.30117 304.991 7.46647 305.735 7.43892C306.093 7.43892 306.341 7.27362 306.479 6.99811C306.617 6.7226 306.699 6.19913 306.727 5.45525C306.92 5.59301 307.14 5.73076 307.388 5.84096C307.636 5.95117 307.884 6.06137 308.104 6.11647C308.022 6.86035 307.884 7.46647 307.691 7.87974C307.498 8.293 307.25 8.56852 306.92 8.73382C306.589 8.89913 306.176 8.95423 305.68 8.95423C304.908 8.95423 304.109 8.81647 303.283 8.56851C302.456 8.293 301.657 7.90729 300.858 7.38382C300.087 6.86035 299.343 6.25423 298.682 5.5379C298.021 4.82158 297.47 4.0226 297.029 3.11341C296.588 2.20423 296.285 1.23994 296.147 0.193005H296.175ZM298.93 21.0491L300.307 20.1399C301.244 20.443 302.208 20.7461 303.173 21.0491C304.137 21.3522 305.046 21.6828 305.9 22.0134C306.754 22.344 307.498 22.6471 308.104 22.9226L306.231 23.8318C305.68 23.5563 305.019 23.2532 304.22 22.9501C303.448 22.6471 302.594 22.3165 301.685 21.9859C300.776 21.6553 299.839 21.3246 298.902 21.0491H298.93ZM300.335 1.10219L301.189 0.193005C301.685 0.275658 302.236 0.413413 302.787 0.578719C303.338 0.744025 303.917 0.936882 304.412 1.12974C304.936 1.3226 305.349 1.51545 305.707 1.70831L304.798 2.75525C304.468 2.56239 304.054 2.34198 303.558 2.14913C303.062 1.95627 302.511 1.76341 301.96 1.57056C301.382 1.3777 300.858 1.21239 300.335 1.07464V1.10219Z" fill="#416EB5"/>
<path d="M320.557 16.1439L322.017 16.502C321.687 17.4388 321.273 18.4306 320.833 19.4224C320.392 20.4418 319.951 21.2959 319.538 22.0398C319.372 21.9296 319.152 21.8194 318.876 21.6816C318.573 21.5439 318.353 21.4337 318.16 21.351C318.601 20.6347 319.042 19.8357 319.483 18.899C319.923 17.9622 320.282 17.053 320.585 16.1439H320.557ZM318.298 13.6918H330.723V15.152H318.298V13.6918ZM318.601 2.72651H330.448V4.18672H318.601V2.72651ZM319.207 6.55611H329.952V8.04386H319.207V6.55611ZM319.483 10.1102H329.594V11.5704H319.483V10.1102ZM323.698 0.274474H325.323V7.52039H323.698V0.274474ZM323.725 14.2704H325.351V23.803H323.725V14.2704ZM326.976 16.6949L328.299 16.1439C328.547 16.5847 328.822 17.0255 329.098 17.5214C329.373 18.0173 329.621 18.4857 329.842 18.9541C330.062 19.4224 330.255 19.8357 330.393 20.1663L329.015 20.8275C328.877 20.4694 328.712 20.0561 328.492 19.5877C328.271 19.1194 328.051 18.6235 327.803 18.1C327.555 17.5765 327.307 17.1081 327.032 16.6673L326.976 16.6949ZM332.762 0.191821L334.443 0.412229C334.25 1.89998 333.974 3.33264 333.671 4.71019C333.341 6.08774 332.983 7.41019 332.542 8.59488C332.101 9.80713 331.605 10.8816 331.054 11.8183C330.944 11.7081 330.806 11.5979 330.641 11.4602C330.475 11.3224 330.283 11.2122 330.09 11.102C329.897 10.9918 329.732 10.8816 329.594 10.799C330.145 9.94488 330.613 8.95304 331.026 7.7959C331.44 6.66631 331.798 5.45407 332.073 4.13162C332.349 2.83672 332.597 1.48672 332.762 0.136719V0.191821ZM334.746 8.42958H336.399V9.64182C336.399 10.6337 336.344 11.7357 336.234 12.8928C336.123 14.0775 335.903 15.2898 335.572 16.5296C335.214 17.7969 334.691 19.0367 333.974 20.2765C333.258 21.5163 332.294 22.701 331.054 23.803C330.944 23.6928 330.834 23.5551 330.696 23.4173C330.558 23.2796 330.393 23.1418 330.227 23.0041C330.062 22.8663 329.897 22.7837 329.759 22.6735C330.916 21.599 331.853 20.4969 332.514 19.3673C333.203 18.2377 333.699 17.0806 334.002 15.9235C334.305 14.7663 334.525 13.6367 334.608 12.5622C334.691 11.4877 334.746 10.4959 334.746 9.61427V8.42958ZM332.542 4.87549H340.421V6.47345H332.542V4.87549ZM336.261 11.5704C336.564 13.1683 336.95 14.6837 337.473 16.1163C337.997 17.549 338.631 18.7888 339.43 19.8632C340.229 20.9377 341.138 21.7918 342.212 22.3704C342.102 22.4806 341.964 22.6184 341.799 22.7837C341.634 22.949 341.496 23.1143 341.386 23.2796C341.248 23.4449 341.138 23.6102 341.027 23.7755C339.925 23.0867 338.961 22.15 338.135 20.9653C337.336 19.7806 336.674 18.403 336.151 16.8326C335.627 15.2898 335.214 13.6092 334.884 11.8459L336.261 11.5704ZM339.981 4.87549H340.229L340.532 4.79284L341.661 5.151C341.496 5.92243 341.331 6.69386 341.11 7.49284C340.89 8.29182 340.669 9.0908 340.449 9.83468C340.229 10.5786 339.981 11.2398 339.733 11.7908L338.328 11.35C338.52 10.8265 338.741 10.2204 338.934 9.53162C339.126 8.84284 339.319 8.09896 339.512 7.35509C339.678 6.61121 339.843 5.89488 339.981 5.23366V4.90305V4.87549Z" fill="#416EB5"/>
<path d="M351.992 16.1175H375.245V17.7706H351.992V16.1175ZM357.998 0.110352L359.762 0.578719C359.293 1.81851 358.715 3.05831 358.053 4.243C357.392 5.4277 356.703 6.52974 355.932 7.54913C355.161 8.56852 354.389 9.4777 353.59 10.2491C353.48 10.1389 353.315 10.0287 353.149 9.89096C352.956 9.75321 352.791 9.61545 352.598 9.4777C352.405 9.33994 352.24 9.22974 352.075 9.14709C352.929 8.43076 353.7 7.60423 354.444 6.63994C355.188 5.70321 355.849 4.65627 356.455 3.55423C357.062 2.42464 357.585 1.29505 357.998 0.137903V0.110352ZM356.263 9.14709H373.482V10.7726H357.971V16.9991H356.235V9.14709H356.263ZM357.42 3.36137H374.088V5.04198H356.593L357.42 3.36137ZM364.004 4.21545H365.768V23.8318H364.004V4.21545Z" fill="#416EB5"/>
<path d="M386.65 1.2682H392.822V2.83861H388.193V23.7774H386.65V1.2682ZM392.519 1.2682H392.822L393.07 1.18555L394.199 1.87432C393.814 2.92126 393.373 4.05085 392.932 5.23555C392.464 6.42024 392.023 7.52228 391.582 8.56922C392.546 9.67126 393.18 10.6906 393.511 11.6274C393.841 12.5641 393.979 13.4458 393.979 14.2447C393.979 14.906 393.896 15.5121 393.759 16.0355C393.621 16.559 393.345 16.9447 392.987 17.2202C392.822 17.3304 392.601 17.4407 392.381 17.5233C392.161 17.606 391.913 17.6611 391.665 17.6886C391.389 17.6886 391.114 17.6886 390.811 17.6886H389.929C389.929 17.4958 389.874 17.2202 389.791 16.9172C389.709 16.6141 389.598 16.3662 389.461 16.1182C389.764 16.1182 390.067 16.1458 390.315 16.1458C390.59 16.1458 390.838 16.1458 391.059 16.1458C391.389 16.1458 391.665 16.0631 391.885 15.9253C392.106 15.7876 392.243 15.5396 392.326 15.209C392.409 14.8509 392.436 14.4927 392.436 14.107C392.436 13.3906 392.271 12.5917 391.94 11.6825C391.61 10.8009 390.976 9.80902 390.012 8.76208C390.26 8.15596 390.508 7.54983 390.756 6.91616C391.003 6.28249 391.224 5.64881 391.444 5.04269C391.665 4.43657 391.858 3.83044 392.05 3.25187C392.243 2.6733 392.409 2.17738 392.546 1.73657V1.2682H392.519ZM395.494 23.8049C395.494 23.8049 395.384 23.5019 395.301 23.3366C395.219 23.1713 395.109 22.9784 394.998 22.7855C394.888 22.5927 394.806 22.4549 394.723 22.3447C394.916 22.2345 395.109 22.0417 395.329 21.7662C395.522 21.4907 395.632 21.1049 395.632 20.5815V1.3784H397.34V22.0692C397.092 22.2345 396.899 22.3998 396.707 22.51C396.514 22.6202 396.348 22.7855 396.155 22.9233C395.963 23.0611 395.797 23.2264 395.687 23.3641C395.577 23.5019 395.494 23.6672 395.494 23.8049ZM395.494 23.8049L395.357 22.2621L396.238 21.6009L402.024 20.1682C402.024 20.4162 402.024 20.6917 402.024 20.9672C402.024 21.2702 402.051 21.5182 402.079 21.7386C400.729 22.0968 399.654 22.3998 398.856 22.6202C398.029 22.8407 397.395 23.0335 396.954 23.1988C396.486 23.3366 396.156 23.4468 395.963 23.557C395.77 23.6672 395.604 23.7223 395.467 23.8049H395.494ZM396.514 1.3784H406.9V12.5917H396.514V11.0764H405.22V2.89371H396.514V1.3784ZM396.624 6.19983H406.129V7.66004H396.624V6.19983ZM401.252 11.6825C401.638 13.308 402.162 14.8233 402.85 16.2009C403.539 17.5784 404.393 18.7631 405.44 19.7825C406.46 20.8019 407.644 21.5733 409.022 22.1243C408.912 22.2345 408.774 22.3998 408.609 22.5651C408.443 22.758 408.306 22.9233 408.195 23.1162C408.085 23.309 407.947 23.4743 407.837 23.6396C406.432 22.9784 405.192 22.0692 404.145 20.9396C403.098 19.81 402.217 18.4876 401.5 16.9723C400.784 15.457 400.233 13.7764 399.82 11.958L401.252 11.6825ZM407.314 13.5284L408.443 14.7131C407.947 15.1264 407.396 15.5396 406.79 15.9804C406.184 16.4213 405.578 16.807 404.999 17.1927C404.393 17.5784 403.842 17.909 403.291 18.1845L402.327 17.0825C402.85 16.7794 403.401 16.4488 404.008 16.0355C404.614 15.6223 405.22 15.209 405.798 14.7682C406.377 14.3274 406.873 13.9141 407.286 13.5284H407.314Z" fill="#416EB5"/>
<path d="M424.147 7.65863C423.651 7.65863 423.21 7.49333 422.852 7.16271C422.494 6.8321 422.301 6.39129 422.301 5.84027C422.301 5.26169 422.494 4.79333 422.852 4.46272C423.21 4.1321 423.651 3.9668 424.147 3.9668C424.643 3.9668 425.083 4.1321 425.442 4.46272C425.8 4.79333 425.993 5.23414 425.993 5.84027C425.993 6.39129 425.8 6.8321 425.442 7.16271C425.083 7.49333 424.643 7.65863 424.147 7.65863ZM424.147 20.3321C423.651 20.3321 423.21 20.1668 422.852 19.8362C422.494 19.5056 422.301 19.0372 422.301 18.4862C422.301 17.9352 422.494 17.4668 422.852 17.1362C423.21 16.8056 423.651 16.6403 424.147 16.6403C424.643 16.6403 425.083 16.8056 425.442 17.1362C425.8 17.4668 425.993 17.9352 425.993 18.4862C425.993 19.0372 425.8 19.5056 425.442 19.8362C425.083 20.1668 424.643 20.3321 424.147 20.3321Z" fill="#416EB5"/>
<path d="M445.029 22.1238C444.065 22.1238 443.183 22.0136 442.439 21.7657C441.695 21.5177 441.062 21.2147 440.511 20.8014C439.96 20.3881 439.491 19.9749 439.078 19.5616L440.153 18.184C440.731 18.7626 441.365 19.2585 442.136 19.7269C442.88 20.1677 443.817 20.4157 444.919 20.4157C445.69 20.4157 446.379 20.2779 446.958 19.9749C447.536 19.6718 448.005 19.2861 448.335 18.7626C448.666 18.2391 448.831 17.6055 448.831 16.8891C448.831 16.1453 448.638 15.484 448.253 14.9055C447.867 14.3269 447.233 13.8861 446.352 13.583C445.47 13.28 444.313 13.1147 442.853 13.1147V11.4616C444.175 11.4616 445.222 11.2963 445.993 10.9932C446.765 10.6626 447.316 10.2494 447.646 9.69833C447.977 9.14731 448.142 8.54119 448.142 7.87996C448.142 6.94323 447.839 6.2269 447.261 5.67588C446.682 5.12486 445.856 4.8769 444.864 4.8769C444.092 4.8769 443.376 5.06976 442.687 5.42792C442.026 5.78609 441.42 6.25445 440.897 6.80547L439.767 5.45547C440.456 4.79425 441.227 4.27078 442.054 3.82996C442.908 3.38915 443.844 3.19629 444.947 3.19629C446.049 3.19629 446.903 3.3616 447.702 3.71976C448.501 4.07792 449.134 4.60139 449.603 5.29017C450.071 5.97894 450.291 6.80547 450.291 7.79731C450.291 8.9269 449.988 9.83609 449.355 10.5524C448.749 11.2687 447.922 11.8198 446.903 12.1779V12.3157C447.647 12.481 448.308 12.784 448.914 13.1973C449.52 13.6106 450.016 14.134 450.374 14.7677C450.732 15.4014 450.925 16.1453 450.925 16.9994C450.925 18.0738 450.65 19.0106 450.126 19.782C449.575 20.5534 448.859 21.1596 447.977 21.5728C447.096 21.9861 446.076 22.2065 444.974 22.2065L445.029 22.1238Z" fill="#416EB5"/>
<path d="M467.266 22.1243C466.054 22.1243 465.035 21.7661 464.153 21.0222C463.271 20.2783 462.61 19.2038 462.169 17.7712C461.701 16.3385 461.48 14.6028 461.48 12.5641C461.48 10.5253 461.701 8.78956 462.169 7.41201C462.61 6.00691 463.271 4.95997 464.153 4.21609C465.007 3.49976 466.054 3.1416 467.266 3.1416C468.478 3.1416 469.498 3.49976 470.379 4.21609C471.234 4.93242 471.895 6.00691 472.363 7.41201C472.831 8.81711 473.052 10.5253 473.052 12.5641C473.052 14.6028 472.831 16.3385 472.363 17.7712C471.895 19.2038 471.234 20.2783 470.379 21.0222C469.525 21.7661 468.478 22.1243 467.266 22.1243ZM467.266 20.4161C468.01 20.4161 468.671 20.1406 469.222 19.5896C469.801 19.0385 470.242 18.1845 470.545 16.9998C470.848 15.8426 471.013 14.3549 471.013 12.5641C471.013 10.7732 470.848 9.28548 470.545 8.15589C470.242 7.0263 469.801 6.17221 469.222 5.64874C468.671 5.12527 468.01 4.84976 467.266 4.84976C466.522 4.84976 465.889 5.12527 465.31 5.64874C464.731 6.17221 464.291 7.0263 463.988 8.15589C463.657 9.28548 463.519 10.7732 463.519 12.5641C463.519 14.3549 463.685 15.8426 463.988 16.9998C464.291 18.1569 464.759 19.011 465.31 19.5896C465.861 20.1406 466.522 20.4161 467.266 20.4161Z" fill="#416EB5"/>
<path d="M483.301 16.1175H506.554V17.7706H483.301V16.1175ZM489.307 0.110352L491.07 0.578719C490.602 1.81851 490.023 3.05831 489.362 4.243C488.701 5.4277 488.012 6.52974 487.241 7.54913C486.469 8.56852 485.698 9.4777 484.899 10.2491C484.789 10.1389 484.623 10.0287 484.458 9.89096C484.265 9.75321 484.1 9.61545 483.907 9.4777C483.714 9.33994 483.549 9.22974 483.383 9.14709C484.238 8.43076 485.009 7.60423 485.753 6.63994C486.497 5.70321 487.158 4.65627 487.764 3.55423C488.37 2.42464 488.894 1.29505 489.307 0.137903V0.110352ZM487.571 9.14709H504.791V10.7726H489.279V16.9991H487.544V9.14709H487.571ZM488.728 3.36137H505.397V5.04198H487.902L488.728 3.36137ZM495.341 4.21545H497.104V23.8318H495.341V4.21545Z" fill="#416EB5"/>
</g>
<defs>
<clipPath id="clip0_2028_910">
<rect width="506.553" height="23.8867" fill="white"/>
</clipPath>
</defs>
</svg>
